<?xml version="1.0" encoding="UTF-8"?>
<!DOCTYPE svg PUBLIC "-//W3C//DTD SVG 1.1//EN" "http://www.w3.org/Graphics/SVG/1.1/DTD/svg11.dtd">
<!-- Creator: CorelDRAW 2021 (64-Bit) -->
<svg xmlns="http://www.w3.org/2000/svg" xml:space="preserve" width="43.9731mm" height="28.3912mm" version="1.1" style="shape-rendering:geometricPrecision; text-rendering:geometricPrecision; image-rendering:optimizeQuality; fill-rule:evenodd; clip-rule:evenodd"
viewBox="0 0 2337.69 1509.33"
 xmlns:xlink="http://www.w3.org/1999/xlink"
 xmlns:xodm="http://www.corel.com/coreldraw/odm/2003">
 <defs>
  <style type="text/css">
   <![CDATA[
    .fil0 {fill:#BDBFC1}
   ]]>
  </style>
 </defs>
 <g id="Capa_x0020_1">
  <metadata id="CorelCorpID_0Corel-Layer"/>
  <g id="_2453447614416">
   <path class="fil0" d="M334.16 1032.52c-76.2,0 -136.21,-28.78 -136.21,-105.45 0,-131.5 200.07,-108.63 307.24,-100.73 15.55,1.14 75.02,1.9 75.02,21.65 0,127.01 -116.89,184.54 -246.05,184.54zm-263.62 -659.06l0 166.96c28.65,-0.64 131.58,-39.54 298.77,-39.54 57.36,0 126.56,10.38 162.52,30.8 54.13,30.75 52.77,58.79 52.77,140.55 -79.75,-6.63 -87.03,-17.57 -197.71,-17.57 -132.62,0 -281.76,25.73 -349.63,129.28 -47.97,73.18 -48.79,209.01 -7.23,280.3 106.84,183.25 427.34,158.32 585.33,82.51 37.78,56.42 112.16,57.12 180.14,57.12 10.12,0 13.18,-3.06 13.18,-13.18l0 -597.54c0,-96.81 -62.58,-177.59 -143.4,-216.88 -130.22,-63.32 -310.17,-63.04 -462.74,-42.15 -23.31,3.2 -46.82,8.14 -69.65,13.83 -33.42,8.32 -62.35,8.66 -62.35,25.52z"/>
   <path class="fil0" d="M1546.82 742.54c0,154.9 33.76,279.58 115.28,354.85 89.63,82.76 240.19,106.49 368.03,106.49 76.02,0 164.61,-20.64 232.88,-39.53 24.35,-6.74 46.28,-16.39 70.29,-21.98 0,-83.13 -62.03,-131.81 -144.99,-131.81 -63.36,0 -106.63,17.58 -166.96,17.58 -80.92,0 -135.66,2.25 -194.69,-77.72 -57.81,-78.31 -65.56,-251.19 -36.65,-338.16 46.11,-138.73 219.23,-117.12 343.7,-96.31l133.69 24.49 0 -175.75c-85.07,-19.82 -176.62,-43.94 -281.19,-43.94 -166.11,0 -302.22,42.59 -377.06,158.98 -15.27,23.75 -24.32,45.68 -34.32,75.53 -16.89,50.45 -28,122.23 -28,187.29z"/>
   <path class="fil0" d="M905.34 1076.46c0,77.89 80.27,127.41 166.96,127.41 40.26,0 57.12,5.57 57.12,-13.18l0 -1190.7 -224.08 0 0 1076.46z"/>
   <path class="fil0" d="M1226.08 1190.7c0,19.14 18.62,13.18 61.51,13.18 85.29,0 162.56,-52.25 162.56,-136.2l0 -786.48 -224.08 0 0 909.5z"/>
   <path class="fil0" d="M1226.08 175.75c0,10.13 3.06,13.18 13.18,13.18l197.72 0c18.35,0 13.18,-15.25 13.18,-52.73 0,-83.63 -73.96,-136.21 -158.17,-136.21l-65.9 0 0 175.75z"/>
   <path class="fil0" d="M1639.09 1463.11c30.97,-2.58 14.17,-23.83 27.36,-78.09 7.39,-30.42 56.12,-49.89 56.12,-5.39 0,34.89 -8.79,50.6 -8.79,83.48 30.98,-2.58 14.17,-23.83 27.36,-78.09 7.39,-30.42 56.12,-49.89 56.12,-5.39 0,34.89 -8.79,50.6 -8.79,83.48 24.27,-2.02 17.06,-11.92 20.78,-36.34 20.38,-133.8 -47.85,-75.96 -73.5,-69.11 -4.46,-16.69 -11.55,-17.58 -30.76,-17.58 -27.29,0 -32.7,28.03 -35.15,0l-13.18 0 -17.58 123.03z"/>
   <path class="fil0" d="M1133.81 1463.11l17.58 0c0.63,-28.32 5.4,-99.91 37.71,-107.75 16.4,-3.98 22.66,4.44 32.59,11.09 0,33.74 -10.54,65.01 -13.18,96.66l17.58 0c0.51,-22.94 5.54,-87.28 29.22,-102.89 14.66,-9.68 19.39,-4 36.69,-2.56 8.32,35.72 -5.7,68.44 -8.79,105.45l17.58 0c1.03,-45.97 38.14,-123.03 -26.36,-123.03 -22.06,0 -25.49,12.56 -39.54,21.97 -8.46,-31.7 -41.24,-25.31 -65.9,-8.79 -3.54,-13.24 0.05,-9.65 -13.18,-13.18l-21.97 123.03z"/>
   <path class="fil0" d="M496.72 1449.92c-46.33,0 -22.17,-76.04 -5.12,-88.84 21.21,-15.93 34.35,-0.1 49.06,9.76 -8.11,34.81 -1.02,79.08 -43.94,79.08zm-43.93 -30.75c0,69.07 69.94,36.26 74.69,35.15 -2.29,27.43 -13.25,39.54 -39.54,39.54 -25.62,0 -28.7,-15.39 -35.15,8.79 26.61,6.2 37.29,11.11 61.7,0.31 34.74,-15.37 32.61,-70.3 40.66,-122.1 3.96,-25.46 11.31,-47.65 -3.32,-38.51 -11.28,7.05 -5.22,-3.45 -6.77,15.3 -9.91,-6.64 -47.82,-41.13 -77.44,6.04 -6.72,10.7 -14.83,39.55 -14.83,55.47z"/>
   <path class="fil0" d="M672.48 1449.92c-32.57,0 -19.56,-27.04 -12.46,-34.14 13.1,-13.1 32.28,-9.79 56.39,-9.79 -2.13,25.6 -15.96,43.93 -43.93,43.93zm-21.97 -70.3l13.18 0c9.91,-37.12 57.12,-29.7 57.12,-8.79l0 21.97c-28.43,0 -68.73,-5.24 -83.38,26.96 -6.53,14.35 -4.42,43.34 30.66,43.34 27.22,0 28.7,-7.37 43.94,-17.58l0 17.58 13.18 0c3.71,-7.72 8.27,-57.19 11,-72.85 12.5,-71.67 -84.56,-61.56 -85.7,-10.63z"/>
   <path class="fil0" d="M83.71 1388.42l-61.51 0c4,-17.17 12.8,-30.64 32.34,-33.72 23.6,-3.71 29.17,9.65 29.17,33.72zm-83.48 21.97c0,78.63 86.08,52.58 86.09,34.83 0.02,-25.65 -68.51,48.49 -68.51,-39.22 90.89,0 83.48,6.94 83.48,-26.36 0,-59.84 -101.06,-53.13 -101.06,30.75z"/>
   <path class="fil0" d="M312.19 1353.27c10.06,0 5.11,1.49 17.58,4.39 3.01,12.93 4.4,13.41 4.4,30.76l-61.51 0c5.61,-24.07 26.05,-35.15 39.54,-35.15zm-61.51 57.12c0,78.63 86.07,52.58 86.09,34.83 0.02,-25.65 -68.51,48.49 -68.51,-39.22 90.89,0 83.48,6.94 83.48,-26.36 0,-61.61 -101.06,-51.75 -101.06,30.75z"/>
   <path class="fil0" d="M909.73 1375.23l0 13.18 -61.51 0c10.69,-45.9 61.51,-40.07 61.51,-13.18zm-83.48 30.76c0,40.2 6.52,57.12 52.73,57.12 9.26,0 17.15,-2.66 24.29,-6.96 17.49,-10.53 9.05,-17.36 0.1,-15.24 -6.66,1.57 -47.02,27.05 -61,-12.5 -4.63,-13.08 -4.52,-20.67 14.09,-22.76 29.68,-3.33 70.85,12.26 70.85,-21.63 0,-68.54 -101.06,-53.85 -101.06,21.97z"/>
   <path class="fil0" d="M1920.29 1388.42c7.92,-14.98 17.34,-35.15 39.54,-35.15 19.14,0 30.79,22.9 22.47,31.22 -9.19,9.19 -45.92,3.93 -62.01,3.93zm-21.97 26.36c0,59.97 84.41,63.6 87.88,21.97 -22.35,5.96 -70.3,41.15 -70.3,-30.75 93.1,0 83.48,7.72 83.48,-30.76 0,-39.92 -51.84,-49.87 -82.4,-12.1 -8.73,10.79 -18.65,34.03 -18.65,51.65z"/>
   <path class="fil0" d="M2280.57 1449.92c-62.75,0 -33.07,-96.66 8.79,-96.66 51.4,0 31.29,96.66 -8.79,96.66zm-52.73 -30.75c0,64.89 109.84,62.17 109.84,-30.75 0,-51.78 -63.65,-65.87 -94.36,-24.06 -10.49,14.29 -15.48,31.92 -15.48,54.82z"/>
   <path class="fil0" d="M1384.25 1449.92c-49.63,0 -31.54,-96.66 17.58,-96.66 41.88,0 34.65,96.66 -17.58,96.66zm-4.39 13.18c53.17,0 65.9,-34.28 65.9,-83.48 0,-28.12 -21.46,-39.55 -48.33,-39.55 -64.1,0 -84.67,123.03 -17.58,123.03z"/>
   <path class="fil0" d="M2021.34 1463.11l13.18 0c5.09,-21.85 7.62,-63.53 14.24,-82.42 9.65,-27.54 56.06,-40.62 56.06,-5.45 0,35.92 -8.79,57.33 -8.79,87.88 22.85,-1.9 18.3,-11.88 21.33,-35.78 4.87,-38.37 17.7,-87.24 -25.73,-87.24 -21.01,0 -27.29,4.98 -39.54,13.18 -3.54,-13.24 0.05,-9.65 -13.18,-13.18 -6,12.5 -17.58,100.73 -17.58,123.03z"/>
   <path class="fil0" d="M118.86 1463.11l17.58 0c3.2,-143.62 70.3,-113.17 70.3,-92.27 0,37.23 -8.79,53.19 -8.79,92.27l13.18 0c13.44,-57.68 31.88,-123.03 -26.36,-123.03 -19.96,0 -22.91,9.39 -35.15,17.58 3.22,-15.18 8.38,-12.99 -8.79,-17.58 -7.34,15.31 -20.02,99.55 -21.97,123.03z"/>
   <path class="fil0" d="M944.88 1463.11l17.58 0c0,-19.55 5.4,-60.02 9.79,-78.09 8,-32.92 26.78,-29.8 56.12,-27.36 8.33,35.72 -5.7,68.44 -8.79,105.45l17.58 0c1.05,-47.28 39.74,-123.03 -26.36,-123.03 -29.82,0 -18.43,20.19 -39.11,4.12 -21.11,-16.4 19.26,5.6 -4.83,-4.12 -10.46,19.77 -8.98,32.34 -13.18,57.12 -3.14,18.54 -8.79,46.11 -8.79,65.91z"/>
   <path class="fil0" d="M1498.49 1463.11c23.29,-1.94 17.72,-13.9 42.08,-54.58 9.02,-15.07 28.93,-52.64 32.61,-68.45 -24.73,2.06 -29.12,26.81 -49.77,68.86l-16.13 27.8c-0.42,-18.89 -6.17,-32.23 -9.9,-51.61 -7.09,-36.84 -2.63,-40.19 -20.86,-45.05 -8.78,18.31 19.55,94.01 21.97,123.03z"/>
   <path class="fil0" d="M2175.12 1326.9l0 13.18c-19.48,0.44 -20.39,-1.4 -21.97,17.58l17.58 0c0,29.88 -34.01,133.16 30.75,101.06 -5.09,-12.62 2.93,-8.79 -21.97,-8.79 0,-39.58 8.1,-61.52 8.79,-92.27 25.65,0 24.78,1.41 26.36,-17.58l-21.97 0 0 -26.36c-12.4,1.03 -17.58,-0.11 -17.58,13.18z"/>
   <path class="fil0" d="M404.45 1353.27zm0 0zm0 0c-3,-12.54 0.67,-6.61 -8.79,-13.18 -15.95,11.68 -10.64,24.24 -16.28,58.41 -3.5,21.15 -8.46,45.18 -10.07,64.62l17.58 0c0.38,-17.28 6.42,-48.89 9.87,-69.22 4.81,-28.28 11.51,-36.24 47.24,-36.24l0 -17.58c-24.4,0 -25.47,3.76 -39.55,13.18z"/>
   <path class="fil0" d="M1581.97 1463.11l17.58 0 14.17 -96.23c2.33,-15.65 7.62,-17.27 -5.39,-26.8 -15.24,11.16 -11.41,24.68 -16.32,58.38 -3.35,23.04 -8.42,45.03 -10.05,64.64z"/>
   <path class="fil0" d="M584.6 1463.11l13.18 0c1.61,-19.31 6.51,-43.6 10.05,-64.65 7.69,-45.74 13.23,-47.76 -1.25,-58.38 -12.87,9.43 -7.18,2.47 -10.92,24.23 -1.94,11.26 -2.91,23.7 -4.73,34.81 -2.88,17.58 -11.24,52.05 -6.32,63.99z"/>
   <path class="fil0" d="M1845.59 1463.11l13.18 0 14.76 -95.65c2.72,-17.16 9.29,-16.19 -5.97,-27.38 -12.87,9.43 -7.17,2.47 -10.92,24.23l-9.93 69.44c-2.84,16.51 -4.42,21.39 -1.13,29.36z"/>
   <path class="fil0" d="M602.17 1326.9c18.76,-1.56 9.83,-0.73 23.86,-11.29 12.24,-9.2 11.86,-7.2 20.07,-19.47 -30.04,0 -33.33,10.71 -43.94,30.75z"/>
   <path class="fil0" d="M1867.56 1313.72l13.18 0c2.33,-10.02 3.41,-10.11 4.4,-21.97l-17.58 0 0 21.97z"/>
   <path class="fil0" d="M1621.51 1313.72c0.99,-11.87 2.06,-11.96 4.4,-21.97l-17.58 0c-1.53,18.33 -9.31,20.1 13.18,21.97z"/>
  </g>
 </g>
</svg>
