<?xml version="1.0" encoding="UTF-8"?>
<!DOCTYPE svg PUBLIC "-//W3C//DTD SVG 1.1//EN" "http://www.w3.org/Graphics/SVG/1.1/DTD/svg11.dtd">
<!-- Creator: CorelDRAW 2021 (64-Bit) -->
<svg xmlns="http://www.w3.org/2000/svg" xml:space="preserve" width="81.4916mm" height="23.2733mm" version="1.1" style="shape-rendering:geometricPrecision; text-rendering:geometricPrecision; image-rendering:optimizeQuality; fill-rule:evenodd; clip-rule:evenodd"
viewBox="0 0 8575.92 2449.21"
 xmlns:xlink="http://www.w3.org/1999/xlink"
 xmlns:xodm="http://www.corel.com/coreldraw/odm/2003">
 <defs>
  <style type="text/css">
   <![CDATA[
    .fil0 {fill:#BDBFC1}
   ]]>
  </style>
 </defs>
 <g id="Capa_x0020_1">
  <metadata id="CorelCorpID_0Corel-Layer"/>
  <g id="_2453240488688">
   <path class="fil0" d="M3368.59 1917.33l118.19 0 0 256.09 118.19 0 0 98.49 -236.38 0 0 -354.58zm4038.36 354.58c4.77,-57.32 94.57,-305.34 118.19,-354.58l137.89 0c30.26,129.85 89.89,233.1 118.2,354.58 -156.64,0 -96.32,-29.45 -180.82,-37.35 -114.54,-10.73 -51.16,10.41 -88.41,23.03 -53.64,18.18 -38.15,14.32 -105.06,14.32zm-1280.46 0c30.43,-130.61 87.77,-223.98 118.19,-354.58l137.9 0 121.36 353.52c-109.6,2.44 -75.22,-5.85 -136.29,-25.89 -156.88,-51.47 -29.17,26.95 -241.16,26.95zm-3683.77 0c32.06,-66.79 111.28,-271.45 118.2,-354.58l157.59 0c6.91,83.14 86.14,287.79 118.19,354.58 -47.24,0 -66.13,4.22 -110.32,-8.66 -84.99,-24.77 -22.18,-56.07 -144.64,-12.18 -4.71,1.69 -9.28,4.76 -14.11,6.42 -4.89,1.68 -9.49,4.27 -14.6,5.76 -44.19,12.88 -63.08,8.66 -110.32,8.66zm-1654.74 -177.29l0 -177.29 118.19 0c0,212.12 -20.66,186.1 39.4,275.78 81.6,-54.63 59.1,-53.34 59.1,-275.78l118.19 0c0,127.42 36.93,374.29 -157.59,374.29 -122.2,0 -177.29,-71.08 -177.29,-196.99zm3801.97 177.29l-157.6 0 0 -354.58 59.1 0c142.1,0 275.79,35.24 275.79,177.29 0,97.37 -79.94,177.29 -177.29,177.29zm-3211 0l-118.2 0 0 -354.58c232.7,0 115.56,94.03 256.1,196.99l0 -196.99 98.49 0 0 354.58c-224.16,0 -107.86,-83.12 -236.39,-177.29l0 177.29zm5476.41 -157.59c6.2,74.38 44.46,106.31 78.8,157.59l-137.89 0c-19.5,-73.03 -19.9,-25.46 -39.4,-98.49l-39.4 98.49 -98.49 0 0 -354.58c117.89,0 295.48,-21.05 295.48,118.19 0,45.88 -14.8,74.16 -59.1,78.8zm-1181.96 157.59l-98.49 0c0,-87.93 32.83,-299.85 59.09,-354.58l118.2 0c15.64,67.13 37.62,117.5 39.4,196.99 64.07,-46.95 40.83,-117.89 78.79,-196.99l118.2 0c19.49,83.66 51.92,268.42 59.09,354.58l-118.19 0c0,-148.92 -12.48,-110.2 -19.7,-196.99 -2.63,4.16 -5.47,6.26 -6.36,13.33 -0.87,6.86 -45.23,93.42 -52.73,183.66l-78.8 0c-17.02,-73.01 -34.68,-146.22 -78.8,-196.99 0,104.67 -13.23,119.26 -19.7,196.99zm-2442.71 -98.49c0,129.03 -90.5,98.49 -295.48,98.49l0 -354.58c76.61,0 317.32,-29.49 274.64,113 -17,56.71 13.67,23.64 -38.25,44.59 27.18,40.59 59.1,51.13 59.1,98.5zm3920.17 -78.8c0,91.14 91.09,91.01 157.59,59.1l0 118.19c-338.47,81.03 -380.77,-354.58 -59.09,-354.58 71.15,0 59.09,49.7 59.09,118.19 -9.42,-2.25 -157.59,-65.76 -157.59,59.1zm-4944.53 0c0,90.17 14.09,78.8 137.89,78.8 0,42.21 9.28,118.19 -39.39,118.19 -261.24,0 -346.37,-374.29 39.39,-374.29 0,166.11 9.35,95.24 -43.83,104.83 -38.18,6.88 -94.06,-12.82 -94.06,72.47zm2797.3 -39.4l118.2 0 0 78.8c-128.97,0 -87.61,-2.35 -118.2,39.4 50.7,28.48 52.86,19.69 137.9,19.69l0 78.8 -236.39 0 0 -354.58 216.69 0 0 78.8c-84.23,0 -116.28,-10.62 -118.2,59.09zm-1162.26 0l118.2 0 0 78.8 -118.2 0 0 59.09 118.2 0 0 78.8 -236.39 0 0 -354.58 236.39 0 0 78.8c-84.23,0 -116.28,-10.62 -118.2,59.09zm-3841.36 393.99l8569.2 0 0 -689.47 -8569.2 0 0 689.47z"/>
   <path class="fil0" d="M413.69 400.49c0,-64.64 39.74,-73.91 98.49,-78.8 13.5,24.04 19.7,21.07 19.7,59.1l0 374.29 -118.19 0 0 -354.58zm-413.69 -177.29l0 1122.86 413.69 0 0 -256.09 118.19 0 0 256.09 433.39 0 0 -1103.17c0,-60.12 -158.8,-236.38 -216.69,-236.38l-551.58 0c-61.84,0 -196.99,188.54 -196.99,216.69z"/>
   <path class="fil0" d="M7170.55 439.88c0,-72.97 19.22,-88.98 59.1,-118.19 44.62,11.91 78.79,18.94 78.79,78.8l0 354.58 -137.89 0 0 -315.19zm-413.69 -177.29l0 1083.47 433.39 0 0 -256.09 118.19 0 0 256.09 413.7 0 0 -1122.86c0,-31.52 -145.34,-216.69 -197,-216.69l-551.58 0c-52.8,0 -100.34,69.67 -133.59,102.81 -44.13,44.01 -83.11,70.68 -83.11,153.28z"/>
   <path class="fil0" d="M1477.45 321.69l137.89 0 0 216.69 -137.89 0 0 -216.69zm-413.69 1024.36l413.69 0 0 -472.79c197.53,0 157.59,-9.49 157.59,472.79l374.29 0 0 -453.09c0,-103.9 -73.04,-121.4 -98.5,-216.69 20.21,-38.17 98.5,-147.58 98.5,-177.29 0,-593.39 96.31,-492.48 -945.56,-492.48l0 1339.55z"/>
   <path class="fil0" d="M3979.27 1346.05l413.68 0 0 -984.96 157.6 0 0 984.96 374.29 0 0 -1201.66c0,-183.69 -151.35,-137.89 -413.69,-137.89 -48.99,0 -74.08,49.25 -118.2,78.79 -9.44,-113.52 -25.3,-78.79 -413.68,-78.79l0 1339.55z"/>
   <path class="fil0" d="M2107.83 223.2l0 925.86c0,75.89 110.72,95.24 137.89,196.99l650.08 0c27.17,-101.75 137.89,-121.11 137.89,-196.99l0 -512.18c0,-89.22 -101.05,-59.1 -315.18,-59.1 -101.45,0 -59.1,194.51 -59.1,472.78l-137.9 0 0 -689.47 512.19 0 0 -354.58 -728.87 0c-56.16,0 -196.99,162.88 -196.99,216.69z"/>
   <path class="fil0" d="M-0 1582.45c0,45.39 13.7,59.09 59.1,59.09l7091.75 0 0 -137.89 -7150.85 0 0 78.8z"/>
   <path class="fil0" d="M5397.62 361.09l157.59 0 0 196.99 -157.59 0 0 -196.99zm-374.3 984.96l413.69 0 0 -472.79 413.7 0c73.92,-276.87 98.49,174.63 98.49,-728.87 0,-47.67 -90.23,-137.89 -137.89,-137.89l-787.98 0 0 1339.55z"/>
   <path class="fil0" d="M3132.18 223.2l0 925.86c0,75.89 110.73,95.24 137.9,196.99l610.68 0 0 -315.19 -334.88 0 0 -157.59 334.88 0c0,-383.67 69.98,-315.18 -334.88,-315.18l0 -196.99 334.88 0 0 -354.58 -551.58 0c-56.16,0 -197,162.88 -197,216.69z"/>
   <path class="fil0" d="M8411.61 144.4l5.88 5.87c-0.39,-0.38 -7.84,-3.91 -5.88,-5.87zm19.7 -39.4c0,-50.39 31.19,-3.16 11.71,0 -0.23,0.04 -11.71,55 -11.71,0zm-610.68 78.8c0,397.07 -43.85,401.2 82.41,528.26 201.41,202.68 311.57,-128.61 311.57,279.41 -83.63,22.32 -34.47,39.39 -98.5,39.39l-295.48 0 0 315.19 590.98 0c213.96,0 157.59,-503.91 157.59,-630.38 0,-43.87 -87.98,-152.74 -128.04,-167.44 -165.48,-60.71 -206.84,88.37 -206.84,-206.84 0,-148.97 334.88,30.78 334.88,-118.19l0 -216.69 -590.98 0c-57.54,0 -47.45,26.66 -86,71.59 -31.81,37.1 -71.59,58.88 -71.59,105.7z"/>
   <path class="fil0" d="M6047.69 1346.05l630.38 0 0 -275.79c0,-45.39 -13.7,-59.1 -59.09,-59.1l-216.7 0 0 -1004.65 -354.58 0 0 1339.55z"/>
   <path class="fil0" d="M8116.12 1543.05c0,-50.39 31.19,-3.17 11.71,0 -0.23,0.04 -11.71,54.99 -11.71,0zm-216.68 118.19c-75.97,-109.32 15.46,-78.79 -216.69,-78.79 0,252.11 104.92,23.8 683.99,104.3 175.36,24.37 202.48,45.5 202.48,-104.3 -220.49,0 -150.41,-22.75 -203.15,52.94 -2.09,3.01 -5.42,10.13 -7.02,12.68 -1.61,2.59 -3.73,9.15 -6.52,13.17 -27.11,-116.38 -91.08,-139.71 -118.19,-256.08l-196.99 0c-38.83,73.38 -119.79,178.33 -137.89,256.08z"/>
   <path class="fil0" d="M7406.95 1582.45c21.31,-21.31 107.54,29.52 32.43,10.16 -17.45,-4.5 -65.68,23.08 -32.43,-10.16zm78.79 -98.5zm-177.29 19.7l177.29 -19.7zm-177.29 19.7c34.56,51.61 9.97,40.73 78.8,59.1 -56.34,39.15 -49.92,6.7 -98.5,98.49 148.11,34.51 288.54,68.95 374.29,-59.1 -18.17,-68.1 -10.68,-60.61 -78.79,-78.79 81.65,-121.93 105.57,-118.19 -137.89,-118.19 -94.9,0 -105.56,37.38 -137.9,98.49z"/>
   <path class="fil0" d="M4530.84 2074.92l0 98.5c71.48,-1.6 118.19,-8.65 118.19,-78.8l0 -39.4c-40.31,-21.33 -118.19,-76.53 -118.19,19.7z"/>
   <path class="fil0" d="M6717.47 2035.52c0,55.48 8.52,36.48 39.4,59.1 98.56,-55.38 3.01,-96.29 0,-98.49 -17.53,9.85 -39.4,12.82 -39.4,39.39z"/>
   <path class="fil0" d="M2600.31 2153.72l78.8 0c-26.29,-54.78 -19.7,-38.15 -19.7,-118.2l-39.4 0c-1.34,60.02 -8.89,71.81 -19.7,118.2z"/>
   <path class="fil0" d="M6284.08 2153.72l59.1 0c-5.13,-61.63 -19.7,-69.98 -19.7,-137.9l-19.7 0c0,67.92 -14.56,76.28 -19.7,137.9z"/>
   <path class="fil0" d="M7564.54 2153.72l59.1 0c-13.5,-57.96 -19.7,-60.12 -19.7,-137.9l-19.7 0c0,71.87 -17.67,46.95 -19.7,137.9z"/>
   <path class="fil0" d="M3053.39 2212.81c66.19,-35.02 36.69,-1.62 78.79,-59.09 -35.93,-17.82 -24.64,-15.2 -78.79,-19.7l0 78.79z"/>
   <polygon class="fil0" points="3053.39,2055.22 3112.49,2055.22 3112.49,1996.13 3053.39,1996.13 "/>
  </g>
 </g>
</svg>
