<?xml version="1.0" encoding="UTF-8"?>
<!DOCTYPE svg PUBLIC "-//W3C//DTD SVG 1.1//EN" "http://www.w3.org/Graphics/SVG/1.1/DTD/svg11.dtd">
<!-- Creator: CorelDRAW 2021 (64-Bit) -->
<svg xmlns="http://www.w3.org/2000/svg" xml:space="preserve" width="73.8031mm" height="11.9789mm" version="1.1" style="shape-rendering:geometricPrecision; text-rendering:geometricPrecision; image-rendering:optimizeQuality; fill-rule:evenodd; clip-rule:evenodd"
viewBox="0 0 2282.14 370.41"
 xmlns:xlink="http://www.w3.org/1999/xlink"
 xmlns:xodm="http://www.corel.com/coreldraw/odm/2003">
 <defs>
  <style type="text/css">
   <![CDATA[
    .fil0 {fill:#BDBFC1}
   ]]>
  </style>
 </defs>
 <g id="Capa_x0020_1">
  <metadata id="CorelCorpID_0Corel-Layer"/>
  <path class="fil0" d="M1964.98 151.86c20.62,27.53 20.57,13.1 32.84,28.22 14.63,18.04 7.89,140.66 6.86,166.79 -13.23,6.61 -22.56,3.27 -27.59,17.3 14.04,3 23.98,2.91 38.49,2.98l37.64 -5.95 -13.78 -8.59c-6.1,-3.25 -5.01,-0.94 -14.14,-5.83l0.39 -118.7c15.1,16.48 43.2,81.44 55.68,108.15 7.37,15.77 8.8,22.62 20.78,29.79 25.81,-25.1 59.11,-106.05 81.34,-142.13l-0.09 124.05c-16.84,7.82 -15.9,1.02 -28.1,13.26 13.64,10.41 44.56,5.47 64.03,5.5 18.66,0.03 45.54,4.49 61.54,-5.5 -9.69,-9.05 -19.84,-9.26 -29.78,-16.72l3.19 -174.05c23.61,-11.78 21.38,-3.61 27.88,-19.08l-79.39 0.78 -75.15 133.18c-15.48,-14.92 -25.02,-43.62 -36.45,-65.98 -9.9,-19.38 -25.69,-46.91 -32.48,-67.88l-93.69 0.41zm-1953.13 -134.6l336.3 119.77 0.82 217.31 -218.09 0.45c-33.19,-94.68 -99.48,-247.6 -119.03,-337.53zm341.18 344.99l4.27 -362.24 -357.3 1.63 2.56 361.35 350.47 -0.74zm1126.55 -210.73c23.55,26.7 12.28,8.37 27.5,21.17l-1.26 173.23c-18.21,12.13 -19.96,3.05 -26.06,20.77l190.86 0.06 8.33 -56.68c-24.88,8.48 -23.51,30.26 -53.41,38.34 -64.98,17.57 -49.21,-23.88 -49.21,-155.34 0,-31.19 -0.43,-16.84 19.78,-32.64 12.96,-10.13 1,8.23 8.23,-8.98l-124.76 0.07zm-494.93 46.83c31.87,-9.98 16.27,-37.18 81.66,-29.69l-0.42 166.46c-5.92,30.47 -20.58,6.01 -29.17,31.7l107.5 -0.39c15.05,-2.23 -6.34,8.3 17.04,-5.24 -13.32,-14.21 -9.15,-3.26 -26,-15.28l-1.51 -178.68c80.65,0.01 43.94,26.57 81.62,30.63 -13.79,-62.39 26.25,-46.42 -223.51,-46.3l-7.22 46.78zm-466.2 85.56c4.09,-11.65 8.49,-21.89 13.93,-34.97l17.73 -31.31 23.64 67.3 -55.3 -1.02zm-14.74 65.84c-4.79,-8.93 -3.95,9.06 -3.9,-12.48 0.12,-47.44 46.95,-35.77 81.36,-34.18 24.02,41.8 13.44,40.17 9.5,48.69 -21.68,46.83 1.22,-18.74 -8.81,14.96l113.68 -0.46c-5.8,-22.26 -2.73,-6.19 -22.59,-22.83 -16.9,-14.16 -59.44,-125.65 -71.14,-153.16 -13.21,-31.03 -8.44,-44.95 -43.43,-42.11 -22.58,32.42 -65.1,176.26 -92.31,197.08 -21.28,16.28 -14.1,-3.42 -21.19,21.45l69.35 -0.05 -10.5 -16.91zm1202.58 -196.57c6.21,8.02 1.05,4.39 12.31,11.01 6.66,3.91 4.76,-0.67 16.23,8.49 5.61,97.85 -29,194.07 92.76,197.65 118.13,3.48 86.6,-106.7 92.21,-198.31 8.01,-6.07 10.98,-5.16 15.1,-8.44 10.76,-8.56 4.84,2.11 10.42,-12.23l-73.94 0.15c7.03,16.54 10.99,9.98 26.91,18.8 2.42,89.08 17.43,172.06 -46.27,173.59 -39.87,0.96 -48.01,-25.2 -48.19,-64.11 -0.16,-34.25 -1.32,-73.39 1.19,-107.11 12.12,-10.28 18.76,-8.96 27.39,-15.28 -1.09,-0.79 -2.73,-1.5 -3.63,-1.82l-122.49 -2.39zm-462.31 -1.77c29.54,29.86 24.3,8.66 28.33,26.36l-1.33 168.13c-22.56,16.13 -18.36,-3.44 -26.6,20.76l191.05 0.23c1.52,-12.11 3.73,-18.27 5.76,-30.46l-1.41 -25.89c-17.91,11.69 -10.89,21.71 -37.45,33.56 -75.8,33.81 -61.01,-35.85 -60.83,-82.08 71.2,1.31 35.15,21.04 62.65,33.88l0.01 -82.54c-31.09,12.53 11.05,32.04 -62.68,32.94l-0.15 -79.18c93.79,0.85 47.84,23.16 82.28,33.95l0.97 -49.61 -180.61 -0.05zm-424.19 17.28c39.97,-5.79 49.98,5.18 48.71,44.68 -1.04,32.44 -14.69,46.53 -48.03,43.26l-0.68 -87.94zm-97.59 -16.29c17.17,21.31 11.48,6.17 29.35,20.28l-0.38 174.49c-10.79,6.06 -19.2,4.32 -28.74,14.03 23.01,16.23 93.41,5.86 125.94,5.24 -6.16,-20.59 -12.27,-8.87 -28.28,-21.28l3.22 -70.23c17.07,1.71 6.44,-11.46 29.73,31.04 7.62,13.9 13.71,25.64 22.03,39.14 17.31,28.12 53.24,26.23 93.91,19.09 -4.22,-10.48 -65.27,-83.95 -77.34,-98.22 21.83,-9.81 44.2,-22.63 48.68,-48.3 5.91,-33.82 -12.29,-52.77 -35.19,-60.54 -26.54,-9.01 -148.57,-7.25 -182.93,-4.75z"/>
 </g>
</svg>
