<?xml version="1.0" encoding="UTF-8"?>
<!DOCTYPE svg PUBLIC "-//W3C//DTD SVG 1.1//EN" "http://www.w3.org/Graphics/SVG/1.1/DTD/svg11.dtd">
<!-- Creator: CorelDRAW 2021 (64-Bit) -->
<svg xmlns="http://www.w3.org/2000/svg" xml:space="preserve" width="64.7915mm" height="28.799mm" version="1.1" style="shape-rendering:geometricPrecision; text-rendering:geometricPrecision; image-rendering:optimizeQuality; fill-rule:evenodd; clip-rule:evenodd"
viewBox="0 0 1304.84 579.99"
 xmlns:xlink="http://www.w3.org/1999/xlink"
 xmlns:xodm="http://www.corel.com/coreldraw/odm/2003">
 <defs>
  <style type="text/css">
   <![CDATA[
    .fil0 {fill:#BDBFC1}
   ]]>
  </style>
 </defs>
 <g id="Capa_x0020_1">
  <metadata id="CorelCorpID_0Corel-Layer"/>
  <path class="fil0" d="M143.32 315.59c3.2,-13.74 28.38,-77.05 31.57,-90.76 49.64,0 104.57,-10.61 104.57,39.46 0,24.93 -26.83,39.3 -46.53,46.2 -23.59,8.26 -59.41,5.1 -89.61,5.1zm893.76 189.41c0,-28.13 23.98,-28.2 43.41,-23.68l0 41.43c-16.92,8.12 -43.41,7.3 -43.41,-17.75zm171.65 15.78c0,-15.45 32.72,-8.29 37.49,-7.89l0 11.84c-1.62,0.38 -37.49,14.24 -37.49,-3.95zm-556.38 -41.43c21.45,0 23.67,0.96 23.67,17.76l-37.48 0c0.79,-9.49 6.75,-17.76 13.81,-17.76zm226.89 0c6.89,0 13.8,-1.08 18.82,4.86 3.16,3.75 2.89,6.72 2.89,12.9l-37.48 0c0.25,-11.06 4.75,-17.76 15.78,-17.76zm-153.89 69.05l23.68 0 0 -55.24c0,-4.3 2.62,-6.17 9.86,-9.87 40.73,-20.8 31.57,31.37 31.57,65.11l23.68 0 0 -59.19c0,-37.65 -45.45,-32.24 -67.08,-17.76 -3.14,-13.47 -0.78,-11.84 -21.7,-11.84l0 88.79zm-639.25 -9.86c-43.4,0 -33.54,12.71 -33.54,-65.11 18.23,-2.84 39.93,-8.85 55.36,3.82 16.57,13.6 13.66,61.29 -21.82,61.29zm219 -69.06l7.89 0c18.27,0 24.26,10.88 25.65,27.62l-61.16 0c0.39,-17.37 9.99,-27.62 27.62,-27.62zm195.33 53.27c0,-22.11 29.05,-17.75 53.27,-17.75 9.64,0 5.92,20.37 5.92,29.59 -8.16,0.68 -59.19,17.47 -59.19,-11.84zm447.87 -57.22l0 82.86 25.65 0c0,-49.56 -7.83,-68.35 23.68,-69.05l0 -19.73c-23.51,5.48 -17.33,7.47 -27.62,9.86 -0.45,-5.32 -0.93,-5.37 -1.97,-9.86 -9.15,0 -19.73,-2.83 -19.73,5.92zm-791.16 55.24c0,47.39 66.17,18.89 71.02,17.76 0.22,9.74 0.12,9.65 9.87,9.86l0 -82.86c0,-6.67 -11.81,-12.97 -12.06,5.7l0.22 57.44c-19.29,10.21 -18.78,9.87 -39.46,9.87 -11.08,0 -19.73,-8.65 -19.73,-19.73l0 -59.19 -9.87 0 0 61.16zm222.95 27.62l9.86 0 0 -69.05c1.53,-0.35 49.08,-21.83 57.97,-0.76 2.47,5.86 1.3,41.26 1.18,50.12 -0.25,18.47 -2.52,19.69 11.87,19.69l0 -59.19c0,-41.21 -49.66,-28.95 -73,-17.76 0,-9.98 1.91,-11.02 -7.89,-11.84l0 88.79zm753.68 -82.86l0 76.95c0,8.42 7.57,5.92 25.65,5.92l0 -88.79c-18.08,0 -25.65,-2.5 -25.65,5.92zm-5.92 -27.62c0,26.98 6.36,4.57 37.48,1.98l0 -19.73c-5.62,2.7 -13.47,4.87 -20.49,7.14 -6.81,2.21 -17,3.49 -17,10.62zm-527.21 -206.34l-1.6 -6.74 15.83 0c0,11.54 -1.73,13.46 -2.04,23.61 -0.25,8.44 0.25,17.31 0.15,25.79 -0.14,10.96 -1.99,12.56 -2.13,23.52 -0.1,8.33 0.53,17.51 0.09,25.74 -0.83,15.42 -5.22,31.83 1.98,45.36 13.56,25.46 79.37,32.88 78.9,-41.41 -0.12,-18.88 1.99,-30.1 1.97,-49.33 -0.02,-17.76 0,-35.52 0,-53.27 22.34,0 36.33,5.07 47.66,-9.55 10.95,-14.15 70.25,-87.44 78.61,-93.04 0,16.07 -2,25.94 -1.98,43.4l-1.97 140.08c0,14.46 1.05,33.32 -0.1,47.25 -1.27,15.35 -4.18,27.25 2.33,41.28 12.41,26.75 44.49,13.75 58.16,-4.47 3.79,-5.05 5.85,-9.33 9.04,-14.64 16.48,-27.42 129.37,-214.68 135.76,-219.37 0,28.33 1.98,62.44 -1.44,87.35 -3.56,25.95 1.47,61.7 -1.97,86.81 -13.56,98.94 42.84,94.48 68.64,50.88l182.98 -286.59c3.31,-5.28 6.04,-8.71 9.42,-14.26 9.8,-16.08 32.81,-38.85 23.92,-59.6 -10.77,-25.14 -43.87,-17.19 -56.28,1.59 -6.28,9.5 -12,18.13 -18.1,27.28 -8.78,13.17 -136.28,209.38 -144.03,215.06 0,-74.59 3.48,-149.82 3.96,-224.93 0.11,-17.75 -0.72,-27.72 -12.55,-34.81 -24.87,-14.91 -43.8,11.14 -54.46,29 -34.05,57.05 -71.52,113.19 -105.77,170.44 -6.5,10.86 -28.62,50.68 -36.37,56.36 0,-14.98 2.08,-21.54 2.02,-35.47l1.93 -112.51c0,-12.5 0.01,-24.99 0,-37.49 -0.01,-18.67 5.89,-52.17 -4.62,-66.41 -5.48,-7.42 -18.85,-10.79 -29,-6.73 -14.41,5.76 -28.97,24.29 -38.51,36.51l-85.96 105.42c-6.05,7.65 -12.21,14.06 -17.5,21.96l-13.81 0c0,-31.56 3.75,-98.98 -3.16,-123.11 -14.87,-51.86 -86.17,-21.75 -117.19,18.53l-28.45 34.69c-6.67,8.44 -53.74,60 -56.38,69.88l-136.14 0c14.03,-12.19 27.77,-23.09 36.85,-40.09 9.35,-17.51 15.75,-38.55 8.87,-60.87 -14.74,-47.78 -70.66,-41.09 -112.8,-41.09 -40.87,0 -105.7,-11.48 -125.03,28.86 -4.42,9.23 -6.72,17.24 -10.53,26.95 -8.56,21.87 -27.34,65.62 -32.14,86.24 -22.36,0 -44.72,0.02 -67.08,0 -24.99,-0.01 -41.74,-0.85 -48.55,18.59 -6.85,19.56 4.41,37.4 21.32,40.21 14.5,2.41 51.77,0.39 68.66,0.39 -10.16,19.21 -46.97,103.67 -51.26,122.45 -2.87,12.56 -0.81,24.04 9.07,30.23 11.66,7.29 20.95,5.16 38.24,5.16 43.64,-0.01 132.32,4.81 168.48,-7.12 21.84,-7.2 39.42,-18.11 57.32,-31.47 25.67,-19.17 48.65,-44.93 52.28,-77.94 0.92,-8.42 2.1,-11.63 2.23,-19.62 0.18,-10.74 -2.12,-11.52 -2.12,-21.69l67.09 0c-22.61,33.76 -55.35,71.83 -80.93,104.53 -21.02,26.88 -20.9,64.46 29.44,55.09 23.13,-4.3 30.1,-16.68 42.46,-32.52 26.52,-33.97 75.84,-94.29 97.82,-127.1l73.53 0c0.92,2.45 2.39,4.74 4.97,6.74zm-104.15 241.86c15.06,-3.51 63.13,-12.31 63.13,13.81l0 9.86c-25.12,0 -53.58,-5.72 -65.97,10.98 -12.86,17.34 -0.73,48.84 50.45,38.6l13.55 -4.2c8.7,3.15 0.75,5 11.84,5.92 0,-14.47 -0.01,-28.94 0,-43.4 0.02,-22.13 5.2,-44.04 -41.54,-45.3 -4.8,-0.13 -12.87,1.45 -19.17,2.33 -10.61,1.48 -12.03,0.05 -12.28,11.39zm-230.84 29.59c0,44.95 42.86,49.91 71.81,44.19 8.05,-1.58 8.38,-0.28 9.08,-8.68 -26.88,0 -69.05,8.75 -69.05,-31.57l71.02 0c0,-24.31 -0.44,-52.25 -45.71,-45.81 -16.08,2.29 -17.86,2.97 -26.88,12.68 -6.34,6.82 -10.28,16.8 -10.28,29.18zm-222.95 37.49c0,10.16 27.88,7.89 37.48,7.89 60.62,0 57.56,-71.52 24.95,-84.13 -22.25,-8.61 -31.27,-1.18 -52.57,-0.7 0,-36.58 2.85,-35.23 -9.86,-35.52l0 112.46zm795.11 -39.46c0,61.15 57.62,45.38 84.84,45.38l0 -17.75c-23.64,0 -58.66,7.85 -59.19,-15.79l61.16 0c0.1,-4.41 6.64,-28.39 -8.45,-42.84 -16.78,-16.08 -78.36,-17.85 -78.36,31.01zm-224.92 0c0,61.96 63.07,45.38 84.84,45.38l0 -19.73c-4.94,2.37 -27.23,4.35 -34.71,3.24 -13.66,-2.03 -23.32,-3.12 -24.48,-17.05 11.18,0 22.36,-0.01 33.54,0 29.7,0.02 29.59,5.01 29.59,-17.75 0,-24.49 -20.81,-38 -46.21,-34.53 -14.87,2.03 -21.69,3.15 -30.36,11.23 -6.27,5.85 -12.22,18.16 -12.22,29.21zm578.08 -35.51l0 17.76c19.03,-4.43 18.22,-3.95 37.49,-3.95 13.04,0 17.76,2.23 17.76,15.79 -14.92,-1.24 -57.58,-9.07 -62.03,22.66 -1.22,8.67 2.56,18.25 8.37,23.11 17.21,14.35 42.21,5.34 53.05,2.94 11.25,-2.49 1.1,4.56 26.26,4.56 0,-55.64 9.31,-82.02 -31.66,-86.72 -15.63,-1.79 -36.5,-2.26 -49.23,3.85zm-177.57 33.54c0,38.65 14.67,47.35 51.3,47.35 7.15,0 11.01,-1.65 15.78,-3.94 -0.63,28.53 -37.12,16.23 -57.22,15.79l0 17.75c27.85,6.49 82.86,9.81 82.86,-29.6l0 -82.86c-24.78,0 -32.96,-6.88 -60.33,-1.14 -17.63,3.7 -32.4,16.51 -32.4,36.66zm-394.6 -402.49l0 69.05 -49.32 0 49.32 -69.05zm-420.24 69.05l822.73 -9.86 -822.73 9.86zm0 0l23.12 -57.77c8.59,-21.71 -4.58,-17.2 61.72,-17.2 25.55,0 41.73,45.51 -12.64,68.25 -23.28,9.73 -43.07,6.72 -72.19,6.72z"/>
 </g>
</svg>
