<?xml version="1.0" encoding="UTF-8"?>
<!DOCTYPE svg PUBLIC "-//W3C//DTD SVG 1.1//EN" "http://www.w3.org/Graphics/SVG/1.1/DTD/svg11.dtd">
<!-- Creator: CorelDRAW 2021 (64-Bit) -->
<svg xmlns="http://www.w3.org/2000/svg" xml:space="preserve" width="58.8237mm" height="27.4997mm" version="1.1" style="shape-rendering:geometricPrecision; text-rendering:geometricPrecision; image-rendering:optimizeQuality; fill-rule:evenodd; clip-rule:evenodd"
viewBox="0 0 1574.57 736.1"
 xmlns:xlink="http://www.w3.org/1999/xlink"
 xmlns:xodm="http://www.corel.com/coreldraw/odm/2003">
 <defs>
  <style type="text/css">
   <![CDATA[
    .fil0 {fill:#BDBFC1}
   ]]>
  </style>
 </defs>
 <g id="Capa_x0020_1">
  <metadata id="CorelCorpID_0Corel-Layer"/>
  <g id="_1849902640096">
   <path class="fil0" d="M-0 465.67c0,48.49 9.28,84.64 45.35,112.12 90.23,68.77 275.65,38.6 275.65,-72.75 -138.24,0 -87.26,-4.74 -112.76,26.53 -21.43,26.29 -102.24,30.36 -102.24,-50.76 0,-104.79 110.81,-88.86 112.04,-33.31l102.96 0c-2.62,-31.53 -27.77,-67.22 -47.91,-82.31 -49.07,-36.75 -173.88,-37.32 -225.4,8.86 -22.65,20.3 -47.69,50.18 -47.69,91.61z"/>
   <path class="fil0" d="M611.71 108.33c-20.18,0 -40.39,0.09 -60.57,-0.01 -39.78,-0.2 -46.63,8.67 -93.91,33.28 -7.82,4.07 -10.86,6.79 -19.14,11.14 -10.17,5.34 -14.12,4.86 -20.18,13.13l181.7 0c0,88.95 91.35,160.5 181.69,160.5 56.06,0 95.38,-10.78 135.06,-40.57 27.95,-20.99 58.8,-62.97 61.78,-98.72 -2.75,3.16 -0.11,-0.69 -3.83,5.25 -39.84,63.77 -68.91,67.43 -150.61,67.43 -61.53,0 -130.22,-43.34 -130.22,-112.05 0,-45.3 6.19,-74.44 44.92,-103.47 23.02,-17.25 60.68,-29.78 100.43,-29.78 15.22,0 13.56,2.72 27.26,3.03 -6.22,-8.49 -19.24,-10.51 -32.41,-13.01 -57.65,-10.92 -107.53,-1.71 -154.13,26.34 -23.79,14.32 -61.16,48.9 -67.83,77.52z"/>
   <path class="fil0" d="M663.2 468.7l0 -21.2c-42.78,0 -72.68,-6.51 -72.68,9.08l0 145.36c0,15.59 29.9,9.08 72.68,9.08 14.78,0 9.1,-31.28 9.09,-45.43 -0.02,-19.18 0,-38.36 0,-57.53 7.52,-5.04 7.78,-9.19 19.15,-10.97 27.63,-4.34 29.3,17.51 29.3,41.26l0 72.68c84.84,0 79.21,6.22 79,-20.94 -0.2,-25.6 -2.12,-67.14 2.77,-88.08 29.54,-6.88 45.84,-12.05 45.55,30.15 -0.1,14.19 -0.06,28.35 -0.14,42.54 -0.26,43.71 -11.96,36.33 69.66,36.33 6.98,0 9.09,-2.11 9.09,-9.08 0,-92.92 16.28,-157.47 -75.71,-157.47 -32.89,0 -47.26,14.29 -66.62,27.25 -11.91,-22.5 -38.23,-27.25 -63.59,-27.25 -22.71,0 -43.7,14.96 -57.54,24.22z"/>
   <path class="fil0" d="M1072.02 565.6c-32.37,0 -36.34,-13.93 -36.34,-42.4 0,-34.7 60.57,-40.82 60.57,6.06 0,18.8 -10.84,36.34 -24.23,36.34zm-115.07 -166.56l0 202.9c0,14.93 23.88,9.08 63.59,9.08 10.93,0 9.08,-7.64 9.08,-18.17 22.36,14.98 24.12,21.2 60.56,21.2 111.92,0 117.38,-169.59 -6.06,-169.59 -18.3,0 -37.35,10.73 -48.45,18.17l0 -72.68c-44.44,0 -78.73,-6.92 -78.73,9.08z"/>
   <path class="fil0" d="M448.19 574.69c-16.94,0 -17.65,1.04 -27.25,-9.09 4.67,-20.02 18.73,-15.89 54.51,-24.22 0,19.79 -4.97,33.31 -27.25,33.31zm-93.88 -81.77l0 9.09 66.62 0c15.26,0 0.32,-11.51 26.3,-16.35 6.98,-1.3 28.21,-2.78 28.21,10.29 0,29.31 -133.24,-5.34 -133.24,69.65 0,50.61 83.18,64.83 139.3,27.25 5.61,24.06 -0.57,18.17 75.71,18.17 13.96,0 6.66,-2.42 6.67,-5.01 0.02,-4.68 -1.95,-3.72 -2.4,-4.6 -11.21,-22.32 1.56,-74.89 -6.49,-109.3 -10.93,-46.74 -55,-47.64 -103.78,-47.64 -39.86,0 -96.9,11.21 -96.9,48.45z"/>
   <path class="fil0" d="M1453.59 486.87c30.38,0 31.48,1.47 42.39,24.22l-66.62 0c0.36,-15.96 8.62,-24.22 24.23,-24.22zm-102.96 36.33c0,42.94 16.57,69.65 58.88,83.45 59.18,19.31 152.18,0.39 156.13,-47.11l-75.7 0c-5.65,21.16 -59.86,16.49 -60.57,-15.14 155.23,0 154.9,12.47 137.56,-37.62 -33.36,-96.35 -216.3,-73.45 -216.3,16.42z"/>
   <path class="fil0" d="M784.33 141.64c0,48.5 24.57,63.59 63.59,63.59 33.77,0 35.25,-18.17 45.42,-39.37l281.63 0c-7.91,-10.79 -40.72,-22.48 -54.37,-30.42 -12.08,-7.02 -42.09,-25.76 -57.67,-27.13 -48.09,-4.2 -119,0.01 -169.59,0.01 -6.36,-13.26 -4.36,-18.44 -17.52,-27.9 -29.9,-21.5 -91.5,-16.77 -91.5,61.21z"/>
   <path class="fil0" d="M1274.91 474.75c0,-32.83 10.38,-27.25 -63.59,-27.25 -6.98,0 -9.08,2.11 -9.08,9.08l0 145.36c0,15.38 27.82,9.08 69.65,9.08 13.78,0 9.21,-21.51 9.09,-36.33 -0.48,-58.96 7.68,-63.77 49.78,-63.92 18.46,-0.06 13.81,0.13 13.81,-57.22 0,-15.18 -36.27,-17.21 -69.65,21.2z"/>
   <path class="fil0" d="M423.96 735.19l21.19 0 0 -54.51 18.17 36.33 15.14 0 18.17 -36.33 0 54.51 21.2 0 0 -99.93c-25.61,0 -20.57,-1.81 -32.31,22.2 -5.18,10.59 -10.44,17.83 -13.11,29.28 -13.84,-15.91 -20.03,-51.48 -33.31,-51.48l-15.14 0 0 99.93z"/>
   <path class="fil0" d="M1202.23 735.19l21.2 0 0 -57.54c31.47,36.21 23.47,57.54 57.54,57.54l0 -99.93 -21.2 0 0 54.51c-33.94,-39.05 -19.63,-54.51 -57.54,-54.51l0 99.93z"/>
   <polygon class="fil0" points="239.24,735.19 260.43,735.19 260.43,695.82 293.75,695.82 293.75,735.19 314.94,735.19 314.94,635.25 293.75,635.25 293.75,677.65 260.43,677.65 260.43,635.25 239.24,635.25 "/>
   <path class="fil0" d="M351.28 689.76c0,-57.45 33.31,-33.98 33.31,-24.22 0,38.11 5.57,51.48 -18.17,51.48 -11.88,0 -15.14,-14.98 -15.14,-27.25zm-21.2 -6.06c0,76.65 75.71,55.58 75.71,21.2 0,-42.26 6.8,-69.65 -42.4,-69.65 -23.89,0 -33.31,23.88 -33.31,48.45z"/>
   <path class="fil0" d="M1129.56 689.76c0,-57.45 33.31,-33.98 33.31,-24.22 0,38.11 5.57,51.48 -18.17,51.48 -11.88,0 -15.14,-14.98 -15.14,-27.25zm-21.2 -6.06c0,76.65 75.71,55.58 75.71,21.2 0,-42.26 6.81,-69.65 -42.4,-69.65 -23.89,0 -33.31,23.88 -33.31,48.45z"/>
   <path class="fil0" d="M751.02 689.76c0,-57.45 33.31,-33.98 33.31,-24.22 0,38.11 5.56,51.48 -18.17,51.48 -11.88,0 -15.15,-14.98 -15.15,-27.25zm-21.2 -6.06c0,76.65 75.7,55.58 75.7,21.2 0,-42.26 6.81,-69.65 -42.39,-69.65 -23.89,0 -33.31,23.88 -33.31,48.45z"/>
   <polygon class="fil0" points="536.01,735.19 602.63,735.19 602.63,717.01 557.21,717.01 557.21,695.82 596.58,695.82 596.58,677.65 557.21,677.65 557.21,653.42 602.63,653.42 602.63,635.25 536.01,635.25 "/>
   <path class="fil0" d="M899.41 704.9c0,35.9 75.7,51.73 75.7,-15.14l0 -54.51 -21.2 0c0,52.15 8,81.76 -21.19,81.76 -19.46,0 -12.12,-40.53 -12.12,-81.76l-21.2 0 0 69.65z"/>
   <path class="fil0" d="M648.06 662.51c0,39.03 24.02,24.61 48.45,36.34l0 15.15c-17.97,4.18 -23.97,6.28 -42.4,-6.06 -5.89,8.79 -6.13,4.06 -9.09,15.14 12.46,17.01 72.68,23.96 72.68,-21.19 0,-34.58 -38.22,-18.25 -51.48,-36.34 6.5,-24.37 36.64,-6.78 39.36,-6.06 5.89,-8.8 6.13,-4.07 9.09,-15.14 -23.49,-15.73 -66.62,-13.41 -66.62,18.17z"/>
   <path class="fil0" d="M1296.12 662.51c0,39.03 24.01,24.61 48.45,36.34l0 15.15c-17.97,4.18 -23.97,6.28 -42.4,-6.06 -5.89,8.79 -6.13,4.06 -9.08,15.14 12.46,17.01 72.67,23.96 72.67,-21.19 0,-34.58 -38.22,-18.25 -51.48,-36.34 6.5,-24.37 36.65,-6.78 39.37,-6.06 5.89,-8.8 6.13,-4.07 9.08,-15.14 -23.49,-15.73 -66.62,-13.41 -66.62,18.17z"/>
   <polygon class="fil0" points="984.2,653.42 1011.45,653.42 1011.45,735.19 1032.65,735.19 1032.65,653.42 1056.88,653.42 1056.88,635.25 984.2,635.25 "/>
   <polygon class="fil0" points="820.67,735.19 887.29,735.19 887.29,717.01 841.86,717.01 841.86,635.25 820.67,635.25 "/>
   <polygon class="fil0" points="1072.02,735.19 1093.22,735.19 1093.22,635.25 1072.02,635.25 "/>
  </g>
 </g>
</svg>
