<?xml version="1.0" encoding="UTF-8"?>
<!DOCTYPE svg PUBLIC "-//W3C//DTD SVG 1.1//EN" "http://www.w3.org/Graphics/SVG/1.1/DTD/svg11.dtd">
<!-- Creator: CorelDRAW 2021 (64-Bit) -->
<svg xmlns="http://www.w3.org/2000/svg" xml:space="preserve" width="72.4195mm" height="23.1742mm" version="1.1" style="shape-rendering:geometricPrecision; text-rendering:geometricPrecision; image-rendering:optimizeQuality; fill-rule:evenodd; clip-rule:evenodd"
viewBox="0 0 1555333.33 497705.81"
 xmlns:xlink="http://www.w3.org/1999/xlink"
 xmlns:xodm="http://www.corel.com/coreldraw/odm/2003">
 <defs>
  <style type="text/css">
   <![CDATA[
    .fil0 {fill:#BDBFC1}
   ]]>
  </style>
 </defs>
 <g id="Capa_x0020_1">
  <metadata id="CorelCorpID_0Corel-Layer"/>
  <g id="_2453596321712">
   <path class="fil0" d="M1239290.51 237654.94c0,-11298.9 -176.11,-32895.89 3983.93,-40807.92 4084.87,-7770.28 577.72,-6138.05 7682.22,-12226.7 11451.39,-9812.71 19015.49,-6928.39 30432.51,-1505.52 3378.29,1604.31 6833.89,3842.19 8208.4,7965.72 1735.32,5203.81 706.58,65982.93 706.58,76437.79 0,5437.91 -728.06,8111.76 -4499.37,10431.24 -13062.14,8032.29 -7617.79,5742.87 -25361.86,5742.87 -10321.71,0 -14846.86,-9183.45 -18214.41,-15381.63 -2602.98,-4791.46 -2938.02,-22984.39 -2938.02,-30655.87zm49770.15 -95807.65c-7622.09,-5102.87 -29612.1,-10358.22 -41787.25,-5704.22 -10192.85,3898.02 -9776.2,689.4 -18018.97,5622.61 -231.95,137.45 -524.03,350.07 -758.13,485.37 -238.39,135.3 -539.07,330.74 -783.9,461.75 -7360.07,3925.94 -8994.45,3232.25 -16567.14,10807.09l-23014.45 32977.5 -8601.43 46202.87c-459.6,7924.91 1307.93,11410.58 1264.98,19900.33 -53.69,10381.85 6816.71,32038.97 13337.04,41409.26l10779.17 14108.06c182.55,180.4 438.13,442.42 620.68,622.82l23508.42 16307.27c12587.51,6507.45 44467.55,6363.55 56582.57,0l13392.88 -6516.04c1481.89,2804.86 3335.33,7465.31 7465.31,7465.31l36083.04 0c3081.91,0 4449.98,-2018.81 5341.26,-4727.03 1002.96,-3047.55 298.53,-3530.77 -1136.12,-6823.15 -2029.55,-4654.01 -2680.29,-11584.54 -2968.08,-17061.11l-1237.06 -202821.85c0,-13760.13 3350.37,-31237.89 -7705.85,-33353.35 -6172.41,-1181.22 -11382.66,-229.8 -18057.63,-1851.29 -33997.65,-8268.54 -27739.33,-4812.93 -27739.33,36448.14 0,15347.26 0,30692.38 0,46039.64z"/>
   <path class="fil0" d="M866010.08 272494.48c0,-17988.9 1703.1,-20091.47 19030.52,-25763.47 6350.67,-2078.95 13880.4,-1610.75 20785.17,-1610.75l0 33596.03c0,6191.74 -22458.21,19758.58 -35073.63,7701.55 -4125.68,-3943.13 -4742.06,-7149.6 -4742.06,-13923.36zm-53502.8 -108251.26c19.33,21.48 2791.97,2890.77 3030.37,3191.44 1619.34,2057.47 238.39,-141.75 1484.04,2246.46 618.53,1187.66 453.16,1280.01 1063.1,2671.7 1990.89,4563.8 3303.12,4989.04 5635.49,9295.12 3996.82,7383.7 6071.47,12168.71 13672.08,16191.3 10710.44,-7173.22 33005.42,-19908.92 44791.85,-19908.92 11986.16,0 14881.22,-1726.73 21152.42,4980.45 3468.49,3711.18 2310.9,3502.85 2529.96,9920.1 395.17,11655.42 6084.35,14039.33 -8676.59,13790.2 -28244.03,-476.78 -17585.14,717.32 -33626.1,3702.59 -21977.13,4091.32 -8403.84,1786.86 -20250.4,5880.33 -6344.22,2192.77 -10341.04,5109.31 -15439.61,9445.46l-6997.12 6690c-10746.95,13246.84 -16603.65,38073.93 -11805.75,54789.26 607.79,2124.05 786.05,2102.57 1765.39,4456.42 1608.61,3863.66 674.37,1554.91 1758.94,5704.22 3775.61,14413.03 15194.78,22067.33 26197.3,28553.3 4731.32,2789.83 5218.84,1561.36 10620.24,3064.73 3687.55,1028.73 5680.59,3311.71 11621.05,3311.71 15295.72,0 22320.76,1597.87 33600.33,-2482.71 10912.32,-3947.42 4155.75,1295.05 18098.43,-8030.15 2987.41,-1997.33 5242.47,-3799.23 8025.85,-5661.26 1048.06,700.14 1608.61,914.91 2944.46,2029.55l14062.96 12067.77c12046.29,8768.94 18083.4,-1993.04 31132.65,-18216.55 2261.5,-2815.6 4928.91,-5820.19 6606.24,-8324.38 -6840.34,-10214.33 -13025.63,-10708.29 -15005.78,-22322.9 -7929.21,-46490.66 16741.1,-115269.85 -22806.13,-137702.29l-2336.67 -1395.99c-15712.37,-10680.37 -53064.68,-12482.27 -70626.19,-5347.7 -5972.68,2426.87 -6881.14,594.91 -14374.37,4291.05 -4056.95,2003.78 322.15,487.52 -5231.73,2233.58 -4739.91,1490.48 -4385.55,1245.65 -8728.14,3713.32 -2411.84,1370.21 -2089.68,1106.05 -4273.87,1947.94 -5579.65,2147.67 -753.83,-279.2 -5040.59,2426.87 -8006.52,5055.62 -8777.54,1838.41 -14574.1,12797.98z"/>
   <path class="fil0" d="M609689.72 200326.25l1054.51 23832.72c947.12,9013.78 3438.42,26740.66 7884.1,34420.74l10038.22 21068.66 33344.76 33845.16 10454.87 5721.4c4271.72,2244.32 790.34,1630.08 6608.39,3343.93l16232.11 4922.46c13513.15,2349.55 45635.88,2512.78 58616.41,-343.63l19606.1 -7763.83c238.39,-137.45 539.07,-332.89 783.9,-461.75 5837.37,-3094.8 11399.84,-5246.76 16038.81,-10091.91l1183.37 -1303.64c4241.65,-5300.45 3365.4,-6370 -8736.73,-21489.61 -6601.94,-8247.06 -9333.78,-19159.38 -22181.16,-10682.52l-8983.71 4709.84c-4737.76,2512.78 -2645.93,2770.5 -9917.95,3771.31 -10087.62,1387.4 -26626.84,2978.82 -35745.85,-1849.15 -2233.58,-1183.37 -3300.97,-1926.46 -5622.61,-3084.06 -5626.9,-2807.01 -11320.38,-8481.16 -15029.41,-13590.47l-4441.39 -6756.58c-2755.46,-7179.67 -4800.05,-10141.31 -5964.09,-18923.14 -4495.08,-33946.1 -4252.39,-16202.04 -4252.39,-57959.22 0,-5319.78 5300.45,-32384.75 7377.25,-36171.09 1404.58,-2560.03 1355.18,-2676 2274.38,-5190.92l4827.97 -8861.29c944.98,-1634.38 231.95,-771.01 1342.3,-2388.21l14196.11 -11934.61 16019.49 -6378.59c15912.1,0 13085.77,-1776.12 24330.98,3043.25 2852.11,1222.03 5837.37,1387.4 8616.46,2583.65l15579.21 8062.36 7566.25 -9853.52c551.95,-871.95 951.42,-1688.07 1385.25,-2347.41l3285.94 -4181.52c1462.56,-1988.74 1045.92,-1728.88 2319.49,-3900.17 9159.82,-15600.69 15667.27,-13751.54 40.81,-24178.49l-10132.72 -4797.9c-16260.02,-7503.97 -5530.26,-1258.54 -18684.75,-6200.33 -11092.73,-4166.48 -38308.03,-5016.96 -49901.16,-1198.4 -3028.22,998.67 -2577.21,1350.89 -5216.7,2248.61 -3986.08,1357.33 -7744.51,957.86 -11681.19,3253.72l-32513.61 19743.55c-6994.97,6217.51 -14086.58,13953.43 -19382.74,21678.6l-15819.75 32706.9c-1301.49,4372.66 -676.52,7665.04 -2377.47,12553.14 -4447.83,12795.83 -4422.06,25988.98 -4422.06,40371.94z"/>
   <path class="fil0" d="M992924.61 146823.45c115.97,5180.18 1806.19,15437.47 3013.18,20628.39 5818.04,25009.64 3251.58,106423.59 3206.47,138638.67 -32.22,24646.68 -5912.54,19906.77 44796.14,19906.77 2527.81,0 5521.66,-2862.85 6479.53,-4718.44 3393.32,-6563.29 -1952.23,-114945.55 2463.38,-125694.65 3292.38,-8012.96 35647.06,-27868.19 40889.53,-6518.18 4623.94,18830.79 2426.87,77986.27 2426.87,100848.23 0,42777.33 -8558.47,36083.04 46035.35,36083.04 3827.15,0 4978.3,-3644.6 4978.3,-7465.31l0 -146823.45c0,-13414.36 -12435.02,-25630.32 -22924.25,-31824.2 -2068.21,-1219.88 -2033.85,-970.75 -3459.9,-1514.11l-1855.59 -633.56c-6928.39,-2783.38 -8777.54,-4600.31 -21530.41,-4600.31 -14357.19,0 -15224.85,2338.81 -21755.92,4374.81 -6788.79,2119.75 -3689.7,-532.62 -10989.64,3938.83 -15151.83,9280.09 -11872.33,8601.43 -20757.25,7862.63 0,-4254.54 -17.18,-6909.06 -1357.33,-9840.63 -3597.35,-7847.59 -9782.65,-7430.95 -17963.13,-4501.52 -5946.9,2128.34 -1075.98,2046.73 -11249.51,3681.11 -7072.28,1136.12 -5435.76,1033.03 -10371.11,3316.01l-5416.43 2048.88c-2489.15,1078.13 -2824.19,1578.54 -4658.3,2807.01z"/>
   <path class="fil0" d="M1555333.33 325997.28c0,-26444.29 -1584.98,-11906.69 -3558.69,-22569.89 -2534.25,-13684.97 -577.72,-7377.25 -14642.83,-13974.9 -5362.74,-2512.78 -4952.53,-5794.42 -5841.67,-12823.75 -2220.69,-17580.84 -841.89,-120372.72 -841.89,-147225.06 0,-17952.39 3238.69,-60233.61 -2489.15,-72166.07 -16266.47,-3790.64 -13302.68,2233.58 -27455.84,3648.89 -8549.88,856.92 -13124.42,2712.51 -19917.51,4967.57 -7010,2328.08 -4894.54,5407.84 -4885.95,20001.27 6.44,9312.31 212.62,16257.88 1063.1,23821.98l128.86 175312.32c-40.81,6548.25 -506.85,5903.95 1791.16,10650.31 5220.99,10779.17 2267.94,17490.64 22438.88,28576.92 4364.07,2398.95 2091.83,2682.44 8601.43,3842.19 7970.01,1417.46 27245.37,1048.06 34268.25,285.64 4003.26,-435.98 6883.29,-1975.86 11341.86,-2347.41z"/>
   <path class="fil0" d="M1383624.8 150556.1l0 165488.87c0,6017.78 3934.54,9952.31 9954.46,9952.31l38572.19 0c2912.24,0 4976.16,-2063.91 4976.16,-4976.16l0 -182908.63c0,-9501.3 -22340.08,-2860.7 -28411.55,-1037.33 -8934.32,2686.74 -25091.25,-2392.51 -25091.25,13480.94z"/>
   <path class="fil0" d="M177930.33 416830.92c0,-13502.41 2542.84,-28306.32 -14810.35,-38694.61 -2869.29,-1718.14 -186.85,-126.71 -2568.62,-1164.04 -277.05,-120.27 -622.82,-225.51 -899.87,-345.78l-1746.06 -740.95c-8053.77,-3769.16 -13380,-6116.57 -24758.36,-1350.89 -13199.59,5528.11 -20121.54,10981.05 -26856.64,22913.51 -3404.06,6030.66 -4063.4,2950.9 -5369.18,19601.8 -380.14,4858.03 498.26,14288.46 3350.37,18691.19l2925.13 4540.18c139.6,234.1 302.82,566.99 444.57,798.93 2521.37,4078.43 4041.92,4630.38 7675.78,7254.84l4314.67 3150.63c2467.68,1232.76 3202.18,1080.28 6082.21,1391.69 7499.67,818.26 18931.73,1685.92 25484.28,-1810.49l13066.44 -9329.49c5886.77,-5895.36 5646.23,-6262.61 9383.18,-13014.89 2502.04,-4520.85 4282.46,-4608.9 4282.46,-11891.66z"/>
   <path class="fil0" d="M34839.54 352128.01c0,1462.56 869.81,5809.45 1316.52,7392.29 1690.22,5987.71 6071.47,13751.54 10794.2,17825.68 2328.08,2010.22 9254.32,6269.05 11837.97,6823.15 7063.69,1516.26 17445.54,1580.69 24410.44,143.89 5205.96,-1075.98 2203.51,-1133.97 6659.93,-3296.68 2581.5,-1252.09 3816.41,-1172.63 6105.83,-2605.13 1198.4,-749.54 3865.81,-3021.77 5562.47,-4389.84l9915.8 -12480.12c5850.26,-10618.09 4273.87,-7349.33 4273.87,-25589.51 0,-8356.59 -4656.15,-12471.53 -9149.08,-16981.64l-7843.3 -5841.67c-7613.5,-4720.58 -25907.37,-5171.59 -33986.91,-781.75 -9295.12,5055.62 -7765.98,2237.87 -17467.02,12394.22 -176.11,186.85 -444.57,438.13 -618.53,627.12l-10207.89 18409.84c-457.45,1363.77 -1604.31,7160.34 -1604.31,8350.15z"/>
   <path class="fil0" d="M185395.64 450424.81c0,19146.5 -1638.67,14909.14 3627.42,24990.31 1015.85,1945.79 960.01,2560.03 1879.21,4340.45 2736.13,5289.72 -133.16,457.45 3208.62,4258.83 5955.49,6775.91 8635.79,9219.96 16113.98,10029.63 12353.41,1340.15 18124.2,1703.1 26038.38,-3947.42 6009.19,-4291.05 5081.39,-1681.63 11195.81,-9958.76 11732.73,-15884.18 12630.46,-39727.64 4840.85,-50581.97 -11294.61,-15735.99 -26126.43,-21908.4 -43980.03,-12198.78 -2955.2,1604.31 -3099.09,1000.82 -5579.65,3129.16l-5059.92 4894.54c-4714.14,4460.71 -12284.68,17926.62 -12284.68,25044z"/>
   <path class="fil0" d="M-0 270005.32l0 337.18c21.48,6934.83 751.69,5326.23 3721.92,13362.82 1284.31,3477.08 234.1,1831.96 2542.84,4920.32 1432.5,1917.87 131.01,148.19 1713.84,2018.81 1264.98,1494.78 846.18,1191.96 2287.27,2691.03 3217.21,3346.07 2963.79,2308.75 6874.7,4323.26 249.13,131.01 571.28,294.23 816.12,429.53 9357.41,5117.9 7302.08,4267.42 23104.66,4267.42 3455.6,0 5854.55,-322.15 7823.97,-884.84 5485.15,-1569.95 2053.17,-985.78 5796.57,-2912.24 251.28,-131.01 564.84,-298.53 824.71,-420.94 264.16,-124.56 599.2,-255.57 871.95,-371.55 4984.75,-2117.6 8554.18,-4095.61 12886.03,-8266.39l1224.17 -1264.98c176.11,-184.7 429.53,-453.16 601.35,-642.15l7372.96 -11292.46c2190.63,-6395.77 1962.97,-21758.07 -1660.15,-27105.77 -9050.29,-13360.67 -29805.39,-20394.29 -43011.43,-15076.66 -2667.41,1075.98 -259.87,347.92 -3382.58,1595.72 -1617.2,644.3 -2010.22,665.78 -3771.31,1204.84l-6782.35 3172.11c-11801.46,8326.52 -12823.75,11086.28 -17428.36,22389.48 -1065.25,2622.31 -2426.87,3612.38 -2426.87,7525.44z"/>
   <path class="fil0" d="M273737.98 452913.96c0,14073.69 -1511.96,21586.25 6410.8,33404.89 5100.72,7604.91 9703.18,10446.28 15551.29,11386.96l22831.9 0c5534.55,0 19908.92,-17735.48 19908.92,-28615.58 0,-14151.01 1838.41,-22468.94 -6954.16,-34109.33 -70.87,-94.5 -4082.72,-4426.35 -4185.81,-4525.14 -6492.41,-6223.95 -12297.57,-8936.46 -21770.95,-7982.9 -3775.61,377.99 -9823.45,1125.38 -12488.71,2461.23 -4778.57,2388.21 -12383.48,10257.28 -14814.64,16292.24 -2686.74,6670.67 -4488.63,7448.13 -4488.63,11687.63z"/>
   <path class="fil0" d="M-0 199490.81c534.77,2731.84 1748.21,4984.75 4291.05,7744.51 14904.84,16171.97 41310.47,15467.53 57261.23,2383.92 8410.28,-6896.17 15600.69,-20662.75 10134.86,-31207.82 -2366.73,-4565.95 -2989.56,-6681.41 -6318.45,-9857.81l-1980.15 -1752.5c-12465.09,-10469.9 -20327.72,-9441.17 -38460.51,-7491.08 -6838.19,734.5 -5953.35,1327.26 -10719.03,4209.44 -3861.51,2336.67 -992.22,-107.38 -4462.86,3004.59 -1514.11,1357.33 -356.51,397.32 -1842.7,1889.95 -2061.77,2068.21 -7903.43,7884.1 -7903.43,10759.84l0 20316.98z"/>
   <path class="fil0" d="M190371.79 327242.93c0,15665.12 -2218.55,21826.79 9129.75,33175.09l3960.31 3505c11208.7,7499.67 9275.8,5624.75 25484.28,5624.75 4379.1,0 12447.91,-5272.53 15450.35,-8189.07 10787.76,-10480.64 12677.71,-18777.1 10770.58,-34190.94 -951.42,-7669.34 532.62,-2334.52 -3225.8,-7989.34 -9170.56,-13794.5 -5912.54,-10195 -19689.86,-16410.36 -7557.66,-3408.36 -9638.75,-3124.86 -17907.29,-85.91 -10403.32,3825 -14168.19,6138.05 -19689.86,15153.97 -2250.76,3670.37 -4282.46,4469.31 -4282.46,9406.8z"/>
   <path class="fil0" d="M128160.18 277472.78c0,12224.55 -962.16,10766.28 4252.39,19387.04 809.67,1335.85 541.21,1140.41 1365.92,2366.73 2708.21,4020.44 5940.46,6475.23 9832.04,8831.23 9527.07,5762.2 9155.53,4254.54 24365.34,4254.54 6498.86,0 7342.89,-1471.16 11131.38,-3803.53l4671.19 -2791.97c7836.86,-5845.96 14060.81,-17750.51 14060.81,-27000.53 0,-9067.47 -6595.5,-20911.88 -16977.35,-26573.15 -10356.07,-5648.38 -4654.01,-4533.74 -21596.99,-4533.74 -10343.19,0 -21173.9,8528.41 -26839.46,17952.39 -2624.46,4368.36 -4265.28,5036.29 -4265.28,11910.99z"/>
   <path class="fil0" d="M350882.36 433005.04c0,15630.76 -792.49,14020 5467.97,26882.41 1834.11,3764.87 768.87,2282.98 3509.3,5203.81 12499.45,13319.86 27947.66,18867.3 41810.88,2527.81 3412.65,-4022.59 3159.23,-4477.9 5463.68,-9469.09 5498.04,-11891.66 4467.16,-19898.18 -206.18,-31418.29 -3404.06,-8397.4 -6354.96,-13884.7 -15504.04,-19335.49l-1539.88 -949.27c-3124.86,-1859.88 -451.01,-672.22 -3204.33,-1773.98 -6556.84,-2626.6 -12703.48,-1769.68 -18051.18,1284.31l-4664.74 2800.56c-2654.52,1784.72 -1904.99,1346.59 -3953.86,3511.44 -3986.08,4215.88 -9127.61,14385.11 -9127.61,20735.77z"/>
   <path class="fil0" d="M869742.73 380745.74c-2935.87,0 -5536.7,2439.76 -7467.46,3732.65l1245.65 32352.53c0,20280.47 -3610.24,29861.23 8710.96,29861.23 7615.64,0 5032,-18235.88 4971.86,-31111.18 -36.51,-8208.4 -1419.61,-12888.18 3691.85,-17462.72 3094.8,-2770.5 6337.78,-3685.41 11243.06,-3685.41 5246.76,0 3867.96,5616.16 3777.76,11155.01 -206.18,12351.26 -2974.53,41104.29 4933.2,41104.29 11984.01,0 11217.29,-3511.44 11197.96,-28619.88 -6.44,-7250.54 -3438.42,-23639.43 11197.96,-23639.43 10272.32,0 7465.31,8448.94 7465.31,24885.08 0,19288.24 -3547.95,27374.23 8710.96,27374.23 2912.24,0 4976.16,-2063.91 4976.16,-4978.3l0 -49770.15c0,-2184.18 -4039.77,-6651.34 -5691.33,-7993.64 -9550.7,-7778.87 -26135.02,-3608.09 -27904.7,3017.48 -4733.47,-1264.98 -12394.22,-9400.36 -19908.92,-7581.28 -10948.83,2648.08 -6808.12,6153.08 -15098.13,2914.39 -2648.08,-1033.03 -2716.81,-1554.91 -6052.14,-1554.91z"/>
   <path class="fil0" d="M1378646.5 88342.34c0,7362.22 4651.86,18600.99 11466.42,24618.76l6769.46 4428.5c536.92,356.51 1546.32,1204.84 2171.3,1561.36 5021.26,2869.29 10854.33,1743.91 19410.66,1743.91 5038.44,0 5946.9,-2162.71 9406.8,-4282.46 5188.78,-3178.55 11277.43,-8867.74 13661.34,-14954.24 2435.46,-6221.81 2686.74,-20310.53 -723.77,-26749.25 -1086.72,-2051.03 -1415.32,-2068.21 -2959.49,-4505.82 -2996,-4727.03 738.8,-528.33 -3185,-4280.31 -6129.46,-5863.14 -14861.89,-9930.84 -23665.2,-9930.84 -14501.08,0 -32352.53,16644.46 -32352.53,32350.38z"/>
   <path class="fil0" d="M267516.17 354615.01c0,10538.63 2392.51,15160.42 6644.9,21974.98l3885.14 4823.67c251.28,262.02 947.12,1033.03 1219.88,1269.27l7070.14 4129.97c6247.58,3842.19 1325.11,2643.78 18508.64,2643.78 4933.2,0 2263.65,-103.09 4832.26,-1389.54 244.83,-124.56 532.62,-343.63 768.87,-474.64 4692.66,-2620.16 6767.31,-3749.84 10495.67,-8167.6l2684.59 -3539.36c545.51,-773.16 2132.64,-2983.12 2525.66,-3694 3728.36,-6739.39 3552.25,-23194.86 -1776.12,-32127.03 -3144.19,-5270.39 -6202.48,-11159.3 -14183.23,-14436.65l-5536.7 -1988.74c-2048.88,-816.12 -2444.05,-1668.74 -6183.15,-1889.95 -3517.89,-206.18 -8713.11,1748.21 -12351.26,2944.46 -11279.57,3704.73 -18605.28,16897.88 -18605.28,29921.37z"/>
   <path class="fil0" d="M102029.45 205304.56c0,10701.85 1065.25,17157.75 9374.59,24221.44 4014,3414.8 3588.76,3610.24 8296.46,5388.51 13330.6,5036.29 2209.95,3983.93 22146.79,3983.93 1035.18,0 11850.85,-4471.45 15763.91,-7875.51l5669.85 -5528.11c4239.5,-4991.19 5586.09,-8165.45 5023.4,-18145.68 -324.3,-5768.65 -302.82,-8399.55 -2615.86,-12200.92 -11208.7,-18424.88 -36839.02,-19198.04 -47390.53,-12149.38 -1348.74,902.02 -2946.61,1840.55 -4471.45,2993.85 -6075.76,4602.46 -11797.16,11734.88 -11797.16,19311.87z"/>
   <path class="fil0" d="M19908.92 118205.72c0,3219.36 433.83,3513.59 1430.35,6032.81l2401.1 5066.36c4114.94,8764.65 8197.66,10048.96 15789.68,14073.69 11777.83,6245.43 26257.44,4589.58 38262.92,-2128.34 8616.46,-4821.52 12978.38,-12611.13 12316.9,-22434.58 -403.76,-5972.68 -163.22,-7067.99 -2845.67,-10729.77 -13981.34,-19084.21 -39970.32,-21109.47 -56503.1,-7647.86 -5886.77,4793.6 -10852.19,14554.77 -10852.19,17767.69z"/>
   <path class="fil0" d="M187884.79 206548.06c0,10334.6 6988.52,22428.14 16369.56,27178.79 9746.14,4937.5 24404,3919.5 33980.47,-2957.34 12426.43,-8921.43 16502.71,-25656.09 7677.93,-38701.05 -3313.86,-4898.84 -2237.87,-3498.56 -6578.32,-7106.65 -9282.24,-7723.03 -22039.41,-8560.62 -33024.75,-4778.57 -2514.92,865.51 -1176.92,326.45 -2581.5,1149l-4157.89 3305.27c-3230.1,2620.16 -7256.98,6054.29 -8657.27,10008.15 -42.95,115.97 -3028.22,11835.82 -3028.22,11902.4z"/>
   <path class="fil0" d="M272494.48 293646.9c15740.29,0 29861.23,-11846.56 29861.23,-24885.08 0,-14778.13 1535.59,-14273.43 -3303.12,-21581.96 -4379.1,-6612.68 -1574.24,-6159.52 -10502.12,-10650.31 -253.43,-128.86 -586.31,-272.75 -837.59,-405.91 -246.98,-131.01 -564.84,-300.67 -807.52,-438.13 -5478.71,-3062.58 -1065.25,-1862.03 -5897.51,-2869.29 -5955.49,-1245.65 -12533.81,-1045.92 -17187.82,1125.38l-8592.84 5109.31c-5888.92,4565.95 -9222.1,11492.19 -11288.16,18609.58 -2676,9217.81 -414.5,11928.17 2300.16,17447.69 3142.04,6380.73 3122.72,8051.62 9479.82,12918.25 4538.03,3474.93 10697.55,5620.46 16775.47,5620.46z"/>
   <path class="fil0" d="M409363.47 390700.2c0,16236.4 -311.41,7815.38 3419.09,18976.83 3537.22,10579.43 14073.69,22084.51 22711.63,22084.51 9189.89,0 10540.77,1039.47 15909.95,-2753.32 1728.88,-1222.03 4220.18,-3077.61 5373.48,-4580.98 1726.73,-2257.2 377.99,-687.26 1840.55,-3137.75 1241.35,-2076.8 1071.69,-1546.32 1939.35,-3038.96 6236.84,-10742.66 1490.48,-30567.82 -5472.27,-39678.24 -380.14,-498.26 -2319.49,-2727.54 -2899.36,-3320.3l-4145.01 -3320.3c-8528.41,-5987.71 -5358.44,-4873.07 -20012.01,-4873.07 -5418.58,0 -10244.4,5068.51 -12684.15,8470.42 -1395.99,1950.09 -5981.27,12314.75 -5981.27,15171.16z"/>
   <path class="fil0" d="M337197.39 337197.39c0,661.48 2536.4,7750.95 3206.47,10478.49 5291.86,21489.61 31643.8,29801.1 44463.25,17282.32 4660.45,-4553.06 3661.78,-3262.31 5592.54,-9338.08 1789.01,-5635.49 6466.64,-9673.11 2901.5,-19840.19 -1383.1,-3949.57 -1166.19,-1758.94 -2607.27,-6101.54 -7564.1,-22769.62 -33207.3,-27829.53 -46454.15,-12752.88 -3180.7,3616.68 -7102.35,17552.92 -7102.35,20271.88z"/>
   <path class="fil0" d="M116962.22 140601.64c0,9039.55 1872.77,12737.84 6936.98,17948.09l11172.19 7493.23c5702.07,2525.66 19543.82,2424.72 25656.09,906.32 6052.14,-1501.22 17202.85,-10774.87 17202.85,-17636.68 0,-12649.79 1355.18,-12935.43 -3859.37,-19782.21 -16214.92,-21300.61 -57108.75,-17905.14 -57108.75,11071.25z"/>
   <path class="fil0" d="M1165876.63 435494.19c-4237.36,0 -6101.54,-5117.9 -5882.47,-8552.03 221.21,-3489.97 3013.18,-7040.07 4638.97,-10111.24 3311.71,0 5616.16,-493.96 7927.06,-657.19 4460.71,-313.56 2817.75,534.77 8249.21,657.19 0,11702.66 -3118.42,18663.27 -14932.76,18663.27zm-18663.27 -43550.49l5938.31 6505.3c674.37,-212.62 27657.72,-12295.42 27657.72,960.01 0,4883.81 -3820.71,3586.61 -8313.64,4129.97 -5001.93,603.5 -15978.68,3990.37 -19414.95,6713.62 -912.76,721.62 -6082.21,6107.98 -6651.34,7037.92 -2912.24,4739.91 -3363.25,15669.41 -777.46,21006.38l6378.59 7312.82c4078.43,2781.24 10923.06,2325.93 16337.34,2325.93 8558.47,0 8002.23,-3732.65 13684.97,-3732.65 4046.21,0 3225.8,3444.87 8579.95,3408.36 6223.95,-40.81 7596.32,-3599.5 7596.32,-8384.51 0,-7147.45 -3910.91,3479.23 -3743.39,-17411.18 225.51,-28190.34 3148.49,-35653.5 -11479.31,-40777.85 -13983.49,-4896.69 -5708.51,-2645.93 -24479.17,1067.39 -5435.76,1073.84 -9915.8,4604.61 -11313.94,9838.49z"/>
   <path class="fil0" d="M1394822.76 413098.27c0,-3492.11 511.15,-5897.51 813.97,-7896.99l715.17 -4263.13c77.32,-315.71 201.88,-689.4 279.2,-966.45 75.17,-266.31 262.02,-704.44 326.45,-914.91 809.67,-2570.76 1249.95,-3343.93 5893.21,-5425.02 8221.29,-3683.26 16857.08,2903.65 16857.08,13242.55 0,23291.5 1453.97,27374.23 -13687.11,27374.23 -9911.51,0 -11197.96,-13523.89 -11197.96,-21150.27zm-16176.27 -6223.95c0,19292.54 -1168.33,10819.97 3122.72,23008.01 2304.45,6541.81 3174.26,9211.37 11204.4,14928.47 6247.58,4447.83 22561.29,4585.28 28920.55,332.89 15093.84,-10091.91 15233.44,-21145.98 15233.44,-37023.72 0,-6002.74 -1971.56,-8096.72 -3850.78,-12323.34 -4580.98,-10306.68 -12825.9,-15188.34 -23656.61,-17404.73 -3404.06,-697.99 -4331.85,-680.81 -7332.15,-1378.81 -2822.04,2068.21 -1993.04,2313.04 -3049.69,3169.96 -687.26,558.39 -652.89,592.76 -1443.24,1048.06 -5813.75,3346.07 -11371.92,2224.99 -15729.55,15375.18 -1129.68,3414.8 -3419.09,6249.73 -3419.09,10268.02z"/>
   <path class="fil0" d="M316042.82 248855.05c0,4873.07 4052.66,14266.99 8676.59,19941.13l12946.17 9451.9c12374.89,5944.76 23443.99,-2873.59 29536.93,-14320.68 5712.81,-10740.51 51.54,-26068.44 -7542.62,-33804.36 -10813.53,-11013.26 -26695.56,-12486.57 -37352.31,109.53 -2347.41,2776.94 -2487,5044.88 -3818.56,8622.9 -1271.42,3425.54 -2446.2,5053.47 -2446.2,9999.56z"/>
   <path class="fil0" d="M64702.91 65946.42c0,4909.58 990.08,8545.59 3380.44,11548.03l7712.29 7220.47c26162.94,18364.74 61348.25,-852.63 48939,-25299.58l-14578.4 -12793.68c-5534.55,-2989.56 -45453.33,-9507.74 -45453.33,19324.75z"/>
   <path class="fil0" d="M1062603.68 383234.89c-3666.08,0 -10182.11,-4737.76 -14647.12,264.16 -3397.62,3805.67 -311.41,12226.7 -236.24,18349.71 173.96,13629.13 -47.25,27455.84 -47.25,41110.74 5004.08,3350.37 1511.96,3732.65 9954.46,3732.65 16910.77,0 -6524.63,-52259.3 16174.12,-52259.3 9930.84,0 8942.91,-350.07 8753.91,11155.01 -90.2,5405.69 -42.95,10813.53 -45.1,16219.22 0,18446.35 -2665.26,24885.08 9956.61,24885.08 4022.59,0 6219.66,-4516.55 6219.66,-8710.96 0,-14919.88 2676,-43419.48 -5450.79,-53028.17 -2313.04,-2736.13 -12009.78,-5450.79 -14458.13,-5450.79 -4961.12,0 -8635.79,3732.65 -16174.12,3732.65z"/>
   <path class="fil0" d="M386965.39 287425.09c0,10710.44 -1275.72,14754.51 3346.07,21541.15 4613.2,6773.76 3000.3,5422.87 9157.67,10751.25 2295.86,1986.6 -1400.28,-534.77 2038.14,1694.51 18242.33,11822.93 35230.41,-3829.3 35230.41,-15323.64 0,-11228.03 -1503.37,-18384.07 -8930.02,-27153.02 -7778.87,-9185.59 -14305.64,-10173.52 -25909.52,-10173.52 -2109.01,0 -8090.28,4980.45 -9707.48,6468.79 -3511.44,3232.25 -5225.29,5779.39 -5225.29,12194.48z"/>
   <path class="fil0" d="M768956.78 423050.58c0,1464.71 -1939.35,6217.51 2293.71,16369.56 923.5,2216.4 556.25,1456.12 1872.77,3105.53 225.51,285.64 940.68,1037.33 1194.11,1292.9 5242.47,5289.72 10633.12,4117.09 19524.49,4117.09 7710.14,0 8126.79,-2085.39 12441.46,-4976.16 5854.55,3917.35 5120.05,5727.84 13689.26,3732.65 1597.87,-6857.52 783.9,-55989.81 -1245.65,-64702.91 -16255.73,0 -13719.33,-2167 -13684.97,24887.22 30.07,25031.12 -1155.45,27372.08 -17421.92,27372.08 -6092.95,0 -3732.65,-12701.33 -3732.65,-24885.08 0,-9780.5 614.23,-19395.63 -1243.5,-27374.23 -17774.13,-4140.71 -14032.89,9574.32 -14097.32,19870.26 -23.62,3777.76 -515.44,1591.42 -779.6,6335.63 -307.12,5474.42 1189.81,7905.58 1189.81,14855.45z"/>
   <path class="fil0" d="M447935.65 338440.89c0,5775.09 423.09,9460.5 1509.81,14664.3 1604.31,7669.34 16236.4,28353.57 35516.05,21115.91 2321.63,-869.81 736.65,111.68 3073.32,-1902.84l3017.48 -3204.33c9067.47,-10721.18 6262.61,-31018.83 -6402.21,-43745.93 -9630.16,-9679.56 -21225.44,-12855.96 -31042.45,-2409.69 -3541.51,3769.16 -5672,8792.57 -5672,15482.57z"/>
   <path class="fil0" d="M215256.87 139358.14c0,8779.68 2444.05,13135.16 7113.09,17774.13 3382.58,3363.25 2673.85,2983.12 7044.36,5397.1 9958.76,5498.04 2259.35,4200.85 21927.73,4200.85 2766.2,0 15733.85,-7377.25 18399.11,-17767.69 1529.14,-5955.49 957.86,-10188.56 -1284.31,-14243.36 -23.62,-42.95 -1127.53,-1771.83 -1449.68,-2313.04 -4179.37,-6977.79 -10411.91,-13330.6 -19363.41,-14292.76 -9134.05,-981.49 -15409.55,-1681.63 -21801.02,3210.77 -5983.41,4583.13 -10585.88,9151.23 -10585.88,18034z"/>
   <path class="fil0" d="M186639.14 118205.72c19148.64,0 36018.61,-13218.92 23590.03,-32298.84l-936.38 -1552.77c-148.19,-225.51 -320,-551.95 -468.19,-775.31l-9451.9 -7970.01c-10368.96,-5644.08 -5772.94,-4686.22 -21442.36,-4686.22 -7259.13,0 -16399.62,5766.5 -18469.98,11408.43 -2856.4,7774.57 -2291.57,8670.15 -1043.77,14234.77 1600.02,7143.16 -582.02,4325.41 4888.1,10134.86 1155.45,1226.32 665.78,837.59 1804.04,1928.61 6047.84,5805.16 16071.03,9576.47 21530.41,9576.47z"/>
   <path class="fil0" d="M1486897.76 446692.15c11436.35,0 8749.62,-2822.04 8710.96,-28619.88 -17.18,-11275.28 -1589.28,-21195.38 11290.31,-23697.41 15029.41,-2920.83 11328.97,14082.29 11097.02,38640.91 -126.71,13367.11 -1945.79,13676.38 8719.55,13676.38 2912.24,0 4976.16,-2063.91 4976.16,-4978.3 0,-14851.15 2669.56,-48511.62 -3915.21,-55809.4 -2725.4,-3021.77 -4361.92,-3337.48 -7785.31,-4656.15 -285.64,-109.53 -618.53,-231.95 -902.02,-343.63 -4314.67,-1658 2714.66,-1402.43 -4817.23,-1402.43 -6552.55,0 -13676.38,3872.25 -16915.06,4200.85 -6350.67,648.6 176.11,704.44 -4411.32,-1524.85 -2375.33,-1153.3 -6531.07,-1879.21 -10068.29,788.2 -3833.59,2890.77 -1456.12,7110.94 -1041.62,11511.52 1733.17,18396.96 -4469.31,52214.2 5062.06,52214.2z"/>
   <path class="fil0" d="M118205.72 27374.23c0,8339.41 -513.29,7800.34 4175.07,14488.2 3182.85,4544.47 2764.05,3702.59 6967.05,6722.21 34689.2,24923.73 72060.84,-19870.26 20276.17,-36512.57 -9020.22,-2899.36 -20712.15,-176.11 -26540.93,6492.41l-2957.34 3264.46c-1675.18,2343.11 -1920.02,1965.12 -1920.02,5545.29z"/>
   <path class="fil0" d="M420563.57 267630l1580.69 1131.82c8925.72,5072.8 20641.28,1814.78 24943.06,-5826.63 139.6,-244.83 274.9,-584.17 403.76,-839.74l1546.32 -3464.19c2512.78,-5721.4 3127.01,-7555.51 0,-15836.93 -111.68,-292.08 -249.13,-605.64 -358.66,-897.73l-6320.6 -11107.76c-1258.54,-1423.91 -365.1,-594.91 -1713.84,-2018.81 -6960.6,-7353.63 -15970.09,-9963.05 -26046.97,-7065.84 -5270.39,1514.11 -10545.07,7823.97 -11382.66,13551.81 -3103.39,21214.7 15478.27,30627.95 17348.89,32374.01z"/>
   <path class="fil0" d="M465355.42 277472.78c0,7400.88 -841.89,12198.78 2313.04,17593.73 876.25,1501.22 693.7,934.24 1956.53,3021.77 15821.9,26167.24 40524.42,19174.42 40524.42,-1952.23 0,-26399.18 -27301.21,-42886.86 -39195.01,-29240.55 -2772.64,3178.55 -5598.98,5605.42 -5598.98,10577.28z"/>
   <path class="fil0" d="M243876.75 95807.65l10336.75 -859.07c1316.52,-328.59 1660.15,-380.14 2830.63,-902.02 10403.32,-4651.86 14471.01,-20366.37 1256.39,-32569.45 -8554.18,-7901.29 -515.44,-3313.86 -11535.15,-7130.27l-1804.04 -700.14c-380.14,-137.45 -1432.5,-582.02 -1823.37,-706.58 -7604.91,-2437.61 -14922.03,-438.13 -21182.49,3528.63 -14924.17,9451.9 -3573.73,39338.91 21921.29,39338.91z"/>
   <path class="fil0" d="M1238044.86 403141.66c0,17413.32 -2038.14,21098.73 3159.23,30436.81 1658,2978.82 2843.52,8281.42 11163.6,12477.97 6294.83,3172.11 24687.49,4278.16 32960.32,-8075.25 -2491.3,-3719.77 -3670.37,-6168.11 -7467.46,-8708.81 -6773.76,4535.88 -2749.02,4976.16 -14930.62,4976.16 -7338.6,0 -10051.1,-9793.38 -10557.96,-16468.35 -665.78,-8768.94 3732.65,-14821.08 4338.3,-22103.84 3724.06,-309.26 6387.18,-1748.21 10128.42,-1713.84 3771.31,34.36 3477.08,1713.84 11021.85,1713.84 6408.65,0 5949.05,-10199.29 646.45,-13079.32 -9804.12,-5324.08 -16270.76,-4168.63 -26042.67,122.42 -6477.38,2845.67 -14419.47,15104.58 -14419.47,20422.21z"/>
   <path class="fil0" d="M398165.5 180419.48c0,9185.59 -186.85,14217.59 8960.09,23390.3 8582.1,8605.72 18343.27,12344.82 28697.19,5556.03 2753.32,-1806.19 4127.83,-2295.86 5397.1,-5809.45 2349.55,-6507.45 2151.97,-16341.64 -2441.9,-22688.01l-5757.91 -6687.85c-1099.61,-1123.23 -1024.44,-1215.58 -1786.86,-1943.64 -2963.79,-2819.89 -11874.48,-6747.99 -16893.59,-6747.99 -4207.29,0 -7516.85,2607.27 -10195,4733.47 -3096.94,2459.08 -5979.12,5047.03 -5979.12,10197.15z"/>
   <path class="fil0" d="M207791.56 38572.19c8927.87,0 21154.57,-4744.21 21154.57,-11197.96 0,-9181.3 1280.01,-14331.42 -9761.17,-22591.36 -3047.55,-2282.98 -2787.68,-513.29 -3928.09,-4782.87l-31104.73 0c-897.73,3363.25 -17071.84,19034.82 8880.62,34667.72 3352.52,2018.81 9866.41,3904.47 14758.8,3904.47z"/>
   <path class="fil0" d="M465355.42 222722.18c0,12413.54 521.88,7334.3 4037.62,14627.79 2656.67,5515.22 4611.05,8932.17 9847.08,12551 219.06,150.34 545.51,324.3 773.16,470.34 15394.51,9978.08 28892.63,4804.34 28892.63,-16449.02 0,-4817.23 -6327.04,-14348.6 -9520.63,-17853.6 -173.96,-189 -408.06,-474.64 -582.02,-663.63 -14361.48,-15461.09 -33447.84,-7634.97 -33447.84,7317.12z"/>
   <path class="fil0" d="M274981.48 69679.07c0,8562.77 3294.53,14421.62 10216.48,20890.41 5227.43,4883.81 14988.6,7727.32 22136.06,7727.32 2212.1,0 14930.62,-6473.08 14930.62,-12441.46 0,-8083.84 1391.69,-13049.26 -7894.84,-21966.39 -186.85,-178.26 -453.16,-431.68 -646.45,-601.35l-5949.05 -4003.26c-6889.73,-4596.02 -6200.33,-3292.38 -19103.54,-3292.38 -9703.18,0 -13689.26,13511 -13689.26,13687.11z"/>
   <path class="fil0" d="M709232.17 359593.31l0 75900.88c0,6254.02 6187.44,12441.46 12441.46,12441.46 4520.85,0 4366.22,-1475.45 8710.96,-2487 -238.39,-10650.31 -5186.63,-3818.56 -5014.81,-21115.91 173.96,-17604.47 3906.62,-70961.23 -8672.3,-70961.23 -1988.74,0 -7465.31,2345.26 -7465.31,6221.81z"/>
   <path class="fil0" d="M372034.78 134379.84c0,6578.32 2506.33,9020.22 3788.49,11144.27 141.75,231.95 328.59,543.36 468.19,775.31 14496.79,24092.58 40539.46,17662.45 40539.46,3013.18 0,-7615.64 455.31,-11208.7 -3560.84,-16348.08 -158.93,-204.03 -414.5,-468.19 -575.58,-670.07 -22099.54,-27758.66 -40659.73,-7488.93 -40659.73,2085.39z"/>
   <path class="fil0" d="M329729.94 94564.15c0,16169.82 15630.76,26130.73 22398.07,26130.73l12441.46 0c3026.07,0 9954.46,-6930.54 9954.46,-9956.61 0,-10807.09 1084.57,-10482.79 -3320.3,-16586.47l-4907.43 -6290.53c-13586.17,-12151.53 -36566.26,-9136.2 -36566.26,6702.88z"/>
   <path class="fil0" d="M261296.51 37328.69c7387.99,0 13369.26,1005.11 18796.43,-4845.15 6773.76,-7308.53 5214.55,-13425.1 36.51,-21453.1 -2231.43,-3459.9 -5012.67,-6872.55 -10124.13,-7297.79l0 -3732.65 -27374.23 0c-734.5,2753.32 -14157.45,15003.64 3556.54,30039.49 3096.94,2630.9 11148.57,7289.2 15108.87,7289.2z"/>
   <path class="fil0" d="M474064.23 197839.25c12834.49,0 11539.44,1589.28 16607.95,-5792.27 5147.97,-7497.52 3835.74,-11803.61 -133.16,-19391.33 -176.11,-337.18 -674.37,-1303.64 -846.18,-1642.97 -6339.93,-12572.47 -26137.17,-25873 -36284.92,-7433.09l-893.43 1597.87c-433.83,844.04 -944.98,1050.21 -1280.01,3047.55 -472.49,2815.6 1133.97,6309.86 2188.48,9177l936.38 2813.45c292.08,908.47 670.07,2557.88 1254.24,3724.06 2669.56,5306.9 12636.9,13899.73 18450.65,13899.73z"/>
   <path class="fil0" d="M293646.9 22395.92c0,10371.11 272.75,13891.14 12385.62,22453.91 7342.89,5190.92 22054.44,4716.29 26296.1,1299.34 11228.03,-9041.7 2093.98,-27788.73 -13468.05,-32788.51 -9909.36,-3185 -9076.06,-5852.41 -19943.28,620.68 -3427.68,2042.44 -5270.39,3303.12 -5270.39,8414.58z"/>
   <path class="fil0" d="M424296.23 119449.22c0,14228.33 -590.61,5624.75 1625.79,9570.03 128.86,227.65 343.63,534.77 478.93,766.72 131.01,236.24 339.33,534.77 472.49,773.16 133.16,240.54 320,549.8 451.01,792.49 2487,4636.82 1161.89,4267.42 4686.22,7757.39 9366,9273.65 12338.38,7714.44 23390.3,7714.44 8706.66,0 9954.46,-12542.4 9954.46,-13687.11l-3440.57 -11490.05c-3038.96,-6153.08 -21521.82,-22413.11 -33353.35,-10371.11 -3204.33,3262.31 -4265.28,4321.12 -4265.28,8174.04z"/>
   <path class="fil0" d="M367058.62 73411.72c25692.6,0 21944.91,-23950.84 7115.24,-33243.81 -2405.39,-1507.67 -1836.26,-1275.72 -3709.03,-2512.78 -8255.65,-5442.2 -33132.14,-5936.17 -24358.9,19363.41 1346.59,3882.99 1872.77,4177.22 5781.53,7922.76 1580.69,1516.26 1026.59,1183.37 2727.54,2250.76l9097.54 4589.58c3414.8,1915.72 -1950.09,1630.08 3346.07,1630.08z"/>
   <path class="fil0" d="M388211.04 78387.88c0,16650.9 -1473.3,4273.87 4207.29,14458.13 2175.59,3898.02 1164.04,3440.57 5008.37,6189.59 1129.68,809.67 1771.83,1101.76 3004.59,1971.56 8854.85,6245.43 25956.76,10048.96 28149.54,-8354.44 509,-4265.28 388.73,-1301.49 -459.6,-4357.63 -3741.24,-13470.2 -16270.76,-21603.43 -25117.02,-21972.83 -5886.77,-244.83 -14793.16,4939.65 -14793.16,12065.62z"/>
   <path class="fil0" d="M984215.8 386967.54c0,14097.32 -1507.67,46673.21 1243.5,58481.11 3114.12,725.91 14930.62,3820.71 14930.62,-3734.8l0 -55991.96c0,-6936.98 -16174.12,-5785.83 -16174.12,1245.65z"/>
   <path class="fil0" d="M655729.36 386967.54l0 52259.3c0,8573.51 4482.19,7465.31 9952.31,7465.31 4718.44,0 4978.3,-7561.95 4978.3,-12443.61 0,-10892.99 2811.3,-53502.8 -3732.65,-53502.8 -5042.73,0 -11197.96,1342.3 -11197.96,6221.81z"/>
   <path class="fil0" d="M1326387.2 385721.89l0 55991.96c0,6898.32 14932.76,8189.07 14932.76,-3732.65l0 -51013.65c0,-2991.71 -2016.66,-3657.49 -3732.65,-6221.81 -4469.31,98.79 -11200.11,466.04 -11200.11,4976.16z"/>
   <path class="fil0" d="M1398555.42 375769.58c11030.44,0 12125.76,-3172.11 17106.21,-5291.86 5865.29,-2495.59 11511.52,-1823.37 11511.52,-10884.4 0,-3515.74 -5188.78,-7465.31 -8708.81,-7465.31 -3704.73,0 -1449.68,749.54 -4645.41,2822.04 -223.36,143.89 -517.59,354.37 -745.24,498.26 -801.08,498.26 -1509.81,813.97 -2401.1,1331.56 -4812.93,2791.97 -13173.82,7168.93 -15824.05,11706.96 -1711.69,2929.42 -678.66,7282.76 3706.88,7282.76z"/>
   <path class="fil0" d="M663194.67 374523.93c6329.19,0 5182.33,-371.55 7336.45,-3859.37l3861.51 -6092.95 -3300.97 -5407.84c-6391.47,-8962.24 -25993.27,335.04 -14735.18,12209.52 2237.87,2362.44 2508.48,3150.63 6838.19,3150.63z"/>
   <path class="fil0" d="M982970.15 364571.62c0,12301.87 18061.92,14211.15 19189.45,1063.1 1168.33,-13624.83 -19189.45,-13251.14 -19189.45,-1063.1z"/>
   <path class="fil0" d="M1326387.2 357106.31c-5884.62,25256.62 17421.92,19563.14 17421.92,7465.31 0,-11243.06 -12628.31,-9327.34 -17421.92,-7465.31z"/>
   <polygon class="fil0" points="422144.26,268761.82 420563.57,267630 "/>
  </g>
 </g>
</svg>
