<?xml version="1.0" encoding="UTF-8"?>
<!DOCTYPE svg PUBLIC "-//W3C//DTD SVG 1.1//EN" "http://www.w3.org/Graphics/SVG/1.1/DTD/svg11.dtd">
<!-- Creator: CorelDRAW 2021 (64-Bit) -->
<svg xmlns="http://www.w3.org/2000/svg" xml:space="preserve" width="57.9274mm" height="15.464mm" version="1.1" style="shape-rendering:geometricPrecision; text-rendering:geometricPrecision; image-rendering:optimizeQuality; fill-rule:evenodd; clip-rule:evenodd"
viewBox="0 0 3532.71 943.07"
 xmlns:xlink="http://www.w3.org/1999/xlink"
 xmlns:xodm="http://www.corel.com/coreldraw/odm/2003">
 <defs>
  <style type="text/css">
   <![CDATA[
    .fil0 {fill:#BDBFC1}
   ]]>
  </style>
 </defs>
 <g id="Capa_x0020_1">
  <metadata id="CorelCorpID_0Corel-Layer"/>
  <g id="_2452445669600">
   <path class="fil0" d="M3289.15 243.11l16.53 -34.43c0.77,17.46 2.51,15.28 -0.77,33.44 -3.42,18.94 -7.44,18.27 -8.75,20.88l-51.9 393.69c167.13,0.01 133.19,7.16 141.37,-33.13 1.45,-7.12 2.31,-26.85 2.99,-34.99 10.16,-119.26 68.64,-468.98 26.5,-512.87 -28.71,-29.89 -88.81,-30.1 -128.09,-9.39 -79.59,41.96 -149.43,305 -153.3,336.72l-20.42 26.47c-1.73,-40.99 -3.29,-151.44 13.4,-177.95 -5.64,-45.04 9.29,-112.35 -3.71,-150.36 -14.08,-41.13 -50.07,-51.31 -94.73,-48.44 -89.04,5.74 -106.21,73.85 -129.83,154.3 -42.78,145.71 -95.09,299.5 -132.15,449.65l137.42 -0.85c3.39,-22.72 85.74,-376.77 111.3,-411.2 0.68,56.25 -14.78,375.39 20.25,408.45 32.1,30.29 71.4,4.32 88.89,-15.48 23.27,-26.36 160.66,-357.35 165,-394.52z"/>
   <path class="fil0" d="M1859.51 127.56l-14.78 63.24 -85.65 446c-9.26,32.88 -4.35,6.64 6.12,17.16 43.43,-0.45 92.1,6.07 133,-6.51l86.49 -440.94c107.07,8.07 175.29,45.18 146.89,165.76 -8,33.97 -42.34,81.92 -58.63,98.31 -32.53,32.76 -66.25,28.69 -109.99,47.13l-30.19 135.35c143.61,19.18 337.86,-122.96 353.84,-324.46 23,-290 -255.52,-267.25 -413.79,-268.18l-13.32 67.16z"/>
   <path class="fil0" d="M2306.92 628.39c-6.76,44.38 -5.93,16.69 17.33,25.13 0.51,0.18 37.19,0.02 40.83,-0.05 27.64,-0.59 52.63,0.25 80.39,-1.9 17.51,-92.87 39.2,-192.77 58.31,-287.87 7.76,-38.66 16.83,-110.41 34.63,-138.43 41.37,-65.13 146.49,-46.93 87.17,87.69l-83.97 2.96 -18.28 96.08 -3.65 33.55c13.54,-0.35 38.68,-2.02 51.4,-0.97l33.13 12.03 -41.83 199.25 145.6 0.66c23.35,-236.64 212.82,-624.49 -105.44,-603.11 -126.43,8.49 -200.69,96.85 -227.08,214.19 -25.81,114.81 -48.44,242.51 -68.54,360.81z"/>
   <path class="fil0" d="M812.47 315.88l30.76 5.28 -1.92 -23.88c-16.91,-168.2 -221.6,-300.02 -425.82,-297.24 -211.35,2.88 -394.68,134.16 -415.5,323.14l304.99 -0.52c37.41,-72.76 27.6,-79.85 87.03,-120.22 139.59,-94.83 363.03,-63.29 420.46,113.44z"/>
   <path class="fil0" d="M1539.78 460.41c-13.6,-16.96 -10.29,-7.62 -8.85,-37.3l188.36 -2.12 18.34 -124.92 -180.3 -0.59c24.02,-92.29 134.31,-92.14 206.31,-96.44l23.74 -138.33c-119.82,-0.52 -184.77,4.97 -262.17,66.94 -62.71,50.2 -105.45,98.72 -136.45,195.24 -30.72,95.66 -13.7,190.56 37.12,258 51.02,67.71 129.69,77.45 243.95,76.2l25.04 -139.42c-94.25,-0.87 -144.44,6.43 -155.07,-57.26z"/>
   <path class="fil0" d="M0.84 387.07c74.14,448.01 821.3,375.92 843.05,-2.57 -50.1,1.54 -29.11,14 -55.35,56.26 -70.91,114.21 -269.54,145.53 -390.86,63.46 -67.48,-45.65 -71.42,-86.73 -92.69,-119.89l-304.15 2.74z"/>
   <path class="fil0" d="M1172.33 650.61l107.02 -11.13 16.72 -125.87c-132.28,0.95 -211.28,-33.97 -161.05,-184.5 34.04,-102 107.9,-121.66 229.38,-124.73l23.46 -143.76c-111.45,0.16 -174.06,1.28 -252.97,55.7 -260.33,179.55 -187.07,545.09 37.44,534.29z"/>
   <path class="fil0" d="M2080.92 912.45c-14.68,-16.98 -9.35,12.83 -7.86,-30.19 0.97,-27.97 42.74,-152.68 31.54,-183.47 -29.74,3.48 -25.24,4.63 -33.19,45.87 -27.71,143.7 -59.11,187.29 24.98,189.55 82.03,2.21 85.8,-7.39 97.7,-65.24 20.73,-100.8 47.57,-151.42 4.85,-168.61l-36 177c-8.01,35.91 0.72,28.96 -26.77,35.23 -9.88,-16.19 -4.55,-30.52 0.45,-53.87 12.5,-58.43 35.84,-122.34 15.8,-158.6 -26.06,14.76 -28.3,78.69 -34.15,108.11 -11.15,56.16 -9.46,93.52 -37.35,104.19z"/>
   <path class="fil0" d="M3036.8 834.05c-8.06,5.7 -2.6,4.04 -16.64,8.35 -7.44,2.29 -6.49,0.26 -14.45,-0.26 0.35,-29.93 -4.98,-13.83 9.07,-30.1l14.94 -84.35c9.98,-10.57 -15.31,-12.28 29.11,-11.51 0.91,30.43 5.54,12.11 -8.54,29.96l-13.5 87.92zm-61.45 24.2l-15.59 73.37 29.3 -6.43c6.06,-35.3 0.26,-59.97 31.13,-65.2 8.95,11.68 7.2,-12.59 5.45,25.72 -0.3,6.73 -3.92,21.42 -4.7,33.87 2.13,18.61 8.98,11.15 26.89,8.42 3.77,-42.16 53.84,-197.9 28.89,-221.84 -13.73,-13.17 -41.86,-10.13 -58.03,-0.81 -30.61,17.65 -42.69,121.37 -43.34,152.91z"/>
   <path class="fil0" d="M3146.48 912.59c-9.62,-16.42 -7.79,17.5 -5.82,-23.05 0.21,-4.33 4.21,-20.67 5.38,-26.3 8.68,-41.67 1.59,-33.66 34.74,-37.79 -0.97,21.75 -2.9,29.92 -6.88,50.99 -7.48,39.62 0.3,31.25 -27.42,36.15zm26.18 -189.5c4.93,-2.59 7.7,-4.93 19.97,-7.33 12.11,-2.37 5.2,0.24 15.24,2.44l-6.75 11.65c-6.13,97.74 -13.85,70.66 -30.96,75.73 -10.01,-17.93 -8.17,18.3 -6.87,-26.51l9.37 -55.97zm-63.72 190.47l2.07 18 58.88 -5.05c44.09,-14.8 30.66,-67.63 35.79,-108.82 3.88,-31.22 35.33,-49.81 21.78,-115.43l-73.08 -3.27c-16.68,31.75 -42.89,174.54 -45.43,214.57z"/>
   <path class="fil0" d="M2413.22 802.17c-19.21,8.73 -9.29,10.15 -33.13,-0.17 4.53,-34.13 2.01,-13.69 10.48,-21.55 2.85,-41.89 -3.82,-60.69 38.23,-61.43l-15.58 83.15zm-76.63 96.17l-7.73 33.07 29.44 -4.55c2.78,-19.58 6.83,-38.38 10.75,-58.56 7.89,-40.58 -0.44,-36.18 27.6,-42.45 6.1,10.17 3.47,-1.56 5.15,16.23 4.06,42.87 -32.45,60.04 2.74,101 15.8,-15.06 15.56,-32.37 20.64,-57.33 6.83,-33.54 5.78,-27.75 5.6,-56.53 -0.3,-47.3 36.94,-49.2 20.43,-122.17 -23.52,-10.81 -45.24,-10.17 -77.55,-7.59l-37.08 198.88z"/>
   <path class="fil0" d="M3493.57 882l0.87 -21.05 -24.34 8.24c-10.54,43.96 4.79,38.27 -37.27,43.49l17.07 -84.42 23.48 -4.04c-1.71,-24.4 3.04,-3.46 -8.93,-18.46 -34.83,-43.62 9.71,21.05 -12.23,-11.84l12.64 -22.83 5.85 -44.53c9.06,-8.35 -10.31,-12.23 30.38,-10.14 0.32,24.27 5.43,11.57 -8.45,28.82 2.43,30.75 -0.53,13.97 9.03,26.26 22.52,-6.36 16.69,7.16 25.16,-31.11 2.79,-12.61 4.4,-28.43 5.87,-42.01 -104.59,-2.75 -90.56,17.7 -109.72,113.02 -19.76,98.26 -51.14,123.32 62.58,122.6l8 -52z"/>
   <path class="fil0" d="M2568.94 880.73l1.23 -18.94 -24.36 4.13c-5.41,29.85 2.24,34.49 -22.88,46.79 -10.72,-11.46 -15.86,13.17 -8.21,-38.52 1.4,-9.47 7.46,-30.22 9.18,-43.62l30.93 -12.03 -23.28 -22.46 15.27 -70.83c10.65,-8.15 -5.48,-10.62 32.15,-7.84l-8.47 23.5c-2.07,44.2 -0.41,19.09 7.68,30.83 18.39,-6.43 26.13,2.24 30.22,-75.27l-80.15 9.65c-18.9,35.3 -26.74,94.03 -37.43,143.31 -18.44,85.01 -17.17,85.98 70.54,84.4l7.58 -53.1z"/>
   <path class="fil0" d="M2877.18 889.57c-8.55,26.94 6.69,17.05 -22.74,24.89 -10.3,-13.76 -10.68,0.32 -8.26,-24.93 2.63,-27.48 6.99,-12.62 10.55,-17.67 -0.7,-30.13 7.51,-57.3 13.38,-86.34 7.65,-37.84 2.13,-59.54 31.69,-66.75 20.1,25.13 -5.13,21.79 7.9,52.14 26.69,-3.56 17.33,10.48 27.6,-20.61 21.04,-63.76 -46.32,-51.51 -62.03,-50.48 -33.88,43.02 -28.29,52.58 -41.16,113.82 -4.38,20.84 -9.91,43.97 -13.5,65.03 -14.25,83.38 88.43,75.16 89.04,-18.95 -31.21,1.87 -24.87,-1.56 -32.47,29.86z"/>
   <path class="fil0" d="M2692.53 804.04c-3.26,-29.79 -8.98,-8.45 4.06,-25.56 25.73,9.08 5.91,5.54 23.64,23.93 27.52,28.53 8.39,-15.93 23.02,23.27 -1.56,1.2 -4.01,2.4 -5.04,3.02l-27.54 26.02c-0.66,1.06 -2.55,6.49 -3.02,5.26 -0.47,-1.24 -1.93,3.63 -3.17,5.26 -33.08,-15.2 -2.13,6.26 -20.95,-26.68l-25.8 -12.88c10.67,-26.72 -1.15,-14.54 34.8,-21.64zm65.91 53.21c49.21,-80.41 -72.57,-142.86 -112.27,-73.6 -48.4,84.42 65.61,149.84 112.27,73.6z"/>
   <path class="fil0" d="M3296.45 913.31c-12.46,-18.59 -11.51,25.92 -6.67,-28.77l35.51 -165.3c1.74,-34.47 1,-9.05 -5.17,-21.17 -32.1,6.04 -23.73,10.3 -30.81,48.09 -11.06,59.07 -38.05,141.32 -24.62,184.64l74.97 0.65 8.73 -44.83c-68.36,7.82 0.6,10.87 -51.95,26.67z"/>
   <path class="fil0" d="M385.02 359.99c14.73,51.68 106.01,36.42 92.73,-29.09 -12.04,-59.33 -114.08,-45.9 -92.73,29.09z"/>
   <path class="fil0" d="M475.32 188.97c-18.92,11.04 -43.78,22.34 -24.93,64.06 10.06,22.29 40.67,35.19 67.03,20.14 50.36,-28.75 13.56,-116.69 -42.1,-84.2z"/>
   <path class="fil0" d="M608.14 186.79c-20.42,8.92 -42.15,20.6 -31.1,59.33 7.67,26.9 38.2,39.25 63.02,31.22 56.21,-18.17 27.24,-116.4 -31.92,-90.56z"/>
   <path class="fil0" d="M579.36 478.38c19.05,52.93 115.57,22.38 87.07,-44.13 -20.71,-48.33 -111.42,-23.52 -87.07,44.13z"/>
   <path class="fil0" d="M2248.96 905.6l-7.93 25.74 29.39 -4.04c8.44,-49.87 51.36,-196.49 39.39,-228.72 -31.93,4.07 -22.72,-1.95 -31.01,40.41 -8.97,45.87 -30.69,130.95 -29.85,166.61z"/>
   <path class="fil0" d="M603.33 360.67l-6.53 -51.2c-32.97,-26.22 -52.24,-12.88 -77.54,3.1 -15.33,64.58 18.58,86.26 73.35,72.71l10.72 -24.61z"/>
   <path class="fil0" d="M691.79 390.52c13.49,-59.66 49.79,-32.46 -0.41,-84.32l-40.1 9.89c-0.01,0.01 -9.9,-6.7 -13.42,21 -1.73,13.63 1.29,21.81 6.46,30.92 9.29,16.36 26.31,24.39 47.47,22.52z"/>
   <path class="fil0" d="M486.49 503.96l42.37 -7.14c8.56,-19.44 16.57,-38.65 7.54,-54.38 -50.25,-17.39 -38.51,-23.03 -69.37,-6.81 -5.76,31.41 15.76,60.92 15.88,60.7 0.74,-1.43 2.5,5.03 3.57,7.62z"/>
   <path class="fil0" d="M486.49 503.96c-1.07,-2.59 -2.83,-9.06 -3.57,-7.62 -0.12,0.22 -21.64,-29.3 -15.88,-60.7 30.86,-16.22 19.12,-10.57 69.37,6.81l-11.85 -25.66c-89.4,-32.3 -107.89,71.67 -38.07,87.17z"/>
   <path class="fil0" d="M651.28 316.09l40.1 -9.89c50.2,51.86 13.9,24.66 0.41,84.32 57.28,-16.53 53.94,-51.79 17.51,-95.02l-45.34 -0.21c-21.5,19.61 0.02,-0.13 -12.68,20.8z"/>
   <path class="fil0" d="M3133.74 403.05c-12.12,-13.38 -10.08,15.96 -13.12,-34.68 -0.42,-7.01 2.24,-31.35 2.91,-39.96 2.07,-26.62 5.82,-51.69 3.2,-76.84 -16.7,26.5 -15.14,136.95 -13.4,177.95l20.42 -26.47z"/>
   <path class="fil0" d="M1539.78 460.41l-4.03 -30.53 166.03 -0.01c19.26,-3.57 7.22,3.92 17.51,-8.89l-188.36 2.12c-1.45,29.68 -4.75,20.34 8.85,37.3z"/>
   <path class="fil0" d="M1172.33 650.61c18.39,9.73 20.96,8.31 48,9.22 16.9,0.57 31.09,0.3 48.98,0.16l10.04 -20.51 -107.02 11.13z"/>
   <path class="fil0" d="M1898.2 647.43c-40.9,12.59 -89.57,6.07 -133,6.51 -10.48,-10.52 -15.38,15.73 -6.12,-17.16 -7.23,9.2 -10.28,-15.5 -7.07,22.59l123.7 0.81c37.83,-3.34 11.92,0.55 22.5,-12.76z"/>
   <path class="fil0" d="M2604.2 456.58l-33.13 -12.03c-12.72,-1.06 -37.86,0.62 -51.4,0.97l3.65 -33.55c-4.93,7.09 -2.82,-1.56 -10.01,18.94 -11.28,32.16 -0.7,-13.84 -0.91,19.82l91.8 5.84z"/>
   <path class="fil0" d="M2989.06 925.19l-29.3 6.43 15.59 -73.37c-12.18,15.25 -11.96,16.04 -16.41,41.55 -0.03,0.17 -2.46,18.79 -2.37,19.99 1.7,21.98 -2.49,3.17 8.37,17.49 42.94,-1.5 13.13,0.46 24.12,-12.09z"/>
   <path class="fil0" d="M603.33 360.67c1.68,-2.15 16.15,4.6 8.74,-29.66 -6.23,-28.82 -10.77,-16.66 -15.26,-21.53l6.53 51.2z"/>
   <path class="fil0" d="M3169.89 926.52l-58.88 5.05 -2.07 -18 -6.68 19.79c24.13,5.68 54.86,11.39 67.63,-6.84z"/>
   <path class="fil0" d="M2683.53 838.56c-0.54,-3.85 -9.64,-7.2 -9.71,-7.26 1.63,-2.61 3.4,-9.75 4.43,-8.1l14.29 -19.16c-35.95,7.09 -24.13,-5.09 -34.8,21.64l25.8 12.88z"/>
   <path class="fil0" d="M2877.18 889.57l-19.5 15.8c-1.27,-1.77 -5.26,1.62 -8.04,2.85l7.09 -36.37c-3.56,5.06 -7.92,-9.81 -10.55,17.67 -2.42,25.25 -2.04,11.17 8.26,24.93 29.43,-7.85 14.19,2.05 22.74,-24.89z"/>
   <path class="fil0" d="M3289.15 243.11l7.01 19.89c1.31,-2.61 5.32,-1.95 8.75,-20.88 3.27,-18.16 1.54,-15.98 0.77,-33.44l-16.53 34.43z"/>
   <path class="fil0" d="M812.47 315.88c12.71,14.58 -18.31,8.79 20.4,11.94 18.01,1.46 13.69,-5.17 20.23,-8.15l-11.79 -22.39 1.92 23.88 -30.76 -5.28z"/>
   <path class="fil0" d="M3492.64 745.23c13.87,-17.25 8.76,-4.54 8.45,-28.82 -40.68,-2.09 -21.32,1.78 -30.38,10.14l25.63 -4.6 -3.7 23.28z"/>
   <path class="fil0" d="M3050.3 746.13c14.08,-17.84 9.45,0.47 8.54,-29.96 -44.43,-0.76 -19.13,0.95 -29.11,11.51l26.57 -7.2 -5.99 25.64z"/>
   <path class="fil0" d="M2445.46 651.56c-27.76,2.15 -52.75,1.31 -80.39,1.9 -3.63,0.08 -40.32,0.24 -40.83,0.05 -23.26,-8.43 -24.08,19.26 -17.33,-25.13l-6.01 13.97c-7.76,29.38 -2.11,-4.39 1.57,15.59l142.99 -6.39z"/>
   <path class="fil0" d="M3036.8 834.05l-27.43 1.7 5.42 -23.7c-14.06,16.27 -8.73,0.17 -9.07,30.1 7.96,0.52 7.01,2.55 14.45,0.26 14.03,-4.32 8.58,-2.65 16.64,-8.35z"/>
   <path class="fil0" d="M3493.57 882c16.23,-28.41 6.23,-15.11 0.21,-25.22 -40.98,0.61 -12.51,-1.28 -23.67,12.4l24.34 -8.24 -0.87 21.05z"/>
   <path class="fil0" d="M3047.83 927.99c-17.91,2.73 -24.75,10.19 -26.89,-8.42 -3.27,6.36 -15.6,-11.34 -0.75,15.94 49.34,6.28 14.34,2.09 27.64,-7.52z"/>
   <path class="fil0" d="M2570.51 740.91l8.47 -23.5c-37.63,-2.78 -21.5,-0.32 -32.15,7.84l24.24 -2.26 -0.56 17.92z"/>
   <path class="fil0" d="M2413.22 802.17l-28.22 0.73 5.57 -22.45c-8.47,7.86 -5.96,-12.59 -10.48,21.55 23.84,10.32 13.92,8.9 33.13,0.17z"/>
   <path class="fil0" d="M2358.3 926.86l-29.44 4.55 7.73 -33.07c-14.78,17.05 -10.87,8.21 -11.89,37.05l33.61 -8.54z"/>
   <polygon class="fil0" points="2554.84,818.54 2559.81,804.62 2531.56,796.07 "/>
   <path class="fil0" d="M2270.43 927.31l-29.39 4.04 7.93 -25.74c-14.4,17.51 -9.45,-1.17 -9.98,30.48l31.44 -8.78z"/>
   <path class="fil0" d="M1844.73 190.79l14.78 -63.24c-12.57,23.14 -11.41,32.56 -14.78,63.24z"/>
   <path class="fil0" d="M3473.38 824.21l-7.98 -26.97c-0.72,-2.43 -3.31,-2.1 -4.46,-3.03l3.92 -23.13 -12.64 22.83c21.95,32.89 -22.6,-31.78 12.23,11.84 11.97,15 7.22,-5.94 8.93,18.46z"/>
   <path class="fil0" d="M2568.94 880.73l8.57 -22.64 -26.76 3.93c-1.01,-1.82 -3.26,2.63 -4.93,3.9l24.36 -4.13 -1.23 18.94z"/>
  </g>
 </g>
</svg>
