<?xml version="1.0" encoding="UTF-8"?>
<!DOCTYPE svg PUBLIC "-//W3C//DTD SVG 1.1//EN" "http://www.w3.org/Graphics/SVG/1.1/DTD/svg11.dtd">
<!-- Creator: CorelDRAW 2021 (64-Bit) -->
<svg xmlns="http://www.w3.org/2000/svg" xml:space="preserve" width="59.6418mm" height="16.3293mm" version="1.1" style="shape-rendering:geometricPrecision; text-rendering:geometricPrecision; image-rendering:optimizeQuality; fill-rule:evenodd; clip-rule:evenodd"
viewBox="0 0 4115.6 1126.81"
 xmlns:xlink="http://www.w3.org/1999/xlink"
 xmlns:xodm="http://www.corel.com/coreldraw/odm/2003">
 <defs>
  <style type="text/css">
   <![CDATA[
    .fil0 {fill:#BDBFC1}
   ]]>
  </style>
 </defs>
 <g id="Capa_x0020_1">
  <metadata id="CorelCorpID_0Corel-Layer"/>
  <g id="_1849883580656">
   <path class="fil0" d="M3043.75 1126.81l333.23 0 0 -697.39c0.46,0.72 0.96,1.1 1.11,2.33 0.16,1.24 0.86,1.84 1.08,2.37 0.21,0.54 0.75,1.75 1.01,2.42l149.42 513.62c6.2,21.58 48.62,159.15 50.08,176.65l535.92 0 0 -1126.81 -333.23 0 0 707.69 -26.73 -86.64c-8.71,-31.29 -17.02,-58.43 -26.25,-90.56l-104.29 -356.05c-8.66,-31.09 -17.8,-58.76 -26.78,-90.02 -4.93,-17.18 -8.11,-28.58 -12.95,-45.45 -3.76,-13.09 -6.56,-38.98 -19.42,-38.98l-522.18 0 0 1126.81z"/>
   <path class="fil0" d="M-0 10.3l0 1116.51 635.55 0c13.33,0 25.45,-55.78 30.19,-72.88l48.39 -161.17c8.36,-27.26 17.89,-53.68 24.49,-82.01l-353.85 0 0 -92.76 374.46 0c13.24,0 23.79,-50.27 29.47,-70.16 17.82,-62.39 57.35,-180.62 70.16,-235.59l-474.09 0 0 -89.32 501.57 0c1.79,-21.49 81.36,-262.42 92.88,-309.87 1.93,-7.91 5.35,-13.06 -7,-13.06l-961.91 0c-7.91,0 -10.3,2.39 -10.3,10.3z"/>
   <path class="fil0" d="M1518.44 322.92l319.49 0 0 803.88 518.75 0 -50.52 -42.24c-38.65,-32.28 -101.26,-123.59 -123.56,-165.01 -92.69,-172.15 -102.04,-393.43 -22.71,-576.99 32.17,-74.42 50.69,-99.64 99.1,-162 44.26,-57.03 119.14,-111.15 183.52,-142.83l69.23 -26.97c13.79,-4.15 16.66,-1.33 23.58,-10.77l-1016.88 0 0 322.92z"/>
   <path class="fil0" d="M2497.53 611.5c0,120.01 89.69,226.74 199.25,226.74 76.35,0 122.95,-14.2 174.4,-69.52 80.72,-86.82 76.35,-238.98 -3.44,-324.74 -19.72,-21.19 -35.86,-36.15 -63.24,-50.13 -149.05,-76.09 -306.98,59.88 -306.98,217.66z"/>
   <path class="fil0" d="M1061.54 1126.81l532.49 0c-4.95,-10.32 -7.73,-23.51 -11.5,-36.59l-53.36 -187.11c-7.34,-25.16 -15.11,-49.79 -21.02,-75.17l-357.28 0 -89.32 298.88z"/>
   <path class="fil0" d="M1226.44 577.15l206.12 0c-0.46,-20.72 -63.66,-235.68 -72.12,-267.98l-24.06 -89.3c-10.98,8.04 -9.14,17.8 -16.75,41.65l-40.2 135c-14.27,49.96 -42.66,136.29 -52.98,180.63z"/>
  </g>
 </g>
</svg>
