<?xml version="1.0" encoding="UTF-8"?>
<!DOCTYPE svg PUBLIC "-//W3C//DTD SVG 1.1//EN" "http://www.w3.org/Graphics/SVG/1.1/DTD/svg11.dtd">
<!-- Creator: CorelDRAW 2021 (64-Bit) -->
<svg xmlns="http://www.w3.org/2000/svg" xml:space="preserve" width="66.4395mm" height="24.3452mm" version="1.1" style="shape-rendering:geometricPrecision; text-rendering:geometricPrecision; image-rendering:optimizeQuality; fill-rule:evenodd; clip-rule:evenodd"
viewBox="0 0 7015.3 2570.59"
 xmlns:xlink="http://www.w3.org/1999/xlink"
 xmlns:xodm="http://www.corel.com/coreldraw/odm/2003">
 <defs>
  <style type="text/css">
   <![CDATA[
    .fil0 {fill:#BDBFC1}
   ]]>
  </style>
 </defs>
 <g id="Capa_x0020_1">
  <metadata id="CorelCorpID_0Corel-Layer"/>
  <path class="fil0" d="M171.11 1350.11c-35.26,-133.16 92.43,-307.24 144.9,-400.47 69.93,-124.3 134.85,-240.19 200.78,-360.93 263.86,-483.14 191.98,-422.16 684.98,-422.16l5007.97 -0.65c103.78,0.41 140.03,18.15 183.85,89.43l451.35 961.12c36.96,149.26 -213.53,585.55 -308.3,795.17 -213.74,472.82 -137.99,387.54 -722.19,387.54 -473.26,0 -4915.9,15.34 -5003.05,-6.83 -107.48,-27.36 -183,-219.78 -240.34,-320.3l-299.2 -535.42c-18.62,-31.93 -94.01,-161.03 -100.75,-186.5zm2305.67 -710.34l-563.59 -0.46 -245.75 1292.06 566.12 -0.02c41.07,-12.67 64.36,-204.78 70.34,-252.6l-304.43 -3.71 45.63 -240.65c22.02,-70.25 -26.38,-54.44 281.63,-54.23l42.19 -241.39 -267.37 -4.31c55.27,-302.86 7.39,-244.86 329.93,-243.47l45.31 -251.23zm-1006.2 1251.99l132.3 -695.22 -352.56 0.7 -41.92 213.24 89.55 13.18 -46.3 255.26 -75.92 16.08c-78.62,-9.91 -103.06,-106.59 -107.43,-179.46 -6.4,-106.59 13.61,-236.32 45.07,-329.62 83.8,-248.5 171.76,-322.61 467.74,-277.07l90.55 -242.19c-176.97,-89.06 -443.85,-23.4 -580.64,72.12 -427.85,298.81 -553.51,1461.75 379.55,1152.98zm4240.49 -205.67c-32.53,-66.07 129.39,-734.06 145.34,-820.48 152.42,-10.36 172.1,72.08 172.33,211.37 0.34,216.83 -85.07,681.8 -317.68,609.11zm-330.15 227.09c445.83,46.01 776.56,11.68 904.41,-547.6 132.66,-580.33 -81.63,-806.71 -667.57,-709.86l-236.85 1257.45zm-1426.56 -1057.09c139.78,-17.07 167.43,70.95 137.69,198.68 -27.02,116.03 -76.52,161.25 -207.08,161.58l69.39 -360.26zm190.81 478.84c77.32,-61.45 137.48,-69.02 200.19,-195.45 47.43,-95.6 65.37,-225.56 18.65,-326.42 -84.28,-181.89 -361.08,-215.93 -600.51,-164.69 -82.17,17.59 -66.24,92.15 -104.51,292 -21.03,109.89 -42.44,219.68 -62.67,330.09 -39.68,216.67 -97.96,447.04 -124.5,660.85 327.16,-0.13 269.45,49.81 318.89,-238.35 14.27,-83.19 22.32,-172.08 51.23,-252.01 166.48,-16.74 118.7,230.85 123.75,489.26l287.52 1.15c-34.41,-217.31 22.13,-474.81 -108.04,-596.44zm895.64 -151.73c-19.8,145.79 -53.7,334.65 -119.43,442.4 -31.82,52.17 -119.86,119.29 -168.19,27.91 -56.67,-107.16 23.77,-554.33 116.49,-702.24 55.3,-88.22 229.9,-200.84 171.14,231.94zm-113.19 -547.54c-279.47,66.46 -408.36,341.59 -463.19,654.93 -60.03,343 14.59,727.67 418.55,643.8 258.12,-53.59 395.36,-359.45 446.42,-660.33 57.26,-337.47 -2.95,-733.23 -401.78,-638.39zm-1722.96 1295.58c45.74,-24.49 27.61,1.49 54.3,-146.77 10.06,-55.87 21.87,-113.81 32.32,-166.23l183.41 -978.15 -238.5 -0.59c-26.26,137.96 -54.2,271.3 -73.97,410.71 -16.69,117.8 -23.89,315.78 -59.35,410.17 -10.26,-223.75 -96.83,-594.7 -145.01,-820.13l-257.5 -1.31 -246.28 1292.93 234.67 -4.65c73.46,-155.84 92.3,-611.19 145.69,-807.15 32.7,339.9 135.62,633.29 152.47,811.65l217.74 -0.5zm-2393.74 -1921.28c-183.03,32.65 -240.48,143.62 -315.57,284.92l-424.43 758.8c-96.78,180.68 -93.87,279.86 5,466.16 139.08,262.04 286.82,508.73 429.72,768.72 199.34,362.68 318.57,271.95 923.75,271.95 1597.74,0 3197.99,8.95 4795.41,0.35 215.36,-1.16 271.74,-91.27 346.43,-242.12l378.91 -804.59c89.04,-181.37 86.25,-295.87 -4.68,-475.58 -136.39,-269.6 -254.46,-548.73 -384.46,-813.71 -75.34,-153.58 -153.69,-220.35 -366.72,-219.64 -337.34,1.14 -5271.82,-15.15 -5383.35,4.75z"/>
 </g>
</svg>
