<?xml version="1.0" encoding="UTF-8"?>
<!DOCTYPE svg PUBLIC "-//W3C//DTD SVG 1.1//EN" "http://www.w3.org/Graphics/SVG/1.1/DTD/svg11.dtd">
<!-- Creator: CorelDRAW 2021 (64-Bit) -->
<svg xmlns="http://www.w3.org/2000/svg" xml:space="preserve" width="69.3076mm" height="15.1047mm" version="1.1" style="shape-rendering:geometricPrecision; text-rendering:geometricPrecision; image-rendering:optimizeQuality; fill-rule:evenodd; clip-rule:evenodd"
viewBox="0 0 4182.76 911.58"
 xmlns:xlink="http://www.w3.org/1999/xlink"
 xmlns:xodm="http://www.corel.com/coreldraw/odm/2003">
 <defs>
  <style type="text/css">
   <![CDATA[
    .fil1 {fill:#FEFEFE}
    .fil0 {fill:#BDBFC1}
   ]]>
  </style>
 </defs>
 <g id="Capa_x0020_1">
  <metadata id="CorelCorpID_0Corel-Layer"/>
  <g id="_2453423516992">
   <path class="fil0" d="M609.08 193.73l173.56 -4.6 -0.64 558.25 -169.07 -0.48 -3.85 -553.17zm2471.88 553.63l-158.81 0 204.5 -556.05c245.37,-10.49 179.8,-29.53 290.69,269.1 21.38,57.57 98.94,242.89 99.63,286.97l-167.18 0c-55.3,-99.95 34.76,-91.47 -202.81,-91.47 -55.91,0 -15.15,50.09 -66.01,91.45zm-1785.4 0.02c-164.12,0 -134.21,35.66 -134.21,-203.58 0.01,-115.91 0,-231.83 0,-347.73l228.98 -7.1c15.8,82.41 47.54,251.19 84.61,313.68 41.35,-69.89 66.71,-225.88 84.03,-312.97l229.47 0c-0.63,101.78 13.3,489.32 -8.65,557.7l-124.73 0c-26.3,-78.88 -1.07,-303.94 -11.41,-406.16 0.09,40.45 -87.98,320.84 -102.16,405.45l-134.03 0.67 -101.76 -405.99c-12.2,104.16 14.27,325.2 -10.14,406.03zm1149.89 -114.63c54.29,-111.23 -85.31,-103.85 -180.73,-141.48 -81.32,-32.06 -155.1,-108.58 -101.86,-216.55 55.61,-112.76 410.86,-175.86 448.24,72.59l-157.15 6.23c-38.5,-61.43 -55.56,-95.79 -141.93,-51.7 -13.77,107.27 94.39,41.74 242.96,129.8 86.24,51.11 97.86,164.94 35.52,248.64 -69.43,93.22 -435.94,157 -464.73,-117.39l152.17 -10.1c21.85,24.2 24.13,61.02 54.5,79.6 35.22,21.54 79.67,10.68 113,0.35zm-2376.71 -132.95c14.44,163.88 141.69,287.3 276.62,326.53 105.16,30.59 458.76,14.99 590.56,14.99l2409.06 0c163.01,0 428.22,25.59 562.92,-42.93 112.99,-57.48 224.61,-196.38 205.89,-385.54 -16.37,-165.49 -140.68,-287.87 -277.26,-327.58 -105.16,-30.59 -458.75,-14.99 -590.56,-14.99l-2409.06 0c-163,0 -428.22,-25.59 -562.92,42.93 -116.41,59.22 -222.18,194.52 -205.25,386.59z"/>
   <path class="fil0" d="M393.74 52.57c122.29,-17.1 2744.77,-4.01 3061.24,-4.01 192.71,0 400.26,-24.86 527.7,88.35 310.2,275.56 111.53,680.19 -191.52,721.76 -129.16,17.71 -2742.41,4.37 -3064.23,4.37 -192.71,0 -400.27,24.85 -527.71,-88.36 -127.14,-112.94 -192.82,-266.51 -135.99,-442.98 43.63,-135.48 168.67,-256.5 330.52,-279.13zm3780.19 491.22c39.73,-199.89 -61.3,-365.1 -170.27,-449.47 -146.28,-113.26 -339.47,-90.83 -548.69,-90.83l-2541.05 0c-149.04,0 -495.03,-17.36 -613.81,25.41 -336.77,121.28 -408.04,565.6 -121.87,788.34 145.66,113.37 339.99,90.85 548.68,90.85l2541.05 0c149.04,0 495.02,17.36 613.81,-25.41 141.63,-51 259.78,-176.04 292.15,-338.89z"/>
   <polygon class="fil0" points="3160.93,530.15 3278.22,534.42 3222.84,345.21 "/>
   <circle class="fil1" cx="904.7" cy="679.28" r="69.64"/>
   <circle class="fil1" cx="1911.5" cy="679.28" r="69.64"/>
   <circle class="fil1" cx="2710.58" cy="679.28" r="69.64"/>
   <circle class="fil1" cx="3628.96" cy="679.28" r="69.64"/>
  </g>
 </g>
</svg>
