<?xml version="1.0" encoding="UTF-8"?>
<!DOCTYPE svg PUBLIC "-//W3C//DTD SVG 1.1//EN" "http://www.w3.org/Graphics/SVG/1.1/DTD/svg11.dtd">
<!-- Creator: CorelDRAW 2021 (64-Bit) -->
<svg xmlns="http://www.w3.org/2000/svg" xml:space="preserve" width="81.6551mm" height="11.9075mm" version="1.1" style="shape-rendering:geometricPrecision; text-rendering:geometricPrecision; image-rendering:optimizeQuality; fill-rule:evenodd; clip-rule:evenodd"
viewBox="0 0 2509.76 365.99"
 xmlns:xlink="http://www.w3.org/1999/xlink"
 xmlns:xodm="http://www.corel.com/coreldraw/odm/2003">
 <defs>
  <style type="text/css">
   <![CDATA[
    .fil0 {fill:#BDBFC1}
   ]]>
  </style>
 </defs>
 <g id="Capa_x0020_1">
  <metadata id="CorelCorpID_0Corel-Layer"/>
  <path class="fil0" d="M0.57 359.46l361.76 0.94 1.2 -154.32c-13.22,5.74 -20.75,22.63 -50.67,38.77 -75.32,40.61 -125.39,-47.86 -177.29,-85.82 -61.86,-45.25 -135.49,19.71 -135.56,61.9 -0.03,15.26 0.2,30.62 0.19,45.91 -0.02,30.73 -0.61,61.95 0.37,92.61zm2400.53 -166.49l20.1 0.99 1.08 -31.06c15.92,5.54 14.48,17.81 26.2,30.78l21.55 0.1c-5.08,-14.77 -9.43,-21.89 -20.62,-34.73 46.17,-28.48 -0.06,-58.39 -48.31,-44.3l-0.01 78.22zm20.12 -64.85l0 14.67c2.02,1.06 4.48,1.68 7.15,1.68 6.79,0 12.3,-4.04 12.3,-9.02 0,-4.98 -5.51,-9.02 -12.3,-9.02 -2.67,0 -5.14,0.62 -7.15,1.68zm-3.69 -30.99c34.98,-12.55 65.72,10.71 74.22,34.99 12.41,35.47 -9.35,68.57 -35.07,77.75 -72.57,25.93 -120.13,-83.7 -39.15,-112.74zm7.45 -18.28c-99.61,16.15 -76.65,164.46 23.25,148.43 96.58,-15.5 72.36,-163.93 -23.25,-148.43zm-1064.35 104.11l-0.16 -25.54c-90.01,-2.38 -73.3,-22.3 -73.47,99.62 -0.04,27.69 -2.84,77.17 0.8,102.2l77.28 0.85c5.03,-39.64 -7.06,-111.43 16.35,-137.74 12.01,-13.49 24.89,-7.59 41.32,-4.83l26.03 -56.3c-19.08,-4.06 -31.36,-12.87 -53.65,-6.71 -20.25,5.6 -20.58,19.52 -34.51,28.44zm370.33 177.19l75.23 -0.07 1.23 -280.36 -75.91 -0.34c-4.69,14.04 -5.06,263.71 -0.54,280.77zm-862.91 -240.39l0.12 37.11 -27.91 0.74 -0.73 55.5 28.21 1.99c0.66,49.45 -6.88,122.01 24.79,140.89 25.16,15 71.3,7.78 99.45,2.82l-5.13 -52.32c-39.44,-3.86 -42.21,30.64 -40.16,-90.91l43.12 -0.65 0.41 -58.15 -42.25 0.13 -1.48 -76.2 -78.44 39.06zm1473.74 168.98l-72.84 -8.45c-10.59,19.13 -16.58,32.89 -45.23,30.66 -58.13,-4.53 -48.21,-124.59 20.97,-101.73 13.2,4.36 13.42,8.84 20.86,21.64l72.49 -8.17c-13.51,-95.1 -237.22,-109.69 -229.85,44.25 5.54,115.59 147.76,109.31 193.05,81.31 14.79,-9.14 41.21,-33.78 40.53,-59.51zm-1893.85 71.67l87.98 0.05 -0.52 -360.43 -87.6 -0.04 0.15 360.42zm648.65 -120.63c4,-55.78 72.51,-54.31 74.76,0.3l-74.76 -0.3zm148.79 67.29c-15.98,-1.7 -32.53,-2.86 -47.77,-4.54 -32.44,-3.59 -19.35,-4.41 -37.91,8.21 -30.16,20.51 -61.88,0.77 -62.79,-32.72l154.78 -0.01c0.08,-71.46 -23.27,-115.58 -91.7,-123.93 -68.74,-8.39 -125.01,15.13 -139.74,72.49 -17.63,68.62 18.7,122.94 72.96,134.44 27.67,5.86 70.45,4.92 96.98,-3.22 23.61,-7.25 52.18,-31.86 55.2,-50.71zm291.51 -67.16c4.88,-55.09 70.29,-55.58 74.83,0.14l-74.83 -0.14zm149.1 67.66c-15.88,-2.4 -31.31,-3.15 -47.25,-4.88 -33.69,-3.67 -20.11,-4.42 -40.86,8.57 -27.32,17.1 -61.84,1.02 -60.1,-33.07l154.13 -0.29c-1.77,-72.02 -23.02,-116.75 -94.31,-124.21 -69.99,-7.33 -123.68,17.5 -137.71,75.13 -41.21,169.27 203.7,163.71 226.1,78.76zm316.16 -67.26l-74.2 -0.25c1.45,-22.85 12.66,-40.63 37.03,-40.77 25.99,-0.15 36,16.04 37.17,41.03zm73.99 66.53c-72.54,-5.33 -59.8,-13.9 -88.94,4.96 -28.22,18.26 -57.74,-3.14 -59.58,-33.07l155.2 -0.88c-1.55,-69.71 -21.98,-114.72 -90.5,-123.65 -70.12,-9.14 -125.2,14.78 -140.9,70.75 -32.43,115.52 79.52,160.86 168.67,133.11 23.61,-7.35 52.17,-30.47 56.05,-51.22zm-1411.52 -120.35l0.71 -28.7 -73.4 -0.97 0.2 203.37 78.8 0.32c-1,-29.05 -0.41,-58.19 -0.53,-87.28 -0.11,-27.45 0.78,-55.75 27.52,-58.75 34.26,-3.85 29.79,30.73 29.72,58.89 -0.07,24.21 -2.3,64.16 1.01,86.45l75.56 0.33c5.43,-18.88 2.06,-70.67 2.08,-93.31 0.04,-52.23 6.77,-118.56 -75.98,-114 -40.77,2.24 -41.56,18.69 -65.68,33.65zm-664.03 -41.76c32.45,-20.3 63.78,-70.43 126.05,-38.66 84.82,43.28 116.27,168.79 220.2,61.59 23.6,-24.34 16.8,-31.94 16.77,-73.95 -0.02,-29.2 1.32,-61.71 -0.47,-90.47l-361.86 -1.36 -0.7 142.85z"/>
 </g>
</svg>
