<?xml version="1.0" encoding="UTF-8"?>
<!DOCTYPE svg PUBLIC "-//W3C//DTD SVG 1.1//EN" "http://www.w3.org/Graphics/SVG/1.1/DTD/svg11.dtd">
<!-- Creator: CorelDRAW 2021 (64-Bit) -->
<svg xmlns="http://www.w3.org/2000/svg" xml:space="preserve" width="64.597mm" height="22.4686mm" version="1.1" style="shape-rendering:geometricPrecision; text-rendering:geometricPrecision; image-rendering:optimizeQuality; fill-rule:evenodd; clip-rule:evenodd"
viewBox="0 0 1668.35 580.3"
 xmlns:xlink="http://www.w3.org/1999/xlink"
 xmlns:xodm="http://www.corel.com/coreldraw/odm/2003">
 <defs>
  <style type="text/css">
   <![CDATA[
    .fil0 {fill:#BDBFC1}
   ]]>
  </style>
 </defs>
 <g id="Capa_x0020_1">
  <metadata id="CorelCorpID_0Corel-Layer"/>
  <path class="fil0" d="M545.59 234.68c-3.55,7.13 -1.68,3.06 -4.3,5.42 -1.77,9.93 -11.51,15.4 -24.57,15.78l-0.28 -196.86c41.57,-0.63 102.13,25.63 99.89,64.97 4.55,8.29 2.49,24.39 2.48,36.36 -0.02,13.24 -0.17,26.5 0.22,39.72l28 -0.6 31.48 -0.21 0.35 -140.35c22.2,-0.95 40.93,6.68 47.02,21.28 4.98,11.93 2.17,313.72 2.17,349.87 0,51.1 10.95,91.27 -47.81,91.46 -3.36,-1.53 -3.53,1.74 -3.34,-15.22l-0.52 -123.15 -46.84 -0.12c-1.24,10.51 0.72,16.95 -3.48,24.55 1.25,50.46 -34.05,115.97 -104.84,113.85l-0.19 -194.47c20.91,2.38 27.58,22.66 29.3,44.28l46.59 1.24 0.11 -167.37c-9.48,-2.11 -37.68,-2.2 -47.34,-0.54 -1.06,15.98 2.02,24.14 -4.1,30.13zm-545.59 181.76l31.29 0.57 8.68 36.49c2.07,2.48 12.55,27.34 15.88,32.94 3.14,5.3 6.22,10.06 10.13,15.29 4.37,5.82 8.5,9.02 9.98,14.44 6.19,2.97 11.91,8.75 15.07,14.47 8.25,2.21 32.37,31.74 95.62,45.65 20.66,4.55 43.46,2.5 63.73,-2.24 13.39,-3.12 27,-7.41 38.85,-13.93 6.02,-3.3 7.18,-4.92 12.92,-5.96l6.21 -6.3c2.8,-2.17 3.55,-2.93 6.18,-5.43l13.54 -11.26c1.01,-3.46 -1.17,0.88 2.11,-4.43 0.36,-0.57 2.48,-3.47 3.23,-4.48 20.78,-28.24 26.64,-56.54 26.59,-92.21l0 -336.15c-0.04,-21.56 3.11,-42.96 27.48,-40.55 23.01,2.28 23.85,19.73 23.77,42.51 -0.18,51.25 1.79,391.02 -0.83,403.86 -4.04,19.86 -21.36,13.11 -54.34,14.06l-0.21 65.03c104.62,3.22 214.15,0.21 319.24,0.21 22.06,0 305.97,2.03 319.87,-1.13l0.17 -94.03c7.47,5.08 5.5,13.77 17.7,30.55 38.55,52.95 137.4,81.23 207.63,50.68 9.05,-3.93 25.74,-15.73 30.9,-16.9 4.39,-9.32 2.63,-3.41 10.02,-10.67 5.06,-4.96 3.15,-5.56 10.51,-10.35 0.67,-2.43 0.03,-1.12 2.06,-4.49l10.07 -15.36c18.69,-32.76 17.04,-51.14 17,-87.04l0.29 -341.61c2.68,-18.72 20.38,-22.16 38.26,-27.8 6.16,-5.04 8.09,-4.06 19.08,-3.45 2.5,18.75 1.01,85.72 0.95,112.94l1.2 31.52c2.27,7.31 4.72,5.93 19.78,6.1 2.35,0.02 8.03,0.31 9.94,0.17 16.88,-1.24 7.61,-1.27 11.36,-47.57 2.18,-1.47 -1.24,-2.23 4.06,-1.94 9.26,-38.93 26.88,-61.07 53.15,-77.83 14.46,-9.22 28.97,-14.93 47.07,-19.45 23.17,-5.77 38.24,-4.23 61.49,-6.55l4.67 0.06c-1.28,8.17 0.33,0.94 -2.99,4.08 -3.19,11.4 -18.32,36.46 -25.45,49.96 -29.74,56.42 -187.13,350.46 -187.79,358.72l-0.66 56.44c0,18.47 0.6,38.32 0.17,56.43 39.79,-0.17 292.54,4.12 308.37,-1.54 0.87,-28.47 3.7,-197.91 -1.95,-210.48l-43.52 -0.14c-2.1,9.86 -0.77,17.13 -1.4,24.92l-2.31 8.34c2.48,30.83 -0.69,76.96 -25.83,98.01 -2.36,1.98 -1.35,1.18 -2.92,2.02 -3.31,6.36 0.72,3.84 -7.38,6.67 -3.84,8.2 -25.47,21.71 -45.57,21.57 -23.69,-0.18 -47.38,0.07 -71.08,-0.14 3,-15.93 85.47,-155.73 102.04,-191.2l58.71 -0.34 23.75 -50.6 6.25 -17.1 -57.43 0.14 -3.83 -2.06 4.23 -4.91c0.43,-1.17 0.64,-2.94 2.05,-5.09 3.2,-4.89 1.63,-2.36 4.39,-4.69 0.32,-8.05 42.96,-88.34 50.4,-102.78 14.92,-28.96 15.45,-23.61 15.48,-62.85 0.02,-25.74 0.64,-52.34 -0.17,-77.98l-506.04 -0.3 -0.1 58.74 5.83 1.67c14.16,2.96 18.88,7.87 23.12,19.81 11.49,10.1 6.08,79.3 6.09,99.69 0.01,36.48 0.01,72.96 0,109.44 -0.01,36.48 -0.01,72.97 0,109.45 0,18.06 4.52,95.32 -5.82,101.63 -3.28,7.3 1.09,4.76 -7.07,7.71 -10.53,15.25 -88.97,26.59 -88.87,-35.04 0.18,-121.82 -1.64,-252.98 0.01,-373.4 0.5,-36.59 25.32,-34.83 35.07,-40.95l0.4 -58.5 -193.42 -0.21 0.04 55.83c32.43,3.18 49.28,9.18 49.14,43.9 -0.15,37.35 2.04,262.41 -1.02,278.75l-48.26 0.19c-0.29,17.32 1.61,52.06 -2.45,66.65l-3.21 7.05c-2.04,11.33 -10.83,22.23 -17.52,27.73 -15.48,15.48 -51.33,35.08 -82.05,39.39 -3.07,-51.52 -0.33,-194.11 -0.33,-255.57 0,-42.35 0,-84.69 0,-127.04 0,-54.76 -10.08,-78.04 51.17,-77.88l0.18 -58.83 -684.67 -0.19 -0.14 58.47c34.46,1.49 56.96,7.54 56.83,43.19l-0.07 299.08c0,23.74 3.41,76.95 -5.04,94.57 -10.2,21.28 -43.36,32.13 -69.27,18.93 -31.79,-16.21 -50.17,-73.11 -19.17,-99.62 12.92,-11.05 25.87,-3.35 43.85,-6.97l0.07 -52.72 -203.85 -0.89 -1.39 62.4z"/>
  <path class="fil0" d="M1356.14 457.65c-7.35,6.67 -4.08,39.84 -4.09,56.44 -0.01,18.69 -1.11,41.23 0.36,59.47 13.21,3.24 281.76,1.85 315.87,0.92l-0.26 -214.94 -5.94 -1.04c5.65,12.57 2.82,182.01 1.95,210.48 -15.83,5.65 -268.58,1.37 -308.37,1.54 0.43,-18.11 -0.17,-37.96 -0.17,-56.43l0.66 -56.44z"/>
  <path class="fil0" d="M1405.99 148.64c-5.3,-0.29 -1.88,0.46 -4.06,1.94 -3.76,46.29 5.51,46.32 -11.36,47.57 -1.91,0.14 -7.6,-0.15 -9.94,-0.17 -15.06,-0.17 -17.51,1.21 -19.78,-6.1l-1.2 -31.52c0.05,-27.22 1.55,-94.19 -0.95,-112.94 -10.99,-0.61 -12.92,-1.59 -19.08,3.45l13.66 -0.67c6.05,12.74 1.1,126.21 1.97,151.37l50.43 0.21 0.32 -53.13z"/>
  <path class="fil0" d="M541.3 240.1c2.62,-2.36 0.74,1.71 4.3,-5.42l0.99 -32.85 40.72 -0.89c10.46,0.3 7.34,-1.26 9.74,4.16l-0.11 167.37c6.27,-2.88 3.45,1.9 4.48,-8.66l-0.96 -162.41c-2.01,-1.32 -4.58,-3.27 -6.64,-4.31 -3.25,-1.66 -1.19,-3.18 -2.21,0.2 -14.07,-0.12 -42.71,-3.97 -50.41,5.51 -1.88,-2.05 3.17,-0.21 2.5,16.14 -0.35,8.3 -2.91,14.21 -2.41,21.16z"/>
  <path class="fil0" d="M626.08 407.57c4.2,-7.6 2.24,-14.03 3.48,-24.55l46.84 0.12 0.52 123.15c-0.19,16.96 -0.02,13.69 3.34,15.22 -2.56,-27.04 3.25,-126.13 -2.2,-141.81l-51.52 0.56 -0.47 27.3z"/>
  <path class="fil0" d="M1595.79 253.68l-0.4 6.97 57.43 -0.14 -6.25 17.1 5.72 -1.77c3.72,-12.22 5.02,-5.81 4.39,-13.76 -0.67,-8.45 0.59,-6.66 -29.78,-6.3l-27.61 -1.61c1.62,-3.39 2.62,-5.62 2.95,-10.27 -2.76,2.33 -1.19,-0.2 -4.39,4.69 -1.41,2.15 -1.62,3.93 -2.05,5.09z"/>
  <path class="fil0" d="M39.97 453.5l-8.68 -36.49 -31.29 -0.57 1.84 4.8c7.39,-0.19 18.76,-2.57 26.21,0.72 5.5,11.02 1.13,23.2 11.91,31.55z"/>
  <path class="fil0" d="M647.05 199.47l-28 0.6c-0.39,-13.23 -0.25,-26.49 -0.22,-39.72 0.01,-11.98 2.07,-28.07 -2.48,-36.36l0.51 77.08c6.99,2.62 7.64,2.22 15.27,1.74l11.66 -1.7c0.49,-0.14 1.31,-0.05 1.66,-0.77 0.34,-0.72 1.07,-0.57 1.6,-0.87z"/>
  <path class="fil0" d="M545.59 234.68c6.12,-5.98 3.05,-14.15 4.1,-30.13 9.66,-1.65 37.86,-1.57 47.34,0.54 -2.4,-5.42 0.72,-3.86 -9.74,-4.16l-40.72 0.89 -0.99 32.85z"/>
  <path class="fil0" d="M1614.84 391.62l2.31 -8.34c0.63,-7.78 -0.7,-15.05 1.4,-24.92l43.52 0.14 5.94 1.04c-1.41,-3.07 1.63,-4.23 -11.74,-4.19l-40.66 0.87 -0.77 35.4z"/>
  <path class="fil0" d="M913.86 480.12c6.69,-5.49 15.49,-16.4 17.52,-27.73l-10.97 10.56c-2.98,7.82 0.02,6.69 -8.7,12.44 -4.43,11.29 -1.07,1.02 2.14,4.73z"/>
  <path class="fil0" d="M302.15 554.17c11.94,-0.12 7.81,-2.3 15.12,-9.09 5.71,-5.29 11.31,-6.67 10.81,-13.9l-13.54 11.26c-2.63,2.5 -3.38,3.26 -6.18,5.43l-6.21 6.3z"/>
  <path class="fil0" d="M1190.74 80.22c-4.23,-11.93 -8.95,-16.85 -23.12,-19.81 3.79,8.24 6.37,5.46 11.73,9.77 3.51,2.83 5.16,7.16 11.38,10.04z"/>
  <path class="fil0" d="M1251.39 548.2c5.92,-2.31 8.19,-3.85 12.69,-7.9 4.59,-4.12 7.8,-5.52 7.85,-13.12 -7.36,4.79 -5.45,5.39 -10.51,10.35 -7.39,7.26 -5.63,1.35 -10.02,10.67z"/>
  <path class="fil0" d="M91.03 530.64c-3.16,-5.72 -8.89,-11.5 -15.07,-14.47 1.71,8.78 6.31,12 15.07,14.47z"/>
  <path class="fil0" d="M1578.71 498.32c8.1,-2.83 4.07,-0.31 7.38,-6.67 -5.67,0.97 -5.12,2.22 -7.38,6.67z"/>
  <path class="fil0" d="M1183.93 508.13c8.17,-2.95 3.8,-0.41 7.07,-7.71 -5.55,3.54 -4.3,2 -7.07,7.71z"/>
  <polygon class="fil0" points="1595.38,260.65 1595.79,253.68 1591.55,258.59 "/>
  <path class="fil0" d="M1569.38 48.97c3.32,-3.14 1.71,4.08 2.99,-4.08l-4.67 -0.06 1.68 4.15z"/>
 </g>
</svg>
