<?xml version="1.0" encoding="UTF-8"?>
<!DOCTYPE svg PUBLIC "-//W3C//DTD SVG 1.1//EN" "http://www.w3.org/Graphics/SVG/1.1/DTD/svg11.dtd">
<!-- Creator: CorelDRAW 2021 (64-Bit) -->
<svg xmlns="http://www.w3.org/2000/svg" xml:space="preserve" width="75.2538mm" height="9.674mm" version="1.1" style="shape-rendering:geometricPrecision; text-rendering:geometricPrecision; image-rendering:optimizeQuality; fill-rule:evenodd; clip-rule:evenodd"
viewBox="0 0 2107.28 270.89"
 xmlns:xlink="http://www.w3.org/1999/xlink"
 xmlns:xodm="http://www.corel.com/coreldraw/odm/2003">
 <defs>
  <style type="text/css">
   <![CDATA[
    .fil0 {fill:#BDBFC1}
   ]]>
  </style>
 </defs>
 <g id="Capa_x0020_1">
  <metadata id="CorelCorpID_0Corel-Layer"/>
  <g id="_1849698095760">
   <path class="fil0" d="M900.21 50.38l47.8 91.57 -96.49 -0.65 48.69 -90.92zm-402.87 73.56l-5.79 -12.31c-0.3,-1.53 -0.36,-12.18 -0.32,-14.32 0.15,-10.79 0.3,-21.34 0.24,-32.16 -0.09,-18.32 1.99,-41.39 -1.26,-57.39 -15.85,-5.64 -70.64,-4.75 -86.65,-0.74 -6,14.02 -2.72,91.67 -2.69,129.43 0.02,27.33 -6.24,110.74 3.71,129.85l87.99 0.34c6.22,-32.84 -7.36,-94.41 4.78,-120.41 14.05,1.55 18.1,10.81 28.26,22.58 8.42,9.76 14.86,16.74 23.45,26.43 74.57,84.04 50.5,73.14 126.55,73.02 31.99,-0.05 68.1,1.67 99.48,-1.19 11.55,-19.36 31.04,-59.47 42.96,-74.21l164.5 0.91c14.3,15.75 30.17,60.11 46.01,73 33.74,5.03 335.81,5.58 349.38,-1.89 0.19,-0.2 12.79,-32.78 -4.05,-39.24 -11.4,-4.37 -132.9,6.77 -142.83,-3.62 -8.92,-20.89 0.24,-177.99 -3.47,-218.18 -21.51,0.44 -77.39,-3.08 -95.46,2.49l-0.5 243.98c-16.94,-5.2 -15.57,-18.78 -25.6,-28.75l-6.02 -12.07 -58.65 -104.14c-5.02,-8.63 -52.1,-98.54 -60.86,-101.56l-124.04 0.26c-10.81,3.92 -110.89,197.53 -130.2,226.06 -7.75,11.46 -1.36,5.82 -11.45,10.79 -15.56,-5.78 -76.59,-79.59 -89.44,-93.47 -8.57,-9.26 -22.04,-19.73 -24.76,-35.92 2.12,-12.28 98.63,-89.79 104.32,-108.24 -23.43,0.12 -60.82,-5.79 -77.15,7.12 -20.79,16.45 -109.85,109.06 -130.45,113.57z"/>
   <path class="fil0" d="M1513.25 42.47c24.15,-4.25 61.39,-3.76 87.53,-0.68 33.68,3.97 41.11,11.42 45.69,42.93 3.28,22.54 3.04,67.78 0.95,90.92 -2.71,30.03 -8.53,44.49 -36.16,50.77 -20.19,4.59 -68.93,4.16 -90.53,2.34 -34.57,-2.91 -40.99,-10.87 -46.75,-43.75 -4.91,-28.01 -4.15,-64.01 -0.31,-90.16 5.51,-37.49 2.04,-45.77 39.57,-52.38zm-127.21 47.48c-0.4,36.01 -3.27,61.04 0.76,98.16 -1.34,90.77 127.54,84.21 205.23,81.51 113.61,-3.95 150.1,-17.42 150.78,-136.73 0.66,-118.04 -45.9,-132.17 -158.08,-132.55 -91.96,-0.31 -196.3,-9.14 -198.69,89.61z"/>
   <path class="fil0" d="M1873.87 58.09c24.42,-4.12 66.34,-1.6 92.4,-1.04 35.03,0.75 48.19,7.13 47.49,43.83 -0.67,34.86 -18.21,39.35 -51.05,40.02 -23.92,0.5 -66.36,2.2 -89.45,-1.2l0.6 -81.61zm0.29 135.97c21.2,-3.03 69.63,-0.4 95.6,-1.47 70.48,-2.9 118.37,4.18 133.27,-53.34 5.87,-22.69 5.79,-60.48 -1.14,-82.55 -8.79,-28.01 -18.13,-38.35 -49.85,-45.55 -47.04,-10.68 -239.53,-12.82 -274.34,-5.58 -3.43,28.08 -3.9,237.38 0.89,259.95l90.51 -1.28c9.07,-14.99 0.97,-49.55 5.06,-70.18z"/>
   <path class="fil0" d="M111.5 137.32l94.05 130.2 89.28 -2.03c5.13,-16.44 3.41,-228.99 1.54,-259.79l-91.84 -1.3c-30.38,43.82 -64.43,88.71 -93.03,132.93z"/>
   <path class="fil0" d="M93.24 267.84l0.84 -0.28c0.91,-38.29 5.46,-240.92 -2.3,-260.1 -2.69,-2.82 -76.49,-6.56 -91.79,0.77l1.61 257.2c15.53,6 70.76,2.51 91.63,2.4z"/>
   <polygon class="fil0" points="1106.03,221.55 1100.01,209.48 "/>
  </g>
 </g>
</svg>
