<?xml version="1.0" encoding="UTF-8"?>
<!DOCTYPE svg PUBLIC "-//W3C//DTD SVG 1.1//EN" "http://www.w3.org/Graphics/SVG/1.1/DTD/svg11.dtd">
<!-- Creator: CorelDRAW 2021 (64-Bit) -->
<svg xmlns="http://www.w3.org/2000/svg" xml:space="preserve" width="37.2419mm" height="26.272mm" version="1.1" style="shape-rendering:geometricPrecision; text-rendering:geometricPrecision; image-rendering:optimizeQuality; fill-rule:evenodd; clip-rule:evenodd"
viewBox="0 0 620.96 438.05"
 xmlns:xlink="http://www.w3.org/1999/xlink"
 xmlns:xodm="http://www.corel.com/coreldraw/odm/2003">
 <defs>
  <style type="text/css">
   <![CDATA[
    .fil0 {fill:#BDBFC1}
   ]]>
  </style>
 </defs>
 <g id="Capa_x0020_1">
  <metadata id="CorelCorpID_0Corel-Layer"/>
  <g>
   <path class="fil0" d="M1.5 437.77c6.57,1.93 14.82,-6.62 25.65,-16.33 25.08,-22.49 62.56,-41.2 94.03,-55 23.34,-10.24 45.57,-19.02 72.41,-26.95 68.98,-20.38 83.69,-23.26 157.5,-38.1 60.85,-12.24 208.03,-28.18 269.88,-28.18 -3.14,-11.74 -0.29,-8.33 -12.83,-9.31 -89.38,0 -191.12,-8.28 -285.21,-9.29 -62.91,-0.68 -208.13,23.92 -260.86,43.41 -11.23,4.15 -23.7,9.05 -35.21,14.46 -15.08,7.1 -23.51,8.99 -26.28,26.5 -0.21,1.31 -0.4,2.97 -0.57,4.92l0 84.08c0.4,4.42 0.9,7.83 1.5,9.79zm199.31 -407.49c-0.45,0.49 -0.82,0.93 -1.12,1.35l-0.18 0.21c-4.59,5.53 -8.66,12.07 -12.24,18.81 -7.45,14.01 -11.88,30.17 -13.4,48.82 0,39.43 -4.07,58.74 11.98,93.47 10.83,23.44 29.62,41.71 55.79,49.77 24.8,7.64 66.44,5.47 99.92,5.69 19.48,0.13 37.15,3.82 40.26,-12.52 0.59,-3.11 0.39,-20.68 0.35,-25.01 -0.12,-15.88 2.65,-15.95 -6.48,-20.65 -3.34,-2.69 3.31,-4.31 -21.6,-4.12l-80.2 0.18c-20.04,-12.22 -28.33,-20.27 -28.74,-55.76 -0.98,-83.71 31.24,-72.19 102.63,-71.51 40.59,0.39 34.13,7.33 34.13,-52.81l-9.77 -6.21 -93.89 0c-17.13,1.27 -32.6,3.74 -42.48,8.27 -11.03,2.87 -18.23,6.16 -27.04,14.12 -2.86,1.97 -5.09,4.51 -7.92,7.89zm-23.83 158.86l-0.21 -0.01 0.21 0.01zm-2.79 -0.08l-99.67 -2.78 -4.01 -180.08 -2.2 -5.61c-2.43,-0.3 -5.02,-0.49 -7.7,-0.6l-42.53 0c-0.96,0.06 -1.73,0.15 -2.21,0.26 -13.94,3.4 -7.45,3.09 -9.66,10.18l0 234.84c32.46,7.56 80.19,3.1 117.98,3.1 57.49,0.01 60.44,6.11 59.21,-34.26 -0.38,-12.4 -0.78,-16.43 -6.43,-24.98l-2.79 -0.08zm428.15 -188.24c-1.91,-0.33 -4.1,-0.6 -6.5,-0.83l-99.06 0 -0.87 0 -0.87 0 -0.87 0 -0.87 0 -0.87 0 -0.87 0 -0.87 0 -0.87 0c-16.01,0 -32.02,0.01 -48.03,0l-0.87 0 -34.1 0c-5.88,0.81 -11.44,2.58 -17.23,6.21 -2.16,7.28 -1.54,18.45 -1.66,28.07 -0.2,16.53 -3.49,22.07 9.48,24.76 14.52,3.01 52.93,1.63 65.24,-3.13 0,9.53 -2.28,174.19 1.48,181.81 3.81,7.74 0.28,2.98 7.36,7.56 6.32,5.91 44.23,5.86 54.61,1.35 13.26,-5.77 7.96,-27.85 7.96,-57.24 0,-43.47 0,-86.93 0,-130.4 83.32,0 74.84,6.48 74.73,-27.92 -0.06,-17.82 2.75,-19 -6.42,-30.24z"/>
  </g>
 </g>
</svg>
