<?xml version="1.0" encoding="UTF-8"?>
<!DOCTYPE svg PUBLIC "-//W3C//DTD SVG 1.1//EN" "http://www.w3.org/Graphics/SVG/1.1/DTD/svg11.dtd">
<!-- Creator: CorelDRAW 2021 (64-Bit) -->
<svg xmlns="http://www.w3.org/2000/svg" xml:space="preserve" width="69.3975mm" height="9.4608mm" version="1.1" style="shape-rendering:geometricPrecision; text-rendering:geometricPrecision; image-rendering:optimizeQuality; fill-rule:evenodd; clip-rule:evenodd"
viewBox="0 0 1957.03 266.8"
 xmlns:xlink="http://www.w3.org/1999/xlink"
 xmlns:xodm="http://www.corel.com/coreldraw/odm/2003">
 <defs>
  <style type="text/css">
   <![CDATA[
    .fil0 {fill:#BDBFC1}
   ]]>
  </style>
 </defs>
 <g id="Capa_x0020_1">
  <metadata id="CorelCorpID_0Corel-Layer"/>
  <g id="_2452450461328">
   <path class="fil0" d="M-0 262.44l57.55 0 0 -145.03 9.86 13.16c3.86,5.18 5.76,7.92 9.48,13.54l36.83 55.26c3.65,5.48 5.6,8.27 9.17,13.85 4.44,6.95 4.53,10.16 12.93,12.4 6.67,-4.88 30.36,-43.24 36.84,-52.95l27.58 -41.48c3.53,-5.54 4.21,-9.5 11.56,-11.47l0 142.73 57.55 0 0 -257.84c-50.61,0 -49.39,-5.27 -69.53,24.86 -9.99,14.94 -58.29,93.6 -66.29,99.46l-64.46 -98.99c-20.42,-30.62 -18.69,-25.32 -69.07,-25.32l0 257.84z"/>
   <path class="fil0" d="M1830.2 204.89l-41.44 0 0 -145.03c44.26,0 105.9,-0.79 105.9,64.46 0,24.9 2.17,44.51 -18.9,63.97 -9.65,8.91 -27.74,16.6 -45.55,16.6zm-103.6 57.55c81.93,0 185,13.14 218.43,-69.34 21.76,-53.7 13.65,-111.51 -22.15,-152.26 -19.52,-22.22 -60.81,-36.24 -92.68,-36.24l-103.6 0 0 257.84z"/>
   <path class="fil0" d="M1162.58 209.49c-22.84,0 -41.82,-6.53 -55.85,-22.42 -27.87,-31.58 -26.59,-74.91 0.18,-106.91 37.8,-45.19 127.03,-20.38 127.03,53.37 0,39.61 -32.07,75.97 -71.37,75.97zm-135.83 -92.09c0,29.67 -1.72,53.79 14.19,80.2 13.71,22.75 9.7,16.01 27.81,34.35 47.77,48.4 138.42,44.45 183.08,0.03 12.12,-12.05 20.17,-20.53 28.23,-36.23 41.91,-81.68 -9.76,-195.75 -122.09,-195.75 -50.45,0 -97.52,31.38 -116.68,69.79 -6.44,12.9 -14.54,29.59 -14.54,47.62z"/>
   <path class="fil0" d="M897.83 124.32c-38.45,0 -29.93,11.31 -29.93,-64.46 30.02,0 54.69,-5.09 68.59,11.99 5.87,7.22 6.83,17.34 5.47,25.19 -3.61,20.87 -20.27,27.28 -44.14,27.28zm-89.78 138.13l59.85 0 0 -85.18 34.53 0c2.15,9.22 30.44,51.62 37.55,63.74 17.16,29.27 29.29,21.43 82.16,21.43 -3.37,-14.48 -58.85,-87.07 -62.16,-101.3 25.18,-5.87 56.94,-54.35 36.59,-105.65 -6.16,-15.54 -24.65,-34.92 -40.49,-42.38 -29.82,-14.04 -106.84,-8.51 -148.03,-8.51l0 257.84z"/>
   <path class="fil0" d="M1512.5 262.44l179.57 0 0 -57.55 -117.41 0 0 -48.34 92.09 0 0 -55.25 -92.09 0 0 -41.44 89.78 0c27.02,0 20.72,-28.73 20.72,-55.25l-172.66 0 0 257.84z"/>
   <path class="fil0" d="M421.29 92.09l4.6 0c0.76,9.1 25.26,69.45 29.93,78.27l-64.46 0c4.81,-20.63 25.79,-60.51 29.93,-78.27zm-128.92 170.36l64.46 0c3.66,-15.71 12.73,-29.2 16.11,-43.74 23.52,0 58.18,-2.06 80.35,0.22 29.44,3.03 25.85,22.35 37.06,43.52l64.46 0 -93.4 -228.9c-13.71,-34.29 -4.49,-28.94 -51.63,-28.94 -20.23,0 -24.15,28.02 -36.19,55.9l-54.91 133.86c-5.19,12.98 -25.49,58.21 -26.31,68.08z"/>
   <path class="fil0" d="M550.21 128.92l0 11.51c0,65.44 59.49,124.31 124.31,124.31 33.7,0 58.08,-1.76 87.53,-22.97 21.2,-15.27 21.35,-13.05 2.7,-41.94 -5.45,-8.44 -8.6,-17.24 -16.56,-22.57 -4.23,15.83 -37.75,32.23 -62.16,32.23 -69.84,0 -99.28,-80.31 -55.85,-129.52 25.12,-28.47 72.81,-30.28 105.56,-5.38 5.7,4.34 6.86,6.84 12.44,10.58 5.21,-3.82 27.62,-39.36 27.62,-46.04 0,-6.57 -8.03,-10.46 -16.09,-16.14 -6.2,-4.37 -13.44,-8.23 -20.74,-11.49 -32.91,-14.69 -74.96,-14.45 -107.28,-1.37 -14.82,5.99 -30.19,15.99 -40.69,26.07 -20.3,19.48 -40.81,54.11 -40.81,92.71z"/>
   <path class="fil0" d="M1323.72 262.44l158.85 0 0 -57.55c-106.61,0 -97.23,7.18 -96.77,-20.64l0.11 -142.85c0.32,-43.71 -10.52,-36.8 -62.19,-36.8l0 257.84z"/>
  </g>
 </g>
</svg>
