<?xml version="1.0" encoding="UTF-8"?>
<!DOCTYPE svg PUBLIC "-//W3C//DTD SVG 1.1//EN" "http://www.w3.org/Graphics/SVG/1.1/DTD/svg11.dtd">
<!-- Creator: CorelDRAW 2021 (64-Bit) -->
<svg xmlns="http://www.w3.org/2000/svg" xml:space="preserve" width="70.2481mm" height="16.8477mm" version="1.1" style="shape-rendering:geometricPrecision; text-rendering:geometricPrecision; image-rendering:optimizeQuality; fill-rule:evenodd; clip-rule:evenodd"
viewBox="0 0 7442.01 1784.83"
 xmlns:xlink="http://www.w3.org/1999/xlink"
 xmlns:xodm="http://www.corel.com/coreldraw/odm/2003">
 <defs>
  <style type="text/css">
   <![CDATA[
    .fil0 {fill:#BDBFC1}
   ]]>
  </style>
 </defs>
 <g id="Capa_x0020_1">
  <metadata id="CorelCorpID_0Corel-Layer"/>
  <g id="_2416778330464">
   <path class="fil0" d="M4017.29 817.23l-602 0 0 -214.04 655.51 0c130.51,0 163.21,151.57 61.7,195.48 -27.66,11.96 -79.34,18.56 -115.21,18.56zm0 -401.33l-602 0 0 -173.91 655.51 0c64.2,0 111.11,47.16 101.2,103.14 -10.75,60.8 -86.26,70.77 -154.71,70.77zm-882.93 642.14l896.31 0c235.81,0 414.71,-118.98 414.71,-374.59 0,-93.66 -44.19,-133.41 -80.26,-187.28 29.07,-54.95 66.88,-103.92 66.88,-187.29 0,-175.2 -168.93,-307.69 -347.82,-307.69l-949.82 0 0 1056.85z"/>
   <path class="fil0" d="M6064.09 1058.04l267.56 0 0 -789.3c81.05,18.89 72.04,24.32 123.9,76.77 77.87,78.78 121.36,154.07 175.01,253.08 129.84,239.61 298.57,459.45 597.4,459.45l214.05 0 0 -1056.85 -267.56 0 0 789.29c-71.25,-34.19 -109.17,-8 -227.48,-187.23l-154.9 -259.8c-242.29,-367.82 -333.24,-342.26 -727.97,-342.26l0 1056.85z"/>
   <path class="fil0" d="M3.95 1058.04l267.56 0 0 -789.3c309.37,72.08 336.44,789.3 896.31,789.3l214.05 0 0 -1056.85 -267.56 0 0 789.29c-71.25,-34.19 -109.17,-8 -227.48,-187.23 -168.15,-254.72 -284.93,-602.06 -642.07,-602.06l-240.8 0 0 1056.85z"/>
   <path class="fil0" d="M1555.78 750.34c0,196.6 152.22,321.07 347.82,321.07l682.27 0c177.69,0 361.21,-101.21 361.21,-294.31l0 -775.91 -280.94 0 0 749.15c0,43.25 -48.56,66.89 -93.64,66.89l-642.14 0c-62.45,0 -93.64,-31.19 -93.64,-93.64l0 -722.4 -280.94 0 0 749.15z"/>
   <path class="fil0" d="M5435.33 603.2l-441.46 0c3.65,-44.02 33.78,-86.86 60.49,-140.17 119.01,-237.52 158.8,-327.73 290.84,-64.02 32.14,64.2 85.73,151.33 90.12,204.19zm-989.96 454.85l307.69 0c14.16,-60.77 103.03,-179.57 120.4,-254.18l682.27 0c10.55,39.49 109.18,217.43 133.78,254.18l294.31 0c-5.27,-63.3 -28.3,-68.82 -66.97,-147.08l-72.44 -141.6c-46.77,-96.91 -103.12,-182.2 -150.59,-277.5 -269.04,-540.16 -234.53,-490.68 -592.92,-490.68 -126.91,0 -219.8,209.75 -289.83,352.3l-223.18 418.96c-38.87,76.49 -127.8,222.46 -142.51,285.59z"/>
   <path class="fil0" d="M2050.76 576.43c0,85.06 170.99,53.51 347.82,53.51 86.86,0 53.51,-187.37 53.51,-374.57l-401.33 0 0 321.06z"/>
   <path class="fil0" d="M151.11 1726.93l-93.65 0 0 -120.4c117.43,0 173.91,-18.17 173.91,66.89 0,41.13 -39.19,53.51 -80.26,53.51zm13.37 -173.91l-107.02 0 0 -93.65 107.02 0c35.79,0 39.58,19.31 53.52,40.13 -8.09,30.31 -12.87,53.52 -53.52,53.52zm-160.53 -107.03c0,391.53 -43.8,334.45 160.53,334.45 85.62,0 146.6,-76.16 120.54,-146.44 -15.96,-43.04 -16.71,-34.68 -53.65,-54.23 31.78,-47.45 40.14,-21.05 40.14,-93.64 0,-81.34 -267.56,-125.73 -267.56,-40.14z"/>
   <path class="fil0" d="M6197.87 1726.93l-93.65 0 0 -120.4c117.44,0 173.92,-18.17 173.92,66.89 0,41.13 -39.2,53.51 -80.27,53.51zm13.38 -173.91l-107.03 0 0 -93.65 107.03 0c40.65,0 45.42,23.21 53.51,53.51 -13.94,20.83 -17.73,40.14 -53.51,40.14zm-160.54 -107.03c0,391.53 -43.8,334.45 160.54,334.45 121.96,0 169.33,-146.46 66.89,-200.67 31.77,-47.45 40.13,-21.05 40.13,-93.64 0,-92.03 -163.55,-80.27 -227.42,-80.27 -30.83,0 -40.14,9.31 -40.14,40.13z"/>
   <path class="fil0" d="M4298.23 1579.77l-66.89 0 0 -120.4 147.15 13.38 15.02 52.99c-23.33,32.9 -40.84,54.03 -95.28,54.03zm-133.78 -160.53c0,274.53 -38.59,358.85 66.89,361.2l0 -160.53c131.59,0 133.63,-12.35 173.91,160.53l53.51 0c-1.74,-77.88 -34.93,-139.55 -66.89,-187.29 30.19,-10.93 12.27,1.36 31.95,-21.57 101.14,-117.81 -116.91,-207.64 -259.37,-152.34z"/>
   <path class="fil0" d="M806.62 1472.75c0,368.91 -33.14,305.76 53.51,307.69l0 -280.94 27.44 39.46c9.97,15.47 15.72,24.86 26.12,40.75l109.13 173.38c32.1,38.61 -13.66,25.31 39.04,25.72 30.21,0.23 39.07,-6.47 39.07,-38.51l0 -334.45 -53.51 0 0 280.94c-54.73,-40.1 -131.19,-234.42 -200.67,-280.94 -76.51,20.3 -40.13,20.05 -40.13,66.89z"/>
   <path class="fil0" d="M1368.49 1726.93l-80.27 0 0 -267.56c166.27,0 187.3,15.93 187.3,160.54 0,64.71 -42.32,107.02 -107.03,107.02zm-133.78 -280.94c0,388.77 -40.56,334.45 147.16,334.45 107.8,0 160.12,-99.69 151.75,-208.96 -12.66,-165.32 -128.56,-165.61 -258.77,-165.61 -30.83,0 -40.14,9.31 -40.14,40.13z"/>
   <path class="fil0" d="M3776.49 1619.91c0,-239.78 214.05,-169.5 214.05,-80.27 0,142.55 -1.23,187.29 -133.78,187.29 -43.35,0 -80.27,-58.14 -80.27,-107.02zm-53.51 -53.52c0,148.41 23.04,214.05 187.29,214.05 192.86,0 201.61,-374.58 -13.38,-374.58 -113.29,0 -173.91,75.49 -173.91,160.53z"/>
   <path class="fil0" d="M1649.43 1539.64c0,272.03 4.87,240.8 267.55,240.8l0 -53.51c-229.96,0 -200.66,25.49 -200.66,-120.4l173.91 0 0 -53.51 -173.91 0c0,-123.97 15.01,-93.65 200.66,-93.65 -5.32,-63.94 0.48,-53.51 -133.78,-53.51 -95.63,0 -133.77,38.14 -133.77,133.78z"/>
   <path class="fil0" d="M5796.53 1472.75c3.62,43.48 37.6,140.74 53.51,173.91l-120.4 0c13.4,-27.93 20.12,-52.77 31.69,-88.71 2.67,-8.3 9.39,-30.37 13.21,-40.31l21.99 -44.89zm-173.91 307.69l66.89 0 15.41 -79.82 158.5 -0.44c35.72,74.44 -4.82,80.27 93.65,80.27 -19.03,-81.65 -79.31,-206.88 -106.44,-294.9 -15.92,-51.68 -14.25,-65.47 -67.47,-79.68 -52.68,35.28 -63.81,111.53 -89.75,177.81 -24.32,62.15 -56.36,134.85 -70.79,196.77z"/>
   <path class="fil0" d="M525.69 1486.13l26.75 0c6,72 35.27,101.98 40.14,160.53l-107.03 0c5.65,-67.77 34.49,-92.76 40.14,-160.53zm-147.16 294.31c77.96,-1.74 63.79,-9.55 80.27,-80.27l160.53 0c16.48,70.72 2.31,78.53 80.27,80.27 -4.41,-52.87 -75.48,-233.7 -100.72,-300.61 -74.04,-196.32 -122.91,24.15 -153.45,99.95 -21.34,52.96 -61.62,137.21 -66.9,200.66z"/>
   <path class="fil0" d="M2505.6 1486.13l26.75 0c4.07,48.87 28.37,110.03 40.14,160.53l-107.03 0c4.87,-58.55 34.14,-88.53 40.14,-160.53zm-147.16 294.31c77.96,-1.74 63.79,-9.55 80.27,-80.27l160.53 0c16.48,70.72 2.31,78.53 80.27,80.27 -6.39,-76.8 -73.04,-213.75 -101.49,-299.85 -35.25,-106.68 -76.37,-106.56 -116.84,1.26l-72.52 195.02c-14.88,41.13 -26.08,53.73 -30.22,103.57z"/>
   <path class="fil0" d="M6826.63 1432.62c-23.01,98.75 -13.38,136.36 -13.38,254.18 0,119.5 110.36,93.64 254.18,93.64l0 -53.51c-229.96,0 -200.67,25.49 -200.67,-120.4l187.29 0c-5.7,-68.48 -0.26,-53.51 -187.29,-53.51 0,-123.97 15.02,-93.65 200.67,-93.65 -5.32,-63.94 0.47,-53.51 -133.78,-53.51 -47.53,0 -75.66,11.21 -107.02,26.76z"/>
   <path class="fil0" d="M5007.25 1486.13c33.68,24.66 56.03,113.92 66.89,160.53l-107.02 0c1.51,-67.82 26.35,-101.38 40.13,-160.53zm-147.15 294.31l53.51 0c9.67,-41.52 17.08,-38.75 26.75,-80.27l160.54 0c5.31,63.81 11.08,78.73 80.27,80.27l-104.53 -296.82c-19.45,-50.62 -17.08,-63.79 -69.39,-77.76 -49.33,33.03 -146.17,330.7 -147.15,374.58z"/>
   <path class="fil0" d="M3495.56 1579.77l-93.65 0 0 -120.4 80.27 0c78.91,0 80.27,28.24 80.27,107.02 -30,6.99 -30.76,13.38 -66.89,13.38zm-147.16 -133.78l0 334.45 53.51 0 0 -147.16c66.47,0 244.54,17.84 222.82,-129.21 -16.24,-109.94 -139.13,-98.21 -236.19,-98.21 -30.83,0 -40.14,9.31 -40.14,40.13z"/>
   <path class="fil0" d="M2773.15 1512.88c0,64.49 85.11,81.14 138.39,102.5 48.52,19.45 144.16,111.55 -17.99,111.55 -63.76,0 -86.04,-22.9 -133.77,0 21.5,80.5 280.93,89.47 280.93,-53.51 0,-123.57 -184.98,-78.44 -214.04,-187.29 75.29,-50.43 96.54,-20.93 187.29,-13.38l0 -53.51c-54.8,-4.57 -240.81,-60.96 -240.81,93.64z"/>
   <path class="fil0" d="M7174.45 1499.5c0,127.92 203.57,74.79 214.05,200.67 -100.43,67.25 -151.75,-9.56 -227.42,26.76 23.52,88.09 280.93,69.67 280.93,-26.76 0,-177.03 -181.11,-90.7 -214.05,-214.04 113.4,-75.94 135.19,28.89 200.67,-40.14 -48.21,-65.81 -254.18,-59.82 -254.18,53.51z"/>
   <path class="fil0" d="M5408.58 1780.44c111.9,0 82.31,-7.99 147.15,-13.38 -7.33,-88.11 -11.65,-40.13 -147.15,-40.13 -88.06,0 -150.74,-267.56 53.51,-267.56 58.25,0 73.26,44.12 80.27,-40.13 -54.26,-4.51 -33.31,-13.38 -120.4,-13.38 -196.29,0 -214.65,374.58 -13.38,374.58z"/>
   <path class="fil0" d="M4539.03 1459.37l107.02 0 0 321.07c92.57,-2.07 68.4,-32.1 67.13,-133.55 -0.83,-66.82 8.36,-141.73 -13.62,-187.52l120.4 0c-6.41,-77.09 -17.18,-53.51 -280.93,-53.51l0 53.51z"/>
   <path class="fil0" d="M6452.05 1445.99c0,370.39 -22,334.45 267.56,334.45l0 -53.51c-234.4,0 -202.83,24.09 -200.67,-160.54 1.86,-160.21 15.68,-145.62 -40.14,-160.53 -22.54,15.67 -26.75,1.92 -26.75,40.13z"/>
   <path class="fil0" d="M2184.53 1713.55c-193.01,44.97 -136.06,-41.36 -200.67,26.76 41.81,57.06 254.81,79.25 267.81,-80.02 5.94,-72.9 -0.25,-177.96 -0.25,-254.43 -76.84,6.39 -55.27,44.34 -53.71,133.58 1.39,79.92 1.49,111.13 -13.18,174.11z"/>
  </g>
 </g>
</svg>
