<?xml version="1.0" encoding="UTF-8"?>
<!DOCTYPE svg PUBLIC "-//W3C//DTD SVG 1.1//EN" "http://www.w3.org/Graphics/SVG/1.1/DTD/svg11.dtd">
<!-- Creator: CorelDRAW 2021 (64-Bit) -->
<svg xmlns="http://www.w3.org/2000/svg" xml:space="preserve" width="47.9153mm" height="10.6588mm" version="1.1" style="shape-rendering:geometricPrecision; text-rendering:geometricPrecision; image-rendering:optimizeQuality; fill-rule:evenodd; clip-rule:evenodd"
viewBox="0 0 622 138.37"
 xmlns:xlink="http://www.w3.org/1999/xlink"
 xmlns:xodm="http://www.corel.com/coreldraw/odm/2003">
 <defs>
  <style type="text/css">
   <![CDATA[
    .fil0 {fill:#BDBFC1}
   ]]>
  </style>
 </defs>
 <g id="Capa_x0020_1">
  <metadata id="CorelCorpID_0Corel-Layer"/>
  <g id="_2452449896336">
   <path class="fil0" d="M494.04 130.97c0,1.17 0.35,1.53 1.53,1.53l30.08 0c2.45,0 1.53,-4.81 1.53,-7.14l0 -61.69c1.88,2.17 2.37,3.53 3.87,5.82 7.54,11.47 15.39,25.26 23.05,37.11 0.92,1.43 3.28,5.08 3.67,6.53 1.92,-0.51 2.27,-2.35 4.37,-5.83 1.48,-2.46 2.61,-4.22 4.08,-6.62l24.18 -39.55 0 71.38 31.61 0 0 -128.99 -31.1 0c-1.42,0 -3.01,3.38 -4.43,5.77l-20.27 33.27c-1.42,2.37 -7.46,11.67 -7.94,13.48 -1.37,-1 -2.93,-4.47 -3.98,-6.22l-23.02 -40.21c-1.43,-2.49 -2.76,-6.09 -4.61,-6.09l-32.63 0 0 127.46z"/>
   <path class="fil0" d="M31.1 70.3c0,-4.75 1.07,-11.76 2.14,-15.71 1.36,-5.02 3.09,-8.72 5.53,-12.82 9.72,-16.37 36.28,-18.9 48.93,-1.04 10.85,15.32 9.4,41.17 -0.71,56.4 -11.8,17.78 -36.88,16.67 -47.53,0.5 -4.89,-7.42 -8.36,-17.97 -8.36,-27.33zm-31.1 -0.51c0,26.21 11.37,51.9 35.35,63.05 10.42,4.85 22.99,6.18 34.99,5.24 2.03,-0.16 4.94,-0.66 7.04,-1.12 15.79,-3.41 30.68,-13.26 38.85,-26.92 8.56,-14.32 10.73,-25.74 10.73,-43.82 0,-26.58 -14.72,-50.86 -36.26,-59.59 -46.5,-18.84 -90.69,11.68 -90.69,63.16z"/>
   <path class="fil0" d="M315.59 65.2l-31.61 0 0 -34.16 31.1 0c8.12,0 14.28,8.27 14.28,18.35 0,7.49 -6.47,15.8 -13.77,15.8zm-61.69 67.3l30.08 0 0 -41.3c21.48,0 18.55,-1.66 21.59,4.41l14.62 31.27c0.91,1.86 1.57,3.78 2.54,5.62l33.14 0 -21.41 -43.34c19.77,-10.46 26,-22.73 26,-45.89 0,-11.47 -6.23,-21.81 -12.11,-27.66 -1.96,-1.95 -2.89,-2.88 -5.14,-4.54 -6.26,-4.62 -14.42,-7.57 -23.02,-7.57l-66.28 0 0 128.99z"/>
   <path class="fil0" d="M135.62 39.71c0,6.87 1.28,13.71 4.29,18.66 16.06,26.4 63.9,20.11 70.17,34.35 2.36,5.36 -0.91,11.7 -4.52,14.38 -11.01,8.2 -40.88,3.95 -40.88,-13.86l0 -2.55 -30.59 0c0,14.68 3.4,26.47 16.02,35.99 17.79,13.43 56.39,14.72 75.09,-0.45 8.11,-6.58 15.45,-16.28 15.45,-27.89 0,-11.62 -1.14,-19.61 -9.29,-27.93 -11.05,-11.3 -29.95,-14.51 -44.96,-18.26 -8.22,-2.05 -25.67,-6.29 -17.74,-18.15 1.15,-1.72 2.52,-2.94 4.19,-3.96 11.62,-7.1 35.34,-3.39 36.14,11.24 0.11,2.02 -0.62,4.04 1.57,4.04l27.53 0c2.46,0 1.3,-2.74 1.12,-4.15 -1.4,-11.41 -3.3,-17.3 -10.95,-26.3 -1.13,-1.33 -2.19,-1.83 -3.56,-3.07 -16.54,-14.91 -53.27,-16.15 -73.22,-1.08 -8.91,6.73 -15.87,16.56 -15.87,28.99z"/>
   <path class="fil0" d="M423.68 37.16l1.02 0c0.19,2.3 0.99,3.32 1.73,5.41l13.57 39.96 -32.12 0 15.8 -45.38zm-65.26 95.34l32.63 0c1.03,-4.41 6.83,-18.92 7.65,-22.43l50.98 0c0.28,3.41 5.9,17.12 7.14,22.43l32.12 0c-0.06,-2.88 -15.55,-43.3 -17.27,-48.5l-29.12 -80.49 -37.22 0 -2.84 7.86c-1.15,2.99 -1.84,5.25 -2.98,8.24l-41.08 112.89z"/>
  </g>
 </g>
</svg>
