<?xml version="1.0" encoding="UTF-8"?>
<!DOCTYPE svg PUBLIC "-//W3C//DTD SVG 1.1//EN" "http://www.w3.org/Graphics/SVG/1.1/DTD/svg11.dtd">
<!-- Creator: CorelDRAW 2021 (64-Bit) -->
<svg xmlns="http://www.w3.org/2000/svg" xml:space="preserve" width="66.2037mm" height="11.9899mm" version="1.1" style="shape-rendering:geometricPrecision; text-rendering:geometricPrecision; image-rendering:optimizeQuality; fill-rule:evenodd; clip-rule:evenodd"
viewBox="0 0 1038.89 188.15"
 xmlns:xlink="http://www.w3.org/1999/xlink"
 xmlns:xodm="http://www.corel.com/coreldraw/odm/2003">
 <defs>
  <style type="text/css">
   <![CDATA[
    .fil0 {fill:#BDBFC1}
   ]]>
  </style>
 </defs>
 <g id="Capa_x0020_1">
  <metadata id="CorelCorpID_0Corel-Layer"/>
  <g id="_2452445693648">
   <polygon class="fil0" points="181.44,184.6 239.97,184.6 239.97,114.36 295.57,114.36 295.57,184.6 354.1,184.6 354.1,3.16 295.57,3.16 295.57,76.32 239.97,76.32 239.97,3.16 181.44,3.16 "/>
   <path class="fil0" d="M775.51 108.51l0 -73.16c21.97,0 46.82,5.59 46.82,32.19 0,29.92 -16.73,40.97 -46.82,40.97zm-58.53 -105.35l0 181.44 58.53 0 0 -40.97c26.19,0 54.14,-3.79 70.94,-13.93 47.07,-28.42 51.63,-129.47 -47.53,-129.47l-43.9 0c-17.8,0 -21.35,2.93 -38.04,2.93z"/>
   <path class="fil0" d="M64.38 108.51l-8.78 0 0 -73.16c73.71,0 45.58,55.79 38.97,62.38 -6.5,6.49 -18.11,10.78 -30.19,10.78zm-64.38 -105.35l0 181.44 55.6 0 0 -40.97c27.33,0 53.04,-2.89 71.58,-13.29 54.26,-30.44 47.29,-130.11 -42.31,-130.11l-46.82 0c-17.8,0 -21.35,2.93 -38.04,2.93z"/>
   <path class="fil0" d="M892.56 52.91c0,64.74 87.79,52.86 87.79,81.94 0,6.7 -0.99,3.4 -2.93,11.71 -47.39,11.04 -65.29,-6.91 -87.79,-8.78 0,8.82 1.25,16.48 1.91,21.5 1.62,12.37 -1.54,13.85 6.17,20.16 6.67,5.46 141.17,33.7 141.17,-53.37 0,-58.39 -87.79,-49.99 -87.79,-76.09 0,-25.8 69.15,-6.43 76.09,-5.85 -0.22,-9.99 -3.77,-32.04 -5.85,-40.97 -25.98,0 -100.85,-16.82 -122.09,27.16 -1.75,3.62 -6.67,19.18 -6.67,22.59z"/>
   <path class="fil0" d="M488.72 184.6l105.35 0c0,-17.41 5.5,-22.03 5.85,-38.04l-52.68 0 0 -143.4 -58.53 0 0 181.44z"/>
   <polygon class="fil0" points="392.14,184.6 450.67,184.6 450.67,3.16 392.14,3.16 "/>
   <polygon class="fil0" points="617.48,184.6 676.01,184.6 676.01,3.16 617.48,3.16 "/>
  </g>
 </g>
</svg>
