<?xml version="1.0" encoding="UTF-8"?>
<!DOCTYPE svg PUBLIC "-//W3C//DTD SVG 1.1//EN" "http://www.w3.org/Graphics/SVG/1.1/DTD/svg11.dtd">
<!-- Creator: CorelDRAW 2021 (64-Bit) -->
<svg xmlns="http://www.w3.org/2000/svg" xml:space="preserve" width="91.3816mm" height="24.9548mm" version="1.1" style="shape-rendering:geometricPrecision; text-rendering:geometricPrecision; image-rendering:optimizeQuality; fill-rule:evenodd; clip-rule:evenodd"
viewBox="0 0 32149.83 8779.59"
 xmlns:xlink="http://www.w3.org/1999/xlink"
 xmlns:xodm="http://www.corel.com/coreldraw/odm/2003">
 <defs>
  <style type="text/css">
   <![CDATA[
    .fil0 {fill:#BDBFC1}
   ]]>
  </style>
 </defs>
 <g id="Capa_x0020_1">
  <metadata id="CorelCorpID_0Corel-Layer"/>
  <path class="fil0" d="M24204.06 6984.15l264.64 -0.18c45.6,147.62 36.34,1101.65 9.64,1289.07l-282.23 -11.22 7.95 -1277.67zm6258.55 -3800.11c209.93,-600.34 -718.03,-873.5 -912.65,-299.08 -200.26,591.02 693.44,926.02 912.65,299.08zm-5621.2 -1248.82l1042.48 4.47 0.63 3162.33 992.59 0.56 3.1 -3163.24 1045.19 -15.87 -1.34 -946.92 -3084.19 4.71 1.55 953.96zm-9848.48 -738.15l1189.11 0.91 0.49 2303.22c-62.83,797.68 -1153.26,756.87 -1393.98,202.26 -132,25.26 -153.43,55.24 -269.78,125.92 -79.83,48.48 -149.59,83.35 -226.04,127.43 -98.19,56.64 -373.03,198.81 -437.59,269.81 522.1,1109.39 2402.68,1215.68 3090.21,238.71 390.55,-555 293.24,-1275.63 293.24,-2025.95 0,-770.91 -13.69,-1554.8 0.74,-2324.01l-2241.72 -9.18 -4.68 1090.89zm7403.16 2458.66l-829.06 481.54c50.73,291.03 373.98,625.54 597.57,767.42 897.32,569.53 2632.77,311.54 2595.34,-1036.6 -34.41,-1237.88 -1551.7,-1143.41 -1947.32,-1518.24 -384.26,-364.03 425.35,-767.81 860.23,-234.24l153.04 212.96c76.7,-27.69 756.13,-415.78 809.33,-484.95 -178.9,-545.88 -974.12,-1078.47 -1789.67,-922.68 -688.51,131.51 -1339.83,771.82 -1060.52,1620.45 257.18,781.25 986.82,751.42 1708.75,1066.47 452.3,197.37 353.54,603.48 -233.78,607.94 -635,4.82 -695.09,-363.25 -863.89,-560.06zm-4427.54 -2670.31c-4.61,599.57 -30.05,2431.6 1.27,2909.2 51.75,788.81 738.57,1298.32 1596.87,1294.41 841.31,-3.83 1533.69,-474.96 1591.74,-1332.52 34.58,-511.09 3.38,-2227.37 3.52,-2879.29l-991.08 5.7c-31.52,615.75 -3.31,1308.66 -3.31,1933.04 -0.04,670.36 169.4,1316.05 -630.85,1300.01 -748.14,-14.99 -582.61,-661.81 -582.61,-1329.77 0,-628.14 18.89,-1285.65 -1.76,-1910.34l-983.79 9.57zm-12454.41 2543.87c-7.56,-110.08 344.54,-1213.53 409.55,-1293.85 64.17,101.89 407.69,1196.57 403.11,1292.55l-812.67 1.3zm-1155.73 -1463.5l575.05 8.58 -1015.14 3028.92 1068.44 -3.27 201.49 -632.75 1463.15 0.84 193.32 633.98 1067.35 1.48c-19.35,-176.72 -1319.78,-4011.97 -1392.64,-4127.65l-2172.56 6.3 11.54 1083.57zm4840.83 956.91c179.46,82.26 1276.51,1798.68 1520.21,2079.32l744.17 -6.54 -2.85 -4118.47 -985.24 1.83 1.97 2086.25c-103.72,-32.44 -131.79,-125.42 -221.36,-251.69l-1294.1 -1834.81 -754.09 -1.86 2.67 4125.86 992.66 -4.96 -4.05 -2074.93zm19669.74 250.71c-250,-1649.26 2021.63,-1900.81 2269.1,-461.52 282.97,1645.81 -2052.48,1890.26 -2269.1,461.52zm867.52 -2358.25c-1109.85,127.29 -2022.22,1132.33 -1858.35,2416.58 136.72,1071.33 1140.74,2022.68 2427.38,1834.67 1122.66,-164.02 1998.9,-1166.63 1821.37,-2426.04 -154.98,-1099.47 -1119.42,-1970.96 -2390.4,-1825.2zm-28846.88 2528.32l-889.61 506.62c101.96,373.07 502.79,757.61 772.14,902.63 1279.95,689.11 3310.02,89.08 2959.86,-1535.13 -283.32,-1314.05 -2294.95,-1055.04 -2466.92,-1730.81 -178.62,-702.06 1154.46,-774.85 1429.83,-0.35 111.1,-25.65 823.57,-442.8 897.88,-517.28 -301.44,-678.7 -1175.01,-1266.73 -2222.09,-1005.96 -1070.59,266.64 -1422.55,1301.73 -1033.54,2064.41 433.55,850 1690.77,813.48 2188.28,1178.81 138.41,101.61 265.87,360.76 105.79,576.91 -124.47,168.1 -408.46,218.27 -669.37,213.73 -426.37,-7.42 -761.3,-162.12 -964.55,-514.22 -20.58,-35.71 -24.1,-46.72 -44.68,-73.74 -42.85,-56.29 -24.1,-32.86 -63.01,-65.61zm17556.18 4346.06l250.99 2.64c1.51,-134.4 -74.9,-306.65 -119.65,-426.79 -59.99,86.97 -130.98,315.37 -131.33,424.15zm8333.2 -77.79c81.27,442.24 801.23,371.66 730.41,-138.62 -68.78,-495.68 -826.81,-385.84 -730.41,138.62zm-14107.36 -476.61c0,-281.98 -38.59,-280.12 303.34,-247.43l-4.15 1284.74 -299.05 -13.26 -0.07 -279.34 -0.07 -744.7zm-8994.86 -252.18l265.87 0.32c58.47,228.61 4.05,717.82 25.12,994.95l455.68 15.87 -2.43 275.83 -756.87 -3.8 12.63 -1283.16zm-2192.47 2.57c58.33,-1.94 87.99,5.35 144.21,14.21l-9.25 1269.44 -276.07 -2.36c-34.23,-213.2 -45.84,-1095.43 6.68,-1254.98l134.43 -26.32zm16479.01 1281.01c14.67,-150.68 359.74,-1126.1 428.2,-1280.62l370.54 15.66c68.11,150.97 406.25,1136.52 415.67,1270.21l-302.35 -4.61 -83.52 -192.09 -445.23 0.21 -90.98 194.52 -292.33 -3.27zm-10961.32 -307.74c74.37,-297.96 -2.5,-656.67 40.04,-977.32l266.61 3.2c36.55,132.85 27.69,742.27 15.66,906.81 -40.18,550 -933.73,545.21 -985.02,-0.11 -22.06,-234.91 -10.66,-653.29 0.7,-896.26 95.87,-9.36 202.26,-18.65 283.29,20.44 79.58,445.68 -204.86,1176.84 378.73,943.23zm19979.16 -972.92c847.85,-218.48 1181.59,1057.96 330.36,1290.33 -830.54,226.78 -1208.01,-1064.15 -330.36,-1290.33zm2812.37 9.46l235.97 -3.98c101.29,185.27 334.76,499.02 468.52,649.67l6.61 -649.71 295.77 2.39 -10.45 1276.4c-158.53,0.6 -185.97,34.37 -269.32,-73.6 -97.17,-125.88 -324.94,-512.28 -429.11,-565.41l-12.35 641.51 -287.37 -6.68 1.72 -1270.6zm-14779.3 2.74c376.83,-45.98 319.98,234.24 706.98,647.1l5.45 -656.5 292.75 7.14 -8.06 1274.36 -218.55 -4.71c-81.02,-125.53 -389.64,-576.84 -480.06,-636.09l-10.52 642.81 -290.78 -4.19 2.78 -1269.93zm-5646.81 -16.71l279.7 4.29c77.37,110.86 259.64,467.92 357.45,526.22 102.34,-102.24 261.86,-381.41 326.1,-524.95l312.45 22.87 -2.18 1256.84 -296.06 -3.59 -5.42 -675.14c-138.55,103.58 -208.98,350.45 -334.9,475.7 -143.44,-86.16 -197.86,-349.08 -339.33,-467.46l-5.14 669.76 -303.69 0.84 11.01 -1285.37zm12856.86 1028.23c-289.2,506.02 -1207.48,329.02 -1201.36,-387.28 6.83,-798.56 1064.75,-805.7 1199.81,-351.08l-213.87 118.84c-139.32,-65.97 -234.56,-187.7 -462.61,-113.99 -150.68,48.73 -231.36,203.95 -225.02,375.43 5.95,161.31 102.41,303.83 254.01,341.23 262.28,64.73 291.27,-74.13 433.62,-127.68 45.28,21.99 80.32,37.86 114.48,59.14l100.94 85.39zm4768.95 -1145.31c9.39,-82.22 77.93,-192.52 139.25,-259.12l316.36 15.8c-41.41,35.04 -142.66,163.03 -205.53,244.16l-250.07 -0.84zm4753.43 1887.41c83.52,-424.82 44.05,-1599.41 36.17,-2115.67 -3.83,-251.09 -101.61,-176.05 -361.04,-175.63 -4799.31,7.7 -31167.62,-53.83 -31246.39,30.05 -71.07,142.73 -65.44,2064.69 -2.85,2237.82 192.45,95.03 7031.43,28.95 7895.81,28.95 5262.38,0 10524.96,0 15787.34,0 573.43,0 7523.63,32.75 7890.96,-5.52z"/>
 </g>
</svg>
