<?xml version="1.0" encoding="UTF-8"?>
<!DOCTYPE svg PUBLIC "-//W3C//DTD SVG 1.1//EN" "http://www.w3.org/Graphics/SVG/1.1/DTD/svg11.dtd">
<!-- Creator: CorelDRAW 2021 (64-Bit) -->
<svg xmlns="http://www.w3.org/2000/svg" xml:space="preserve" width="62.7761mm" height="18.6061mm" version="1.1" style="shape-rendering:geometricPrecision; text-rendering:geometricPrecision; image-rendering:optimizeQuality; fill-rule:evenodd; clip-rule:evenodd"
viewBox="0 0 4824.52 1429.93"
 xmlns:xlink="http://www.w3.org/1999/xlink"
 xmlns:xodm="http://www.corel.com/coreldraw/odm/2003">
 <defs>
  <style type="text/css">
   <![CDATA[
    .fil0 {fill:#BDBFC1}
   ]]>
  </style>
 </defs>
 <g id="Capa_x0020_1">
  <metadata id="CorelCorpID_0Corel-Layer"/>
  <g id="_2452455306224">
   <path class="fil0" d="M84.99 402.28c4.85,0.4 8.49,3.06 12.44,5.49 3.96,2.47 7.06,5.53 10.94,8.28 2.72,1.91 2.79,1.62 5.67,3.28l23.86 13.31c1.89,1.05 0.54,0.38 2.54,1.3l11.94 5.99c4.14,2.13 24.15,8.58 25.5,10.57l0.62 1.74c9.25,0 6.39,1.06 12.82,2.56l0 7.69c3.97,-1.44 6.81,-3.34 11.84,-0.4l5.72 2.05c0.35,0.1 0.69,0.15 1.03,0.25 0.32,0.11 0.65,0.21 0.98,0.32l13.37 3.27c3.32,1.05 2.34,1.27 5.35,3.63 4.33,3.41 12.8,2.64 16.98,4.6l6.03 3.08c6.4,2.27 21.05,5.34 21.99,13.94l3.85 0c-1.48,-6.15 -0.88,-1.99 0,-3.84 4.52,0.1 7.22,1.71 9.91,2.89l7.87 3.66c3.64,1.68 2.85,1.14 7.85,1.14l0 6.4c7.35,0 11.75,-0.45 17.06,2.15 4.33,2.12 7.67,5.31 12.24,6.97 3.64,1.31 6.99,1.54 9.71,4.38l2.51 2.61c0.32,0.23 2.04,1.08 2.53,1.32l20.84 13.74c2.17,1.76 2.86,2.52 4.41,4.57l9.08 15.26c8.73,17.67 4.4,42.88 -5.53,52.62 -1.86,1.83 -0.85,0.4 -2.33,2.79l-5.98 8.11c-4.1,3.39 -5.81,3.44 -10.38,5.01 -7.56,2.59 -2.97,4.73 -12,7.21 -6.26,1.72 -7.55,5.66 -12.47,6.06 -13.21,1.08 -11.2,2.86 -16.62,3.64 -2.21,0.33 -0.5,0.03 -2.94,0.18 -3.4,0.18 -5.03,1.09 -6.32,-2.1l-16.65 0 0 3.85 -21.78 0 0 -3.85c-8.57,0 -13.52,0.35 -20.5,-1.28 1.48,6.15 0.87,1.99 0,3.84 -4.27,0 -13.55,-0.98 -18.88,-1.62 -5.13,-0.62 -11.34,-3.11 -16.92,-3.21 -4.77,-0.08 -2.61,0.97 -7.12,-0.86 -7.5,-3.04 -10.24,-1.01 -15.64,-2.37 -4.15,-1.04 -2.25,-1.85 -6.03,-4.23 -3.99,-2.52 -3.39,-1.05 -7.69,-2.56 -11.24,-3.96 -21.27,-5.32 -31.79,-10.49l-13.78 -5.43c-2.39,-0.92 -1.49,-0.58 -3.37,-1.76l-7.25 -4.28c-5.28,-2.32 -5.73,-1.68 -9.98,-5.39l-33.31 -17.94c-6.2,-5.77 0.68,-1.48 -7.22,-4.31 -2.68,-0.96 0.08,0.45 -3.57,-1.55l-3.17 -1.96c-1.09,-0.65 -1.69,-0.86 -3.18,-1.94 -11.14,-8.02 -7.97,-4.07 -15.11,-10.51 -3.47,-3.14 -6.06,-3.81 -9.71,-5.66 -2.31,-1.17 -1.63,-0.52 -3.67,-1.46l-5.36 -4.89c-3.6,-3.6 -2.21,-2.38 -9.15,-2.38 -3.28,6.84 -1.28,75.28 -1.28,88.4l-0.64 68.26c0.07,0.89 0.38,6.71 1.3,9.19 2.34,6.25 3.76,1.88 4.47,8.38 3.83,0 7.55,-0.45 10.82,0.72 4.08,1.44 5.13,5.13 12.43,7.98l52.41 23.26c5.81,3.02 10.17,2.69 16.19,6.88 3.81,2.65 7.57,2.37 12.48,4.17l21.93 7.54c5.33,2.51 12.69,2.27 19.74,3.32 6.64,0.98 2.33,1.07 8.71,2.82l10.9 2c0.24,0.1 0.54,0.35 0.75,0.46l1.93 1.2c3.56,1.11 10.64,0.22 13.18,0.52 10.08,1.22 -0.5,2.61 28.89,3.53l118.97 -0.26c8.51,-0.24 4.4,-1.01 9.35,-2.19 6.77,-1.61 14.64,-1.31 21.37,-1.68l18.99 -5.34c0.21,-0.12 0.52,-0.35 0.74,-0.47 0.12,-0.05 4.9,-1.41 5.04,-1.43 11.45,-1.84 15.81,-4.63 27.49,-8.39l4.53 -1.88c3.99,-1.53 7.93,-1.84 10.9,-4.49 3.8,-3.38 7.45,-3.5 11.94,-5.99l7.09 -3.17c5.71,-3.34 4.57,-3.74 10.19,-5.86 1.18,-0.45 5.24,-3.27 6.62,-4.2 0.23,-0.16 0.55,-0.37 0.78,-0.52 0.23,-0.16 0.54,-0.36 0.77,-0.52l13.72 -6.78c0.26,-0.13 0.6,-0.28 0.83,-0.44 3.16,-2.14 0.78,-2.54 4.5,-5.76l18.44 -16.16c10.15,-7.31 5.03,-1.22 11.57,-11.47l15.1 -19.5c3.33,-4.8 2.49,-2.88 7.52,-5.29 0,-3.4 -0.27,-3.94 0.66,-7.04l6.69 -11.24c1.52,-2.37 1.88,-4.23 2.6,-6.37l4.93 -9.16c7.59,-10.19 14.68,-61.54 14.6,-76.36 -0.07,-13.76 0.57,-36.85 -2.81,-48.45l-10.48 -42.05c-2.03,-5.26 -4.29,-6.56 -6.35,-11.59 -0.71,-1.74 -1.72,-5.94 -2.15,-6.81 -2.21,-4.45 1.21,-0.81 -5.12,-3.85 0,-7.24 -0.58,-8.39 -4.34,-12.3l-7.55 -9.1c-8.5,-12.6 -17.93,-20.23 -19.71,-22.69 -3.83,-5.26 -0.68,-4.6 -5.97,-7.02l-7.12 -5.41c0,-0.01 -1.88,-1.7 -2.01,-1.83 -4.7,-4.92 -3.48,-4.8 -9.47,-8.47 -1.61,-0.98 -0.65,-0.29 -2.23,-1.62l-3.83 -3.86c-4.28,-4.16 -8.85,-6.11 -13.5,-9.55l-10.97 -5.66c-0.29,-0.15 -2.25,-1.18 -2.51,-1.34 -3.08,-1.95 -3.34,-4.33 -5.95,-6.26l-9.3 -2.15c-1.44,-0.78 0.61,0.2 -1.84,-1.38 -3.83,-2.46 -8.85,-2.54 -12.16,-5.76 -3.87,-3.78 5.49,-2.94 -2.2,-5.43 -2.17,-0.7 -5.72,-0.22 -8.45,-0.63 -2.98,-0.45 -3.84,-1.14 -6.32,-2.64 -5.77,-3.48 -14.53,-5.73 -19.8,-9.67 -3.51,-2.63 -4.54,-2.34 -9.46,-3.35 -9.15,-1.85 -21.16,-8.62 -30.6,-11.68l-12.24 -5.69c-0.98,-0.45 0.08,-0.24 -2.74,-1.11 -0.12,-0.03 -4,-0.85 -4.23,-0.9l-8.64 -2.9c-0.55,-0.17 -3.54,-0.8 -4.17,-0.96 -6.38,-1.53 -6.89,-4.9 -11.4,-6.52 -1.91,-0.68 -3.93,-0.52 -6.45,-1.24 -4.84,-1.38 -2.63,-1.42 -6.37,-2.6 -8.71,-2.74 -14.82,-6.87 -17.95,-7.69 -3.48,-0.91 -4.21,0.11 -7.79,-1.18l-12.22 -5.73c-0.26,-0.12 -0.58,-0.29 -0.86,-0.42l-8.48 -3.05c-0.27,-0.12 -0.58,-0.3 -0.86,-0.42 -0.28,-0.12 -0.61,-0.26 -0.9,-0.37 -4.96,-1.91 -2.84,0.35 -7.33,-2.92l-14.16 -8.91c-0.29,-0.12 -0.65,-0.22 -0.95,-0.33 -0.31,-0.11 -0.67,-0.18 -0.99,-0.28 -5.63,-1.98 -7.81,-2.87 -7.81,-10.13 -10.01,0 -13.24,-3.95 -18.7,-12.04 -2.64,-3.92 -2.46,-6.32 -5.11,-10.27 -2.37,-3.51 -4,-7.42 -4.34,-12.31 -1.28,-17.95 2.23,-27.27 14.46,-39.29l14.43 -9.89c1.19,-0.63 1.28,-0.63 2.61,-1.25l7.99 -3.62c4.26,-2.21 13,-2.87 17.98,-6.33 1.01,-0.7 1.4,-1.12 3.19,-1.88 6.31,-2.67 19.3,-2.61 26.38,-3.08 5.44,-0.36 7.49,-1.23 13.68,-1.56 12.84,-0.68 29.14,1.09 40.52,2.54 13.46,1.72 20.73,-0.1 27.77,2.86l9.58 2.07c6.86,2.28 1.42,2.84 12.27,3.08 4.38,0.1 3.27,-0.45 6.69,1.01l11.07 4.31c0.3,0.11 0.61,0.25 0.91,0.35l47.38 14.13c0.28,0.11 0.61,0.26 0.89,0.39 7.77,3.4 -5.34,-2.63 1.63,0.93 3.21,1.64 0.6,0.84 3.54,1.57 3.34,0.85 6.08,0.19 9.09,2.44 4.37,3.27 1.34,3.14 6.99,4.53l24.35 7.69c5.86,3.32 3.27,-1.91 4.02,4.94l12.82 0c0.79,9.53 8.14,5.94 13.03,7.59 5.87,1.98 1.13,2.06 7.64,3.76 5.68,1.48 3.72,0.07 8.78,2.75 3.74,-7.06 4,-4.23 3.88,-15.34 -0.34,-32.55 1.65,-71.33 -0.03,-102.54 -0.35,-6.55 -1.84,-10.81 -1.28,-19.23 0.31,-4.63 1.29,-5.49 0.79,-8.6 -0.82,-5.06 -1.91,0.1 -2.08,-8.03 -4.13,-0.1 -7.44,-0.77 -10.53,-2.29 -3.5,-1.72 -4.43,-3.47 -6.13,-6.68 -16.58,0 -8.18,-0.16 -19.75,-4.6 -1.71,-0.66 -4.32,-2.38 -5.67,-3.3l-104.47 -30.04c-7.27,-0.98 -11.94,-0.69 -17.86,-2.64l-12.39 -1.7c-8.55,-0.68 -11.53,-3.97 -29.45,-3.87 -7.78,0.05 -17.67,1.74 -25.28,-0.33 -6.16,-1.68 -3.64,0.23 -4.2,-4.78l-5.13 0c-0.45,5.36 -3.78,2.58 -24.41,2.64 -6.78,0.02 -19.17,-7.01 -21.71,2.48 -10.71,0 -22.46,-0.68 -32.57,0.74l-14.08 2.57c-6.22,1.71 -13.12,0.72 -17.8,2.71 -3.36,1.42 1.05,0.06 -2.7,1.14 -2.6,0.74 -5.01,0.58 -7.9,1.1l-15 2.81c-1.28,0.48 -1.64,0.58 -2.83,1.08 -8.07,3.44 -13.04,4.51 -22.42,4.51 -0.61,5.55 -0.93,3.77 -14.92,9.51l-21.84 10.11c-0.45,0.24 -1.45,0.84 -2.48,1.34l-10.34 6.39c-6.79,3.94 -7.96,0.96 -12.71,6.39l-23.23 19.1c-2.64,1.35 -5.21,2.64 -7.11,5.7 -9.15,14.72 -4.64,3.96 -10.83,13.51l-6.19 7.9c-3.9,5.19 -8.39,8.93 -10.64,15 -2.71,7.37 -3.67,5.15 -6.52,10.13l-13.95 34.72c-2.06,5.59 -1.88,7.31 -2.81,13.86 -1.42,10.05 -4.27,10.47 -5.03,26.91 -0.83,17.97 -0.74,51.85 2.01,63.36 1.41,5.93 2.1,7.1 3.26,13.4 3.4,18.43 10.47,32.92 18.51,49.39 0.58,1.18 0.66,1.48 1.24,2.62 0.26,0.51 1.19,2.23 1.33,2.51 5.92,12.32 5.03,7.38 9.65,15.95 0.94,1.74 -0.08,0.35 1.38,2.47l3.77 5.2c0.77,1.81 0.56,1.71 1.1,4.03 0.19,0.09 0.56,-0.14 0.62,0.08l4.47 2.41c8.66,9.78 16.43,19.25 26.54,27.36 3.75,3 9.21,5.79 10.64,11.14z"/>
   <path class="fil0" d="M1814.5 922.41l0 7.69 -78.17 0.03c-9.36,-0.08 -16.79,-2.64 -24.92,0.64 -15.19,6.14 -9.19,6.07 -16.4,18.2 -3.25,5.49 -3.24,11.31 -4.21,17.56 -1.05,6.73 -1.08,6.46 -2.9,11.21 -4.27,11.14 -3.21,10.48 -5.49,22.69 -0.67,3.62 -1.78,7.19 -3.24,10.87 -3,7.63 -3.04,14.7 -5.59,22.59 -1.28,3.95 -3.2,5.77 -3.7,10.37l-2.86 16.38c-1.94,6.42 -4.54,9.85 -4.93,16.85l-1.86 8.38c-5.02,8.77 1.43,-5.42 -1.45,2.39 -2.28,6.21 -3.76,23.32 -6.15,28.44l-5.79 22.39c-0.64,5.53 -2.78,5.84 -3.8,10.31 -1.23,5.46 -1.24,7.93 -4.76,13.16 -0.16,0.23 -0.37,0.53 -0.52,0.76l-0.98 1.59c-3.6,6.11 -4.52,13.59 -9.25,18.94 -4.96,5.59 -9.05,14.2 -14.34,20.25 -2.45,2.79 -0.15,2.21 -4.95,2.73 -0.72,8.22 0.04,-1.76 -5.52,7.22 -4.5,7.25 -7.45,5.99 -12.33,10.8 -0.58,0.58 -0.21,0.51 -1.9,1.96 -5.07,4.34 -8.98,0.77 -9.71,9.5 -10.7,0 -14.3,6.8 -26.08,12.34l-4.69 3c-0.23,0.15 -0.55,0.37 -0.78,0.51 -0.24,0.15 -0.57,0.33 -0.81,0.47l-7.3 2.95c-2.27,0.65 -2.42,0.42 -4.96,1.45 -14.55,5.91 -15.42,1.98 -20.8,4.8l-4.57 3.13c-7.13,4.42 -16.32,6.98 -24.91,7.13 -5.92,0.11 -9.82,-1.29 -15.63,1 -11.31,4.47 -34.05,2.15 -41.67,2.15l-117.57 -0.04c-11.77,-0.25 -17.28,5.53 -14.23,-7.59l2.77 -11.47c4.46,-15.27 6.81,-31.81 11.99,-46.95l3.84 -10.24c0.9,-4.26 1.48,-9.3 1.48,-13.89 4.93,0 15.8,-0.71 19.94,-1.85l54.47 -2.1c4.26,-0.06 7.45,-0.85 8.86,2.67l19.22 0 0 -3.85c9.25,0 6.11,-2.56 15.38,-2.56l0 -3.84c11.4,-0.25 1.31,-2.87 10.24,-3.83 0.75,-9.05 8.45,-29.95 10.5,-40.76 0.68,-3.6 0.53,-7.4 1.25,-11.57 0.78,-4.57 2.05,-3.54 3.15,-9.65 0.79,-4.39 -0.21,-8.04 1.32,-11.5 3.14,-7.04 4.82,0.46 5.56,-8.53 -5.85,-2.35 -2.34,-5.24 0.16,-12.65l13.74 -52.87c1.26,-8.59 2.68,-9.05 3.7,-14.24 0.75,-3.83 -0.02,-5.25 1.07,-9.18 1.08,-3.8 0.93,-0.53 1.91,-7.05 0.57,-3.73 0.51,-4.82 1.74,-8.53 0.44,-1.35 2.17,-5.03 2.9,-6.06 0.81,-1.14 4.25,-3.83 4.25,-6 0,-6.71 -2.47,-6.19 1.33,-14.03l5.81 -12.15c2.51,-8.48 9.09,-14.51 13.93,-21.93 6.27,-9.65 14.74,-17.83 23.01,-25.67l5.18 -5.07c3.98,-3.1 5.32,-0.78 5.83,-6.98 6.63,-0.55 4.03,-2.4 11.54,-2.57 0.34,-3.1 -0.09,-1.3 0.86,-2.98l4.83 -4.13c0.23,-0.15 0.56,-0.35 0.79,-0.49 19.59,-12.55 23.03,-9.78 31.17,-14.95 12.75,-8.12 15.92,-5.08 27.9,-9.27 17.16,-5.99 13.74,-4.31 33.28,-6.42l21.74 -1.13c2.14,0.03 0.3,0.04 3.87,-0.15l137.64 -0.56c4.76,0.52 3.4,1.25 8.22,1.65 -0.28,12.82 -7.03,33.68 -9.54,48.12l-7.12 30.03zm-124.26 -231.87l-14.82 1.83c-8.28,2.51 -18.65,0.01 -27.28,2.21l-11.1 2.05c-10.88,0.27 -15.38,3.05 -23.8,5.3 -6.35,1.69 -14.54,1.61 -20.88,4.75l-11.89 4.76c-6.09,1.84 -11.17,0.94 -16.72,3.78 -0.84,0.43 -1.6,0.78 -2.57,1.28 -0.25,0.14 -0.58,0.3 -0.84,0.44l-5.08 2.61c-5.04,1.91 -5.54,3.23 -11.17,4.78 -3.44,0.95 0.05,-0.75 -4.43,1.39 -3.91,1.86 -3.17,2.08 -5.61,3.35l-2.7 1.16c-1.3,0.52 -1.22,0.35 -2.81,1.02 -1.55,0.66 -2.24,1.11 -2.57,1.28l-26.61 11.81c-5.59,3.44 -2.83,4.93 -11.54,5.13l0 3.85c-3.83,0 -6.94,0.14 -9.16,1.08 -8.48,3.62 -8.02,10.44 -20.3,10.44 -0.43,5.1 -1.34,5.02 -5.2,6.34 -1.21,0.41 -3.29,0.79 -4.08,1.04 -3.9,1.25 -16.33,12.27 -23.89,17.12 -0.23,0.15 -0.54,0.36 -0.77,0.51l-19.11 14.2c-2.08,1.96 -0.34,0.54 -2.82,2.3l-22.07 18.92c-0.8,0.68 -2.18,1.77 -2.85,2.27l-8.53 6.85c-4.46,3.27 -11.44,8.25 -11.9,13.72 -7.06,0.78 -0.85,-1.48 -5.74,3.23l-17.88 18.01c-0.18,0.2 -0.43,0.47 -0.61,0.67 -4.75,5.59 -6.11,12.49 -15.49,12.7 0,3.8 -0.34,6.7 -3.08,9.73 -7.18,7.95 -0.21,-3.91 -8.82,10.41l-5.2 5.04c-1.38,1.26 -0.98,0.96 -1.88,1.96l-4.23 6.03c-1.69,3.1 -3.67,6.86 -7.08,8.28 -3.18,1.33 -5.55,0.83 -9.42,0.83 0.42,5.09 1.35,4.07 4.82,6.72 0.21,0.16 0.5,0.39 0.71,0.56l4.49 3.2c7.23,2.9 75.61,1.05 88.63,1.05 -0.11,4.97 -5.33,16.16 -7.22,22.25 -1.15,3.71 -1.84,4.66 -2.73,7.52 -2.22,7.13 -2.4,7.86 -5.58,13.72 -3.7,6.84 -0.91,0.71 -1.53,6.46 -0.48,4.47 -1.14,3.34 -2.16,7.71 -6.49,0 -5.24,-1.09 -10.79,-0.55 -24.52,2.41 -86.92,-2.06 -101.35,1.15 -6.13,1.37 -6.51,5.69 -9.35,9.86l-8.83 16.79c-0.65,1.52 -1.06,3.18 -1.68,4.73 -4.49,11.23 -11.85,20.75 -8.91,33.36l114.04 0.03c7.35,0.03 9.74,-1.19 15.35,-1.31l-10.21 35.91c-3.64,8 -7.42,8.07 -7.72,21.73 -4.94,0.41 -4.14,1.28 -10.26,1.28 0,-4.02 0.25,-5.63 -2.56,-7.69l-1.28 7.69 -113.31 -0.66c-4.52,1.04 -10.21,4.32 -12.23,7.07 2.94,1.18 2.94,3.69 2.56,7.4l-2.61 12.15c0.55,3.26 1.52,-1.8 0.53,4.04l-1.91 9.56c-1.25,13.15 -1.07,28.54 -2.83,42.11 -1.2,9.32 0.97,9.54 1.64,18.31 0.78,10.15 -1.62,23.6 1.29,33.29 1.38,4.62 2.05,3.73 2.54,8.98 0.98,10.58 4.51,26.28 8.52,36.33l15.11 31c3.07,4.19 2.27,2.28 4.4,7.12 3.11,7.06 0.64,2.24 4.86,6.67 3.75,3.93 5.42,8.6 9.11,12.67 1.88,2.05 4.39,3.8 5.56,5.98 0.14,0.25 0.28,0.6 0.4,0.88 1.59,3.5 0.58,4.3 3.4,6.86 4.07,3.7 3.77,1.45 7.75,3.79l20.37 14.22 0 3.84c7.35,0 5.92,0.42 9.83,4.27 4.9,4.82 6.23,4.99 12.01,7.2 6.29,2.41 2.11,0.3 5.06,6.47 3.02,0 5.76,-0.23 8.68,0.38l32.89 11.87c8.15,1.71 8.22,0.61 15.12,4.09 5.66,2.87 8.99,2.55 15.62,3.24 3.55,0.36 8.6,0.99 16.1,0.92 2.5,-0.02 6.69,-0.25 9.01,-0.05 3.8,0.33 1.51,0.04 4.19,0.95 3.48,1.17 -2.31,0.12 3.71,1.41 3.24,0.71 15,0.38 19.04,0.35 10.68,-0.09 5.82,-2.64 16.5,-2.73l37.8 -1.92 18.68 -5.66c3.24,-0.33 6.68,0.38 9.92,-0.32 3.37,-0.74 3.64,-1.97 6.16,-2.81l11.27 -2.84c7.14,-2.88 9.18,-1.39 12.43,-2.93 8.09,-3.85 2.31,-2.66 16.56,-2.66l0 -3.84c6.52,0 5.01,0.6 9.75,-1.78 3.43,-1.7 0.22,-0.54 3.37,-1.75l13.13 -3.53c13.71,-4.22 6.86,-6.29 17.4,-8.23l8.15 -3.37c13.79,-7.39 6,-4.67 18.67,-4.4 5.59,-11.67 -1.36,-6.29 17.1,-12.37l3.6 -1.6c7.23,-3.66 0.13,-3.12 13.87,-10.38l14.23 -7.55c2.01,-1.41 2.26,-2.26 4.13,-3.55l9.35 -6.03c3.47,-3.17 5.11,-4.17 10.74,-4.63 0.49,-5.86 1.56,-6.27 7.68,-6.41l0 -3.83c6.64,-0.15 7.45,-4.63 13.33,-8.46l20.87 -17.18c2.81,-1.53 -2.54,1.51 1.97,-0.77l3.01 -2.22c5.81,-5.16 13.1,-12.71 19.28,-16.68l4.97 -2.72c3.01,-1.7 -2.9,-1.74 5.74,-1.93 -3.02,-6.31 2.94,-8.85 6.67,-12.55 19.13,-19.01 7.73,-8.53 18.68,-14.63 6.01,-3.34 2.34,-8.35 8.44,-14.63 2.14,-2.21 3.49,-3.7 5.37,-6.15 3.57,-4.65 6.66,-7.06 9.89,-11.89l4.79 -6.75c3.72,-3.6 2.17,-2.13 5.32,-6.21l19 -27.14c-13.67,-9.14 -27.03,-3.83 -44.84,-3.83 -9.09,0 -70.62,1.91 -74.09,-1.23 -1.65,-1.51 -1.54,1.44 0.06,-4.62 1.28,-4.85 1.23,-6.96 1.91,-10.98l3.6 -9.02c1.29,-6.09 -1.02,1.45 0.44,-4.15 1.06,-4.12 2.92,-5.25 4.4,-9.41 0.27,-0.75 0.84,-2.56 0.92,-2.84 0.66,-2.57 0.1,-0.23 0.48,-2.66l6.84 -11.79c2.63,-1.34 3.11,-1.04 6.71,-1.07l125.83 0.66c5.4,0.22 4.82,1.41 8.61,-3.16 2.27,-2.74 3.37,-5.65 5.08,-9.08l12.54 -27.17c0.97,-2.06 1.05,-2.45 1.98,-4.43l4 -11.37c1.11,-3.69 1.01,-1.31 2.14,-5.54l-4.07 -4.93 -68.96 -0.2c-11.96,0 -23.92,0.02 -35.87,0 -11.26,-0.02 -18.48,2.23 -28.66,0.61l-16.19 -0.61c0,-8.34 5.32,-15.6 6.35,-23.12 1.11,-7.99 3.47,-12.23 5.07,-20.54 1.78,-9.26 1.1,-6.54 5.23,-12.71 30.45,0 72.98,2.05 101.41,0.45l54.88 -0.45c0.59,-2.55 0.69,-3.5 1.38,-6.29l3.83 -23.09c0.77,-10.78 3.76,-19.74 3.76,-32.1l-4.88 -70.7 -19.51 -57.36c-1.35,-2.43 -3.44,-4.47 -5.35,-7.47 -1.66,-2.63 -3.45,-5.65 -4.79,-8.02l-10.71 -14.92c-1.21,-1.46 -1.73,-1.94 -3.05,-3.34l-2.51 -2.64c-3.28,-3.5 -4.16,-4.79 -4.3,-11.07 -5.98,0 -8.8,-0.28 -8.97,-7.69 -7.55,-0.17 -12.46,-6.13 -17.77,-10.43l-3.31 -3.08c-7.64,-6.65 -16.95,-8.84 -23.66,-14.77 -4.33,-3.83 -5.1,-4.04 -10.95,-5.7 -3.06,-0.87 -7.05,-2.27 -9.65,-3.16l-14.61 -5.89c-0.29,-0.11 -0.62,-0.25 -0.91,-0.37l-13.32 -3.34c-5.03,-1.48 -3.27,-2.27 -9.59,-3.23l-21.69 -3.93c-4,-0.11 -8.82,0.45 -12.76,-0.05 -5.03,-0.65 -5.43,-2.28 -11.67,-2.42l0 -3.85 -38.43 0 0 3.85z"/>
   <path class="fil0" d="M3323.67 525.27c0,-10.31 0.99,-34.08 3.49,-42.63 1.37,-4.66 0.86,0.28 1.57,-6.12 1.14,-10.42 2.79,-21.82 7.09,-31.34l5.38 -10.01c2.61,-8.43 1.2,-11.28 9.56,-22.46 8.01,-10.71 -0.26,-2.1 10.15,-12.91 3.5,-3.64 1.19,-1.97 3.19,-4.5 2.43,-3.06 4.96,-3.27 8.58,-6.79 5.09,-4.97 2.74,-2.71 8.27,-5.83 0.25,-0.14 0.58,-0.32 0.81,-0.47 10.52,-6.27 11.37,-9.61 21.36,-10.67 5.79,-0.61 2.11,0.28 6.25,-1.44l16.79 -7.54 44.84 0c7.72,0 4.71,3.26 9.35,4.73l9.58 0.77c5.65,0.95 11.15,3.92 16.95,6.01 10.64,3.83 6.97,3.46 16.51,7.83l10.1 5.28c6.96,4.65 -0.52,2.77 6.69,3.55l0.02 230.63c0.13,11.69 0.46,11.62 -8.6,18.3 -16.72,12.3 -6.98,7.65 -25.65,16.64l-3.68 2.71c-4.39,3.77 -13.75,6.86 -19.85,8.35 -9.78,2.39 -2.68,2.74 -19.11,3.94 -12.88,0.93 4.99,2.56 -23.05,2.56 -6.05,0 2.04,-2.67 -12.8,-2.57 -13.95,0.08 -29.67,-6.69 -40.71,-14.39l-6.21 -4.03c-0.23,-0.15 -0.55,-0.35 -0.78,-0.5 -8.66,-5.46 -20,-15.35 -25.42,-24.55 -0.83,-1.4 -1.75,-2.99 -3.04,-4.66 -14.09,-18.33 -10.55,-25.5 -14.62,-31.49 -1.89,-2.79 0.64,1.89 -1.58,-2.27 -5.11,-9.5 -11.44,-55.2 -11.44,-64.14zm217.79 -512.45c-7.7,8.24 -2.95,11.6 -1.53,18.18 0.95,4.43 1.27,230.6 0,236.51l-2.04 5.65c-0.38,1.85 -0.27,2.97 -0.27,4.86 -6.14,-0.14 -2.84,0.16 -6.11,-1.58 -0.07,-0.04 -2.02,-1.34 -2.31,-1.52 -1.01,-0.65 -1.36,-0.85 -2.36,-1.48 -6.19,-3.96 -2.68,-3.1 -12.28,-3.1 -4.9,-9.25 -6.16,-4.92 -15.02,-8.03l-11.3 -2.99c-17.09,-1.47 -10.35,-1.84 -17.66,-3.92l-12.57 -2.81c-6.45,-1.62 -14.42,-0.26 -21.17,-1.88 -4.1,-0.98 -0.72,-1.02 -5.8,-1.88 -2.92,-0.49 -4.1,0.12 -6.88,-0.81 -8.54,-2.87 7.82,-3.3 -26.18,-3.3 -3.25,0 -1.59,2.51 -11.39,3.97 -6.67,0.99 -2.28,1.99 -10.34,2.48 -5.18,0.32 -8.34,-0.6 -13.46,0.63 -7.56,1.84 -2.73,2.37 -10.97,3.13 -9.53,0.89 -8.52,3.25 -15.83,3.58l-11.95 3.42c-0.08,0.01 -2.3,0.18 -2.53,0.21 -5.13,0.58 -7.06,1.68 -11.93,1.79 -0.65,7.83 -8.95,6.16 -15.27,9.08l-36.37 21.28c-0.2,0.17 -0.48,0.42 -0.68,0.6 -1.48,1.34 -2.18,2.28 -3.89,3.8l-6.84 5.97c-9.88,7.25 -18.84,18.99 -28.3,26.78 -4.8,3.94 -6.8,10.97 -11.23,14.4 -4.4,3.4 -1.32,-1.07 -4.67,4.27 -3.63,5.76 -4.93,11.8 -8.3,17.33 -2.27,3.73 -3.69,6.97 -5.93,10.73 -3.32,5.53 -4.91,12.31 -7.8,17.82 -2.85,5.46 0.36,3.11 -5.23,3.73 0,7.11 -0.31,4.35 -1.91,9.62 -0.96,3.16 -1.45,6.32 -2.05,9.47l-8.83 37.29c-0.66,9.4 -3.49,11.9 -3.89,20.46 -0.34,7.39 0.56,15.74 -0.04,23.03 -0.57,6.92 -1.91,14.08 -1.15,23.06 1.18,13.83 0.35,27.53 2.53,42.31 0.68,4.56 1.69,6.12 2.22,9.32 0.62,3.8 -0.1,7.29 0.62,10.91 0.65,3.23 2.32,4.85 3.17,8.35l10.3 37.1c1.64,4.68 3.4,2.98 5.03,7.78l4.39 12.28c0.66,1.59 0.79,2.43 1.68,4.73 1.22,3.2 2.13,5 4.11,7.41 1.88,2.3 0.77,-0.41 2.78,3.62 1.58,3.16 1.52,5.59 3.62,7.92l7.01 10.94c2.3,4.85 3.54,3.53 8.01,9.92 1.81,2.58 0.28,1.87 3.4,3 -1.59,5.96 -2.02,1.13 -2.56,7.69l7.64 -1.48 25.07 26.41c1.78,1.55 2.48,2.19 4.12,3.57 3.2,2.71 4.74,3.4 8.44,5.65 6.86,4.14 10.54,9.1 17.81,12.93 6.36,3.34 4.4,1.81 7.38,7.99 6.94,0 8.23,2.48 13.76,4.19l31.02 11.26c0.35,0.09 0.71,0.12 1.05,0.23l1.84 0.71c0.26,0.13 0.55,0.36 0.79,0.49 4.53,2.46 -1.68,1.64 7.85,2.39 8.84,0.7 12.63,5.18 32.06,5.1l33.62 1.24c3.44,-0.88 -1.79,-0.15 3.67,-1.04 10.12,-1.64 21.37,-0.15 30.56,-1.57l7.98 -2.27c11.2,-2.17 6.34,0.78 19.97,-4.37 5.96,-2.25 7.31,-1.75 13.82,-5.41 4.32,-2.42 1.35,-0.9 6.44,-2.52 5.73,-1.82 7.62,-3.91 12.73,-6.49 2.74,-1.38 4.58,-2.21 6.92,-3.33 0.26,-0.13 0.61,-0.28 0.88,-0.41 0.35,-0.17 1.4,-0.63 1.74,-0.81 7.29,-3.93 5.18,-5.07 15.42,-5.07 0.16,-7.34 7.21,-11.86 14.09,-10.26 -0.59,7.09 -3.76,28.35 1.28,33.32 1.61,1.59 28.33,1.36 34.65,1.31l123.05 0.05c6.91,-1.7 5.98,-3.64 7.58,-9.43 0.6,-2.16 1.28,0.44 1.28,-8.58 0,-5.59 -2.57,-4.65 -2.57,-10.25 0,-225.47 1.15,-450.97 0,-676.44 -0.11,-19.8 2.01,-17.65 0.42,-45.1 -0.27,-4.67 2.34,-11.54 -1.87,-14.93l-3.39 -1.72c-2.27,-0.83 -0.58,-0.71 -4.13,-1.01 -1.96,4.86 -4.5,2.6 -16.65,2.57l-138.37 0z"/>
   <path class="fil0" d="M1323.83 775.08c3.44,-14.73 1.28,-137.09 1.28,-162.7 0,-55.08 0,-110.18 0,-165.26l6.05 -5.48c1.49,-1.98 0.37,-0.28 1.64,-2.21l0.98 -1.58c2.11,-3.51 2.77,-5.67 7.99,-6.1l0 -3.85 3.84 0c0,-8.55 4.88,-11.4 9.96,-16.94 2.34,-2.55 4.53,-5.32 6.61,-7.49 2.31,-2.4 4.93,-4.7 9.05,-5.04l0 -3.85c6.23,-0.51 5.67,-3.76 12.02,-7.19 0.35,-0.18 1.36,-0.68 1.69,-0.87 0.25,-0.15 0.57,-0.33 0.81,-0.48l3.83 -2.57c2.82,-1.84 3.3,-2.16 6.69,-3.58 6.32,-2.66 15.51,-5.7 22.1,-6.36l33.4 1.96c4.93,0.95 9.01,3.76 13.5,5.75 11.52,5.12 16.52,12.3 24.75,21.38 1.36,1.51 0.56,0.47 1.85,1.99 3.15,3.7 0.56,0.26 3.04,4.65l5.36 11.38c0.11,0.24 0.32,0.56 0.43,0.78 2.58,5.2 3.45,13.44 5.8,19.8 1.64,4.44 0.58,0.01 1.74,5.95 4.37,22.42 1.81,17.63 3.73,34.71 3.81,33.95 -4.61,165.74 0.51,180.31 1.81,5.14 5.46,1.14 9.18,-0.56l33.66 -15.06c0.3,-0.11 0.62,-0.25 0.92,-0.36 7.56,-2.64 25.32,-11.33 30.29,-11.99 4.11,-0.55 2.7,0.43 6.69,-1 6.01,-2.14 5.65,-5.78 13.73,-0.36 1.4,-2.63 1.78,-3.04 2.57,-6.39 10.67,0 12.2,-2.77 20.6,-3.75 1.28,-0.14 2.47,-0.01 3.67,-0.15l3.17 -0.68c3.41,-1.29 0.83,-1.95 6.03,-2.94l15.06 -1.61c5.67,-1.36 3.34,-2.39 7.85,-2.39 5.44,0 13.29,2.33 12.46,-9.91 -2.91,-42.87 3.36,-178.43 -4.32,-204.49 -0.76,-2.58 -0.91,-3.24 -1.38,-5.03l-6.35 -25.68c-1.54,-6.83 0.25,-4.09 -3.17,-9.65l-4.88 -11.9c-3.28,-7.25 -9.31,-13.29 -12.22,-20.95 -3.38,-8.91 -5.53,-6.75 -11.78,-15.12 -4.43,-5.92 -13.61,-16.85 -19.04,-19.41 -4.33,-2.04 -6.39,-1.93 -6.97,-7.12 -5.62,-0.46 -9.98,-5.53 -14.69,-8.37l-15.37 -7.69c-1.71,-0.8 -1.88,-1.06 -3.08,-2.04 -0.29,-0.24 -1.05,-0.99 -1.32,-1.23l-2.06 -1.79c-5.16,-3.47 -17.9,-4.1 -21.73,-7.74 -2.68,-2.57 -1.36,1.09 -1.98,-4.43l-69.87 -3.09c-4.86,-0.6 -6.35,1.84 -12.04,1.88l-21.9 1.15c-6.71,0.63 -8.67,4.85 -15.66,6.12 -5.63,1.03 -8.71,0.02 -13.35,2.04l-5.16 2.51c-4.59,1.82 -6.34,3.83 -10.13,6.52 -0.22,0.16 -0.55,0.35 -0.78,0.51 -0.23,0.15 -0.55,0.34 -0.79,0.49 -4.4,2.74 -9.63,3.1 -12.86,6.36 -5.93,6.01 -5.56,3.17 -17.47,13.35 -3.88,3.3 -3.6,3.01 -9.6,3.14l-2.37 5.3c-2.66,3.12 -1.88,1.34 -4.19,3.5 -4.39,4.16 -1.79,5.98 -8.82,6.56l0 3.84c-6.59,0.55 -3.58,3.44 -12.09,12.25 -3.16,3.26 -0.25,2.66 -5.84,3.12 -0.89,-10.71 -1.02,-6.23 0.83,-17.18 1.08,-6.35 -0.89,-10.86 -0.86,-18.65l0.13 -270.45c-0.04,-4.06 0.29,-5.95 -2.21,-8.05l-10.71 -3.38c-2.53,0 -5.59,2.69 -14.05,2.61 -5.56,-0.06 -11.12,-0.04 -16.69,-0.04 -22.08,0 -109.51,-1.37 -120.61,-0.09 -8.08,0.95 -2.76,3.77 -2.58,10.13l0.05 737.11c-0.22,8.03 -0.7,2.41 -1.58,6.77 -0.36,1.76 -0.1,3.97 1.38,6.01 4.47,6.1 21.37,3.62 31.09,3.62l103.77 -0.01c11.79,-0.04 22.04,2.91 30.74,-1.28z"/>
   <path class="fil0" d="M4147.42 458.64l-198.57 0c-8.96,0 2.01,-23.32 2.94,-29.07l17.02 -40.65c1.43,-1.68 0.72,-0.68 2.07,-1.78l22.43 -19.84c0.23,-0.15 0.54,-0.36 0.75,-0.52 12.43,-9.28 7.4,-4.83 20.63,-10.11 5.73,-2.29 2.57,-2.2 10.6,-3.5 2.96,-0.48 8.47,-0.58 13.26,-0.81 16.58,-0.81 -4.33,-5.89 46.03,1.3l6.89 2.09c1.17,0.42 1.72,0.52 2.92,0.92 13.21,4.43 42.63,25.61 47.86,40.55 3.92,11.24 2.89,-1.82 7.5,11.71 2.44,7.19 1.82,1.78 4.93,10.44 0.11,0.31 0.25,0.63 0.35,0.94 2.76,8.1 0.39,8.94 3.27,14.66 2.77,5.53 2.41,1.98 3.24,9.57 0.8,7.43 2.05,5.64 2.54,11.55 -20.63,0 -10.11,2.56 -16.65,2.56zm-167.82 -206.25l-2.56 0c-0.46,5.5 0.18,2.3 -2.57,6.39 -15.97,0 -22.03,2.41 -35.28,8.27 -0.28,0.12 -0.61,0.28 -0.88,0.41l-12.14 4.51c-0.26,0.13 -0.55,0.36 -0.8,0.49l-14.6 7.18c-5.26,2.75 -5.4,1.19 -9.75,3.06 -4.19,1.78 -0.2,0.35 -3.2,1.93 -2.34,1.22 -2.2,0.73 -4.5,1.91l-21.54 15.61c-3.42,1.93 -3.83,3.28 -6.29,5.3 -5.09,4.18 -7.38,-1.88 -10.08,5.15 -1.81,4.69 -2.77,9.56 -9.04,10.25 -0.68,6.21 -5.56,6.38 -12.04,14.87 -1.11,1.45 -1.62,2.21 -2.82,3.57l-4.65 5.61c-2.47,3.1 -3.13,1.65 -3.55,6.69l-3.84 0c-0.64,7.64 -8.54,14.65 -12.62,21.97l-7.92 13.86c-1.51,3.34 -2.56,5.78 -4.37,9.74l-7.9 20.28c-1.8,4.61 -2.92,4.76 -3.07,11.03l-3.84 0c1.61,19.24 -3.64,17.23 -4.96,24.49 -0.34,1.81 -0.13,4.18 -0.26,6.15 -0.3,4.4 -1.66,7.34 -2.14,10.66 -1.21,8.32 -0.93,15.32 -1.79,23.83l-2.37 28.38c0,11.34 4.73,47.2 6.91,59.72 1.05,6.05 2.28,6.06 3.74,10.34 1.75,5.12 0.18,8.71 1.37,14.1 0.07,0.31 0.18,0.66 0.26,0.94 1.03,3.76 -0.91,4.12 4.38,4.58 0.25,3.1 0.59,4.37 1.69,7.27l3.1 5.88c2.9,5.99 4.13,11.85 8.15,18.75 1.28,2.21 1.54,3.54 2.85,6.12 2.49,4.96 5.15,5.49 6.66,11.27 3.96,15.19 -0.15,1.87 15.45,20.43l14.58 17.45c0.68,1.3 0.83,-0.85 1.33,3.8 6.55,0.54 5.89,3.34 9.59,7.06l2.88 2.24c0.32,0.23 10.63,8.12 16.03,14.72 2.8,3.43 8.12,3.97 11.8,6.14l16.42 10.48c8.77,6.59 18.71,7.95 23.99,11.88l17.6 8.02c2.77,0.72 4.08,1.44 6.57,2.4l1.91 0.67c5.63,1.83 5.7,3.28 11.14,4.23l14.29 3.64c3.3,0.66 4.69,-0.13 8.1,0.87 8.35,2.44 2.44,2.78 14.66,3.28l15.58 2.36c3.77,1.22 -1.38,0.05 2.81,1.03 13.99,3.3 73.41,1.7 86.7,1.7 7.82,0 34.82,-0.3 40.58,-1.69l23.52 -3.38c10.62,-0.69 1.8,-2.97 12.34,-3.6l5.42 -1.61c1.25,-0.64 -0.49,-0.17 2.61,-1.25 1.04,-0.35 3.59,-0.79 4.28,-0.9 1.11,-0.18 2.55,-0.27 3.41,-0.43l5.66 -2.02c5.32,-2.11 9.45,-2.27 14.4,-4.82 7.1,-3.64 14.02,-4.8 21.72,-9.03l31.63 -15.63c5.46,-3.19 16.24,-6.34 19.21,-9.11l14.99 -11.92c1.95,-1.88 2.63,-2.86 2.63,-6.33l0 -99.93c-6.86,0 -9.3,2.47 -18.31,8.6 -2.29,1.56 -1.04,0.71 -2.21,1.64l-2.09 1.75c-7.9,6.86 -7.04,5.28 -14.56,9.77l-24.92 14.8c-4.86,2.08 -8.29,2.26 -11.99,4.67l-31.61 14.51c-6.8,2.91 -8.21,0.81 -17.66,5.4 -10.51,5.1 -22.06,6.22 -33.3,7.69 -7.32,0.98 -15.24,-0.71 -22.56,0.51 -6.5,1.08 -1.58,2.4 -6.56,2.4l-35.68 -2.75c-2.17,-0.26 -3.11,-0.36 -5.25,-1.16l-1.74 -0.83c-0.27,-0.12 -0.57,-0.32 -0.85,-0.42 -3.54,-1.45 -11.67,-0.82 -16.43,-1.51 -4.69,-0.67 -6.66,-2.37 -10.62,-3.46 -3.95,-1.08 -7.96,-1.07 -11.66,-2.44l-14.82 -8.25c-5.46,-2.98 -9.94,-0.98 -10.57,-8.64 -2.84,0 -4.5,0.22 -7.23,-0.45 -4.73,-1.16 -2.74,-0.86 -5.05,-2.63 -2.1,-1.62 -2.28,-2.01 -4.1,-3.6 -1.04,-0.91 -1.05,-0.85 -2.05,-1.79l-1.3 -1.27c-0.18,-0.18 -0.44,-0.47 -0.62,-0.66 -3.24,-3.4 -5.1,-4.41 -7.99,-7.38 -0.18,-0.19 -0.45,-0.46 -0.61,-0.66 -2.74,-3.08 -4.01,-6.89 -4.35,-11.02 -7.87,-0.18 -7.39,-5.23 -11.07,-10.71 -0.23,-0.35 -3.6,-3.52 -6.27,-9.11 -1.65,-3.45 -1.93,-6.68 -2.98,-9.82l-4.48 -12.17c-0.11,-0.32 -0.22,-0.65 -0.32,-0.96 -0.1,-0.32 -0.25,-0.63 -0.35,-0.95l-1.64 -7.32c-2.08,-9.13 -3.63,-3.9 -3.63,-20.72 0,-3.93 1.19,-7.69 5.13,-7.69l348.47 0c3.97,0 3.35,2.56 7.69,2.56 7.08,0 -1.15,-2.87 7.68,-3.84 -1.86,-6.98 -2.67,-6.69 -2.57,-15.36 0.22,-23.9 0.27,-48.56 -5.72,-71.15l-3.4 -15.82c-0.67,-4.83 -3.93,-10.78 -4.53,-17.82l-9.4 -22.05c-2.63,-5.92 -9.05,-23.11 -11.86,-26.58 -5.84,-7.21 -9.39,-16.12 -15.59,-22.84 -6.03,-6.53 -10.48,-15.81 -17.42,-21.03 -6.95,-5.23 -4,-4.37 -3.8,-12.83 -11.55,0 -8.32,0.96 -9.56,-3.46 -0.15,-0.53 0.71,-2.53 -2.27,-3.85 -5.99,-2.64 -8.45,1.71 -8.67,-8.08 -10.18,0 -3.83,-1.15 -10.68,-4.68 -4.4,-2.27 -5.38,0.33 -5.97,-6.84 -5.99,-0.13 -2.77,0.26 -6.13,-1.56 -0.13,-0.08 -1.74,-1.18 -2.27,-1.57l-14.19 -8.87c-3.17,-2.6 -9.28,-4.23 -13.15,-6.07 -0.27,-0.12 -0.61,-0.27 -0.88,-0.4l-20.53 -8.94c-0.26,-0.13 -0.59,-0.29 -0.85,-0.42 -0.35,-0.18 -1.34,-0.7 -1.7,-0.87l-6.51 -2.46c-0.3,-0.11 -0.63,-0.24 -0.93,-0.35l-13.23 -3.47c-6.62,-0.98 -6.92,1.19 -12.6,-1.44 -6.11,-2.84 -12.28,-1.52 -15.92,-8.42 -2.77,2.02 -0.21,0.7 -1.84,1.84 -4.97,3.46 -20.8,-1.05 -24.03,-1.59 -2.74,-0.46 -4.4,0.11 -6.99,-0.7 -7.86,-2.47 -1.24,-4.87 -23.6,-3.49 -7.4,0.46 -11.17,6.58 -28.08,6.51 -23.68,-0.09 -25.23,8.63 -28.2,1.28z"/>
   <path class="fil0" d="M2610.08 349.75l24.25 2.67c13.4,0.96 28.67,6.36 39.42,14.39 0.22,0.16 0.52,0.38 0.75,0.53 0.23,0.16 0.54,0.36 0.77,0.51 19.53,12.69 15.11,12.24 24.02,23.39 0.17,0.21 0.43,0.48 0.6,0.68 2.99,3.74 0.39,-0.18 3.1,4.58 8.36,14.63 5.36,3.62 9.78,20.97 2.44,9.61 3.24,-3.37 4.96,12.97 0.74,7.02 0.77,3.42 1.61,6.08 1.63,5.12 5.19,22.15 -1.65,22.15l-199.86 0c-5.07,0 -0.12,-0.94 -5.51,-2.18 -2.57,-0.58 -4.65,-0.38 -7.3,-0.38 0.23,-2.8 0.4,-3.75 0.55,-5.14 0.04,-0.35 0.12,-1.28 0.18,-1.61l3.07 -13.78c2.34,-7.79 5.83,-22.83 11.04,-28.67 4.2,-4.71 2.53,-2.4 4.81,-9.28 3.14,-9.45 14.16,-16.58 18.23,-21.48 8.41,-10.12 3.8,-4.85 11.58,-8.93 0.25,-0.13 0.58,-0.32 0.83,-0.45 0.23,-0.14 0.54,-0.36 0.76,-0.52 9.72,-6.72 0.18,-1.98 11.72,-6.21 7.09,-2.6 9.78,-5.99 19.36,-6.85 6.05,-0.53 13.83,-3.41 22.91,-3.41zm-32.03 -98.64c-4.73,-2.18 -21.85,0.03 -28.7,2.03 -4.54,1.34 0.47,0.38 -3.77,1.37 -4.93,1.15 -9.39,0.63 -14.03,2.62 -2.72,1.17 -10.68,1.05 -14.03,2.64 -0.26,0.12 -0.53,0.35 -0.78,0.5 -0.24,0.14 -0.49,0.41 -0.73,0.55l-12.07 2.21c-5.15,0.91 -5.76,5.64 -13.06,7.24l-21.6 9.15c-0.35,0.18 -1.3,0.74 -1.64,0.93 -1.44,0.77 -1.75,0.91 -3.34,1.78l-38.3 24.49c-3.59,4.6 -0.15,2.14 -5.93,5.59 -4.94,2.95 -9.88,9.06 -14.46,13.72l-2.43 2.69c-2.33,2.4 0.07,0.29 -2.71,2.41 -4.23,3.22 -9.52,10.32 -12.89,15.3 -3.3,4.92 -2.22,1.93 -5.54,5.99 -6.28,7.72 -9.77,17.38 -15.94,25.07 -0.16,0.2 -0.41,0.49 -0.59,0.68 -2.98,3.42 -4.43,5.78 -9.09,6.29 0,7.09 -1.22,10.59 -2.79,16.42 -3.83,14.25 -10.27,18.76 -15.36,48.69l-2.38 7.87c-0.04,0.19 -0.72,4.38 -0.73,4.4 -1.71,12.52 -4.42,21.76 -4.34,35.38l-0.01 43.54c0,3.37 -2.56,3.96 -2.56,8.96 0,3.07 2.63,5.73 3.52,9.28 0.66,2.61 0.63,2.94 1.31,5.1 1.65,5.31 1.09,11.03 2.05,17.17 0.79,5.06 2.41,8.14 2.97,11.11 1.2,6.29 -0.85,5.16 2.17,10.64 3.52,6.39 3.4,12.83 6.91,18.71 2.7,4.52 2.73,3.83 4.41,9.68 5.83,20.3 5.58,12.75 13.23,26.48l18.69 27.43c4.09,3.87 4.94,8.61 11.36,9.15 0.66,6.11 0.15,1.58 1.44,3.67 0.18,0.31 0.87,1.16 1.1,1.46l1.18 1.38c2.47,2.93 2.38,2.71 5.2,5.06l5.06 5.19c2.71,2.87 3.5,2.76 6.48,5.04l22.52 18.48c0.25,0.15 0.58,0.32 0.82,0.47l11.94 8.55c5.05,2.77 2.74,0.85 7.69,2.55 4.66,1.61 3.47,2.31 7.26,4.29 4.57,2.38 9.76,3.97 13.73,6.75 6.34,4.46 -0.96,2.11 6.56,3.7l18.44 5.89c0.28,0.12 0.61,0.26 0.91,0.38l32.99 10.65c4.78,1.1 4.49,1.91 10.54,2.18 16.35,0.72 14.06,4.2 28.04,4 9.05,-0.14 12.13,1.31 20.46,1.32 18.41,0.02 88.92,0.81 102.36,-1.51 5.62,-0.96 10.74,-3.69 18.08,-3.71 9.77,-0.02 12.61,-1.27 21.96,-3.66l91.14 -38.26c0.21,-0.15 0.49,-0.4 0.71,-0.56l5.26 -2.44c3.76,-1.2 0.54,0.61 4.63,-1.78l2.92 -2.19c0.2,-0.17 0.49,-0.42 0.68,-0.6l1.87 -1.98c3.79,-3.85 1.08,-1.91 6.2,-4.05 5.55,-2.33 8.59,-5.9 9.33,-12.44l-1.18 -42.18c0,-7.65 1.81,-53.3 0,-55.09 -3.85,-3.86 -9.56,1.83 -12.24,4.4 -1.51,1.43 -0.57,0.77 -2.04,1.81 -5.16,3.64 -9.55,4.73 -14.19,8.87 -3.4,3.04 -3.97,2.25 -7.2,4.33l-12.7 6.52c-7.14,2.41 0.78,1.36 -13.8,9.26 -7.38,4 -8.76,5.81 -18.53,5.81l-2.54 5.16 -12.53 5.26c-4.96,1.26 1.78,-0.48 -2.61,0.29 -0.21,0.03 -0.6,0.05 -0.79,0.09 -4.66,1.07 -0.63,1.65 -6.65,3.77 -3.6,1.27 -4.17,0.37 -7.77,1.23 -3.59,0.86 -9.23,4.79 -12.36,5.58 -3.63,0.93 -11.07,1.29 -14.99,1.66 -13.97,1.35 -4.16,3.93 -30.79,3.81 -8.47,-0.04 -11.57,2.61 -20.44,2.61 -1.71,0 -4.25,-2.68 -17.94,-2.56l-53.6 -9.18c-1.01,-0.39 -5.39,-2.57 -6.85,-3.4l-24.67 -12.48c-3.62,-2.93 -6.58,-1.87 -9.91,-5.47l-5.8 -5.73c-0.23,-0.16 -0.58,-0.31 -0.8,-0.47 -2.84,-2.08 -3,-0.33 -3.43,-5.55 -7.85,-0.17 -4.43,-1.63 -8.02,-6.08 -4.71,-5.86 -14.79,-11.99 -15.04,-23.39 -5.6,-0.61 -5.45,-4.15 -7.2,-8.23l-2.91 -8.94c-0.46,-1.88 -1.95,-5.66 -2.57,-7.3l-5.66 -18.68c-0.44,-1.08 -0.91,-2.02 -1.42,-3.7 -2.58,-8.48 -0.92,-9.14 -0.74,-17.19 6.19,1.65 3.2,2.56 10.24,2.56 1.94,0 3.23,-2.61 19.22,-2.56l344.62 -1.28c-1.91,-5.77 -0.5,-1.11 -1.63,-1.94l-1.25 -0.71c-0.35,-0.22 -1.92,-0.98 -2.24,-1.21 0,-18 -0.03,-52.77 -3.59,-68.15 -1.58,-6.86 -1.98,-16.63 -4.27,-22.66 -0.12,-0.31 -0.71,-1.09 -1.44,-3.67 -1.04,-3.69 -0.35,-8.8 -1.68,-12.41 -0.42,-1.14 -1.25,-2.15 -1.41,-2.44 -1.34,-2.41 -0.28,0.16 -1.79,-3.44 -0.16,-0.38 -0.91,-2.47 -1.01,-2.83 -1.62,-5.69 1.08,-2.87 1.08,-11.22 -7.72,-0.65 -7.23,-7.82 -13.13,-21.46 -1.23,-2.86 -2.24,-4.11 -2.24,-9.28 -5.2,-0.58 -3.34,-0.16 -6.09,-5.44 -4.69,-8.99 -10.57,-12.17 -10.57,-24.03l-5.13 0c-0.79,-7.22 1.58,-0.83 -3.4,-5.56 -5.31,-5.06 -10.5,-8.91 -10.69,-17.5 -4.99,-0.41 -12.7,-7.92 -16.13,-12.05 -4.7,-5.67 -10.61,-9.29 -16.03,-14.72l-55.97 -33.69c-0.28,-0.13 -0.61,-0.29 -0.88,-0.4 -3.89,-1.56 -6.19,-1.53 -9.68,-4.4 -6.65,-5.45 -5.3,-2.66 -15.31,-3.93 -7.02,-0.89 -2.94,-1.09 -6.73,-3.37 -2.98,-1.8 -3.31,0.1 -8.03,-1l-3.74 -1.42c-5.96,-1.97 -14.5,-1.42 -19.8,-3.3 -0.48,-0.17 -0.08,-0.22 -2.82,-1.03l-15.89 -2.81c-4.63,-0.55 -6.86,2.41 -13.19,0.36 -8.29,-2.67 -21.9,0.86 -31.01,1.06 -0.22,-9.05 -5.68,-6.41 -12.82,-6.41l0 6.41z"/>
   <path class="fil0" d="M1947.74 293.39c-0.69,6.31 0.97,1.84 -1.82,4.59 -2.86,2.81 1.9,1.11 -4.59,1.82l0 3.83c-3.4,0.28 -1.42,-0.52 -4.3,0.83 -5.33,2.51 -1.41,0.35 -3.11,3.29 -2.8,4.83 -7.85,7.96 -10.96,12.2 -3.09,4.22 -1.29,4.17 -7.25,2.91 0,-11.67 -1.28,-36.57 -0.15,-47.55 0.81,-7.79 -1.14,-3.43 2.71,-4.98 -0.13,-5.92 -0.05,-2.94 -1.42,-6.26 -0.03,-0.08 -0.9,-1.79 -1.26,-2.58 -0.33,-0.72 -0.71,-1.77 -1.15,-2.7l-144.81 0.04c-5.33,0.05 -11.24,-2.24 -14.84,-0.94 -9.9,3.57 -5.62,10.75 -5.62,21.41l0 313.87c0,8.09 -3.8,14.24 1.67,18.82 5.36,4.49 14.59,1.8 20.71,3.65 11.19,3.36 7.47,1.48 17.08,3.4l51.13 16.77c8.56,5.91 2.95,3.14 13.32,5.89l41.52 27.67c3.35,3.54 0.66,0.48 4.58,3.1 5.5,3.67 7.04,10.04 13.98,11.65 10.7,-7.17 2.84,-19.98 2.5,-25.57 -0.23,-3.8 0.06,-8.91 0.07,-12.87l0 -175.52c-0.01,-6.56 -0.86,-13.1 1.24,-19.25 0.11,-0.3 0.28,-0.6 0.38,-0.91 2.14,-6.54 1.56,-10.34 6.19,-15.58l3.1 -3.31c2.19,-2.86 2.1,-4.05 4.6,-6.92l3.07 -3.34c1.21,-1.68 1.45,-2.75 2.31,-4.1l4.12 -4.84c3.07,-3.88 3.17,-6.1 7.67,-8.98 11.17,-7.16 0.82,-5.27 11.56,-12.79l11.54 -10.24c4.99,-4.32 32.29,-17.34 37.74,-17.34l30.75 0c4.42,0 4.96,0.94 8.96,1.28l0 3.85c12.86,0.28 19.59,6.09 28.31,12.69 4.84,3.67 3.72,2.58 3.72,10.36 9.05,0.99 12.66,14.33 15.82,22.63 3.8,10 5.09,20.8 6.75,31.68 1.55,10.11 1.46,22.41 0.55,32.85 -0.23,2.61 0.18,-0.04 -0.3,2.27 -0.92,4.24 -2.01,3.77 -2.37,7.89 -1.33,15.33 0.05,169.75 0.05,188.37 0,11.01 -1.81,67.96 0.88,75.98 2.17,6.4 1.34,17.01 2.96,23.95l20.43 0.02c28.95,-1.35 100.48,-0.27 132.09,0.04 20.72,0.21 12.74,-17.08 12.74,-38.49 0,-40.92 -1.95,-265.76 0.98,-287.38l-2.97 -39.89c-1.05,-4.9 -2.35,-6.73 -2.95,-11.14 -2.08,-15.35 -1.02,-16.16 -6.76,-29.12l-5.18 -16.6c-1.54,-10.57 -5.45,-9.75 -9.69,-18.5 -4.12,-8.47 -10.38,-16.37 -16.25,-23.46 -1.29,-1.58 -0.84,-0.99 -1.83,-2.01l-6.44 -7.65c-4.7,-5 -5.78,0.63 -6.56,-8.81l-5.13 0 0 -3.85 -3.84 0 0 -3.84 -12.24 -5.68c-1.84,-1.07 -3.76,-2.73 -5.28,-3.69 -1.15,-0.72 -0.65,-0.55 -2.48,-1.37l-7.77 -3.76c-3.83,-2.04 -3.85,-1.05 -7.01,-4.51 -4.87,-5.32 -7.29,-4.05 -15.17,-4.05l0 -3.85c-7.53,0 -9.14,0.72 -14.64,-2.01 -3.69,-1.83 -5.93,-1.3 -10.96,-1.86 -7.01,-0.78 -2.56,-4.03 -19.25,-3.8 -7.74,0.1 -10.87,-1.16 -16.65,-1.29l-1.27 -5.13c-18.34,0 -17.68,-0.98 -32.55,3.34l-4.76 1.64c-3.04,1.12 0.66,0.55 -5.03,1.38 -4.16,0.6 -6.55,0.54 -10.31,1.22 -4.07,0.74 1.48,-0.52 -2.15,0.41 -0.34,0.09 -0.67,0.2 -0.99,0.29 -0.32,0.1 -0.63,0.25 -0.94,0.35l-1.83 0.74c-6.39,2.02 -13.23,1.68 -18.97,4.07 -2.33,0.98 -3.07,1.12 -4.8,1.63 -2.44,0.7 -1.81,0.41 -3.93,1.23 -5.89,2.3 -7.87,0.32 -11.63,4.9 -5.09,6.17 -6.2,2.81 -11.81,6.21l-10.67 7.25c-0.23,0.15 -0.54,0.36 -0.77,0.51l-15.55 10.08c-0.25,0.14 -0.56,0.32 -0.81,0.47 -0.33,0.2 -1.23,0.81 -1.56,1 -3.15,1.81 2.27,1.24 -4.44,1.97z"/>
   <path class="fil0" d="M884.41 251.11c-7.49,-3.47 -26.1,2.41 -33.5,3.64 -2.74,0.46 -5.75,0.07 -8.62,0.34 -5.39,0.52 -7.53,2.61 -11.94,3.45l-20.19 4.15c-4.44,0.85 -2.95,1.31 -6.02,2.94l-15.05 5.46c-0.28,0.12 -0.61,0.26 -0.89,0.39l-75.31 43.83 -15.13 14.34c-2.16,1.95 -3.18,3.01 -5.2,5.05 -2.86,2.88 -8.92,7.75 -10.53,9.98 -2.97,4.13 -3.77,10.76 -10.29,7.62 2.14,9.22 -5.58,11.89 -11.01,21.03l-13.77 22.1c-2.95,6.61 -5.97,10.71 -5.97,18.37 -2.27,1.09 -4.15,1.48 -6.41,2.56 0.29,12.82 4.66,-2.48 -3.69,21.94 -1.32,3.87 -0.78,4.55 -1.79,8.46 -1.11,4.33 -2.24,3.83 -3.1,7.15l-6.09 76.48 2.64 38.95c1.73,5.62 1.87,2.01 2.86,7.37 1.34,7.17 2.67,19.54 5.16,25.59 3.27,7.95 2.96,14.79 7.06,19.86l36.64 63.3c0.16,0.21 0.43,0.47 0.6,0.68l1.19 1.37c0.16,0.21 0.39,0.51 0.55,0.73 5.96,8.39 24.7,26.54 32.63,32.69l12.88 10.2c3.67,3.12 8.36,4.47 12.05,7.15l20.25 11.77c1.54,0.83 1.93,0.75 3.63,1.51 5.66,2.54 4.41,4.03 10.49,6.16l37.53 13.72c5.04,1.91 13.07,2.42 17.21,4.43 2.01,0.99 1.06,0.68 2.75,1.02l11.17 3.13c3.04,0.5 6.42,0.08 9.78,0.48l9.03 2.51c9.19,3.11 108.29,3.83 124.36,0.91 5.11,-0.94 2.97,-2.27 8.12,-3.42 6.03,-1.33 11.65,-0.16 17.12,-2.08 6.58,-2.32 12.6,-1.99 17.51,-4.27l7.37 -1.59c9.52,-0.46 8.69,-2.22 16.41,-4.1 2.44,-0.59 1.34,-0.28 2.95,-0.88 6.67,-2.49 20.34,-4.69 25.01,-7.02l12.1 -5.84c4.26,-1.17 1.34,0 4.76,-1.65 0.71,-0.35 3.17,-1.85 4.07,-2.32l0 -117.87c-4.83,-1.02 -2.16,-0.31 -7.07,-0.55 -5.84,-0.28 -5.89,3.26 -12.3,4.22 -6.76,1.01 -3.78,-1.3 -9.39,2.14 -7.86,4.85 -8.21,3.13 -16.1,5.69l-11.3 4.08c-6.03,1.5 -6.06,3.3 -13.03,3.62 -7.77,0.36 -12.43,4.64 -24.34,7.69 -9.71,2.48 -18.41,3.25 -28.2,3.83 -8.55,0.48 -4.26,2.59 -8.95,2.59l-30.74 0c-4.6,0 -0.44,-2.04 -8.95,-2.58 -9.27,-0.59 -17.61,0.46 -24.87,-4.59 -0.32,-0.22 -1.12,-0.92 -1.44,-1.13 -5.22,-3.44 -14.47,-2.85 -20.43,-6.48 -9.84,-5.99 -8.17,-2.49 -20.47,-11.54l-9.54 -5.84c-8.33,-5.75 -5.2,-8.01 -12.04,-12.3 -4.77,-3 -4.89,-5.62 -8.24,-9.69l-5.36 -6.18c-3.31,-6.02 -5.25,-4.94 -5.25,-13.97 -6.62,-0.55 -1.83,1.03 -4.5,-1.9 -3.77,-4.16 -4.47,-11.98 -4.47,-17.31l-3.83 0c0,-9.35 -1.48,-12.12 -4.22,-19.03l-0.88 -4.44c0.32,-3.47 0.62,1.61 0.38,-2.11 -0.3,-4.58 -2.97,-2.71 -2.97,-9.01 0,-27.85 -0.68,-49.53 10.04,-74.51l4.53 -13.4c2.64,-5.96 8.73,-15.41 14.13,-18.81l1.1 -0.75c0.11,-0.08 0.35,-0.35 0.44,-0.45l0.8 -1.05c1.91,-2.78 0.52,-0.39 1.64,-3.01 3.59,-8.42 4.13,-7.79 11.79,-15.21 2.58,-2.5 1.98,-1.94 5,-3.97 3.18,-2.14 9.98,-4.03 16.67,-10.24l11.11 -6.82c9.91,-5.26 27.62,-11.91 38.74,-12.88l39.02 -2.9c5.79,0 -0.69,-0.55 4.12,-0.69l56.82 7.65c0.32,0.09 0.65,0.22 0.96,0.32l7.19 3.06c5.83,3.36 0.33,1.77 11.4,2.69l10.62 2.19c6.06,2.65 2.01,2.71 11.37,2.71 0.61,7.29 2.81,3.44 6.41,10.25 6.74,-2.72 -5.29,3.34 2.01,-1.71 2.49,-1.71 5.2,-1.18 8.13,0.42 0.27,0.14 0.57,0.35 0.83,0.51l6.48 3.83c0.3,0.12 0.62,0.25 0.94,0.35 3.02,0.86 6.58,0.45 9.8,0.45 -2.61,-5.43 -0.22,-4.55 -0.17,-10.21 0.02,-4.02 -1.11,-6.7 -1.11,-12.84l0 -78.16c0,-10.95 6.24,-14.36 -2.16,-23.46 -2.9,-3.13 -11.59,-6.88 -17.08,-7.25 -11.42,-0.78 -10.05,-1.35 -20.05,-4.3l-8.33 -4.6c-7.37,-2.74 0.08,0.44 -7.31,0.66 -3.31,0.09 -6.67,-1.98 -9.71,-2.74 -4.04,-1 -6.64,-0.17 -10.61,-0.91l-14.22 -3.73c-4.79,-0.98 -8.02,-3.17 -13.13,-3.5 -32.25,-2.08 -10.91,1.12 -31.3,-5.86 -3.48,-1.19 -8.16,-0.68 -12.14,-0.68l0 -3.84 -57.65 0 0 6.41z"/>
   <path class="fil0" d="M4822.57 293.39c-5.57,-2.25 0.72,0.66 -2.87,-2.25l-2.85 -2.27c-5.98,-4.29 -13.16,-7.09 -18.84,-11.91 -2.08,-1.77 -3.09,-3.99 -5.05,-5.2 -4.02,-2.5 -3.62,-0.48 -7.82,-2.43 -1.05,-0.48 -0.91,-0.73 -3.14,-1.98l-6.95 -3.3c-6.38,-2.82 -11.77,-6.36 -18.63,-8.29 -3.78,-1.05 -5.2,-0.32 -8.5,-1.73 -3.08,-1.32 -1.34,-2.37 -7.35,-2.91l-13.25 -1.99c-1.15,-0.27 -3.2,-0.43 -3.33,-0.45 -0.2,-0.04 -0.56,-0.11 -0.75,-0.15l-6.7 -1.51c-4.95,-1.19 -1.01,-0.34 -3.95,-1.23l-5.33 -1.09c-1.63,3.4 -1.16,1.37 -1.28,6.41 -12.8,-1.08 -19.8,1.28 -33.3,1.28 0.28,3.45 0.6,3.48 1.28,6.39l-12.33 3.04c-7.34,3.57 -13.3,8.58 -20.21,13.09l-2.27 1.58c-0.22,0.16 -0.53,0.38 -0.74,0.54 -0.22,0.16 -0.55,0.38 -0.75,0.53 -7.55,5.79 0.27,3.86 -10.51,8.72 -0.28,0.12 -0.61,0.26 -0.89,0.39 -5.86,3.01 -7.6,9.79 -11.71,13.91l-8.91 10.3c-15.81,19.5 -4.64,3.69 -19.67,29.02 -8.6,14.53 -2.47,8.07 -11.94,7.28 0.13,5.65 1.28,6 1.28,12.82 -5.61,1.51 -5.23,5.62 -7.78,10.15 -0.15,0.25 -0.33,0.56 -0.48,0.81 -3.59,6.57 -7.98,13.78 -9.68,21.06l-5.13 0c0,-7.1 1.27,-8.27 1.37,-15.35 0.1,-6.46 -1.27,-10.37 -0.82,-14.86 3.24,-32.91 -0.55,-69.05 -0.55,-101.75 -3.21,-1.71 -3.08,-3.1 -6.23,-4 -7.18,-2.06 2.26,0.51 -6.67,2.54 -7.22,1.63 -55.66,0.18 -65.25,0.18 -20.43,0 -70.39,2.32 -85.83,-1.27 -6.81,7.86 -2.47,9.72 -2.54,23.03l-0.03 454.83c0,8.11 -1.85,38.26 2.28,41.13 1.94,1.34 12.83,-0.15 18.21,-0.14l108.9 0c6.91,0 15.05,-0.4 21.8,0 5.28,0.32 8.63,2.22 13.13,0.43 4.22,-1.69 3.97,-2.64 3.42,-6.52 -1.28,-9.08 0.08,-137.62 0.08,-148.93 0.01,-14.43 -1.77,-24.38 -1.29,-38.51 0.11,-3.15 0.6,-6.32 0.6,-7.62 -0.01,-26.81 -0.81,-16.93 7.44,-40.66l3 -5.97c3.44,-5.1 1.74,1.24 3.47,-8.05 3.18,-17.08 10.54,-21.63 13.2,-27.81 3.37,-7.82 5,-13.21 9.8,-19.68l32.51 -41.78c1.09,-0.91 1.92,-1.45 2.84,-2.28l4.9 -5.34c5.63,-4.87 12.93,-4.42 17.05,-8.56 9.55,-9.61 33.14,-10.08 45.97,-8.81 5.53,0.56 10.03,2.73 15.05,4.18 6.85,1.99 9.43,0.53 15.95,4.54l19.41 10.05c8.68,7.32 7.47,1.8 17.56,8.06l9.54 5.84c2.89,2.62 8.54,9 12.02,-1.12 0.92,-2.68 1.94,-8.32 2.47,-10.34 0.11,-0.42 0.37,-1.66 0.51,-2.05 1.87,-5.56 3.58,-4.35 5.06,-11.6 0.95,-4.63 0.45,-2.15 1.41,-4.99 0.11,-0.31 0.26,-0.62 0.36,-0.93 0.16,-0.49 3.94,-18.83 8.15,-27.72l11.48 -38.46c1.71,-5.13 1.68,-11.14 3.94,-15.29 2.93,-5.37 -2.4,2.7 1.07,-1.5 4.28,-5.18 4.07,-3.54 5.23,-11.41 2.37,-15.89 3.5,-6.59 0.34,-20.16z"/>
   <path class="fil0" d="M3099.46 266.48l-6.39 -7.69c-25.93,0 -127.88,1.42 -151.05,-0.15 -5.16,-0.35 -10.21,-2.76 -13.24,3.75 -3.39,7.3 0.2,6.1 0.39,15.51 0.91,46.89 -0.09,105.1 -0.09,152.57 0,13.89 -1.53,338.77 0.28,343.06 2.92,6.94 20.1,4.13 35.59,4.13l87.11 0c37.16,0 46.7,5.59 44.93,-16.65 -2.94,-37.01 -1.37,-112.7 -1.37,-151.18l0.01 -335.65c1.36,-8.8 1.51,1.04 3.83,-7.69z"/>
   <path class="fil0" d="M2143.63 1305.47l211.15 0.7c5.4,-0.19 4.25,-0.85 5.49,0.58 0.2,-0.37 0.97,-1.7 1.12,-2.08l0.92 -55.38c-24.88,-1.54 -181.89,1.07 -193.12,-1.28 -0.6,-16.33 -1.88,-130.61 1.08,-137.84l179.35 -0.1c-0.46,-15.75 0.05,-28.58 0,-55.49l-179.87 -0.65c-1.59,-6.89 -1.6,-126.36 0,-134.07l187.25 -0.24 0.17 -54.46 -57.13 -0.07c-61.89,0 -132.01,1.48 -191.99,0.07l0.21 439.47 35.36 0.85z"/>
   <path class="fil0" d="M2777.9 1122.27c1.58,-5.93 1.92,-1.68 3.42,-6.84 1.29,-4.52 0.35,-8.45 4.86,-15.62 2.92,-4.64 2.74,-0.92 3.24,-7.01l5.13 0c0.42,-3.86 2.61,-9.08 6.44,-12.78 1.28,-1.24 0.04,-0.12 2.02,-1.82 1.13,-0.96 1.81,-1.45 2.85,-2.27 7.43,-5.74 5.97,-3.58 10.56,-6.1 9.69,-5.32 3.6,-4.86 16.47,-6.59 7.38,-0.99 3.32,-2.47 7.78,-2.47 6.08,0 -0.76,1.21 4.26,1.64 0.17,0.02 0.54,0.02 0.71,0.01 3.42,-0.18 8.74,-4.07 19.4,-0.38l5.09 1.32c13.93,1.93 8.22,1.54 18.18,7.44l1.63 0.94c0.33,0.2 1.28,0.76 1.61,0.96 0.24,0.14 0.55,0.35 0.79,0.49 17,9.96 0.23,10.76 16.25,14.49 0,13.59 7.69,7.33 7.69,39.73l-131.96 0c-3.63,0 -4.95,-2.94 -6.41,-5.13zm8.98 -105.05c-3.27,4.85 -5.84,7.01 -10.64,9.85l-23.16 17.84c-8.82,5.87 -1.85,9.98 -11.04,10.74 -0.4,4.78 -1.91,6.37 -3.81,9.01l-5.53 8.55c-0.15,0.22 -0.38,0.51 -0.55,0.72l-2.34 2.8c-1.71,2.67 -11.5,30.13 -12.52,37.45 -0.38,2.74 -0.68,8.81 -1.39,12.7 -3.21,17.61 -3.95,48.98 0.29,66.78 2.38,10.01 2.67,3.54 4.2,18.17 0.61,5.79 3.3,7.44 5.69,12.23 2.77,5.58 2.91,11.11 5.3,16.48 0.13,0.28 0.31,0.59 0.45,0.85l5.25 6.28c6.09,6 9.09,14.98 14.58,20.02l19.34 17.8c0.21,0.17 0.48,0.42 0.71,0.58l13.12 8.65c1.48,0.86 1.28,0.74 2.39,1.46l8.76 4.04c2.37,1.38 3.07,3.34 4.64,4.33 3.92,2.45 10.1,1.54 14.88,3.15l11.74 1.96c5.75,0.42 5.3,3.49 13.46,3.49l35.87 0c6.96,0 5.31,-3.72 13.71,-3.37 4.27,0.18 5.95,0.28 13.2,-0.4 7.49,-0.7 5.71,-3.08 11.84,-3.4 7.65,-0.41 11.88,-2.55 18.78,-5.77 0.28,-0.13 0.61,-0.28 0.88,-0.41l4.5 -1.9c2.56,-1.2 -0.25,-0.19 3.42,-1.71 6.46,-2.66 13,-4.96 18.98,-9.2 5.23,-3.7 15.91,-7.45 15.91,-14.84 0,-5.29 -2.76,-4.01 -3.64,-7.89 -0.27,-1.17 -0.29,-3.54 -0.3,-4.81l0.1 -44.94c-5.95,0.51 -2.11,-0.79 -3.3,1.61 0,0 -0.46,3.83 -0.54,4.8 -6.91,1.61 -7.44,3.24 -12.87,6.35l-37.17 16.63c-0.96,0.36 -3.24,0.91 -3.99,1.14 -4.57,1.4 -3.54,1.5 -6.61,2.36 -7.74,2.18 -19.41,1.36 -24.82,2.78 -9.82,2.56 -25.53,3.81 -35.37,0.62 -4.34,-1.41 -9.95,-1.74 -14.16,-3.78 -6.66,-3.19 -3.73,-3.31 -11.59,-5.2 -3.97,-0.95 -6.13,-3.28 -9.29,-4.66 -10.92,-4.76 -3.66,-5.48 -13.58,-12.04 -5.69,-3.79 -4.2,-8.48 -8.26,-12.15 -0.26,-0.24 -1.12,-0.92 -1.38,-1.19l-4.95 -7.94c-1.03,-3.69 -0.13,-3.59 -1.51,-7.47 -0.17,-0.47 -0.89,-1.84 -1.59,-3.54 -0.7,-1.68 -0.58,-1.54 -1.4,-3.71 -1.69,-4.5 -3.67,-10.28 -4.91,-15.6 6.84,-0.56 12.58,-3.83 19.22,-3.83 28.37,0 57.12,1.68 86.38,0.54 15.29,-0.6 29.62,0.6 44.84,0 7.65,-0.3 15.02,-0.18 22.86,0.11l23.99 0.63 -1.44 5.07 4.01 0.05c2.78,-11.94 6.09,-6.69 3.52,-24.02 -0.67,-4.55 -2.13,-6.6 -2.29,-13.07 -0.12,-5.03 0.05,-10.35 0.05,-15.42l3.85 0 0 -6.41c-3.24,-0.68 -2.37,-0.25 -4.12,0.61 -5.59,2.77 4.48,2.37 -1.01,0.67 -2.64,-5.49 -0.05,-7.7 -1.75,-13.63l-26.68 -56.59 -9.15 -11.35c-2.61,-3.65 -2.04,-1.98 -5.75,-4.51 -0.06,-0.05 -1.65,-1.27 -2.18,-1.66l-2.98 -2.14c-0.23,-0.15 -0.55,-0.36 -0.78,-0.51 -8.1,-5.33 -8.28,-7.9 -18.47,-10.99 -3.19,-0.96 -7.29,-2.19 -10.34,-3.75 -3.89,-2 -4.2,-2.78 -9.99,-4.1 -3.24,-0.74 -8.09,-0.86 -12.44,-1.65 -21.43,-3.91 -55.19,-2.27 -75.04,7.09l-5.3 2.37c-2.17,0.46 -6.38,0.22 -8.76,0.22z"/>
   <path class="fil0" d="M4521.51 1017.22l0 3.84c-7.64,0.63 -16.42,6.31 -21.92,11.4l-20.76 17.66c-3.85,1.96 2.28,0.92 -4.73,1.68l-1.71 7.25c-1.85,4.31 -3.43,3.99 -5.77,7.04 -1.82,2.38 -1.8,4.65 -3.7,7.85 -11.34,19.24 -8.24,21.43 -12.47,32.37 -1.66,4.3 -3.11,2.84 -5.83,5.69 0.44,5.27 1.28,2.87 1.28,7.69 0,13.81 -3.83,23.51 -3.83,37.15 0,23.55 1.34,26.57 4.01,47.33 1.22,9.49 -0.42,-1.72 -1.46,7.76l2.19 1.65c5.82,4.5 3.8,10.26 10.96,23.62 2.75,5.13 2.23,3.25 2.23,10.59 7.12,0.59 12.83,13.99 18.34,18.81 3.7,3.24 4.17,1.68 4.72,8.1 8.12,0.67 6.34,2.67 10.08,6.56 3.54,3.67 1.51,0.96 4.5,3.17l9.54 7.13c1.44,0.95 -0.81,-0.05 2.29,1.55 2,1.03 1.56,0.56 3.77,1.36l5.91 3.06c3.27,1.67 4.1,1.01 6.5,2.46 6.23,3.77 -0.64,4.45 11.04,5.62 4.68,0.46 10.17,1.13 14.29,2.38 7.05,2.12 12.85,0.98 18.1,2.47 5.25,1.49 1.89,2.65 6.21,2.65l33.32 0c5.42,0 8.12,-2.81 14.26,-3.12 5.82,-0.32 9.62,0.39 16.27,-2.27 0.38,-0.15 1.35,-0.62 1.68,-0.74 2.41,-0.92 0.15,-0.33 2.21,-0.71 2.67,-0.49 3.68,0.21 6.18,-0.23 2.93,-0.52 6.2,-2.38 8.56,-2.55 9.64,-0.68 -2.96,2.64 6.54,1.16 5.12,-0.79 3.93,-3.1 6.79,-4.62 3.36,-1.78 10.54,-0.44 10.54,-11.25 0,-5.97 -1.34,-6.16 -1.19,-10.28 0.26,-7.46 2.27,-1.25 2.47,-10.21 -4.8,-1.94 -2.66,-4.47 -2.56,-16.65 0.12,-13.66 -0.07,-20.42 -13.63,-12.35 -5.1,3.04 -9.62,0.98 -16.93,4.85l-17.35 5.71c-0.3,0.11 -0.61,0.27 -0.91,0.37 -0.39,0.14 -1.44,0.6 -1.85,0.71 -3.07,0.88 -2.29,0.55 -5.65,0.75 -14.76,0.92 -34.91,3.03 -49.59,-0.47 -2.98,-0.71 -1.65,-0.76 -5.62,-2.06l-14.46 -6.03c-4.97,-2.43 -8.69,-3.12 -13.09,-6.13l-11.13 -9.38c-6.24,-5.42 -11.21,-10.38 -11.21,-19.54l-2.52 -0.64c-2.04,-1.06 0.02,1.75 -2.4,-2.04 -2.54,-3.97 -0.81,-4.35 -2.44,-9.19 -3.31,-9.83 -7.81,-28.63 -6.49,-39.02 0.22,-1.71 1.75,-7.89 1.98,-9.65 0.95,-7.21 1.01,-11.39 3.67,-18.11 1.81,-4.57 1.22,-4.4 1.82,-9.71 0.81,-7.31 4.77,-9.24 7.43,-15.62 2.74,-6.52 7.04,-7.35 9.68,-12.31 1.25,-2.36 2.94,-4.97 7.17,-8 0.22,-0.16 0.53,-0.37 0.76,-0.53l5.4 -3.57c0.26,-0.14 0.59,-0.3 0.85,-0.43l8.92 -5.16c4.71,-3.07 12.87,-3.54 18.61,-7.01 3.97,-2.42 -0.75,-2.57 8.93,-2.61 4.06,-0.02 7.19,0.2 11.31,-0.18 3.14,-0.29 9.72,-1.18 17.87,0.68 3.58,0.81 -0.64,-0.25 3.74,1.4 1.39,0.53 2.25,0.77 3.8,1.31 0.86,0.3 2.75,1.05 3.69,1.44 4.07,1.71 -0.05,0.86 4.77,1.63 18.66,2.97 1.24,0.35 16.6,6.47 4.4,1.75 7.62,1.7 11.14,5.52 2.85,3.1 8.02,4.53 11.5,6.42l7.93 3.6c1.8,-7.73 2.62,-9.06 2.57,-17.92 -0.05,-6.42 1.62,-40.62 -1.54,-47.13 -2.36,-4.88 -6.62,-2.34 -13.33,-7.3 -4.97,-3.67 -14.82,-6.26 -21.09,-7 -8.82,-1.04 -3.72,-3.16 -16.52,-3.98 -7.15,-0.46 -9.25,-3.77 -16.72,-3.77 -16.01,0 -36.1,-1.98 -51.25,2.55 -7.53,2.24 -19.44,3.4 -26.63,6.68 -3.15,1.45 -2.18,1.92 -6.67,2.31z"/>
   <path class="fil0" d="M3123.81 1136.36c0,22.36 -1.3,46.09 2.72,67.75l5.16 12.76c0.85,2.44 1.34,3.67 2.34,6.64l8.23 18.67c3.32,7.47 4.14,5.73 7.31,10.64l13.25 17.49c5.33,5.6 1.25,5.01 8.77,9.16l13.16 8.62c13.68,10.96 27.67,11.14 38.75,18.91 2.91,2.04 0.02,0.96 3.2,1.93 2.51,0.77 5.67,0.37 8.36,0.64 4.85,0.48 10.94,0.05 13.73,0.12 5.28,0.12 5.13,3.48 13.39,3.48 10.11,0 22.76,0.46 32.32,-1.02l25.3 -2.85c5.04,-0.39 6.87,-1.82 12.46,-2.91 7.72,-1.49 10.43,-0.16 17.02,-4.76 6.09,-4.26 10.81,-1.43 12.87,-10.28 1.79,-7.7 -0.05,-6.84 -0.05,-14.04 0,-6.72 1.09,-9.62 1.22,-14.16 0.14,-4.83 -1.22,-7.3 -1.22,-14.03 0,-9.91 3.44,-17.34 -11.98,-10.7 -4.54,1.95 -11.07,3.1 -14.93,5.56 -5.69,3.64 -9.68,3.04 -16.34,4.16 -11.85,1.98 -3.12,4.83 -36.17,4.83 -6.32,0 -14.52,-0.4 -20.04,-1.74l-9.31 -2.21c-5.65,-0.61 -13,-2.44 -16.69,-5.2 -5.49,-4.09 2.61,-1.62 -6.07,-3.17 -3.97,-0.7 -4.9,-1.48 -7.58,-3.67 -3.92,-3.2 -2.94,-2.18 -1.81,-7.06 -10.74,0 -11.71,-4.2 -16.74,-11.44 -4.16,-6 -8,-11.95 -10.57,-18.9 -6.4,-17.33 -7.62,-28.34 -6.08,-49.17 1.03,-14.09 2.21,-11.59 4.63,-23.56 2.42,-11.94 4.17,-11.28 8.61,-20.86 2.89,-6.22 0.19,-4.21 5.53,-8.56 7.29,-5.94 1.91,-5.09 6.25,-9.12l7.31 -4.23c0.21,-0.17 0.48,-0.42 0.69,-0.59 0.2,-0.17 0.48,-0.43 0.68,-0.6l1.38 -1.19c11.41,-9.39 23.73,-13.79 38.37,-16.71 5.86,-1.18 18.66,-1.45 25.03,-0.08 3.83,0.82 1.73,0.65 2.82,1.02 0.29,0.11 0.59,0.29 0.89,0.39 0.32,0.1 0.61,0.26 0.93,0.35l25.58 6.46c0.26,0.13 0.59,0.29 0.85,0.42 0.26,0.13 0.59,0.3 0.85,0.44l2.43 1.4c6.37,4.02 13.65,5.7 20.5,10.26 3.27,2.17 5.06,3.8 8.85,5.5 4.53,2.02 5.23,0.75 5.76,-5.94 1.37,-17.13 -0.03,-41.1 -0.03,-58.99l-12.93 -6.27c-8.67,-6.2 -20.07,-5.45 -29.91,-9.81 -8.93,-3.96 -41.59,-4.41 -53.23,-4.41 -9.92,0 -19.85,2.38 -29.17,4.14l-13.03 3.61c-6.46,0.93 -1.73,-0.14 -6.61,2.37 -3.5,1.79 -8.54,2.37 -10.79,4.57 -3.46,3.4 0.44,2.12 -4.83,4.15l-11.47 5.19c-1.6,1.09 -1.16,0.8 -2.14,1.71 -0.01,0.02 -1.69,1.93 -1.8,2.04 -1.83,1.89 -2.9,2.6 -4.9,4.07 -1.84,1.34 -3.39,2.45 -5.04,3.93l-16.89 20.26c-0.22,0.31 -0.8,1.23 -1.01,1.55 -0.15,0.23 -0.34,0.56 -0.49,0.78l-4.54 4.43c-3.56,2.58 -2.41,0.09 -3.83,5.14 -0.5,1.75 -0.72,4.47 -1.26,6.42l-4.83 11.84c-4.18,10.54 -3.63,6.04 -6.37,19.25 -1.53,7.39 -2.91,7.29 -4.96,19.58 -0.78,4.67 -1.83,1.05 -1.83,5.66z"/>
   <path class="fil0" d="M3613.94 1305.47c0.12,0.69 -0.04,1.67 0.55,3.84 1.6,0.04 3.08,0.23 4.43,0.3 1.26,0.06 3.17,0.07 4.3,0.31 17.93,3.9 32.7,4.69 52.75,1.94 4.67,-0.64 5.26,-0.73 8.8,-2.84 0.97,-0.57 2.78,-1.79 3.7,-2.32l2.34 -1.24c2.34,-3.3 3.5,-2.64 7.86,-4.22l23.8 -9.79 -0.07 -51.64c-4.48,0.94 -9.7,4.35 -14.43,6.62 -32.42,15.59 -83.2,26.54 -91.97,-22.9 -2.04,-11.44 -2.18,-154.31 0.44,-156.96 5.93,-5.15 76.5,0.63 91.49,-2.04 -0.06,-10.51 2.19,-41.65 -0.99,-48.69 -2.27,-2.47 -41.3,-1.23 -45.07,-1.23 -62.51,0 -43.04,12.5 -46.59,-57.26 -5.96,0.65 -34.68,32.82 -42.01,39.06 -4.8,4.11 -8.99,8.78 -13.72,13.28l-48.17 46.6c-7.04,6.97 -1.61,8.1 -1.61,8.1 8.53,4.46 37.13,-2.01 49.06,2.05 1.84,27.18 0.17,112.85 0.22,146.77 0.04,32.65 8.13,61.07 31.91,78.64 11.06,8.17 19.85,10.17 22.97,13.6z"/>
   <path class="fil0" d="M2508.87 887.83l0 399.7c0,5.55 -1.55,11.04 -1.2,14 0.55,4.55 3.91,7.36 8.89,7.78 1.37,-5.15 5.63,-3.21 19.54,-3.2 4.13,0.02 4.93,-0.11 11.35,-0.28 6.86,-0.19 9.62,2.2 16.52,2.2 3.87,0 2.33,-1.71 7.17,-2.03 7.62,-0.51 1.83,3.55 5.63,-4.37l-6.39 0 0 -427.9c0,-3.86 4.33,-3.77 0.56,-9.38 -3.26,-4.83 -13.14,-4.72 -19.79,-4.72 -53.43,0 -42.28,-4.04 -42.28,28.19z"/>
   <path class="fil0" d="M3971.91 1018.5c2.08,4.49 1.06,3.59 -2.38,6.48 -0.29,0.25 -1.18,0.91 -1.48,1.15l-2.71 2.45c-0.54,0.48 -1.29,1.11 -2.05,1.81 -3.12,2.88 -2.91,3.24 -5.29,6.24l-15.78 20.1c-2.91,4.08 -7.97,6.15 -8.75,15.58l-2.61 -43.6c0.19,-6.54 1.32,-7.04 1.32,-14.05 -6.85,-1.83 -0.81,-4.52 -19.24,-3.9 -9.7,0.33 -8.8,1.34 -25.6,1.34 -7.79,0 -9.35,-1.28 -16.65,-1.28 -1.41,5.26 -1.91,2.02 -3.04,9.85l0.48 271.99c0,0 -4.11,17.05 8.32,14.68 0.34,-0.06 1.26,-0.44 1.58,-0.53 0.18,-0.06 0.53,-0.22 0.7,-0.27 6.91,-2.03 47.73,2.24 57.31,-2.34 -1.38,-3.4 2.63,-2.39 -5.13,-2.56 0,-25.01 -2.31,-155.79 2.06,-169.62 4.1,-12.99 -0.76,-2.62 4.84,-16.94 3.92,-10.01 -2.47,1.62 4.73,-9.35l7.22 -12c2.11,-2.94 2.34,-4.13 4.66,-6.88 3.74,-4.43 4.28,-4.2 8.52,-4.29 0.38,-4.57 -0.22,-1.56 1.22,-4 2.51,-4.2 7.55,-2.67 11.7,-4.8 1.74,-0.89 4.18,-3.44 6.93,-4.66 7.83,-3.47 22.47,-2.73 30,0.76l17.34 9.57c2.98,3.55 0.46,2.05 5.37,4.88l2.49 1.35c4.3,2.84 4.07,3.35 4.38,7.15 6.42,0 7.89,1.28 15.37,1.28 1.05,-4.52 1.28,-4.2 1.28,-10.24 15.65,-7.51 3.01,-15.63 15.37,-16.66 0.34,-15.1 17.91,-20.12 7.18,-30.23 -10.55,-9.95 -14.66,-8.41 -14.86,-17.16 -6.35,-0.15 -3.59,-0.63 -6.26,-1.44 -7.42,-2.24 -3.58,0.21 -10.66,-3.42l-5.4 -2.3c-4.93,-2.11 -7.87,-4.65 -13.56,-5.64 -41.58,-7.22 -44.78,11.52 -58.92,11.52z"/>
   <path class="fil0" d="M2943.17 52.53c-0.18,8.26 0.82,1.53 -3.52,8.02 -4.25,6.39 -4.78,4.6 -6.69,8.67l-3.67 9.15c-5.74,9.61 -2.5,-0.05 -7.42,16.92 -3.27,11.28 -6.14,11.01 -5.65,26.48 0.3,9.38 4.41,28.99 11,37.7 1.39,1.84 2.48,2.97 3.37,4.33 5.86,9.09 -1.01,3.24 7.65,9.01l16.49 9.12c6.07,3.15 3.87,4.07 9.07,5.01 6.4,1.18 33.36,0.12 44.72,0.12 1.84,-6.9 8.84,-5.65 15.39,-7.67l8.17 -3.37c9.41,-3.73 0.68,-1.91 15.72,-8.61l3.15 -1.98c7.26,-6.06 8.05,-12.76 17.78,-12.98 0.17,-7.61 3.67,-10.24 11.53,-10.24 -2.71,-5.84 4.1,-9.85 10.41,-21.62 3.87,-7.19 4.8,-6.2 7.8,-12.68l2.19 -6.79c3.14,-12.1 2.48,-1.52 4.13,-17.63 2.02,-19.57 4.68,-6.64 0.16,-30.03 -1.08,-5.59 -1.64,-10.32 -1.64,-16.29 -5.93,-0.65 -4.15,-2.62 -7.15,-6.93l-9.84 -10.67c-0.21,-0.16 -0.51,-0.38 -0.73,-0.55 -0.21,-0.16 -0.5,-0.4 -0.71,-0.56 -11.75,-9.48 -8.33,-3.37 -14.56,-8.57 -4.94,-4.13 -1.44,-4.85 -22.09,-4.76 -8.53,0.04 -23.84,-0.74 -29.8,0.96l-10.67 3.44c-14.22,3.26 -18.01,8.16 -21.08,9.66 -11.4,5.58 0.3,-4.53 -11.8,7.42l-2.2 1.64c-10.74,7.44 -4.86,1.6 -12.83,10.23 -2.45,2.65 -5.05,3.8 -7.89,7.48 -3,3.89 -3.24,5.29 -8.8,6.58z"/>
   <path class="fil0" d="M4267.86 1012.09c-13.42,0 -22.64,1.74 -30.76,-2.56 -1.3,1.95 -2.3,2.54 -3.32,4.37l-2.34 9.62c0.25,5.87 1.81,-0.83 1.81,5.22l0 262.63c0,7.11 -1.28,7.6 -1.28,14.09 5.65,2.05 0.49,3.24 7.69,3.84 1.34,-5.02 2.81,-3.2 15.05,-3.2 9.41,0 19,-1.16 25.88,0.12l5.35 1.68c3.6,1.21 -0.3,2.15 4.86,0.12 4.87,-1.93 -0.28,-2 6.52,-2.57l0 -6.4c-4.09,-1.65 -2.64,0.91 -2.57,-15.37l0 -234.45c0,-15.11 -1.64,-22.93 3.85,-33.3 -5.29,-2.81 -5.77,-4.53 -12.61,-4.25 -13.91,0.58 -6.64,-2.81 -14.29,-3.44 -0.76,2.85 -0.3,3.84 -3.83,3.84z"/>
   <path class="fil0" d="M2143.63 1305.47l-35.36 -0.85 -0.21 -439.47c59.98,1.41 130.1,-0.07 191.99,-0.07l57.13 0.07 -0.17 54.46 -187.25 0.24c-1.6,7.71 -1.59,127.18 0,134.07l179.87 0.65c0.05,26.91 -0.46,39.73 0,55.49l-179.35 0.1c-2.97,7.23 -1.68,121.51 -1.08,137.84 11.24,2.35 168.25,-0.26 193.12,1.28l-0.92 55.38c-0.15,0.38 -0.92,1.71 -1.12,2.08 4.96,1.68 5.29,0.45 5.17,-10.18 -0.07,-5.99 -0.06,-12 -0.06,-17.99 0,-10.98 0.81,-24.35 -1.28,-33.32 -6.89,0 -10.81,-0.36 -15.77,-0.98 -7.34,-0.91 -6.87,1.32 -14.61,0.76 -4.37,-0.31 -5.29,-0.48 -9.01,-0.4l-131.36 -0.05c-0.97,0.01 -23.01,1.96 -21.27,-6.09 4.28,-19.83 -2.81,-118.69 2.41,-123.92 8.24,-3.96 153.77,-1.28 176.79,-1.28 8.58,-16.21 -0.41,-12.34 1.98,-27.41 0.85,-5.32 0.6,-10.57 0.58,-16.16 -0.05,-7.77 0.8,-10.85 1.28,-16.64 -10.97,-2.56 -12.46,-5 -18.24,-3.03 -11.44,3.87 -57.16,1.74 -70.15,1.74 -7.63,0 -77,0.95 -82.54,-0.73 -3.93,-1.19 0.07,-1.84 -10.97,-1.84 0,-21.83 1.25,-89.5 -0.01,-110.18 -0.91,-14.94 -5.28,-13.79 12.05,-16.12l131.44 -0.52c14.56,-0.01 24.7,1.28 39.71,1.28 4.96,-5.73 3.4,-2.44 3.96,-12.79l-0.25 -45.92c-2.71,-6.8 -8.35,-4.57 -14.02,-4.37 -3.83,0.13 -11.41,-1.01 -17.86,-0.98l-220.36 0c-6.25,9.32 -4.24,9.97 -3.82,21.72l-0.02 424.11c3.79,3.28 3.8,4.41 10.37,3.94 12.14,-0.89 -4.33,-3.4 21.16,-3.17 2.24,0.02 6.05,0.49 8.07,-0.78z"/>
   <path class="fil0" d="M3613.94 1305.47c-3.12,-3.44 -11.91,-5.43 -22.97,-13.6 -23.78,-17.57 -31.87,-45.99 -31.91,-78.64 -0.05,-33.92 1.62,-119.59 -0.22,-146.77 -11.94,-4.06 -40.53,2.41 -49.06,-2.05 0,0 -5.43,-1.13 1.61,-8.1l48.17 -46.6c4.73,-4.5 8.91,-9.17 13.72,-13.28 7.32,-6.23 36.05,-38.41 42.01,-39.06 3.55,69.77 -15.92,57.26 46.59,57.26 3.77,0 42.8,-1.24 45.07,1.23 3.18,7.04 0.93,38.18 0.99,48.69 -14.99,2.67 -85.56,-3.1 -91.49,2.04 -2.62,2.64 -2.47,145.52 -0.44,156.96 8.77,49.45 59.55,38.49 91.97,22.9 4.73,-2.27 9.95,-5.69 14.43,-6.62l0.07 51.64 -23.8 9.79c-4.37,1.58 -5.52,0.91 -7.86,4.22l15.9 0c0.34,-0.71 0.9,-2.37 1.13,-2.77 5.46,-9.93 13.79,1.68 16.48,-9.47 0.17,-0.74 0.54,-1.94 0.73,-2.68l0.37 -35.83c-0.98,-9.8 2.15,-23.54 -9.53,-17.09 -4.75,2.63 3.77,-0.01 -7.99,3.7 -7.05,2.22 3.45,-1.76 -1.94,0.62 -0.28,0.12 -0.61,0.28 -0.86,0.42 -0.25,0.12 -0.55,0.34 -0.78,0.48 -0.17,0.12 -2.97,2.67 -4.23,3.47 -2.91,1.84 -1.89,0.98 -5.33,2.34 -5.88,2.34 -4.39,2.28 -11.64,3.74 -14.41,2.9 0.99,3.58 -29.02,3.2 -3.8,-0.04 -3.67,0.08 -6.75,-0.93l-5.7 -1.99c-7.77,-2.17 -5.17,-2.51 -8.27,-5.82 -9.46,-10.08 -11.7,-8.58 -13.42,-21.18 -3.87,-28.45 -2.44,-104.6 -1.08,-139.63 0.08,-2.14 -1.34,-10.16 -0.55,-13.78 2.11,-9.67 4.85,1.29 15.31,-2.47 1.48,-0.53 -1.25,-0.16 2.87,-1.07l59.81 -0.12c5.04,0.85 1.48,1.05 6.57,2.41 17.52,-11.74 3.75,-6.32 7.87,-42.08 3.01,-26.15 -4.22,-17.25 -22.5,-17.61l-69.93 -0.51c0.28,-12.95 1.76,-51.32 -1.28,-57.65 -9.61,0.21 -10.04,6.97 -14.71,10.91 -1.03,0.87 -2.84,1.65 -3.89,2.52 -4.3,3.61 1.51,0.26 -9.59,9.62 -2.89,2.45 -3.12,3.7 -6.04,6.77l-38.76 38.11c-4.07,5.17 -2.73,2.18 -7.11,5.7 -1.95,1.58 -3.86,4.54 -6.03,6.77 -2.45,2.54 -3.81,3.83 -6.63,6.18 -5.65,4.66 -7.19,8.75 -16.13,9.49 0,12.13 -2.37,1.05 -2.71,11.57 -0.22,6.66 2.37,5.89 5.26,10.21 11.46,-4.14 1.38,-2.42 21.79,-2.57 20.6,-0.14 7.13,2.57 23.06,2.57l0.18 10.44c0.02,5.4 1.06,6.12 1.15,12.57l-0.08 139.73c-0.05,14.99 3.25,20.75 8.87,33.42 2.06,4.66 2.7,4.69 2.7,11.4 7.95,0.17 3.23,-0.83 6.32,2.64l1.61 2.23c0.86,0.95 1.68,1.47 2.81,2.31l5.08 5.18c4.66,6.8 4,5.16 10.32,7.61 7.48,2.9 7.2,11.34 19.44,6.92z"/>
   <path class="fil0" d="M4297.31 926.26c0,-10.94 2.56,-33.32 -20.5,-33.32 -9.51,0 -20.1,0.88 -26.48,8.11l-3.2 3.2c-0.22,0.16 -0.57,0.35 -0.79,0.49 -6.64,4.67 -4.1,4.24 -8,7.38l-3.84 2.57c-4.43,3.9 -3.7,10.71 -5.2,16.63 -1.53,6.02 -3.31,7.45 0.32,16.5 1.08,2.7 2.73,7.14 5.09,9.02 0.95,0.75 2.21,1.22 2.51,1.39 0.25,0.15 0.6,0.3 0.86,0.45 0.24,0.15 0.58,0.33 0.82,0.48l4.07 2.42c0.37,0.1 3.65,0.42 5.63,0.49 4.72,0.18 9.18,0.05 13.83,-0.25 7.67,-0.5 5.45,1.93 17.7,-9.19 6.86,-6.23 17.18,-15.39 17.18,-26.38z"/>
   <path class="fil0" d="M1421.2 383.06l0 2.56c3.13,1.75 2.37,1.28 7.69,1.28 5.2,0 3.33,-3.14 2.57,-6.41 -3.69,0 -10.25,-0.99 -10.25,2.57z"/>
   <path class="fil0" d="M1453.23 247.26l3.84 0 0 -6.4 -8.97 0c0.32,3.82 0.91,6.4 5.13,6.4z"/>
   <polygon class="fil0" points="2880.4,1327.24 2885.52,1327.24 2885.52,1318.28 2880.4,1318.28 "/>
   <path class="fil0" d="M3617.04 945.47l3.84 0c0.78,-7.04 3.93,-3.45 1.28,-8.97 -5.12,2.07 -5.03,5.29 -5.13,8.97z"/>
   <path class="fil0" d="M3760.53 454.81c0,4.82 0.84,2.41 1.28,7.69l2.56 0c0,-5.55 0.61,-6.3 -1.28,-10.24 -1.14,0.64 -2.56,0.83 -2.56,2.56z"/>
   <path class="fil0" d="M1662.05 338.22c3.73,-2.72 2.41,0.18 2.56,-6.41l-6.4 0c2.41,5.02 -0.38,3.3 3.84,6.41z"/>
   <path class="fil0" d="M1428.88 247.26l5.13 0c-0.15,-6.58 1.16,-3.67 -2.56,-6.4 -3.54,2.59 -2.57,-0.09 -2.57,6.4z"/>
   <path class="fil0" d="M3964.22 254.95c6.89,0 8.57,1.48 11.54,-2.56l-11.54 0 0 2.56z"/>
   <path class="fil0" d="M161.86 452.25c-1.47,-5.49 -1.84,-3.85 -8.97,-3.85 1.44,5.42 1.34,2.07 8.97,3.85z"/>
   <polygon class="fil0" points="2980.33,1236.29 2985.45,1236.29 2985.45,1231.17 2980.33,1231.17 "/>
   <path class="fil0" d="M2975.2 1087.67l1.44 5.08 3.69 0.05 0 -6.41c-2.5,1.03 -4.29,0.29 -5.13,1.28z"/>
   <path class="fil0" d="M1290.52 1414.36c0,3.87 1.51,3.54 5.13,3.84 -0.42,-5.1 -0.51,-4.17 -3.84,-6.39 -0.02,0.02 -1.28,2.38 -1.28,2.55z"/>
   <path class="fil0" d="M4531.75 1218.35l3.85 0 0 -6.39c-4.93,1.31 -3.85,0.34 -3.85,6.39z"/>
   <path class="fil0" d="M1276.43 1414.36l5.13 0c-0.29,-3.46 -0.6,-3.48 -1.28,-6.4 -3.13,2.3 -2.76,1.74 -3.84,6.4z"/>
   <path class="fil0" d="M520.58 210.12c-0.46,-5.54 -0.74,-5 -6.41,-5.13 0.81,1.21 0.69,1.85 1.96,3.16 2.57,2.66 -1.09,1.35 4.45,1.97z"/>
   <path class="fil0" d="M3235.26 1000.55l0 2.57 6.41 0 0 -3.84c-2.43,0.21 -4.48,0.54 -6.41,1.28z"/>
   <path class="fil0" d="M4315.24 461.21l0 -8.96 -2.56 0c0,6.75 -1.32,6.12 2.56,8.96z"/>
   <path class="fil0" d="M938.21 386.91l3.84 0c-0.14,-6.59 1.17,-3.68 -2.56,-6.41 -1.48,3.09 -1.28,1.67 -1.28,6.41z"/>
   <path class="fil0" d="M3203.23 1119.71c0,3.54 0.99,3.08 3.85,3.84l0 -6.41c-1.92,0.46 -3.85,0.28 -3.85,2.57z"/>
   <path class="fil0" d="M1815.78 700.77c0,3.55 0.99,3.09 3.84,3.85l0 -6.41c-1.92,0.46 -3.84,0.28 -3.84,2.56z"/>
   <path class="fil0" d="M2871.43 632.87l3.84 0c-0.68,-2.91 -1,-2.94 -1.28,-6.39l-2.56 0 0 6.39z"/>
   <polygon class="fil0" points="2116.85,247.26 2121.97,247.26 2121.97,243.42 2116.85,243.42 "/>
   <path class="fil0" d="M2232.15 302.35c0.64,1.13 0.83,2.55 2.56,2.55 3.55,0 3.09,-0.98 3.85,-3.83 -2.71,0.06 -5.07,-0.23 -6.41,1.28z"/>
   <path class="fil0" d="M45.28 383.06c1.91,-0.46 3.83,-0.28 3.83,-2.57 0,-3.6 -0.55,-2.37 -2.57,-3.84 -1.47,3.08 -1.27,1.68 -1.27,6.41z"/>
   <path class="fil0" d="M3514.55 1040.28c3.33,-2.23 3.43,-1.31 3.85,-6.41l-3.85 0 0 6.41z"/>
   <path class="fil0" d="M3454.34 247.26c6.64,0 4.96,1.15 7.69,-2.56l-7.69 0 0 2.56z"/>
   <path class="fil0" d="M3551.7 999.28l5.13 0 0 -3.83c-3.69,0.3 -5.01,-0.03 -5.13,3.83z"/>
   <path class="fil0" d="M2916.27 76.88c4.62,-1.23 3.43,-0.12 3.83,-5.13l-3.83 0 0 5.13z"/>
   <path class="fil0" d="M3930.91 1315.72c5.43,0.45 4.96,2.86 6.41,-2.57 -3.41,0.08 -5.89,-0.41 -6.41,2.57z"/>
   <path class="fil0" d="M3520.96 1028.74c2.34,1.16 1.61,0.99 5.13,1.28l0 -3.84c-3.01,0.25 -4.66,-0.13 -5.13,2.56z"/>
   <path class="fil0" d="M3772.05 427.9l0 -5.13c-5.64,1.51 -5.64,3.62 0,5.13z"/>
   <polygon class="fil0" points="3154.56,450.96 3158.4,450.96 3158.4,447.12 3154.56,447.12 "/>
   <polygon class="fil0" points="671.75,723.84 675.59,723.84 675.59,720 671.75,720 "/>
   <path class="fil0" d="M1004.83 254.95c6.59,-0.15 3.68,1.16 6.4,-2.56l-6.4 0 0 2.56z"/>
   <path class="fil0" d="M1006.11 247.26l2.57 0c-0.14,-6.58 1.16,-3.67 -2.57,-6.4l0 6.4z"/>
   <path class="fil0" d="M4766.21 450.96c-2.88,-3.93 0.82,-2.08 -5.13,-2.57 1.4,5.26 0.93,4.51 5.13,2.57z"/>
   <polygon class="fil0" points="3825.86,714.88 3828.43,714.88 3828.43,709.75 3825.86,709.75 "/>
   <polygon class="fil0" points="4044.94,1005.69 4047.5,1005.69 4047.5,1000.55 4044.94,1000.55 "/>
   <polygon class="fil0" points="3226.29,1220.91 3228.86,1220.91 3228.86,1215.8 3226.29,1215.8 "/>
   <polygon class="fil0" points="3957.82,1104.34 3960.38,1104.34 3960.38,1099.21 3957.82,1099.21 "/>
   <path class="fil0" d="M4239.67 304.91l0 -3.83 -3.84 0c1,3.74 0.01,2.93 3.84,3.83z"/>
   <path class="fil0" d="M2988 1149.17l-2.56 -10.25c0,6.83 -1.42,7.33 2.56,10.25z"/>
   <path class="fil0" d="M36.31 731.53c2.89,3.93 -0.81,2.06 5.13,2.56 -1.3,-1.93 -2.86,-5.23 -5.13,-2.56z"/>
   <path class="fil0" d="M4179.45 274.16c5.95,-0.5 2.24,1.38 5.12,-2.56l-5.12 0 0 2.56z"/>
   <path class="fil0" d="M822.92 784.05l0 -2.56 -5.13 0c2.9,3.95 -0.83,2.05 5.13,2.56z"/>
   <path class="fil0" d="M2788.16 1008.25c2.79,3.8 2.34,3.8 5.12,0 -2.44,-0.52 -4,-1.32 -5.12,0z"/>
   <path class="fil0" d="M3544.02 1005.69c1.72,0.97 1.41,0.7 3.84,1.28l0 -3.84c-2.25,0.54 -3.44,0.16 -3.84,2.57z"/>
   <path class="fil0" d="M2932.92 1314.44c1.72,0.97 1.41,0.7 3.84,1.28l0 -3.85c-2.25,0.55 -3.44,0.16 -3.84,2.57z"/>
   <polygon class="fil0" points="2421.75,303.63 2425.6,303.63 2425.6,301.07 2421.75,301.07 "/>
   <polygon class="fil0" points="14.53,330.54 17.09,330.54 17.09,326.69 14.53,326.69 "/>
   <polygon class="fil0" points="1473.73,1060.78 1476.29,1060.78 1476.29,1056.93 1473.73,1056.93 "/>
   <polygon class="fil0" points="2993.13,1211.95 2995.7,1211.95 2995.7,1208.1 2993.13,1208.1 "/>
   <polygon class="fil0" points="4512.54,999.28 4516.38,999.28 4516.38,996.72 4512.54,996.72 "/>
   <polygon class="fil0" points="2002.83,243.42 2006.66,243.42 2006.66,240.86 2002.83,240.86 "/>
   <polygon class="fil0" points="2373.07,693.1 2376.91,693.1 2376.91,690.54 2373.07,690.54 "/>
   <path class="fil0" d="M1481.41 1032.59l1.28 0c0,-7.01 3.67,-2.82 -1.28,-6.4l0 6.4z"/>
   <path class="fil0" d="M4513.82 1012.09c3.81,-1.42 2,2.74 2.56,-3.84l-2.56 0 0 3.84z"/>
   <path class="fil0" d="M1644.11 1115.86l2.57 0c-0.57,-2.46 0.74,0.02 -0.88,-2.97 -0.89,-1.65 -0.87,-1.23 -1.68,-2.16l0 5.13z"/>
   <path class="fil0" d="M2753.57 279.3c2.55,3.48 3.17,4.8 3.84,-1.28 -2.21,1.24 -2.52,0.74 -3.84,1.28z"/>
   <path class="fil0" d="M1741.48 1146.61l2.55 0 0 -3.84c-2.11,1.47 -2.46,0.27 -2.55,3.84z"/>
   <path class="fil0" d="M2403.82 717.43c-0.3,0.68 -4.07,0.8 2.57,2.57 -0.68,-2.57 1.64,-0.51 -1.03,-2.63 -2.26,-1.78 0.18,-0.7 -1.54,0.06z"/>
   <path class="fil0" d="M3163.52 632.87l2.56 0c-0.88,-3.74 0.18,-1.84 -2.56,-3.84l0 3.84z"/>
   <path class="fil0" d="M2271.86 390.74l2.57 0c-0.89,-3.74 0.17,-1.84 -2.57,-3.83l0 3.83z"/>
   <path class="fil0" d="M1840.12 1199.13l3.84 0c-1.97,-2.83 -0.21,-1.59 -3.84,-2.57l0 2.57z"/>
   <path class="fil0" d="M3333.91 254.95l3.84 0c-1.96,-2.84 -0.21,-1.59 -3.84,-2.56l0 2.56z"/>
   <path class="fil0" d="M3214.77 303.63c0.58,-1.31 2.37,0.36 0.06,-1.54 -1.75,-1.43 -0.1,-0.35 -2.62,-1.02 0.68,2.57 -1.64,0.51 1.03,2.63 2.22,1.75 -0.19,0.79 1.53,-0.07z"/>
   <polygon class="fil0" points="1004.83,639.28 1009.96,639.28 1009.96,638 1004.83,638 "/>
   <path class="fil0" d="M1818.34 1227.32c-0.58,0.58 -3,-0.12 -0.03,1.57 1.28,0.73 3.16,0.23 1.61,-1.6 -2.01,-2.37 -0.7,-0.85 -1.58,0.03z"/>
   <path class="fil0" d="M4662.43 1014.66l0 -3.84c-3.82,2.76 -4.13,0.97 0,3.84z"/>
   <path class="fil0" d="M3547.86 1086.39l0 -3.83c-3.82,2.75 -4.13,0.98 0,3.83z"/>
   <path class="fil0" d="M3907.86 274.16c3.97,-2.87 3.97,-0.97 0,-3.84l0 3.84z"/>
   <path class="fil0" d="M3907.86 1315.72l3.84 0c-1.22,-1.69 -3.28,-4.03 -3.84,0z"/>
   <path class="fil0" d="M4270.41 1315.72l3.84 0c-1.22,-1.69 -3.28,-4.03 -3.84,0z"/>
   <path class="fil0" d="M3237.83 1319.56l3.84 0c-1.23,-1.7 -3.29,-4.03 -3.84,0z"/>
   <path class="fil0" d="M1518.56 1251.66l3.85 0c-1.24,-1.69 -3.3,-4.03 -3.85,0z"/>
   <path class="fil0" d="M4747 251.11l3.83 0c-1.22,-1.71 -3.29,-4.03 -3.83,0z"/>
   <path class="fil0" d="M2758.69 1028.74c0.67,0.3 0.79,4.07 2.56,-2.56 -0.28,0.15 -2.28,1.18 -2.37,1.28 -1.84,2.13 -1.39,-0.79 -0.19,1.28z"/>
   <path class="fil0" d="M1797.85 696.93c3.74,-0.89 1.84,0.17 3.84,-2.55 -2.24,0.53 -3.43,0.16 -3.84,2.55z"/>
   <polygon class="fil0" points="1574.93,650.82 1578.78,650.82 1578.78,649.54 1574.93,649.54 "/>
   <polygon class="fil0" points="4658.59,1311.87 4662.43,1311.87 4662.43,1310.59 4658.59,1310.59 "/>
   <polygon class="fil0" points="2383.32,333.1 2387.16,333.1 2387.16,331.81 2383.32,331.81 "/>
   <polygon class="fil0" points="1381.48,272.89 1385.32,272.89 1385.32,271.61 1381.48,271.61 "/>
   <path class="fil0" d="M2931.64 179.36c-1.51,-4.05 2.78,-1.83 -3.84,-2.56l1.37 1.19c0.79,0.51 1.78,0.96 2.47,1.37z"/>
   <path class="fil0" d="M592.31 600.85c4.05,-1.51 1.84,2.79 2.56,-3.84l-1.19 1.38c-0.44,0.69 -0.97,1.94 -1.37,2.47z"/>
   <path class="fil0" d="M3514.55 1027.46c0.28,1.47 2.81,2.81 1.73,0.26 -0.46,-1.07 -2.34,-3.58 -1.73,-0.26z"/>
   <path class="fil0" d="M1851.66 650.82c1.31,1.31 4.63,-1.85 1.48,-0.7 -0.03,0.02 -3.64,-1.45 -1.48,0.7z"/>
   <path class="fil0" d="M679.42 340.79c1.32,1.31 4.64,-1.84 1.49,-0.69 -0.03,0.01 -3.64,-1.46 -1.49,0.69z"/>
   <path class="fil0" d="M2838.12 363.84c1.32,1.31 4.63,-1.84 1.49,-0.68 -0.04,0.01 -3.64,-1.47 -1.49,0.68z"/>
   <path class="fil0" d="M3219.89 722.55c1.31,1.32 4.63,-1.84 1.48,-0.69 -0.03,0.02 -3.64,-1.46 -1.48,0.69z"/>
   <path class="fil0" d="M2547.31 1315.72c1.31,1.31 4.63,-1.84 1.48,-0.69 -0.03,0.01 -3.64,-1.46 -1.48,0.69z"/>
   <path class="fil0" d="M3212.21 714.88c1.31,1.31 4.63,-1.85 1.48,-0.69 -0.03,0.01 -3.64,-1.46 -1.48,0.69z"/>
   <path class="fil0" d="M3994.97 998c1.31,1.31 4.63,-1.85 1.48,-0.69 -0.03,0.02 -3.64,-1.46 -1.48,0.69z"/>
   <path class="fil0" d="M3934.76 1024.9c1.31,1.32 4.63,-1.84 1.48,-0.69 -0.03,0.01 -3.64,-1.45 -1.48,0.69z"/>
   <path class="fil0" d="M1605.68 695.65c1.31,1.32 4.63,-1.84 1.48,-0.69 -0.03,0.02 -3.64,-1.45 -1.48,0.69z"/>
   <path class="fil0" d="M4297.31 1001.84c1.32,1.32 4.63,-1.84 1.49,-0.69 -0.04,0.02 -3.64,-1.45 -1.49,0.69z"/>
   <path class="fil0" d="M3181.46 666.19c1.31,1.31 4.63,-1.84 1.49,-0.69 -0.03,0.01 -3.64,-1.46 -1.49,0.69z"/>
   <path class="fil0" d="M3938.6 245.98c0,1.51 2.75,2.88 1.98,0 -0.78,-2.9 3.26,-0.03 -0.59,-0.38 -1.62,-0.14 -1.39,-2.22 -1.39,0.38z"/>
   <path class="fil0" d="M1901.61 691.81c0,1.51 2.77,2.89 1.98,0 -0.77,-2.89 3.27,-0.04 -0.58,-0.38 -1.61,-0.15 -1.4,-2.22 -1.4,0.38z"/>
   <path class="fil0" d="M4562.51 362.57c0,1.5 2.75,2.88 1.98,0 -0.78,-2.9 3.26,-0.05 -0.59,-0.38 -1.61,-0.15 -1.39,-2.22 -1.39,0.38z"/>
   <path class="fil0" d="M97.8 420.22c-0.66,3.57 3.05,-0.61 1.27,-0.5 -2.41,0.15 -0.78,-2.14 -1.27,0.5z"/>
   <path class="fil0" d="M2543.47 635.44c0.05,0.42 1.41,0.29 1.52,0.25 0.32,-0.12 2.23,2.97 0.56,-0.35 -0.04,-0.07 -2.4,-2.37 -2.08,0.1z"/>
   <path class="fil0" d="M4599.65 461.21c0,3.18 2.06,0.33 0.81,0 -0.02,0 -0.81,-3.64 -0.81,0z"/>
   <path class="fil0" d="M1637.7 302.35c0,3.17 2.06,0.32 0.81,0 -0.02,-0.01 -0.81,-3.64 -0.81,0z"/>
   <path class="fil0" d="M4502.3 1295.22c0,3.18 2.04,0.33 0.79,0 -0.01,0 -0.79,-3.64 -0.79,0z"/>
   <path class="fil0" d="M4293.47 393.31c0,3.18 2.05,0.33 0.8,0 -0.02,0 -0.8,-3.64 -0.8,0z"/>
   <path class="fil0" d="M1882.4 691.81c0,3.17 2.05,0.32 0.79,0 -0.01,-0.01 -0.79,-3.64 -0.79,0z"/>
   <path class="fil0" d="M1802.97 910.89c0,3.17 2.04,0.32 0.79,0 -0.01,-0.02 -0.79,-3.64 -0.79,0z"/>
   <path class="fil0" d="M2986.72 1114.58c0,3.18 2.06,0.33 0.81,0 -0.02,0 -0.81,-3.64 -0.81,0z"/>
   <path class="fil0" d="M487.26 748.18c0,3.19 2.05,0.33 0.8,0 -0.02,0 -0.8,-3.63 -0.8,0z"/>
   <polygon class="fil0" points="4513.82,1012.09 4512.54,1012.09 4513.61,1013.59 "/>
   <polygon class="fil0" points="1909.31,775.08 1910.59,775.08 1909.51,773.59 "/>
   <polygon class="fil0" points="84.99,402.28 83.71,402.28 84.78,403.77 "/>
   <polygon class="fil0" points="1909.31,1083.84 1909.31,1082.56 1907.82,1083.62 "/>
   <polygon class="fil0" points="4822.57,293.39 4823.86,293.39 4822.79,291.89 "/>
   <polygon class="fil0" points="1909.31,1083.84 1909.31,1085.12 1910.8,1084.05 "/>
   <polygon class="fil0" points="1521.13,242.13 1521.13,240.86 1519.62,241.92 "/>
   <polygon class="fil0" points="1909.31,775.08 1908.02,775.08 1909.1,776.58 "/>
   <polygon class="fil0" points="3073.84,148.62 3073.84,149.9 3075.34,148.83 "/>
   <path class="fil0" d="M4630.41 1001.84c0.13,0.13 0.38,-0.56 0.38,-0.38l0 0c-0.02,0.03 -0.51,0.26 -0.38,0.38z"/>
   <path class="fil0" d="M4280.66 1001.84c0.13,0.13 0.38,-0.56 0.38,-0.38l0 0c-0.02,0.03 -0.51,0.26 -0.38,0.38z"/>
   <path class="fil0" d="M3942.44 247.26c0.13,0.13 0.39,-0.55 0.39,-0.38l0 0c-0.03,0.02 -0.51,0.25 -0.39,0.38z"/>
   <path class="fil0" d="M3208.36 693.1c0.13,0.12 0.38,-0.57 0.38,-0.39l0 0c-0.02,0.03 -0.5,0.26 -0.38,0.39z"/>
   <path class="fil0" d="M702.49 722.55c0.13,0.13 0.38,-0.56 0.38,-0.38l0.02 0c-0.03,0.03 -0.51,0.26 -0.39,0.38z"/>
   <path class="fil0" d="M2000.27 390.74c0.12,0.13 0.38,-0.56 0.38,-0.38l0 0c-0.03,0.03 -0.51,0.25 -0.38,0.38z"/>
   <path class="fil0" d="M1802.97 922.41c0.12,0.13 0.38,-0.56 0.38,-0.38l0 0c-0.03,0.02 -0.51,0.25 -0.38,0.38z"/>
   <path class="fil0" d="M3696.47 998l0.38 -0.39c-0.02,0.03 -0.51,0.26 -0.38,0.39z"/>
   <path class="fil0" d="M3816.89 351.03l0.38 -0.38c-0.02,0.03 -0.51,0.26 -0.38,0.38z"/>
   <path class="fil0" d="M2362.82 873.73l0.38 -0.38c-0.02,0.03 -0.51,0.26 -0.38,0.38z"/>
   <path class="fil0" d="M579.5 454.81l0.38 -0.39c-0.02,0.03 -0.51,0.26 -0.38,0.39z"/>
   <path class="fil0" d="M4468.98 1060.78l0.38 -0.38c-0.02,0.02 -0.5,0.25 -0.38,0.38z"/>
   <path class="fil0" d="M4297.31 1024.9l0.38 -0.38c-0.02,0.03 -0.51,0.26 -0.38,0.38z"/>
   <path class="fil0" d="M1375.07 817.36l0.39 -0.38c-0.03,0.02 -0.51,0.25 -0.39,0.38z"/>
   <path class="fil0" d="M4278.1 1001.84l0.38 -0.38c-0.02,0.03 -0.51,0.26 -0.38,0.38z"/>
   <path class="fil0" d="M2574.21 654.65l0.39 -0.38c-0.03,0.03 -0.51,0.25 -0.39,0.38z"/>
   <path class="fil0" d="M3723.38 1024.9l0.38 -0.38c-0.02,0.03 -0.51,0.26 -0.38,0.38z"/>
   <path class="fil0" d="M246.41 243.42l0.38 -0.38c-0.02,0.03 -0.5,0.25 -0.38,0.38z"/>
   <path class="fil0" d="M2867.58 556.01l0.38 -0.38c-0.02,0.02 -0.51,0.25 -0.38,0.38z"/>
   <path class="fil0" d="M4600.94 467.62l0.38 -0.38c-0.02,0.02 -0.5,0.25 -0.38,0.38z"/>
   <path class="fil0" d="M3945.01 247.26l0.38 -0.38c-0.02,0.02 -0.51,0.25 -0.38,0.38z"/>
   <path class="fil0" d="M4116.67 253.67l0.39 -0.38c-0.03,0.02 -0.51,0.25 -0.39,0.38z"/>
   <path class="fil0" d="M370.68 311.32l0.38 -0.38c-0.03,0.02 -0.51,0.25 -0.38,0.38z"/>
   <path class="fil0" d="M3250.63 745.62l0.38 -0.38c-0.02,0.02 -0.5,0.25 -0.38,0.38z"/>
   <path class="fil0" d="M4029.56 999.28l0.38 -0.38c-0.03,0.03 -0.51,0.26 -0.38,0.38z"/>
   <path class="fil0" d="M3153.28 1265.75l0.38 -0.38c-0.03,0.03 -0.51,0.26 -0.38,0.38z"/>
   <path class="fil0" d="M518.01 383.06l0.38 -0.38c-0.03,0.02 -0.51,0.25 -0.38,0.38z"/>
   <path class="fil0" d="M2959.83 32.03l0.38 -0.38c-0.03,0.02 -0.51,0.25 -0.38,0.38z"/>
   <path class="fil0" d="M2767.65 1292.66l0.39 -0.38c-0.03,0.02 -0.51,0.25 -0.39,0.38z"/>
   <path class="fil0" d="M3391.57 390.74l0.38 -0.38c-0.03,0.03 -0.51,0.25 -0.38,0.38z"/>
   <path class="fil0" d="M3633.7 1240.13l0.38 -0.38c-0.02,0.03 -0.51,0.26 -0.38,0.38z"/>
   <path class="fil0" d="M2816.34 1085.12l0.38 -0.39c-0.02,0.03 -0.5,0.26 -0.38,0.39z"/>
   <path class="fil0" d="M4490.76 1028.74l0.38 -0.38c-0.02,0.02 -0.51,0.25 -0.38,0.38z"/>
   <path class="fil0" d="M3178.9 1296.5l0.38 -0.38c-0.03,0.02 -0.51,0.25 -0.38,0.38z"/>
   <polygon class="fil0" points="1521.13,242.13 1523.62,243.61 "/>
   <polygon class="fil0" points="3073.84,148.62 3073.14,145.87 "/>
   <polygon class="fil0" points="2943.17,52.53 2941.89,51.25 "/>
   <polygon class="fil0" points="2941.89,51.25 2941.19,48.49 "/>
  </g>
 </g>
</svg>
