<?xml version="1.0" encoding="UTF-8"?>
<!DOCTYPE svg PUBLIC "-//W3C//DTD SVG 1.1//EN" "http://www.w3.org/Graphics/SVG/1.1/DTD/svg11.dtd">
<!-- Creator: CorelDRAW 2021 (64-Bit) -->
<svg xmlns="http://www.w3.org/2000/svg" xml:space="preserve" width="45.8779mm" height="7.2776mm" version="1.1" style="shape-rendering:geometricPrecision; text-rendering:geometricPrecision; image-rendering:optimizeQuality; fill-rule:evenodd; clip-rule:evenodd"
viewBox="0 0 515.64 81.8"
 xmlns:xlink="http://www.w3.org/1999/xlink"
 xmlns:xodm="http://www.corel.com/coreldraw/odm/2003">
 <defs>
  <style type="text/css">
   <![CDATA[
    .fil0 {fill:#BDBFC1}
   ]]>
  </style>
 </defs>
 <g id="Capa_x0020_1">
  <metadata id="CorelCorpID_0Corel-Layer"/>
  <path class="fil0" d="M237.81 80.26c5.61,-8.99 16.44,-43.7 22.99,-54.29l0.03 53.8 20.86 -0.27 -0.15 -78.04 -27 -0.09 -20.33 49.3 -19.84 -49.31 -28.16 0.14 -0.06 78.18 15.57 -0.14 0.59 -53.29 21.58 54.36 13.91 -0.38z"/>
  <polygon class="fil0" points="389.25,28.07 416.52,79.72 441.01,79.66 440.87,1.31 425.48,1.56 424.9,52.35 398.78,1.34 373.02,1.73 372.93,79.55 388.64,79.73 "/>
  <polygon class="fil0" points="114.81,79.56 171.94,79.76 171.93,64.7 136.14,64.71 136.13,46.3 166.42,46.18 166.57,33.34 136.44,33.17 136.04,15.64 170.94,15.64 171.15,1.65 114.96,1.37 "/>
  <polygon class="fil0" points="322.93,15.71 357.87,15.55 357.76,1.34 301.6,1.7 301.97,79.77 358.71,79.8 358.87,64.75 322.88,64.56 322.96,46.25 353.28,46.17 353.23,33.22 322.93,33.11 "/>
  <path class="fil0" d="M21.25 22.86c-0.78,-16.07 23.43,-7.23 33.21,-5.45l-0.01 -14.64c-14.68,-2.59 -31.71,-5.26 -44.16,2.39 -11.84,7.27 -14.2,25.1 -3.16,34.43 4.08,3.45 11,6.48 16.48,8.93 4.99,2.23 14.13,4.78 15.33,9.91 3.62,15.5 -34.9,5.04 -37.11,4.88l-0.12 14.95c20.43,7.33 53.66,3.79 58.2,-15.71 6.42,-27.58 -25.41,-27.67 -38.66,-39.69z"/>
  <path class="fil0" d="M456.78 63.01l-0.42 15.68c11.77,1.99 24.73,4.19 37.06,1.47 23.86,-5.28 32.24,-31.14 6.3,-44.94 -15.87,-8.44 -24.37,-7.19 -23.66,-17.69 11.23,-8.29 22.17,-2.17 32.87,-0.01l0.1 -14.7c-59.84,-13.53 -59.88,25.34 -48.14,36.11 5.75,5.27 30.75,13.66 32.44,18.47 5.38,15.27 -28.32,8.16 -36.54,5.61z"/>
  <path class="fil0" d="M72.97 1.48c-0.69,8.72 -1.01,73.21 0.44,78.33l21.45 -0.18 0.03 -78.23 -21.92 0.08z"/>
 </g>
</svg>
