<?xml version="1.0" encoding="UTF-8"?>
<!DOCTYPE svg PUBLIC "-//W3C//DTD SVG 1.1//EN" "http://www.w3.org/Graphics/SVG/1.1/DTD/svg11.dtd">
<!-- Creator: CorelDRAW 2021 (64-Bit) -->
<svg xmlns="http://www.w3.org/2000/svg" xml:space="preserve" width="56.4147mm" height="12.4015mm" version="1.1" style="shape-rendering:geometricPrecision; text-rendering:geometricPrecision; image-rendering:optimizeQuality; fill-rule:evenodd; clip-rule:evenodd"
viewBox="0 0 3407.28 749.01"
 xmlns:xlink="http://www.w3.org/1999/xlink"
 xmlns:xodm="http://www.corel.com/coreldraw/odm/2003">
 <defs>
  <style type="text/css">
   <![CDATA[
    .fil0 {fill:#BDBFC1}
   ]]>
  </style>
 </defs>
 <g id="Capa_x0020_1">
  <metadata id="CorelCorpID_0Corel-Layer"/>
  <g id="_1849310751904">
   <path class="fil0" d="M2593.64 728.45l273.17 0c14.51,0 8.81,-35.84 8.81,-64.61l0 -229.11c0.46,0.53 1.09,0.72 1.27,1.67l117.41 179.26c9.03,13.55 15.11,23.98 24.05,37.63 16.65,25.46 34.23,48.75 48.21,75.16l340.72 0c-17.51,-33.09 -228.23,-291.23 -273.17,-358.35 3.35,-12.57 46.4,-71.3 58.19,-88.67l118.63 -175.1c10.31,-15.47 54.91,-76.52 58.16,-88.71l-314.29 0 -179.18 293.73 0 -293.73 -281.98 0 0 710.82z"/>
   <path class="fil0" d="M44.06 255.55c0,43.37 12.89,80.57 31.03,107.03 19.42,28.35 47.2,48.06 77.64,63.35 59.29,29.77 104.5,25.89 162.44,46.11 9.62,3.35 15.42,6.47 23.76,11.49 52.36,31.52 -36.87,106.3 -202.12,8.26 -16.03,-9.51 -29.86,-16.34 -45.74,-24.75l-67.52 149.84c-7.93,17.84 -14.69,33.19 -23.54,49.89 7.85,1.84 25.01,9.67 33.33,13.67 12.32,5.92 19.01,9.26 32.1,14.89 108.58,46.64 266.68,70.92 385.12,31.32 40.42,-13.51 64.4,-24.35 99.35,-47.51 26.44,-17.51 53.49,-46.28 70.48,-73.45 45.07,-72.06 48.18,-164.07 0.03,-236.24 -72.06,-107.99 -288.5,-82.85 -288.5,-140.35 0,-52.99 131.92,-32.13 188.57,2.37 9.14,5.56 26.54,17.27 37.62,18.2l74.67 -160.31c4.23,-10.16 8.1,-14.43 10.5,-24.74 -11.58,-2.7 -17.68,-7.92 -28.51,-12.61 -72.67,-31.42 -156.66,-51.36 -238.82,-52.01l-8.71 0c-79.63,0.71 -157.09,19.85 -220.35,64.63 -52.52,37.16 -102.81,101.51 -102.81,190.92z"/>
   <polygon class="fil0" points="1310.04,725.52 1841.69,725.52 1841.69,534.59 1592.02,534.59 1592.02,458.22 1818.19,458.22 1818.19,276.11 1592.02,276.11 1592.02,208.54 1841.69,208.54 1841.69,17.62 1310.04,17.62 "/>
   <path class="fil0" d="M1912.19 361.29c0,127 64.13,257.73 170.51,325.9 61.93,39.69 126.92,58.44 193.81,61.83l45.63 0c44.12,-2.14 88.93,-10.26 134.1,-22.85 15.12,-4.22 26.42,-9.12 40.48,-12.39 1.74,-20.88 3.04,-39.37 2.91,-64.66 -0.27,-46.33 6.09,-112.85 5.84,-170.39 -0.07,-16.2 2.02,-20.34 3.01,-32.25 -9.17,2.46 -7.97,3.97 -16.46,9.98 -15.34,10.85 -38.32,25.87 -55.24,32.87 -68.12,28.21 -147.5,34.13 -209.11,-11.7 -79.56,-59.2 -58.9,-242.63 95.77,-242.63 57.43,0 120.29,11.34 162.26,49.22 6.21,5.6 7.07,7.84 13.98,12.46l0 -261.42c-84.21,-19.62 -95.96,-32.31 -205.62,-32.31 -67.87,0 -136.23,14.49 -188.06,41.03 -117.65,60.25 -193.78,178.99 -193.78,317.31z"/>
   <path class="fil0" d="M657.95 252.6l158.61 0 0 475.84 279.05 0c6.76,0 8.81,-2.04 8.81,-8.81l0 -467.03 149.8 0c6.76,0 8.81,-2.04 8.81,-8.81l0 -226.17 -605.09 0 0 234.98z"/>
  </g>
 </g>
</svg>
