<?xml version="1.0" encoding="UTF-8"?>
<!DOCTYPE svg PUBLIC "-//W3C//DTD SVG 1.1//EN" "http://www.w3.org/Graphics/SVG/1.1/DTD/svg11.dtd">
<!-- Creator: CorelDRAW 2021 (64-Bit) -->
<svg xmlns="http://www.w3.org/2000/svg" xml:space="preserve" width="54.7715mm" height="20.5718mm" version="1.1" style="shape-rendering:geometricPrecision; text-rendering:geometricPrecision; image-rendering:optimizeQuality; fill-rule:evenodd; clip-rule:evenodd"
viewBox="0 0 744.67 279.69"
 xmlns:xlink="http://www.w3.org/1999/xlink"
 xmlns:xodm="http://www.corel.com/coreldraw/odm/2003">
 <defs>
  <style type="text/css">
   <![CDATA[
    .fil0 {fill:#BDBFC1}
    .fil1 {fill:white}
   ]]>
  </style>
 </defs>
 <g id="Capa_x0020_1">
  <metadata id="CorelCorpID_0Corel-Layer"/>
  <path class="fil0" d="M618.54 58.73c0.47,-1.69 1.48,-3.37 2.63,-4.82l18.13 -0.18 23.42 39.78c2.79,4.85 22.51,37.42 23.06,39.72l-7.5 0.15c0.73,2.23 1.74,2.73 2.29,4.8l-21.97 0.06 -12.34 -21.88 -43.02 -0.24c-0.8,2.41 -10.5,18.6 -12.45,22.04l-21.41 0.07 34.85 -59.68c3.69,-6.24 7.82,-14.17 11.8,-19.73l2.48 -0.1zm-292.06 0.02c0.54,-1.75 1.65,-3.54 2.66,-4.96l18.15 -0.04 23.39 39.8c3.04,5.26 22.46,37.32 23.09,39.69l-7.56 0.23 2.47 4.65 -22.06 0.13 -12.36 -21.87 -43.02 -0.24c-0.89,3.07 -10.33,17.07 -12.42,22.1l-21.46 0.02c1.57,-3.89 45.65,-77.89 46.63,-79.46l2.49 -0.04zm361.71 48.29c-1.2,-4.2 -0.32,-30.3 -0.3,-36.71l0.1 -27.28c-0.01,-1.54 -0.35,-8.71 2.6,-5.87 1.33,1.28 0.44,53.8 0.45,63.63 0,3.47 1.12,6.86 -2.84,6.22zm-157.94 -34.09c1.01,2.49 -1.46,5.49 5.51,8.44 9.35,3.96 42.6,4.11 43.22,26.36 0.27,9.7 -6.09,18.06 -8.44,18.41 -2.31,1.56 -4.65,7.19 -15.66,11.01 -13.26,4.6 -31.73,3.68 -43.42,-5.25 -5.46,-4.17 -8.29,-9.13 -8.76,-19l14.78 -0.05c2.5,0.03 3.03,-0.02 3.67,1l-0.41 -1.07c-4.03,-0.15 -9.17,0.7 -12.8,-0.53l-0.07 -4.29 18.44 -0.13c0.96,18.2 23.05,11.63 26.65,11.67 2.1,-2.27 2.18,-7.94 -0.71,-10.73 -5.59,-5.38 -23.26,-5.7 -33.19,-10.66 -17.38,-8.67 -15.66,-25.31 -4.68,-33.52 0.26,-0.19 0.6,-0.42 0.92,-0.67l1.15 -0.95c0.72,-2.29 4.17,-4.37 6.3,-5.56 17.58,-9.87 53.38,-6.59 53.79,18.49l-5.79 -0.18 0.84 5.24 -18.85 0.03c-0.88,-2.24 -0.2,-7.01 -7.83,-9.3 -4.4,-1.32 -11.2,-1.23 -14.64,1.24zm-36.83 3.78l3.28 5.08c-4.76,0.13 -21.83,1.28 -24.81,-1.21 -10.82,-9.02 -29.12,-10.62 -42.5,-7.37 -6.46,1.57 -14.26,4.8 -17.69,8.97 0.12,0.61 -9.08,13.55 2.75,25.87 14.31,14.89 46.34,16.2 61.14,4.4 2.94,-2.35 3.29,-1.7 7.61,-1.67 6.15,0.04 12.31,-0.08 18.45,0.08 -0.57,1.92 -3.96,6 -4.92,6.5 -1.18,0.61 0.11,0.4 -0.68,0.11 -4.85,4.19 -5.53,7.7 -14.68,13.06 -6.07,3.56 -12.52,5.96 -20.34,7.49 -28.42,5.56 -68.28,-2.68 -77.18,-30.39 -7.44,-23.15 13.86,-35.87 15.17,-37.95 -0.06,-0.85 0.67,-1.15 1.74,-2.07 13.98,-11.98 33.87,-16.14 52.49,-15.31 10.29,0.45 21.46,3.1 29.22,6.97 6,2.99 17.34,11.02 19.06,17.55l-8.13 -0.1zm-215.16 -4.23l0.02 60.68 -5.24 0.23 -0.07 4.86 -20.04 -0.25 -0.06 -65.54 -21.36 -0.25 0.09 -13.44 5.11 -0.07 0.12 -5.01 62.85 0.14 -0.01 13.37 -5.27 0.08 0.01 5.15 -16.17 0.04zm423.63 90.3l-0.01 -137.32c-9.05,-0.77 -21.06,-0.11 -30.43,-0.11 -70.06,0 -140.11,0 -210.17,0 -69.46,0 -141.37,0.59 -210.7,-0.01 -9.51,-0.08 -20.46,-0.74 -29.78,-0.24l-64.76 0.31c0.64,1.07 0.24,0.55 1.2,1.31l5.06 2.98c7.77,4.93 11.25,7.59 17.9,14.2 14.99,14.9 23.94,35.7 28.91,56.62 2.67,11.22 6.43,22.23 12,30.85 23.21,35.93 57.5,31.43 96.31,31.42l213.38 0c56.97,-0.01 114.14,-0.47 171.09,-0z"/>
  <path class="fil0" d="M715.56 179.17c-5.52,0.89 -18.06,0.19 -24.33,0.19l-557.78 0c-34.7,0 -56.39,0.52 -80.94,-16.32 -16.83,-11.55 -32.58,-33.36 -32.91,-63.83 -0.29,-27.77 12.06,-49.7 32.19,-65.09 23.16,-17.7 53.24,-15.21 81.65,-15.21 129.42,0 258.83,0 388.25,0 4.06,0 189.39,-0.66 193.9,0.25l-0.04 160.01zm-667.17 -6.64c-6.08,-1.85 -15.58,-10.92 -18.77,-14.42 -17.28,-18.94 -26.68,-50.86 -16.09,-74.94 -0.86,11.22 -2.26,17.14 -0.28,29.26 2.78,17.05 9.82,31.13 19.52,44.13 5.97,8 12.11,12.09 15.61,15.97zm686.54 25.41l0.19 -197.61c-69.2,-0.75 -138.83,-0.01 -208.06,-0.01l-417.13 0c-17.18,0 -32.41,-0.96 -47.97,3.87 -13.95,4.33 -24.81,11.63 -32.75,19.64 -49.04,49.44 -35.22,146.5 33.15,168.92 15.96,5.23 28.88,5.19 47.04,5.19l625.54 0z"/>
  <path class="fil0" d="M130.02 47.85c11.15,2.41 23.12,14.98 28.46,25.77 3.14,6.36 4.97,14.14 4.91,22.38 -0.07,10.04 -2.24,13.96 -5.11,21.7 0.27,-7.3 2.69,-9.4 1.32,-23.33 -1.72,-17.44 -11.72,-34.25 -25.76,-43.69 -0.63,-0.43 -1.39,-0.84 -1.98,-1.24 -1.69,-1.13 -0.77,-0.2 -1.85,-1.6zm-38.68 -16.73c-2.6,2.19 -21.39,4.62 -36.65,24.62 -29.94,39.24 -11.08,92.64 33.53,106.86 1.92,0.61 3.91,1.14 5.94,1.55 1.89,0.38 5.03,0.39 6.64,1.46 26.18,0.26 41.26,-6 55.29,-19.7 29.27,-28.57 26.17,-76.83 -6.25,-102.13 -11.78,-9.2 -26.04,-14.33 -42.06,-14.25 -3.18,0.01 -14.44,0.82 -16.44,1.59z"/>
  <path class="fil0" d="M129.68 227.5l-10.84 0.09 -9.98 36.3c-0.16,-0.23 -0.14,-0.06 -0.56,-1.02l-1.01 -3.27c-0.44,-1.56 -0.84,-2.92 -1.32,-4.58l-7.72 -27.52 -13.96 0.06 -14.4 51.8 11.04 -0.06 10.53 -38.72c2.14,6.23 9.59,35.94 11.51,38.78l12.24 -0.01 14.47 -51.84z"/>
  <path class="fil0" d="M363.87 270.33c0.88,-4.33 8.31,-31.49 9.7,-33.74 19.09,-0.98 26.18,-1.34 19.39,19.44 -5.34,16.34 -10.96,14.28 -29.1,14.3zm-13.36 9.02c24.65,0.39 45.18,3.62 53.77,-21.62 3.55,-10.43 5.8,-23.26 -4.02,-28.01 -5.97,-2.89 -27.58,-3.04 -35.41,-2.08l-14.35 51.71z"/>
  <path class="fil0" d="M509.06 270.06c-0.82,1.48 -2.38,7.17 -2.75,9.23 9.1,0.45 20.13,0.26 29.32,0.04 10.36,-0.25 15.48,-2.94 19.6,-9.71 4.23,-6.97 5.99,-17.51 -2.8,-19.76 -8.03,-2.06 -21.97,2.32 -26.89,-3.05 -1.5,-8.3 6.23,-10.01 13.29,-9.99 7.76,0.02 15.8,0.19 23.53,-0.04 1.08,-1.55 2.54,-7.4 2.88,-9.32 -23.67,0.78 -41.39,-4.82 -49.51,11.76 -2.59,5.29 -3.94,12.74 0.56,16.23 4.46,3.46 11.74,2.78 17.73,2.78 5.95,-0 15.78,-1.43 11.66,7.18 -2.7,5.63 -9.08,4.64 -15.94,4.63 -6.87,-0.01 -13.8,-0.08 -20.67,0.01z"/>
  <path class="fil0" d="M688.3 270.04l-2.74 9.26c9.76,0.12 19.66,0.25 29.22,0.04 10.65,-0.24 15.67,-2.93 19.68,-9.63 3.71,-6.2 6.58,-17.77 -2.87,-19.92 -3.77,-0.86 -10.13,-0.57 -14.16,-0.57 -4.49,0 -10.82,0.89 -12.43,-2.39 -1.28,-3.04 1.18,-6.83 2.84,-8.01 5.82,-4.14 23.69,-0.48 34.2,-2.25l2.63 -8.92c-7.66,-0.72 -33.55,-0.76 -39.42,1.62 -12.55,5.1 -15.18,22.24 -9.83,26.18 9.92,7.31 34.86,-3.53 29.71,9.73 -2.26,5.82 -9.49,4.87 -16.25,4.87 -6.86,-0 -13.72,-0.02 -20.58,0z"/>
  <path class="fil0" d="M261.78 260.05c0.78,9.77 -5.32,10.01 -13.88,10 -7.79,-0.02 -15.58,-0.01 -23.37,-0 -0.94,1.62 -2.45,7.08 -2.76,9.29 9.49,0.22 19.85,0.24 29.34,0 10.04,-0.26 15.83,-3.02 19.6,-9.72 4,-7.11 5.96,-17.53 -2.83,-19.77 -7.53,-1.92 -22.69,1.94 -26.9,-3.05 -0.73,-3.82 1.2,-6.67 3.49,-8.26 4.6,-3.18 24.1,-1.1 33.91,-1.85l2.4 -9.16c-9.83,-0.04 -19.99,-0.3 -29.68,0.01 -9.79,0.32 -15.55,3.6 -19.19,10.21 -4.02,7.29 -5.47,16.73 3.43,19.49 7.84,2.42 20.81,-1.32 26.45,2.8z"/>
  <path class="fil0" d="M431.27 227.52l-10.83 0.06 -14.37 51.79 10.69 -0.07 6.17 -21.66 19.87 0.02 -5.97 21.67 10.69 0.04 14.47 -51.88c-11.57,0.01 -10.4,-0.74 -11.38,2.24 -1.41,4.3 -4,15.97 -5.39,18.74l-19.75 -0.11 5.79 -20.85z"/>
  <path class="fil0" d="M497.46 279.22l2.47 -8.83c-18.2,-0.46 -30.75,3.78 -26.58,-12.53l30.26 -0.23c0.58,-2.99 2.16,-5.96 2,-9.05l-29.49 0.05c1.17,-5.89 5.5,-10.33 11.16,-11.62 4.68,-1.06 16.72,-0.55 22.07,-0.48l2.6 -8.99c-9.83,-0.05 -24.62,-1.07 -32.5,2.68 -16.54,7.88 -24.74,38.02 -13.74,45.82 4.11,2.91 8.38,3.25 14.26,3.32 4.95,0.06 12.81,0.42 17.47,-0.15z"/>
  <path class="fil0" d="M653.34 257.78c0.2,-2.16 11.31,-17.58 12.74,-19.47l1.95 19.49 -14.7 -0.02zm-14.49 21.55c1.27,-2.18 2.58,-4.23 4.1,-6.47 4.58,-6.77 0.5,-6.99 26.33,-5.84l1.27 12.32 12.08 -0.05 -7.43 -51.79 -11.9 0.05 -26.91 38.75c-2.58,3.81 -7.13,9.22 -8.92,13.07l11.36 -0.05z"/>
  <path class="fil0" d="M317.16 257.74c0.81,-2.22 11.02,-17.32 12.94,-19.42l2.01 19.46 -14.95 -0.04zm-7.49 10.73c1.48,-2.11 0.87,-1.52 4.01,-1.53 6.3,-0.01 13.45,-0.28 19.62,0.19l1.3 12.2 12.04 -0 -7.45 -51.79 -11.84 -0.04c-2.31,4.82 -31.06,43.3 -35.88,51.83l11.4 -0.05 6.79 -10.81z"/>
  <path class="fil0" d="M189.29 257.75c0.49,-1.62 11.63,-18.18 12.92,-19.35l2.04 19.37 -14.96 -0.02zm-25.69 21.48c2.58,0.27 5.26,0.14 7.86,0.16 3.86,0.03 3.45,-0.01 5.16,-2.81 1.84,-3 4.63,-6.57 5.93,-9.64l22.86 0.3 1.32 12.12 12.01 -0.04 -7.44 -51.77 -11.53 0.08 -36.17 51.59z"/>
  <path class="fil0" d="M610.06 279.36c3.05,-5.87 33.19,-46.74 35.71,-51.85l-11.22 0.14 -13.43 19.11c-2.3,3.45 -11.25,16.84 -13.49,18.79l-4.62 -38.05 -12.26 0.12 7.92 51.74 11.39 -0z"/>
  <path class="fil0" d="M53.76 227.54c-9.53,-0.25 -24.72,-0.89 -32.53,2.76 -15.01,7.02 -25.4,36.43 -13.36,45.82 5.96,4.65 22.59,3.37 31.52,3.23l2.36 -9.04c-20.76,0.3 -33.17,3.85 -24.86,-19.23 6.58,-18.29 14.82,-13.84 34.54,-14.71l2.34 -8.82z"/>
  <polygon class="fil0" points="132.45,236.56 148.92,236.67 137.01,279.28 148.29,279.34 160.27,236.7 176.78,236.64 179.51,227.71 135.02,227.66 "/>
  <path class="fil0" d="M326.49 58.75l15.43 0c1.8,2.4 3.73,6.22 5.39,8.96l38.91 65.73 7.56 -0.23c-0.64,-2.36 -20.05,-34.43 -23.09,-39.69l-23.39 -39.8 -18.15 0.04c-1,1.42 -2.11,3.21 -2.66,4.96z"/>
  <path class="fil0" d="M618.54 58.73l15.41 -0.01c4.98,6.46 41.59,71.82 44.34,74.66l7.5 -0.15c-0.55,-2.29 -20.27,-34.87 -23.06,-39.72l-23.42 -39.78 -18.13 0.18c-1.15,1.44 -2.16,3.13 -2.63,4.82z"/>
  <path class="fil0" d="M496.06 117.47c0.78,0.29 -0.5,0.5 0.68,-0.11 0.96,-0.5 4.35,-4.57 4.92,-6.5 -6.14,-0.17 -12.3,-0.04 -18.45,-0.08 -4.32,-0.03 -4.67,-0.68 -7.61,1.67 -14.8,11.81 -46.83,10.49 -61.14,-4.4 -11.84,-12.32 -2.63,-25.25 -2.75,-25.87 -7.22,5.01 -11.9,17.43 -4.91,27.65 12.69,18.55 48.93,19.67 63.35,7.86 3.05,-2.5 2.59,-2 7.72,-1.97 5.51,0.04 13.94,-0.51 19.06,0.18l-0.85 1.56z"/>
  <path class="fil0" d="M73.3 227.5c-13.05,0.01 -10.79,-1.55 -12.96,6.1 -2.7,9.49 -12.07,41.02 -12.65,45.78l11.22 -0.15 14.39 -51.73z"/>
  <polygon class="fil0" points="587.33,227.54 576.02,227.57 561.68,279.37 572.87,279.24 "/>
  <path class="fil0" d="M399.04 69.68c2.72,-1.1 6.47,-3.85 10.09,-5.52 3.63,-1.67 7.28,-3.11 11.35,-4.14 17.41,-4.41 38.25,-3.71 54.71,3.34 3.65,1.56 6.9,3.39 9.92,5.58 4.77,3.46 5.75,5.61 8.31,7.77l8.13 0.1c-1.72,-6.53 -13.06,-14.56 -19.06,-17.55 -7.76,-3.87 -18.93,-6.51 -29.22,-6.97 -18.62,-0.82 -38.52,3.33 -52.49,15.31 -1.07,0.92 -1.8,1.22 -1.74,2.07z"/>
  <path class="fil0" d="M570.54 126.15c2.35,-0.35 8.71,-8.71 8.44,-18.41 -0.62,-22.24 -33.87,-22.39 -43.22,-26.36 -6.97,-2.95 -4.5,-5.95 -5.51,-8.44 -5.72,2.61 -9.11,11.01 3.2,14.51 7.22,2.05 15.01,2.49 22.11,5.17 10.86,4.11 18.94,10.71 18.2,22.65 -0.35,5.56 -2.03,7 -3.23,10.88z"/>
  <polygon class="fil0" points="236.72,58.73 294.24,58.75 294.42,67.31 299.69,67.23 299.7,53.86 236.84,53.72 "/>
  <path class="fil0" d="M516.44 62.99c10.33,-4.88 19.5,-7.31 32.89,-4.75 10.89,2.08 18.68,7.71 21.41,17.5l5.79 0.18c-0.41,-25.08 -36.21,-28.37 -53.79,-18.49 -2.13,1.2 -5.58,3.27 -6.3,5.56z"/>
  <path class="fil1" d="M48.39 172.53c-3.5,-3.88 -9.65,-7.97 -15.61,-15.97 -9.7,-13 -16.74,-27.08 -19.52,-44.13 -1.98,-12.12 -0.58,-18.04 0.28,-29.26 -10.6,24.07 -1.19,55.99 16.09,74.94 3.2,3.5 12.69,12.57 18.77,14.42z"/>
  <polygon class="fil0" points="273.04,133.4 278.29,133.17 278.26,72.49 273.05,72.48 "/>
  <path class="fil0" d="M521.15 113.86c0.43,7.47 5.66,10.99 13.11,11.77 7.93,0.84 15.29,-1.02 18.7,-6.12 -3.6,-0.04 -25.69,6.53 -26.65,-11.67l-18.44 0.13 0.07 4.29c3.64,1.23 8.77,0.38 12.8,0.53l0.41 1.07z"/>
  <path class="fil1" d="M130.02 47.85c1.08,1.4 0.16,0.47 1.85,1.6 0.59,0.39 1.34,0.81 1.98,1.24 14.05,9.44 24.04,26.25 25.76,43.69 1.37,13.93 -1.05,16.03 -1.32,23.33 2.86,-7.75 5.03,-11.66 5.11,-21.7 0.06,-8.24 -1.76,-16.02 -4.91,-22.38 -5.34,-10.79 -17.31,-23.36 -28.46,-25.77z"/>
  <path class="fil0" d="M635.5 97.14l-18.59 -0.46 9.09 -16.04c-0.4,-1.5 0.13,-0.8 -1.07,-1.81 -1.74,1.9 -5.16,8.71 -6.75,11.48 -2.24,3.89 -4.4,7.66 -6.41,11.43l26.2 0.21 -2.47 -4.81z"/>
  <path class="fil0" d="M343.3 96.92l-18.3 -0.08c0.56,-1.66 7.51,-14.21 9.15,-15.86l-0.99 -2.26 -13.55 23.02 26.35 0.21 -2.65 -5.03z"/>
 </g>
</svg>
