<?xml version="1.0" encoding="UTF-8"?>
<!DOCTYPE svg PUBLIC "-//W3C//DTD SVG 1.1//EN" "http://www.w3.org/Graphics/SVG/1.1/DTD/svg11.dtd">
<!-- Creator: CorelDRAW 2021 (64-Bit) -->
<svg xmlns="http://www.w3.org/2000/svg" xml:space="preserve" width="81.095mm" height="21.6931mm" version="1.1" style="shape-rendering:geometricPrecision; text-rendering:geometricPrecision; image-rendering:optimizeQuality; fill-rule:evenodd; clip-rule:evenodd"
viewBox="0 0 2958.74 791.47"
 xmlns:xlink="http://www.w3.org/1999/xlink"
 xmlns:xodm="http://www.corel.com/coreldraw/odm/2003">
 <defs>
  <style type="text/css">
   <![CDATA[
    .fil0 {fill:#BDBFC1}
   ]]>
  </style>
 </defs>
 <g id="Capa_x0020_1">
  <metadata id="CorelCorpID_0Corel-Layer"/>
  <g>
   <path class="fil0" d="M2157.1 570.09c-31.15,-199.24 17.99,-270.43 199.24,-217.54 -6.08,51.04 -89,191.51 -199.24,217.54zm-2157.1 -570.09l346.89 0 -94.74 286.83 -252.15 17.05 0 -303.89zm385.35 0l375.18 0 0 252.45 -469.05 31.72 93.87 -284.18zm375.18 289.06l0 502.41 -636.61 0 155.2 -469.86 481.41 -32.55zm-675.08 502.41l-85.46 0 0 -450.98 239.78 -16.21 -154.32 467.2zm1485.34 -547.2l-1.03 -33.61 1.03 33.61zm-1.24 -40.55l-0.48 -15.83c-100.31,24.84 -27.51,3.95 -59.35,44.3 -11.64,63.09 -5.13,7.81 18.33,33.04l42.75 -20.96 -1.24 -40.55zm-144.67 -40.55c18.71,-26.19 32.16,44.64 18.13,-69.16l-37.35 27.45c-113.1,63.06 -248.71,24.38 -394.95,42.71 -32.2,30.23 -15.61,-50.78 -33.91,69.04l171.23 -24.45c-16.43,108.37 -81.26,361.01 -69.44,434.23 86.9,-2.38 75.03,7.77 87.05,-76.91l69.03 -354.88c102.71,-6.87 119.43,6.11 190.22,-48.03zm908.46 332.2l35.18 -41.46 -4.03 100.8 15.87 57.14c139.16,1.34 144.3,-36.04 214.78,-106l35.7 -37.44c8.86,61.77 11.19,-57.65 1.38,35.46l-15.72 29.41c-4.84,77.99 -0.62,69.07 19.18,103.42 55.62,-22.15 28.15,-5.78 59.35,-54.32 3.03,-4.72 21,-47.54 25.32,-56.52 153.88,-319.9 202.11,-58.44 238.39,-227.95 -103.93,-68.47 -182.21,71.61 -214.32,127.8l-40.25 53.28 8.43 -57.54 -3.81 -113.61c-85.02,8.16 -42.97,53.92 -113.26,134.38 -42.62,48.79 -78.34,102.31 -161.38,99.97 -14.22,-87.67 1.43,-169.03 22.87,-244.29l-28.33 -8.32c-3.5,-0.69 -10.15,-2.19 -14.05,-2.82 -165.76,-26.53 -233.86,-15.5 -302.98,101.81 -53.16,90.24 -148.29,224.56 -289.16,188.51 -76.35,-52.34 -38.59,-278.4 89.32,-252.83 66.13,13.22 45.93,50.27 70.36,41.37 119.82,-108.96 -149.51,-117.82 -228.58,-6.64 -47.53,66.85 -33.49,78.85 -99.51,147.26 -44.22,45.81 -71.11,81.36 -131.69,64.43 -35.48,-105.25 61.57,-169.32 -14.84,-245.63 -61.61,23.49 -39.51,33.07 -53.06,126.27 -14.4,99.01 -35.63,189.58 92.4,180.91 61.11,-4.14 115.46,-66.92 142.92,-110.22l74.75 94.21c29.05,22.46 60.39,33.02 107.9,27.99 92.33,-9.77 120.78,-57.95 193.91,-114.52l56.53 100.45c111.87,6.18 150.44,-66.91 210.45,-134.76z"/>
  </g>
 </g>
</svg>
