<?xml version="1.0" encoding="UTF-8"?>
<!DOCTYPE svg PUBLIC "-//W3C//DTD SVG 1.1//EN" "http://www.w3.org/Graphics/SVG/1.1/DTD/svg11.dtd">
<!-- Creator: CorelDRAW 2021 (64-Bit) -->
<svg xmlns="http://www.w3.org/2000/svg" xml:space="preserve" width="33.3736mm" height="33.2876mm" version="1.1" style="shape-rendering:geometricPrecision; text-rendering:geometricPrecision; image-rendering:optimizeQuality; fill-rule:evenodd; clip-rule:evenodd"
viewBox="0 0 1386.73 1383.16"
 xmlns:xlink="http://www.w3.org/1999/xlink"
 xmlns:xodm="http://www.corel.com/coreldraw/odm/2003">
 <defs>
  <style type="text/css">
   <![CDATA[
    .fil0 {fill:#BDBFC1}
   ]]>
  </style>
 </defs>
 <g id="Capa_x0020_1">
  <metadata id="CorelCorpID_0Corel-Layer"/>
  <g id="_2416691322640">
   <path class="fil0" d="M259.97 1114.21c8.71,15.5 43.87,44.73 60.97,58.08 189.06,147.57 418.31,164.84 637.89,66.55 215.11,-96.3 377.34,-371.47 334.41,-605.13 -11.02,1.95 -1002.83,459.38 -1033.28,480.51z"/>
   <path class="fil0" d="M89.58 751.75c31.67,-5.46 216.51,-96.29 259.43,-117.64 84.52,-42.03 175.58,-83.42 258.62,-119.84 88.77,-38.93 172.19,-80.62 258.72,-120.33 41.79,-19.18 85.26,-40.68 127.12,-59.5 40.61,-18.26 95.31,-40.98 129.69,-61.05 -135.1,-155.72 -441.23,-249.87 -693.94,-124.53 -232.59,115.36 -355.75,335.55 -339.64,602.89z"/>
   <path class="fil0" d="M43.3 751.95c-8.98,-86.26 9.15,-207.46 38.18,-281.2 16.26,-41.31 32.11,-76.09 53.4,-111.26 18.79,-31.03 47.32,-74.51 68.17,-96.36 53.33,-55.89 102.08,-100.91 180.29,-143.47 162.4,-88.38 353.14,-102.62 529.63,-39.1 96.01,34.55 135.77,65.74 208.04,121.43 192.79,148.58 278.1,462.14 183.74,712.61 -30.8,81.75 -75.16,157.96 -121.95,207.65 -115.95,123.16 -249.28,201.07 -432.55,219.21 -187.82,18.59 -388.93,-68.2 -486.63,-161.29 -123.03,-117.23 -200.56,-238.42 -220.32,-428.23zm583.31 631.2l131.9 0c27.83,-10.93 96.36,-19.05 133.08,-30.49 151.41,-47.17 199.59,-93.14 304.59,-189.68 93.12,-85.62 194.01,-293.63 190.46,-476.91 -3.86,-198.64 -93.38,-371.47 -193.12,-468.81 -95.15,-92.86 -165.26,-145.93 -306.96,-187.3 -38.78,-11.32 -111.53,-19.76 -139.03,-29.98l-120.4 0c-79.75,35.12 -233.87,9.14 -438.97,220.89 -98.96,102.17 -182.81,271.76 -188,470.69 -3.29,125.96 46.58,278.63 114.64,379.33 91.75,135.72 206.45,230.7 377.58,280.91 31.97,9.38 115.72,23.38 134.23,31.33z"/>
   <path class="fil0" d="M230.74 1047.84c-42.84,-43.12 -95.86,-151.06 -107.77,-229.88 36.2,-20.77 83.31,-40.26 125.53,-59.14l778.22 -363.74c35.38,-15.45 98.02,-50.48 132.65,-60.13 33.29,61.12 99.13,138.89 103.23,230.39l-1031.86 482.5zm-129.7 -241c0.8,53.89 48.4,155.96 78.47,204.93 13.23,21.56 28.16,38.12 40.16,58.55 25.31,-5.59 504.11,-230.17 534.34,-244.84l531.69 -249.17c-6.71,-67.64 -44.51,-152.01 -80.98,-205.39 -14.57,-21.33 -30.37,-38.17 -40.41,-57.62 -28.5,6.23 -741.65,342.94 -799.29,370l-263.97 123.55z"/>
   <path class="fil0" d="M949.06 576.76c14.83,43.97 -8.56,59.83 -43.21,71.24 -14.72,-20.5 -39.42,-67.27 -39.27,-93.52 42.31,-13.01 70,-14.7 82.48,22.28zm-141.08 -27.89c9.85,36.24 48.68,109.04 66.74,146.61 41.48,-6.69 157.88,-50.78 116.88,-139.47 -37.49,-81.1 -124.53,-44.95 -183.63,-7.13z"/>
   <path class="fil0" d="M397.75 806.84c-10.43,-65.63 68.73,-65.68 83.31,7.78 13.32,67.12 -71.34,67.57 -83.31,-7.78zm18.3 -79.84c-120.11,36.82 -52.98,201.6 46.43,168.66 41.41,-13.72 78.45,-48.58 60.08,-106.41 -14.15,-44.54 -47.3,-80.4 -106.51,-62.25z"/>
   <path class="fil0" d="M698.21 664.13c-11.95,-69.71 79.02,-60.08 85.65,17.57 5.29,61.93 -73.05,55.88 -85.65,-17.57zm21.67 -78.48c-121.16,32.9 -60.84,205.19 45.43,168.46 117.13,-40.5 53.35,-195.28 -45.43,-168.46z"/>
   <path class="fil0" d="M1076 533.04c-8.19,-17.4 -8.34,-42.9 -9.64,-65.47 13.13,5.99 36.78,36.99 44.26,49.81l-34.62 15.66zm120.56 17.14l4.5 -13.15 -119.27 -113.6 -51.5 19.52 8.82 175.19 36.35 -10.53c12.25,-42.04 -9.19,-32.03 33.3,-53.63 39.67,-20.17 30.4,-4.99 55.05,9.82l32.74 -13.62z"/>
   <path class="fil0" d="M274.91 833.88c-4.4,26.47 -13.62,51.26 -21.25,78.32 -10.94,38.76 -15.98,41.51 0.09,74.51 24.94,-6.73 44.73,-17.95 67.5,-28.7 56.12,-26.49 65.27,-17.44 51.31,-53.2 -30.18,0.44 -58.79,23.37 -84.76,31.9 10.12,-86.46 51.48,-86.97 14.35,-151.14 -19.56,5.98 -95.06,37.33 -110.72,54.3l12.65 23.97 70.83 -29.98z"/>
   <path class="fil0" d="M506.67 686.58c2.79,21.47 56.02,130.75 69.87,149.47 21.1,-3.32 96.55,-38.43 108.03,-51.17l-9.31 -23.52c-34.36,2.69 -43.4,20.37 -71.56,27.99l-55.14 -116.69 -41.88 13.91z"/>
   <path class="fil0" d="M1196.57 550.18l11.82 -5.23c0.03,-16.12 1.09,-1.13 -7.32,-7.92l-4.5 13.15z"/>
  </g>
 </g>
</svg>
