<?xml version="1.0" encoding="UTF-8" ?>
<!DOCTYPE svg PUBLIC "-//W3C//DTD SVG 1.1//EN" "http://www.w3.org/Graphics/SVG/1.1/DTD/svg11.dtd">
<svg width="1649pt" height="388pt" viewBox="0 0 1649 388" version="1.1" xmlns="http://www.w3.org/2000/svg">
<g id="#ffffffff">
</g>
<g id="#221e1dff">
<path fill="#221e1d" opacity="1.00" d=" M 55.40 38.33 C 81.79 17.48 116.25 8.46 149.55 10.18 C 202.35 12.95 251.93 39.45 288.51 76.81 C 283.68 74.33 278.13 73.81 273.18 71.84 C 246.50 48.38 214.10 30.65 178.95 24.21 C 145.82 17.93 109.78 22.61 81.21 41.24 C 54.99 57.97 36.93 85.84 29.96 115.93 C 22.12 148.76 26.36 183.60 38.05 214.99 C 53.65 256.64 82.39 293.18 118.97 318.44 C 119.58 320.87 120.14 323.37 121.50 325.52 C 128.48 336.46 135.56 347.35 142.46 358.35 C 85.48 332.80 39.93 283.53 17.60 225.34 C 4.30 190.44 -0.59 151.64 7.90 114.99 C 14.75 85.18 31.06 57.17 55.40 38.33 Z" />
<path fill="#221e1d" opacity="1.00" d=" M 141.81 281.33 C 144.36 282.38 145.51 284.97 146.92 287.14 C 153.38 297.32 159.95 307.44 166.40 317.64 C 168.55 321.08 169.61 326.35 166.46 329.52 C 161.89 332.63 154.42 328.38 150.67 332.01 C 151.44 342.05 154.21 352.11 155.15 362.26 C 152.70 362.41 151.82 359.95 150.64 358.30 C 143.83 347.50 136.84 336.80 130.02 326.00 C 127.93 322.40 127.19 316.54 131.15 313.93 C 135.90 312.25 141.29 314.71 145.85 312.81 C 145.85 302.30 142.08 291.93 141.81 281.33 Z" />
<path fill="#221e1d" opacity="1.00" d=" M 1584.36 296.92 C 1586.10 293.01 1589.15 290.15 1593.75 291.44 C 1591.01 293.90 1588.53 297.43 1584.36 296.92 Z" />
<path fill="#221e1d" opacity="1.00" d=" M 984.82 299.49 C 991.65 299.51 998.48 299.44 1005.31 299.54 C 1005.27 301.13 1005.25 302.73 1005.25 304.33 C 1000.41 304.37 995.57 304.37 990.74 304.34 C 990.72 306.39 990.70 308.43 990.71 310.48 C 995.19 310.50 999.67 310.50 1004.15 310.51 C 1004.15 312.03 1004.13 313.55 1004.15 315.09 C 999.66 315.10 995.18 315.09 990.70 315.14 C 990.71 317.39 990.72 319.64 990.73 321.89 C 995.67 321.89 1000.62 321.88 1005.57 321.93 C 1005.56 323.61 1005.57 325.29 1005.60 326.98 C 998.66 326.98 991.73 327.04 984.80 326.98 C 984.79 317.81 984.75 308.65 984.82 299.49 Z" />
<path fill="#221e1d" opacity="1.00" d=" M 1010.80 299.48 C 1012.76 299.48 1014.74 299.49 1016.72 299.49 C 1016.71 306.95 1016.70 314.42 1016.72 321.89 C 1021.18 321.91 1025.65 321.89 1030.13 321.90 C 1030.13 323.58 1030.15 325.26 1030.17 326.94 C 1023.71 327.04 1017.25 327.01 1010.80 327.00 C 1010.77 317.83 1010.77 308.65 1010.80 299.48 Z" />
<path fill="#221e1d" opacity="1.00" d=" M 1035.81 299.50 C 1042.64 299.50 1049.48 299.46 1056.31 299.53 C 1056.28 301.13 1056.26 302.74 1056.25 304.34 C 1051.43 304.35 1046.62 304.38 1041.82 304.33 C 1041.75 306.37 1041.70 308.42 1041.68 310.48 C 1046.16 310.49 1050.64 310.51 1055.13 310.50 C 1055.13 312.03 1055.12 313.56 1055.14 315.09 C 1050.66 315.10 1046.18 315.11 1041.71 315.13 C 1041.71 317.38 1041.71 319.64 1041.72 321.90 C 1046.66 321.90 1051.61 321.88 1056.57 321.91 C 1056.57 323.60 1056.58 325.28 1056.61 326.97 C 1049.67 327.01 1042.73 327.02 1035.79 326.96 C 1035.79 317.81 1035.78 308.66 1035.81 299.50 Z" />
<path fill="#221e1d" opacity="1.00" d=" M 1068.80 299.80 C 1075.72 296.64 1084.90 300.62 1086.08 308.45 C 1084.25 308.48 1082.45 308.50 1080.64 308.52 C 1079.19 305.25 1075.75 302.69 1072.07 303.98 C 1063.69 306.46 1064.61 322.60 1074.00 322.68 C 1077.72 323.07 1079.80 319.51 1080.82 316.48 C 1082.67 316.49 1084.53 316.51 1086.40 316.55 C 1085.60 325.34 1075.43 330.27 1067.86 326.13 C 1057.78 321.21 1058.29 303.90 1068.80 299.80 Z" />
<path fill="#221e1d" opacity="1.00" d=" M 1089.64 299.51 C 1097.14 299.48 1104.64 299.48 1112.15 299.51 C 1112.14 301.12 1112.12 302.72 1112.14 304.34 C 1109.35 304.36 1106.57 304.35 1103.80 304.34 C 1103.61 311.90 1103.75 319.47 1103.73 327.04 C 1101.77 326.99 1099.82 326.95 1097.88 326.89 C 1097.86 319.37 1097.90 311.86 1097.89 304.34 C 1095.14 304.35 1092.39 304.35 1089.66 304.37 C 1089.64 302.74 1089.63 301.13 1089.64 299.51 Z" />
<path fill="#221e1d" opacity="1.00" d=" M 1116.81 299.48 C 1122.62 299.70 1128.50 299.01 1134.27 299.86 C 1140.68 301.32 1141.35 310.91 1135.72 313.87 C 1140.18 316.76 1139.02 322.52 1139.93 327.03 C 1138.07 327.00 1136.24 326.98 1134.41 326.95 C 1133.61 323.66 1134.38 319.65 1132.07 316.93 C 1129.24 315.44 1125.79 316.31 1122.72 316.09 C 1122.72 319.72 1122.73 323.35 1122.72 326.98 C 1120.73 326.99 1118.75 327.00 1116.79 327.01 C 1116.78 317.84 1116.78 308.66 1116.81 299.48 M 1122.72 304.02 C 1122.71 306.65 1122.71 309.27 1122.73 311.91 C 1125.45 311.89 1128.19 312.04 1130.92 311.75 C 1134.73 311.44 1134.78 304.52 1130.94 304.20 C 1128.21 303.84 1125.45 304.01 1122.72 304.02 Z" />
<path fill="#221e1d" opacity="1.00" d=" M 1165.80 299.80 C 1172.70 296.65 1181.93 300.60 1183.10 308.44 C 1181.27 308.48 1179.47 308.51 1177.67 308.54 C 1176.08 303.99 1170.05 302.04 1166.37 305.37 C 1161.50 310.10 1162.39 321.59 1170.18 322.63 C 1174.18 323.47 1176.80 319.87 1177.77 316.48 C 1179.59 316.49 1181.40 316.50 1183.25 316.53 C 1182.73 325.08 1173.05 330.00 1165.56 326.48 C 1154.85 322.03 1154.96 304.01 1165.80 299.80 Z" />
<path fill="#221e1d" opacity="1.00" d=" M 1188.81 299.48 C 1190.77 299.48 1192.75 299.48 1194.73 299.49 C 1194.70 308.65 1194.73 317.82 1194.71 326.99 C 1192.73 326.99 1190.76 327.00 1188.80 327.01 C 1188.78 317.83 1188.77 308.65 1188.81 299.48 Z" />
<path fill="#221e1d" opacity="1.00" d=" M 1310.83 299.48 C 1317.65 299.51 1324.48 299.46 1331.31 299.52 C 1331.27 301.13 1331.26 302.74 1331.26 304.35 C 1326.41 304.35 1321.57 304.36 1316.74 304.34 C 1316.72 306.39 1316.70 308.44 1316.71 310.49 C 1321.18 310.50 1325.65 310.49 1330.13 310.53 C 1330.14 312.05 1330.13 313.57 1330.17 315.11 C 1325.67 315.11 1321.18 315.07 1316.70 315.13 C 1316.70 317.38 1316.71 319.64 1316.73 321.89 C 1321.67 321.89 1326.62 321.90 1331.58 321.92 C 1331.57 323.60 1331.58 325.28 1331.60 326.97 C 1324.67 327.01 1317.74 327.01 1310.81 326.99 C 1310.79 317.82 1310.74 308.65 1310.83 299.48 Z" />
<path fill="#221e1d" opacity="1.00" d=" M 1357.82 299.48 C 1359.78 299.48 1361.76 299.50 1363.75 299.51 C 1363.70 308.68 1363.70 317.85 1363.73 327.02 C 1361.73 327.00 1359.74 326.98 1357.78 326.96 C 1357.80 317.80 1357.76 308.64 1357.82 299.48 Z" />
<path fill="#221e1d" opacity="1.00" d=" M 1370.81 299.48 C 1372.76 299.48 1374.75 299.49 1376.73 299.48 C 1376.71 306.95 1376.70 314.42 1376.72 321.89 C 1381.18 321.93 1385.64 321.90 1390.11 321.89 C 1390.11 323.57 1390.13 325.27 1390.17 326.96 C 1383.71 327.03 1377.26 327.00 1370.81 327.00 C 1370.78 317.82 1370.77 308.65 1370.81 299.48 Z" />
<path fill="#221e1d" opacity="1.00" d=" M 1394.65 299.50 C 1396.61 299.49 1398.59 299.48 1400.58 299.47 C 1400.66 305.66 1400.39 311.86 1400.68 318.05 C 1400.66 324.31 1412.20 324.38 1412.11 318.05 C 1412.35 311.86 1412.09 305.67 1412.20 299.48 C 1414.17 299.49 1416.15 299.50 1418.15 299.51 C 1417.99 306.01 1418.54 312.54 1417.83 319.01 C 1416.68 330.55 1396.09 330.57 1394.88 319.02 C 1394.35 312.53 1394.81 306.01 1394.65 299.50 Z" />
<path fill="#221e1d" opacity="1.00" d=" M 1491.52 299.49 C 1493.28 299.49 1495.05 299.48 1496.85 299.48 C 1496.87 308.66 1496.85 317.83 1496.87 327.01 C 1494.94 327.00 1493.04 327.00 1491.15 327.00 C 1487.19 320.71 1483.30 314.38 1479.37 308.09 C 1479.17 314.39 1479.28 320.69 1479.25 326.99 C 1477.41 326.98 1475.60 326.98 1473.80 326.98 C 1473.77 317.82 1473.80 308.65 1473.79 299.49 C 1475.76 299.49 1477.76 299.50 1479.76 299.51 C 1483.58 305.76 1487.35 312.04 1491.44 318.11 C 1491.57 311.90 1491.51 305.70 1491.52 299.49 Z" />
<path fill="#221e1d" opacity="1.00" d=" M 1538.11 300.09 C 1545.09 296.46 1554.86 300.30 1556.10 308.45 C 1554.28 308.48 1552.49 308.51 1550.70 308.53 C 1549.24 305.67 1546.51 303.01 1543.02 303.79 C 1533.69 305.15 1534.21 322.58 1543.99 322.68 C 1547.71 323.07 1549.78 319.52 1550.76 316.48 C 1552.62 316.50 1554.47 316.51 1556.36 316.54 C 1555.57 323.91 1548.29 329.16 1541.07 327.24 C 1528.55 325.05 1526.93 305.18 1538.11 300.09 Z" />
<path fill="#221e1d" opacity="1.00" d=" M 1583.28 299.30 C 1593.75 295.71 1603.26 307.00 1600.20 316.98 C 1598.83 325.91 1587.70 330.31 1580.20 325.80 C 1570.25 320.11 1571.76 302.16 1583.28 299.30 M 1584.24 304.24 C 1578.83 306.71 1578.39 314.38 1580.81 319.14 C 1583.50 324.38 1592.33 323.61 1593.97 317.88 C 1596.96 311.54 1592.40 300.90 1584.24 304.24 Z" />
<path fill="#221e1d" opacity="1.00" d=" M 1623.52 299.49 C 1625.29 299.49 1627.07 299.48 1628.88 299.47 C 1628.83 308.65 1628.87 317.83 1628.86 327.01 C 1626.93 327.00 1625.01 326.99 1623.11 326.99 C 1619.18 320.70 1615.34 314.36 1611.33 308.13 C 1611.21 314.41 1611.26 320.69 1611.28 326.97 C 1609.43 326.97 1607.60 326.97 1605.79 326.97 C 1605.79 317.81 1605.77 308.65 1605.79 299.49 C 1607.76 299.49 1609.75 299.50 1611.75 299.51 C 1615.59 305.72 1619.30 312.03 1623.43 318.07 C 1623.60 311.88 1623.47 305.68 1623.52 299.49 Z" />
<path fill="#221e1d" opacity="1.00" d=" M 1145.78 299.55 C 1147.71 299.50 1149.65 299.45 1151.61 299.39 C 1151.85 308.59 1151.63 317.79 1151.72 327.00 C 1149.74 326.99 1147.76 326.99 1145.81 326.99 C 1145.78 317.84 1145.80 308.70 1145.78 299.55 Z" />
<path fill="#221e1d" opacity="1.00" d=" M 1200.79 299.50 C 1207.41 300.02 1215.09 297.79 1220.79 302.17 C 1226.64 307.70 1226.54 318.30 1220.99 324.00 C 1215.36 328.65 1207.49 326.56 1200.80 326.98 C 1200.79 317.82 1200.79 308.66 1200.79 299.50 M 1206.75 304.31 C 1206.67 310.17 1206.70 316.04 1206.72 321.90 C 1209.78 321.71 1213.18 322.50 1216.02 321.00 C 1220.04 318.09 1219.81 312.05 1218.15 307.88 C 1216.05 303.62 1210.66 304.38 1206.75 304.31 Z" />
<path fill="#221e1d" opacity="1.00" d=" M 1227.95 327.01 C 1231.43 317.79 1234.81 308.53 1238.49 299.39 C 1240.44 299.44 1242.41 299.48 1244.39 299.52 C 1247.89 308.63 1251.18 317.82 1254.71 326.93 C 1252.74 326.98 1250.78 327.03 1248.84 327.09 C 1247.99 324.95 1247.20 322.80 1246.37 320.66 C 1242.90 320.69 1239.44 320.69 1235.99 320.72 C 1235.26 322.80 1234.53 324.88 1233.80 326.95 C 1231.84 326.98 1229.88 326.99 1227.95 327.01 M 1241.33 306.00 C 1239.93 309.45 1238.69 312.97 1237.51 316.50 C 1240.00 316.50 1242.51 316.49 1245.02 316.47 C 1243.87 312.95 1242.69 309.44 1241.33 306.00 Z" />
<path fill="#221e1d" opacity="1.00" d=" M 1258.79 299.50 C 1265.59 300.06 1273.74 297.60 1279.33 302.67 C 1284.82 308.68 1284.50 319.81 1277.88 324.88 C 1272.16 328.34 1265.12 326.60 1258.81 326.99 C 1258.75 317.83 1258.80 308.66 1258.79 299.50 M 1264.74 304.32 C 1264.69 310.17 1264.71 316.03 1264.72 321.89 C 1268.32 321.66 1273.01 322.94 1275.55 319.58 C 1277.86 316.22 1277.59 311.56 1276.14 307.90 C 1274.06 303.64 1268.65 304.37 1264.74 304.32 Z" />
<path fill="#221e1d" opacity="1.00" d=" M 1424.78 299.50 C 1427.57 299.49 1430.37 299.48 1433.18 299.49 C 1435.37 305.85 1437.36 312.29 1439.84 318.56 C 1441.98 312.23 1443.95 305.85 1446.03 299.50 C 1448.82 299.49 1451.61 299.49 1454.42 299.50 C 1454.37 308.68 1454.45 317.86 1454.39 327.04 C 1452.54 327.00 1450.70 326.96 1448.88 326.92 C 1448.82 320.28 1448.99 313.65 1448.77 307.01 C 1446.36 313.66 1444.12 320.36 1441.81 327.03 C 1440.29 326.99 1438.81 326.96 1437.34 326.92 C 1435.10 320.37 1432.87 313.81 1430.43 307.33 C 1430.16 313.87 1430.29 320.43 1430.27 326.98 C 1428.43 326.98 1426.61 326.98 1424.80 326.99 C 1424.79 317.83 1424.78 308.66 1424.78 299.50 Z" />
<path fill="#221e1d" opacity="1.00" d=" M 1461.79 299.49 C 1463.75 299.49 1465.75 299.50 1467.74 299.52 C 1467.69 308.68 1467.71 317.85 1467.73 327.01 C 1465.74 326.99 1463.75 326.97 1461.79 326.96 C 1461.79 317.80 1461.76 308.64 1461.79 299.49 Z" />
<path fill="#221e1d" opacity="1.00" d=" M 1500.94 327.01 C 1504.43 317.82 1507.81 308.58 1511.45 299.44 C 1513.41 299.47 1515.40 299.49 1517.41 299.51 C 1520.85 308.67 1524.25 317.85 1527.73 327.00 C 1525.66 326.98 1523.61 326.96 1521.58 326.92 C 1520.74 324.91 1520.67 322.34 1519.07 320.80 C 1515.71 320.52 1512.34 320.72 1509.00 320.72 C 1508.26 322.79 1507.54 324.87 1506.82 326.94 C 1504.84 326.97 1502.88 326.99 1500.94 327.01 M 1514.28 306.00 C 1512.90 309.46 1511.68 312.97 1510.50 316.50 C 1512.99 316.50 1515.48 316.49 1518.00 316.46 C 1516.84 312.94 1515.68 309.42 1514.28 306.00 Z" />
<path fill="#221e1d" opacity="1.00" d=" M 1561.78 299.55 C 1563.71 299.50 1565.65 299.46 1567.62 299.40 C 1567.83 308.60 1567.64 317.80 1567.72 327.00 C 1565.74 326.99 1563.75 326.99 1561.80 326.99 C 1561.77 317.84 1561.81 308.69 1561.78 299.55 Z" />
</g>
<g id="#60bb46ff">
<path fill="#60bb46" opacity="1.00" d=" M 1550.34 57.35 C 1576.90 53.99 1604.32 59.78 1628.04 71.96 C 1631.70 73.43 1633.40 77.95 1631.47 81.43 C 1627.21 89.78 1622.79 98.08 1618.18 106.24 C 1616.19 109.96 1611.26 109.75 1608.01 107.96 C 1595.60 101.88 1581.87 98.40 1568.02 98.43 C 1548.75 98.80 1529.79 109.12 1519.80 125.72 C 1504.20 151.44 1508.65 189.19 1532.74 208.28 C 1552.65 223.87 1581.46 225.14 1603.59 213.49 C 1607.72 211.15 1614.29 208.35 1617.75 213.18 C 1622.28 220.48 1626.21 228.15 1630.48 235.61 C 1633.04 239.79 1631.66 245.95 1626.99 247.98 C 1606.29 259.15 1582.47 264.61 1558.96 263.60 C 1526.31 262.29 1495.49 242.99 1479.22 214.80 C 1460.78 183.77 1459.04 143.41 1475.11 111.05 C 1489.11 82.01 1518.33 61.20 1550.34 57.35 Z" />
<path fill="#60bb46" opacity="1.00" d=" M 826.06 59.01 C 859.84 53.55 897.98 61.15 921.77 87.26 C 924.52 90.09 924.01 94.66 921.35 97.36 C 915.60 103.62 910.09 110.09 904.37 116.37 C 901.62 119.51 896.60 118.96 893.78 116.24 C 880.96 104.97 863.70 99.09 846.70 99.57 C 827.33 100.29 809.15 111.75 799.12 128.15 C 784.91 151.75 786.57 185.05 805.11 205.88 C 820.32 222.63 846.94 227.12 867.08 217.19 C 879.08 211.34 886.69 197.81 884.72 184.48 C 871.46 184.30 858.21 184.51 844.96 184.38 C 840.51 184.57 837.58 180.14 837.81 176.04 C 837.84 166.73 837.35 157.37 838.09 148.09 C 838.40 143.69 843.17 141.95 847.00 142.31 C 872.34 142.49 897.70 142.69 923.04 142.78 C 927.80 142.45 931.63 146.44 931.98 151.02 C 934.97 176.16 933.29 203.14 920.58 225.59 C 910.82 242.90 893.70 255.48 874.64 260.72 C 838.81 270.63 796.90 262.72 770.56 235.43 C 734.21 197.35 734.28 131.75 768.12 92.09 C 782.79 74.72 803.67 62.85 826.06 59.01 Z" />
<path fill="#60bb46" opacity="1.00" d=" M 450.73 63.20 C 484.47 62.50 518.24 63.10 552.00 62.88 C 572.17 63.89 593.04 63.34 612.16 70.82 C 626.65 76.04 639.98 86.46 646.11 100.86 C 651.60 114.79 651.59 130.41 649.11 145.00 C 646.45 159.16 636.00 170.24 624.49 178.13 C 638.51 189.50 648.41 206.19 650.50 224.22 C 650.76 234.13 650.65 244.07 650.55 253.99 C 650.60 257.96 646.97 261.18 643.06 260.96 C 632.70 261.23 622.31 261.12 611.94 261.01 C 608.49 261.22 604.89 259.42 603.88 255.95 C 603.00 249.15 604.20 242.25 603.30 235.46 C 600.04 223.49 593.29 212.19 583.24 204.73 C 579.74 202.12 575.49 200.35 571.07 200.41 C 555.04 200.35 538.99 200.51 522.96 200.36 C 518.98 200.58 515.63 196.95 515.76 193.07 C 515.79 182.36 515.66 171.64 515.83 160.93 C 515.76 157.16 519.13 153.86 522.91 154.05 C 541.61 153.75 560.57 155.01 579.00 151.08 C 585.41 149.58 592.18 147.76 597.02 143.03 C 603.86 136.30 604.87 123.43 596.96 117.10 C 584.08 106.79 566.80 105.61 550.98 104.69 C 533.36 104.55 515.74 104.66 498.12 104.63 C 497.92 153.77 498.16 202.93 498.00 252.07 C 498.26 256.25 495.75 261.04 491.03 260.88 C 480.01 261.29 468.94 261.19 457.92 260.92 C 453.69 261.05 450.40 257.19 450.75 253.06 C 450.70 189.77 450.74 126.49 450.73 63.20 Z" />
<path fill="#60bb46" opacity="1.00" d=" M 677.28 63.28 C 688.43 62.02 699.81 63.07 711.05 62.74 C 715.73 62.19 719.79 66.28 719.28 70.96 C 719.27 131.65 719.30 192.35 719.26 253.05 C 719.62 257.20 716.27 261.05 712.04 260.88 C 701.36 261.23 690.65 261.26 679.98 260.88 C 675.75 260.99 672.26 257.23 672.60 253.02 C 672.47 192.68 672.59 132.34 672.54 71.99 C 672.34 68.55 673.59 64.34 677.28 63.28 Z" />
<path fill="#60bb46" opacity="1.00" d=" M 1028.36 63.40 C 1052.18 61.89 1076.13 63.18 1100.01 62.70 C 1104.08 62.24 1109.61 64.11 1109.55 69.00 C 1109.78 78.66 1109.68 88.35 1109.64 98.02 C 1109.83 102.09 1105.96 105.19 1102.06 104.99 C 1081.37 105.30 1060.65 104.92 1039.95 105.17 C 1029.18 105.46 1017.59 108.92 1010.76 117.77 C 1005.41 124.97 1002.25 133.97 1002.59 143.00 C 1002.83 157.88 1002.14 172.81 1003.48 187.65 C 1005.39 197.53 1010.84 207.12 1019.56 212.49 C 1026.83 216.97 1035.54 218.49 1043.97 218.70 C 1063.66 218.84 1083.36 218.58 1103.05 218.82 C 1107.41 218.69 1110.49 222.83 1110.19 226.96 C 1110.22 235.98 1110.43 245.01 1110.08 254.02 C 1109.97 258.22 1106.12 261.22 1102.07 261.01 C 1081.38 261.21 1060.69 261.05 1040.00 261.08 C 1024.55 261.00 1008.69 257.98 995.55 249.47 C 969.58 232.98 958.48 201.43 955.89 172.08 C 952.73 142.49 958.94 110.12 979.89 87.89 C 992.30 74.09 1009.92 65.32 1028.36 63.40 Z" />
<path fill="#60bb46" opacity="1.00" d=" M 1138.27 63.34 C 1149.41 61.96 1160.80 63.09 1172.04 62.74 C 1176.43 62.23 1180.78 65.36 1180.53 70.01 C 1180.80 107.67 1180.50 145.34 1180.68 182.99 C 1181.28 192.89 1182.22 204.00 1189.50 211.51 C 1195.61 217.59 1204.78 218.48 1212.97 218.66 C 1232.33 218.86 1251.70 218.63 1271.06 218.75 C 1274.98 218.61 1278.79 221.95 1278.57 226.00 C 1278.65 235.33 1278.72 244.68 1278.55 254.01 C 1278.59 258.91 1273.38 261.49 1269.04 261.05 C 1250.68 260.99 1232.30 261.44 1213.95 260.78 C 1191.79 260.18 1167.34 256.44 1151.10 239.91 C 1138.31 226.34 1134.24 207.10 1133.97 189.00 C 1133.90 149.99 1134.00 110.97 1133.92 71.96 C 1133.76 68.64 1134.66 64.47 1138.27 63.34 Z" />
<path fill="#60bb46" opacity="1.00" d=" M 1365.36 63.41 C 1383.85 61.94 1402.46 63.11 1421.00 62.74 C 1427.94 63.01 1434.98 62.14 1441.87 63.23 C 1446.86 64.07 1447.21 69.97 1447.10 73.99 C 1446.60 82.00 1447.31 90.03 1446.94 98.03 C 1446.84 102.17 1443.12 105.24 1439.07 105.00 C 1418.71 105.26 1398.34 104.98 1377.98 105.13 C 1370.52 105.21 1362.96 106.80 1356.42 110.45 C 1347.05 115.94 1341.40 126.32 1340.16 136.92 C 1338.99 150.94 1340.35 164.98 1340.09 179.02 C 1339.43 192.63 1346.29 206.99 1358.54 213.54 C 1366.00 217.54 1374.62 218.71 1382.99 218.72 C 1401.68 218.77 1420.37 218.69 1439.05 218.75 C 1443.16 218.40 1447.42 221.62 1447.26 225.94 C 1447.18 235.63 1447.54 245.35 1447.08 255.02 C 1446.45 260.40 1440.38 261.29 1436.01 261.11 C 1413.99 260.88 1391.95 261.54 1369.95 260.72 C 1349.18 260.20 1328.73 250.59 1315.68 234.32 C 1299.36 214.07 1293.39 187.52 1292.43 162.03 C 1291.16 135.99 1298.40 108.70 1316.00 88.97 C 1328.49 74.66 1346.50 65.44 1365.36 63.41 Z" />
<path fill="#60bb46" opacity="1.00" d=" M 63.63 81.12 C 89.75 80.59 115.88 81.17 142.00 80.90 C 159.99 81.50 178.00 80.21 195.97 81.41 C 214.93 82.09 234.40 83.33 252.06 90.91 C 249.89 92.67 246.11 93.40 245.17 96.21 C 263.04 101.90 272.88 118.96 286.49 130.54 C 288.65 132.66 292.40 133.83 292.66 137.28 C 295.07 151.95 294.97 167.30 290.61 181.60 C 286.27 195.36 275.22 205.60 263.86 213.84 C 283.47 229.09 295.67 254.04 294.26 279.00 C 294.30 295.87 294.16 312.74 294.33 329.61 C 327.22 306.38 345.13 265.73 344.91 226.00 C 345.77 195.02 337.36 164.19 323.20 136.79 C 315.62 125.32 305.78 114.94 293.94 107.85 C 303.47 117.74 311.99 128.64 318.76 140.62 C 307.94 140.83 299.26 133.14 292.21 125.80 C 280.71 114.00 270.08 99.60 253.43 94.97 C 259.35 89.97 266.90 86.90 274.65 86.50 C 296.60 84.99 318.58 100.36 324.43 121.62 C 324.98 123.32 325.65 124.98 326.49 126.56 C 344.34 157.66 355.54 193.00 356.25 229.00 C 357.23 263.87 347.13 299.67 325.00 327.01 C 304.24 353.04 272.76 369.70 239.86 373.80 C 239.63 346.53 239.84 319.27 239.76 292.00 C 241.56 274.90 232.10 258.45 219.92 247.12 C 215.43 243.26 210.10 239.62 203.96 239.50 C 184.97 239.32 165.96 239.61 146.97 239.35 C 142.44 239.43 138.45 235.63 138.62 231.03 C 138.49 218.68 138.49 206.31 138.62 193.96 C 138.50 189.50 142.52 185.67 146.94 185.81 C 168.99 185.41 191.39 187.15 213.06 182.06 C 220.56 180.27 228.52 177.75 233.66 171.64 C 240.41 163.64 240.67 149.80 231.96 143.07 C 219.28 133.00 202.52 130.61 186.85 129.42 C 163.97 128.63 141.06 129.51 118.17 128.87 C 117.60 188.73 118.16 248.61 117.90 308.46 C 97.26 293.98 79.39 275.73 64.64 255.32 C 63.61 254.12 63.59 252.52 63.57 251.03 C 63.65 194.40 63.52 137.76 63.63 81.12 Z" />
<path fill="#60bb46" opacity="1.00" d=" M 1016.18 140.75 C 1037.80 140.72 1059.42 140.75 1081.05 140.74 C 1085.23 140.38 1089.25 143.62 1089.15 147.96 C 1089.31 157.31 1089.49 166.70 1089.05 176.05 C 1089.09 180.83 1084.35 183.40 1080.06 183.07 C 1058.75 183.01 1037.44 182.88 1016.14 183.11 C 1015.85 168.99 1015.80 154.86 1016.18 140.75 Z" />
<path fill="#60bb46" opacity="1.00" d=" M 1353.39 140.76 C 1375.28 140.72 1397.17 140.70 1419.06 140.78 C 1422.94 140.58 1426.39 144.06 1426.19 147.94 C 1426.29 157.31 1426.33 166.70 1426.19 176.07 C 1426.19 179.91 1422.89 183.14 1419.02 182.84 C 1397.15 183.06 1375.27 183.03 1353.40 182.94 C 1353.34 168.88 1353.35 154.82 1353.39 140.76 Z" />
<path fill="#60bb46" opacity="1.00" d=" M 490.01 299.61 C 641.01 299.78 792.01 299.11 943.01 299.46 C 935.36 310.62 922.55 318.08 909.04 319.04 C 756.29 318.88 603.50 319.58 450.73 319.16 C 459.20 306.34 474.64 298.49 490.01 299.61 Z" />
</g>
</svg>
