<?xml version="1.0" encoding="UTF-8" ?>
<!DOCTYPE svg PUBLIC "-//W3C//DTD SVG 1.1//EN" "http://www.w3.org/Graphics/SVG/1.1/DTD/svg11.dtd">
<svg width="1643pt" height="538pt" viewBox="0 0 1643 538" version="1.1" xmlns="http://www.w3.org/2000/svg">
<g id="#ffffffff">
</g>
<g id="#000000ff">
<path fill="#000000" opacity="1.00" d=" M 5.69 7.87 C 41.67 7.65 77.62 8.35 113.59 8.56 C 155.99 9.04 198.42 8.48 240.80 9.64 C 270.95 12.28 301.44 18.30 328.41 32.55 C 342.66 40.22 355.86 50.25 365.92 63.01 C 382.73 83.76 391.11 110.55 391.88 137.03 C 391.75 157.16 390.05 177.91 381.53 196.45 C 374.28 212.88 360.35 226.12 343.63 232.64 C 318.99 242.64 291.84 241.67 265.76 241.00 C 313.52 305.23 361.49 369.31 409.27 433.53 C 359.59 433.52 309.91 433.16 260.23 433.14 C 224.02 363.28 180.54 297.49 144.12 227.74 C 143.67 227.61 142.75 227.35 142.30 227.22 C 141.84 295.88 143.37 364.51 143.30 433.17 C 97.53 433.31 51.79 434.18 6.01 434.14 C 5.86 292.05 5.65 149.96 5.69 7.87 M 144.12 203.01 C 144.21 205.02 143.80 207.24 144.97 209.04 C 155.31 227.39 165.51 245.82 175.92 264.14 C 177.47 245.50 177.40 226.71 178.70 208.04 C 199.77 229.04 220.25 250.64 241.42 271.55 C 233.39 244.57 224.93 217.72 216.67 190.81 C 252.24 186.80 287.88 183.26 323.47 179.44 C 296.39 169.50 268.74 160.86 241.38 151.62 C 266.56 126.33 292.09 101.36 317.25 76.07 C 281.90 88.26 246.68 100.86 211.36 113.16 C 222.17 84.60 233.65 56.28 244.26 27.65 C 217.16 49.92 190.39 72.60 163.37 94.97 C 157.19 66.88 150.83 38.83 144.39 10.81 C 143.81 74.86 144.34 138.94 144.12 203.01 Z" />
</g>
<g id="#009a3cff">
<path fill="#009a3c" opacity="1.00" d=" M 378.66 33.70 C 515.44 33.59 652.22 33.32 789.00 33.43 C 796.67 33.22 804.33 32.70 812.01 32.92 C 1019.00 32.96 1226.00 32.66 1433.00 32.57 C 1441.16 31.84 1447.63 38.78 1450.05 45.97 C 1454.72 58.36 1451.21 77.04 1436.99 81.18 C 1352.35 82.02 1267.64 81.07 1183.00 82.04 C 1016.33 82.06 849.67 82.56 683.00 82.58 C 676.65 82.29 670.34 83.17 664.00 83.10 C 578.31 82.98 492.61 83.25 406.92 83.28 C 401.05 64.97 389.61 49.25 378.66 33.70 Z" />
<path fill="#009a3c" opacity="1.00" d=" M 682.00 121.95 C 947.34 121.89 1212.66 120.81 1478.00 120.39 C 1488.35 120.35 1498.76 120.19 1509.00 122.00 C 1553.58 128.55 1593.25 157.63 1615.65 196.34 C 1648.05 250.52 1645.98 323.11 1610.29 375.23 C 1582.83 417.14 1533.59 444.87 1483.03 442.48 C 1358.34 442.24 1233.69 441.14 1109.00 441.08 C 1047.03 440.10 985.01 440.49 923.02 440.10 C 768.39 439.31 613.77 438.66 459.13 437.95 C 419.62 384.49 379.41 331.55 340.03 278.00 C 367.68 270.55 392.10 251.42 404.33 225.33 C 419.95 193.67 421.73 157.47 420.64 122.81 C 507.75 122.27 594.90 122.90 682.00 121.95 M 1029.41 144.39 C 1029.32 215.39 1029.74 286.38 1029.63 357.37 C 1052.70 357.45 1075.76 357.44 1098.82 357.38 C 1098.62 286.39 1098.97 215.39 1098.59 144.39 C 1075.53 144.35 1052.47 144.35 1029.41 144.39 M 483.72 145.18 C 483.51 159.39 483.58 173.61 483.66 187.83 C 506.68 187.39 529.71 187.77 552.73 187.61 C 552.80 173.49 552.77 159.36 552.74 145.24 C 529.73 145.19 506.73 145.30 483.72 145.18 M 888.97 205.08 C 871.04 207.80 852.71 212.84 838.23 224.24 C 821.38 238.11 813.93 260.68 814.20 282.00 C 813.81 296.71 816.20 311.82 823.13 324.94 C 831.27 340.38 847.73 349.24 863.89 354.06 C 898.07 363.59 935.01 361.87 968.91 351.95 C 988.33 346.49 1007.97 331.38 1008.57 309.60 C 988.24 308.97 967.90 309.77 947.56 309.57 C 946.17 315.58 943.06 321.37 937.86 324.90 C 922.92 328.25 904.87 331.95 891.93 321.12 C 882.68 315.39 883.12 303.17 882.99 293.63 C 924.79 293.47 966.61 293.98 1008.40 293.24 C 1008.81 268.36 1003.70 240.28 983.43 223.65 C 956.97 203.02 921.06 200.70 888.97 205.08 M 1167.62 214.61 C 1156.44 219.59 1146.46 227.50 1140.01 237.99 C 1128.29 256.60 1126.36 279.79 1129.69 301.10 C 1131.98 315.45 1137.84 330.17 1149.63 339.32 C 1166.88 353.13 1189.43 357.60 1210.93 359.48 C 1238.11 360.79 1266.06 358.53 1291.57 348.45 C 1307.66 341.98 1322.34 327.58 1322.71 309.29 C 1302.34 309.18 1281.98 309.24 1261.62 309.26 C 1260.45 315.39 1257.04 321.33 1251.64 324.65 C 1236.76 327.77 1218.99 331.53 1206.12 320.85 C 1196.85 314.98 1197.29 302.79 1197.41 293.16 C 1239.11 292.59 1280.85 293.10 1322.56 292.90 C 1322.94 270.61 1318.95 246.49 1303.74 229.24 C 1288.67 213.17 1266.51 205.91 1245.09 203.62 C 1218.94 201.75 1191.81 203.79 1167.62 214.61 M 1363.26 223.27 C 1331.25 248.47 1326.98 300.08 1352.82 331.14 C 1359.81 340.82 1370.70 346.38 1381.71 350.24 C 1407.64 359.31 1435.65 361.24 1462.87 358.56 C 1484.69 356.56 1507.47 351.97 1525.07 338.09 C 1537.32 327.88 1541.50 311.09 1540.79 295.72 C 1520.45 295.48 1500.09 295.62 1479.75 295.65 C 1479.53 306.53 1473.70 317.64 1464.15 323.10 C 1448.86 330.52 1429.75 328.74 1415.73 319.28 C 1408.35 314.11 1406.74 304.41 1405.63 296.09 C 1403.46 278.63 1406.51 259.66 1417.43 245.45 C 1427.47 234.29 1445.47 231.29 1458.77 238.09 C 1469.83 243.19 1478.66 254.07 1479.82 266.37 C 1500.17 266.38 1520.53 266.48 1540.88 266.31 C 1540.09 243.85 1523.87 224.51 1504.58 214.43 C 1484.02 204.31 1460.57 202.41 1437.99 202.56 C 1412.03 203.52 1385.16 208.58 1363.26 223.27 M 601.14 227.15 C 584.45 244.64 577.47 270.15 580.40 293.89 C 582.27 308.13 588.19 322.27 598.91 332.11 C 610.52 343.85 626.84 349.65 642.92 351.79 C 658.20 354.02 673.56 350.87 688.39 347.35 C 699.99 344.58 709.28 336.66 718.06 329.03 C 718.41 342.35 719.37 356.18 714.98 368.98 C 712.79 375.70 706.86 380.47 700.11 382.13 C 686.43 385.74 670.96 385.72 658.40 378.56 C 655.18 375.36 654.94 370.38 654.28 366.13 C 631.25 365.99 608.22 365.93 585.20 366.15 C 583.53 383.93 595.52 401.04 612.12 406.88 C 634.18 414.54 657.78 416.63 681.01 416.39 C 707.88 415.48 735.46 411.37 759.40 398.44 C 778.43 387.16 787.45 364.40 787.43 343.00 C 787.19 298.20 787.90 253.38 786.96 208.60 C 764.19 208.46 741.42 208.73 718.66 208.46 C 717.05 215.45 714.71 222.36 715.29 229.64 C 703.55 219.44 691.01 208.45 675.15 205.77 C 649.18 199.57 618.99 206.52 601.14 227.15 M 483.59 208.94 C 484.64 258.58 483.71 308.27 484.07 357.92 C 507.01 358.08 529.94 357.62 552.89 357.76 C 553.05 308.19 552.66 258.63 552.76 209.05 C 529.71 209.11 506.65 209.10 483.59 208.94 Z" />
<path fill="#009a3c" opacity="1.00" d=" M 891.36 240.37 C 907.15 232.76 928.53 232.50 941.94 245.06 C 945.83 249.52 947.07 255.82 947.00 261.60 C 925.67 261.60 904.35 261.63 883.02 261.58 C 883.32 253.92 885.38 245.59 891.36 240.37 Z" />
<path fill="#009a3c" opacity="1.00" d=" M 1205.74 239.77 C 1220.83 232.85 1240.57 232.07 1254.05 242.93 C 1259.70 247.07 1261.19 254.60 1261.30 261.20 C 1240.00 261.17 1218.69 261.52 1197.39 261.38 C 1197.39 253.61 1199.59 244.94 1205.74 239.77 Z" />
<path fill="#009a3c" opacity="1.00" d=" M 679.32 241.32 C 691.59 239.23 705.81 244.61 712.88 255.04 C 720.89 273.25 720.70 296.74 707.59 312.59 C 695.96 323.27 677.00 322.65 663.83 315.11 C 657.69 311.96 652.97 306.38 651.19 299.68 C 646.73 285.51 648.56 269.64 655.62 256.63 C 660.38 247.98 669.99 243.27 679.32 241.32 Z" />
<path fill="#009a3c" opacity="1.00" d=" M 1528.38 480.49 C 1556.60 480.27 1584.83 480.42 1613.05 480.42 C 1625.97 480.37 1638.33 491.77 1637.65 505.02 C 1637.98 518.48 1625.14 529.74 1612.00 529.26 C 1472.00 529.41 1332.00 529.62 1192.00 529.60 C 1115.69 530.64 1039.33 529.59 963.00 530.22 C 766.67 530.14 570.34 530.62 374.00 530.60 C 370.00 530.75 366.01 531.18 362.00 531.10 C 250.00 530.94 138.01 531.31 26.01 531.23 C 15.49 531.16 4.99 524.21 1.99 513.91 C -3.71 499.60 9.12 483.02 24.00 482.48 C 60.66 482.08 97.35 482.91 134.00 481.96 C 394.00 481.98 654.00 481.45 914.01 481.43 C 920.01 481.59 926.00 481.26 932.00 480.93 C 1130.79 480.92 1329.58 480.65 1528.38 480.49 Z" />
</g>
</svg>
